<?xml version="1.0" encoding="UTF-8"?>
<svg version="1.1" xmlns="http://www.w3.org/2000/svg" width="512" height="512">
<path d="M0 0 C1.13523102 -0.00997513 2.27046204 -0.01995026 3.44009399 -0.03022766 C4.67137024 -0.03089233 5.90264648 -0.03155701 7.17123413 -0.03224182 C8.47932037 -0.04056534 9.78740662 -0.04888885 11.13513184 -0.0574646 C14.71398921 -0.07934906 18.29276116 -0.08820086 21.87167788 -0.09329104 C24.11275895 -0.09694326 26.35381797 -0.10318793 28.59489059 -0.11029243 C36.42829106 -0.13477059 44.26162551 -0.14783428 52.09506226 -0.15138245 C59.37168982 -0.1550115 66.647894 -0.18486547 73.92439234 -0.22678703 C80.19048093 -0.26160847 86.45643007 -0.27693296 92.72261465 -0.27762848 C96.45662774 -0.27841759 100.19020961 -0.28698488 103.92412186 -0.31562614 C108.0979363 -0.34692643 112.27075825 -0.3376909 116.44467163 -0.32521057 C117.66380249 -0.34004486 118.88293335 -0.35487915 120.13900757 -0.37016296 C130.64288119 -0.2811502 139.28863226 2.28141626 147.13363647 9.46165466 C157.24164568 20.54017925 158.536674 32.80130983 158.19613647 47.27415466 C165.45613647 47.27415466 172.71613647 47.27415466 180.19613647 47.27415466 C180.52613647 45.29415466 180.85613647 43.31415466 181.19613647 41.27415466 C183.57357599 36.9438184 185.69333202 34.36082014 190.19613647 32.27415466 C198.43227134 30.30134514 207.59377771 30.15239389 215.19613647 34.27415466 C218.1552442 36.86514373 219.94186051 39.51132677 221.19613647 43.27415466 C221.30326026 44.93939924 221.35480593 46.60849844 221.37313843 48.27708435 C221.38597366 49.29534302 221.3988089 50.31360168 221.41203308 51.36271667 C221.42311348 53.0127066 221.42311348 53.0127066 221.43441772 54.69602966 C221.44248947 55.82937744 221.45056122 56.96272522 221.45887756 58.13041687 C221.47271549 60.5311785 221.48343894 62.93195978 221.49130249 65.33274841 C221.50850375 68.99589038 221.55239277 72.65812719 221.5965271 76.32102966 C221.60665519 78.65435636 221.61517092 80.98769073 221.62191772 83.32102966 C221.63942581 84.41292603 221.6569339 85.50482239 221.67497253 86.62980652 C221.65663965 93.08967132 221.05784025 97.0287656 217.19613647 102.27415466 C212.19122325 106.86199179 207.65302832 106.88809981 201.19613647 106.77415466 C199.88129272 106.79735779 199.88129272 106.79735779 198.53988647 106.82102966 C192.92665452 106.78721501 189.62986958 106.02048729 185.19613647 102.27415466 C180.43621391 96.99964588 180.05244513 92.99164431 180.09848022 86.10618591 C180.10060265 84.91396675 180.10060265 84.91396675 180.10276794 83.69766235 C180.1083627 81.16062141 180.1209142 78.62366891 180.13363647 76.08665466 C180.13865215 74.36595281 180.14321494 72.64524958 180.14730835 70.92454529 C180.15747926 66.70768697 180.17705564 62.49101976 180.19613647 58.27415466 C172.93613647 58.27415466 165.67613647 58.27415466 158.19613647 58.27415466 C158.19613647 83.35415466 158.19613647 108.43415466 158.19613647 134.27415466 C160.50613647 134.60415466 162.81613647 134.93415466 165.19613647 135.27415466 C167.85629272 136.58665466 167.85629272 136.58665466 170.25863647 138.27415466 C171.05398804 138.81040466 171.8493396 139.34665466 172.66879272 139.89915466 C180.20274565 146.97897442 183.90235029 156.73716106 188.00863647 166.02415466 C188.9846736 168.20678666 189.96364684 170.38808736 190.94270325 172.56936646 C191.62720038 174.09491823 192.31074998 175.62089547 192.99339294 177.14727783 C195.54162626 182.83998011 198.13133312 188.51264526 200.74301147 194.17649841 C201.12072189 194.99576813 201.49843231 195.81503784 201.8875885 196.65913391 C203.36842543 199.86921313 204.85034588 203.0787878 206.33422852 206.28746033 C210.77271709 215.88925179 215.09019384 225.52484461 219.19613647 235.27415466 C221.11426147 235.42110779 221.11426147 235.42110779 223.07113647 235.57102966 C224.77954492 235.72121942 226.4878744 235.87230915 228.19613647 236.02415466 C229.03531616 236.08602966 229.87449585 236.14790466 230.73910522 236.21165466 C238.35404207 236.92002088 244.91747022 239.028718 250.00863647 245.02415466 C250.55133179 245.63774841 251.0940271 246.25134216 251.65316772 246.88352966 C256.31679498 254.10920024 256.61997365 260.73845497 256.53671265 269.10618591 C256.53715073 270.26802902 256.53758881 271.42987213 256.53804016 272.62692261 C256.53595896 276.44700737 256.51265866 280.26664706 256.48910522 284.08665466 C256.48350689 286.74323774 256.47909025 289.39979653 256.47624207 292.05638123 C256.46694439 298.32127539 256.44236181 304.58601116 256.4121936 310.8508358 C256.37857828 317.98750157 256.36214572 325.12417518 256.34710729 332.2609005 C256.31580997 346.93206665 256.26309418 361.60310844 256.19613647 376.27415466 C257.11838013 376.2532074 258.04062378 376.23226013 258.99081421 376.2106781 C262.45185579 376.14201785 265.91216123 376.09212238 269.37362671 376.0544281 C270.86430366 376.03446008 272.35490378 376.00727546 273.8453064 375.97239685 C283.63741339 375.74917752 291.954863 375.80106784 299.75473022 382.45774841 C300.37476929 383.20153748 300.99480835 383.94532654 301.63363647 384.71165466 C302.27172241 385.4528656 302.90980835 386.19407654 303.56723022 386.95774841 C309.32218228 395.14164905 308.33891882 405.66638013 308.18051147 415.24681091 C308.1640155 416.36929733 308.14751953 417.49178375 308.13052368 418.64828491 C308.09321475 421.00905978 308.0526944 423.36978587 308.00912476 425.73045349 C307.94627105 429.32894975 307.90486959 432.92730221 307.86410522 436.52610779 C307.82505966 438.82886491 307.78473814 441.13160082 307.74301147 443.43431091 C307.7334845 444.50222366 307.72395752 445.57013641 307.71414185 446.67041016 C307.53089039 454.72124934 306.39731396 461.64894658 300.78598022 467.89134216 C295.194514 472.75468134 288.89211859 475.40793483 281.51937866 475.38768005 C280.13839996 475.38756676 280.13839996 475.38756676 278.72952271 475.38745117 C277.743974 475.38228989 276.75842529 475.3771286 275.74301147 475.37181091 C274.7276532 475.37039597 273.71229492 475.36898102 272.66616821 475.36752319 C269.42612755 475.36192982 266.18615622 475.34937851 262.94613647 475.33665466 C260.74822081 475.33163881 258.55030405 475.32707605 256.35238647 475.32298279 C250.96694619 475.31196257 245.58154629 475.295231 240.19613647 475.27415466 C240.2193396 476.50754578 240.24254272 477.74093689 240.26644897 479.01170349 C240.2852159 480.64735822 240.30341511 482.28301953 240.32113647 483.91868591 C240.33789429 484.72954651 240.3546521 485.5404071 240.37191772 486.37583923 C240.43556687 494.21462975 238.65744612 499.55464248 233.25863647 505.35618591 C227.28854792 510.90791599 222.41406168 512.5782221 214.2598114 512.52139282 C213.06719007 512.52501763 213.06719007 512.52501763 211.85047537 512.52871567 C209.18346692 512.53435787 206.51669864 512.52569076 203.84970093 512.51707458 C201.93045806 512.51811652 200.0112155 512.52002232 198.09197426 512.52272415 C192.84887901 512.52751149 187.60586736 512.51974006 182.36278224 512.50972247 C176.79922309 512.50113459 171.23566797 512.50377312 165.67210388 512.50488281 C153.74366931 512.50502012 141.81528283 512.49014723 129.88686371 512.47219849 C122.53913056 512.46127218 115.1913966 512.45396478 107.84365845 512.44737244 C78.34140775 512.42008878 48.83926404 512.36891405 19.33709097 512.29622257 C12.73291872 512.27999816 6.12874528 512.26535431 -0.47543335 512.2519989 C-16.6270191 512.21869543 -32.77818668 512.16866076 -48.92950439 512.06361389 C-53.2346668 512.03572953 -57.53973576 512.01614395 -61.8449707 512.00398254 C-66.72328923 511.98939972 -71.60107773 511.95609041 -76.4791584 511.90603447 C-78.17547818 511.89142898 -79.87186823 511.88311732 -81.56825066 511.88221931 C-92.15982772 511.87116069 -101.37574497 511.35730168 -109.67886353 504.14915466 C-115.83063189 497.22659735 -117.05565687 490.4137647 -116.90151978 481.42259216 C-116.89094543 480.24442932 -116.89094543 480.24442932 -116.88015747 479.04246521 C-116.86187941 477.11961372 -116.83385995 475.19685904 -116.80386353 473.27415466 C-118.11991577 473.28986511 -119.43596802 473.30557556 -120.79190063 473.32176208 C-125.70638838 473.37634196 -130.62084969 473.41060643 -135.53555298 473.43894958 C-137.65669267 473.45397251 -139.77780163 473.47439677 -141.89883423 473.50047302 C-144.95970272 473.53714305 -148.02015806 473.55394642 -151.08120728 473.56712341 C-152.48801003 473.5903492 -152.48801003 473.5903492 -153.92323303 473.61404419 C-162.36746382 473.61616959 -169.92215055 472.06331057 -176.23355103 466.13352966 C-184.31900845 456.55970445 -183.98586704 445.25800962 -183.85855103 433.37181091 C-183.8467984 432.25406784 -183.83504578 431.13632477 -183.82293701 429.98471069 C-183.794346 427.63233526 -183.76221148 425.28000049 -183.72671509 422.92771912 C-183.69483949 420.53558531 -183.6736633 418.14328476 -183.66323853 415.7509613 C-183.64792893 412.2697027 -183.60048055 408.79015283 -183.54605103 405.30931091 C-183.54684662 404.25172073 -183.54764221 403.19413055 -183.54846191 402.10449219 C-183.36028363 393.78383848 -181.1360738 387.28051153 -175.77651978 380.83665466 C-175.14616821 380.32102966 -174.51581665 379.80540466 -173.86636353 379.27415466 C-172.92470337 378.46977966 -172.92470337 378.46977966 -171.96401978 377.64915466 C-166.91472228 374.43513528 -162.10175492 374.03177153 -156.21792603 374.07884216 C-155.1652504 374.08308701 -155.1652504 374.08308701 -154.09130859 374.0874176 C-151.87031324 374.09852954 -149.64973507 374.12361633 -147.42886353 374.14915466 C-145.91454647 374.15919612 -144.40022304 374.16831993 -142.88589478 374.17649841 C-139.19175094 374.19843912 -135.49784802 374.23290591 -131.80386353 374.27415466 C-131.80847249 373.67523218 -131.81308146 373.0763097 -131.81783009 372.45923805 C-131.92849768 357.85172673 -132.01111131 343.24424026 -132.06292439 328.63640785 C-132.08865022 321.571981 -132.12369196 314.50783487 -132.18106079 307.44358826 C-132.23642828 300.62249987 -132.26531015 293.80170292 -132.27824974 286.9804039 C-132.28746769 284.38174737 -132.30546821 281.78310626 -132.33251381 279.18457413 C-132.36896297 275.53651603 -132.37380194 271.88965155 -132.37149048 268.24143982 C-132.38946686 267.17400543 -132.40744324 266.10657104 -132.42596436 265.00679016 C-132.36921887 256.69625825 -130.14823257 250.22659081 -124.74136353 243.83665466 C-115.31719602 236.23651958 -106.64645914 236.09914093 -94.80386353 236.27415466 C-94.53847778 235.42877136 -94.27309204 234.58338806 -93.99966431 233.71238708 C-92.75204124 230.12515236 -91.26539909 226.703822 -89.67105103 223.26243591 C-89.36212921 222.58890076 -89.0532074 221.9153656 -88.73492432 221.22142029 C-87.71916532 219.00847288 -86.69908057 216.79754991 -85.67886353 214.58665466 C-84.96437627 213.03299777 -84.25018843 211.47920314 -83.5362854 209.92527771 C-82.42447859 207.50536738 -81.31242394 205.08557418 -80.19918823 202.6663208 C-77.60724305 197.03188319 -75.0327841 191.38971806 -72.46792603 185.74290466 C-71.41713871 183.43248902 -70.36615778 181.12216152 -69.31515503 178.81184387 C-68.65354218 177.356068 -67.99282071 175.8998866 -67.33309937 174.44325256 C-63.85029584 166.75616437 -60.29836295 159.10490232 -56.58901978 151.52415466 C-56.27046021 150.86003067 -55.95190063 150.19590668 -55.62368774 149.51165771 C-52.2460375 142.69754325 -47.86304973 138.55976626 -41.05386353 135.33665466 C-37.80386353 134.27415466 -37.80386353 134.27415466 -33.80386353 134.27415466 C-33.80386353 109.19415466 -33.80386353 84.11415466 -33.80386353 58.27415466 C-41.06386353 58.27415466 -48.32386353 58.27415466 -55.80386353 58.27415466 C-55.76905884 60.71950623 -55.73425415 63.16485779 -55.69839478 65.68431091 C-55.6749528 68.0706109 -55.65676274 70.45689773 -55.6390686 72.84324646 C-55.62404547 74.4930451 -55.60362093 76.14280424 -55.57754517 77.79246521 C-55.54087454 80.17318003 -55.5240725 82.55336374 -55.51089478 84.93431091 C-55.49541092 85.66376419 -55.47992706 86.39321747 -55.463974 87.14477539 C-55.46215038 92.77994711 -56.4895528 97.64773588 -60.33901978 102.01634216 C-66.15757578 106.33189521 -69.47104716 106.51141228 -76.55386353 106.58665466 C-77.89577759 106.63016052 -77.89577759 106.63016052 -79.26480103 106.67454529 C-84.95657665 106.72911246 -88.40523682 106.24477128 -92.80386353 102.27415466 C-97.77449156 96.7069829 -97.38682319 91.31211544 -97.33511353 84.08665466 C-97.34085388 82.32285461 -97.34085388 82.32285461 -97.34671021 80.52342224 C-97.34942704 78.04221234 -97.34208202 75.56097368 -97.3253479 73.07981873 C-97.30393703 69.28717547 -97.32515949 65.49642666 -97.35073853 61.70384216 C-97.34809521 59.28977549 -97.34297016 56.87571 -97.33511353 54.46165466 C-97.34321045 53.33026062 -97.35130737 52.19886658 -97.35964966 51.03318787 C-97.28577656 44.81510298 -97.03758569 40.9654726 -92.80386353 36.27415466 C-86.00540225 30.92217451 -79.19845531 30.64927634 -70.80386353 31.27415466 C-65.07005407 32.34433485 -61.68193303 34.87989903 -57.93276978 39.26243591 C-56.80386353 41.27415466 -56.80386353 41.27415466 -55.80386353 47.27415466 C-48.54386353 47.27415466 -41.28386353 47.27415466 -33.80386353 47.27415466 C-33.84511353 44.98477966 -33.88636353 42.69540466 -33.92886353 40.33665466 C-33.97601503 28.48888346 -31.2939233 20.8168132 -24.61636353 11.08665466 C-17.95251188 4.42280301 -9.51308698 0.04506105 0 0 Z M-15.67886353 18.58665466 C-16.2125354 19.11903748 -16.74620728 19.65142029 -17.29605103 20.19993591 C-21.85778026 26.47526811 -22.22999761 32.09277509 -22.1444397 39.6157074 C-22.1448013 40.64741845 -22.14516291 41.67912951 -22.14553547 42.74210453 C-22.14330576 46.06418686 -22.12050312 49.38575703 -22.09683228 52.70774841 C-22.09241851 54.76572934 -22.08935977 56.82371364 -22.087677 58.88169861 C-22.07198212 66.4917355 -22.0300983 74.10170017 -21.99136353 81.71165466 C-21.92948853 98.72727966 -21.86761353 115.74290466 -21.80386353 133.27415466 C33.63613647 133.27415466 89.07613647 133.27415466 146.19613647 133.27415466 C146.35082397 108.09102966 146.35082397 108.09102966 146.50863647 82.39915466 C146.55415649 77.11287048 146.59967651 71.8265863 146.64657593 66.38011169 C146.66330588 61.61020708 146.66330588 61.61020708 146.6733551 56.84028625 C146.68099509 54.72817202 146.69850165 52.61607857 146.72401428 50.50410461 C146.76086836 47.2905178 146.76565829 44.07825465 146.76376343 40.86448669 C146.78175397 39.93552645 146.79974451 39.0065662 146.81828022 38.04945564 C146.75934739 30.53155494 144.58411364 23.98234042 139.44054127 18.35263252 C131.93344708 11.32499581 124.49749769 10.83226521 114.61068726 10.87010193 C113.35615753 10.86323868 112.10162781 10.85637543 110.80908203 10.8493042 C107.38319723 10.83418061 103.95785849 10.83253082 100.53198099 10.83824658 C97.66439071 10.841347 94.79684918 10.8352364 91.92926586 10.82920784 C85.15961993 10.81518168 78.39010024 10.81670739 71.62045288 10.82810974 C64.65449996 10.83958403 57.68893236 10.82552283 50.72303021 10.79871327 C44.72616762 10.77650394 38.72942552 10.76993077 32.73252475 10.77578968 C29.15799598 10.77914863 25.58371402 10.77681577 22.00922012 10.75953865 C18.01935974 10.74109411 14.03024102 10.75531007 10.04037476 10.77244568 C8.28201294 10.75794373 8.28201294 10.75794373 6.48812866 10.7431488 C-1.93122667 10.81868699 -9.61979839 12.2713604 -15.67886353 18.58665466 Z M-83.80386353 43.27415466 C-85.90497352 46.42581966 -86.05782907 47.19020704 -86.07852173 50.78977966 C-86.08805374 51.70082458 -86.09758575 52.61186951 -86.10740662 53.55052185 C-86.10649521 54.53182068 -86.1055838 55.51311951 -86.10464478 56.52415466 C-86.1089299 57.53381287 -86.11321503 58.54347107 -86.11763 59.58372498 C-86.12337402 61.71880849 -86.12387304 63.85391157 -86.11953735 65.98899841 C-86.11637578 69.26147186 -86.13984168 72.53304292 -86.16519165 75.80540466 C-86.16746441 77.87832019 -86.16816825 79.95123815 -86.16714478 82.02415466 C-86.17635452 83.00545349 -86.18556427 83.98675232 -86.1950531 84.99778748 C-86.18882431 85.9088324 -86.18259552 86.81987732 -86.17617798 87.75852966 C-86.1768074 88.56000427 -86.17743683 89.36147888 -86.17808533 90.1872406 C-85.70735129 92.81237222 -84.92029566 93.6900916 -82.80386353 95.27415466 C-79.71244871 95.82665355 -79.71244871 95.82665355 -76.30386353 95.77415466 C-75.15917603 95.80509216 -74.01448853 95.83602966 -72.83511353 95.86790466 C-69.72379821 95.58219296 -69.72379821 95.58219296 -68.13931274 93.34666443 C-66.26420174 89.03253792 -66.37408387 85.17674086 -66.40542603 80.52024841 C-66.40255585 79.58237991 -66.39968567 78.64451141 -66.39672852 77.67822266 C-66.39469156 75.70050959 -66.40019563 73.7227762 -66.41275024 71.74510193 C-66.42882705 68.71852128 -66.4128797 65.69327237 -66.39370728 62.66673279 C-66.39568942 60.74290172 -66.3995325 58.81907148 -66.40542603 56.89524841 C-66.39935333 55.99100632 -66.39328064 55.08676422 -66.38702393 54.15512085 C-66.43724551 49.24528425 -66.43724551 49.24528425 -68.1234436 44.70384216 C-70.84386658 42.38932859 -73.38370022 42.78263196 -76.86636353 42.83665466 C-78.11546509 42.83794373 -79.36456665 42.83923279 -80.65151978 42.84056091 C-81.69179321 42.98364685 -82.73206665 43.12673279 -83.80386353 43.27415466 Z M192.53158569 44.68797302 C190.4465537 48.72576899 190.76842576 52.66972159 190.79769897 57.14915466 C190.7948288 58.11063416 190.79195862 59.07211365 190.78900146 60.06272888 C190.78696196 62.0934966 190.79248385 64.12428401 190.80502319 66.15501404 C190.82107825 69.26288289 190.80517043 72.36945125 190.78598022 75.47727966 C190.78796268 77.45124087 190.79180639 79.42520126 190.79769897 81.39915466 C190.79162628 82.32840759 190.78555359 83.25766052 190.77929688 84.21507263 C190.81813191 89.22733614 190.81813191 89.22733614 192.53158569 93.8603363 C195.12824067 96.06585537 197.35895811 95.76802592 200.69613647 95.71165466 C201.84082397 95.7103656 202.98551147 95.70907654 204.16488647 95.70774841 C207.5213733 95.22763238 208.2024114 94.89568502 210.19613647 92.27415466 C210.64872424 90.14259871 210.64872424 90.14259871 210.58432007 87.75852966 C210.59377655 86.84748474 210.60323303 85.93643982 210.61297607 84.99778748 C210.60690338 84.01648865 210.60083069 83.03518982 210.59457397 82.02415466 C210.59744415 81.01449646 210.60031433 80.00483826 210.60327148 78.96458435 C210.60531336 76.8294875 210.59977493 74.694372 210.58724976 72.55931091 C210.57119826 69.28675095 210.58709472 66.0154261 210.60629272 62.74290466 C210.60431032 60.66998526 210.60046669 58.59706663 210.59457397 56.52415466 C210.60064667 55.54285583 210.60671936 54.56155701 210.61297607 53.55052185 C210.60351959 52.63947693 210.59406311 51.72843201 210.58432007 50.78977966 C210.58193329 49.98830505 210.57954651 49.18683044 210.5770874 48.36106873 C210.09856754 45.73965543 209.31209451 44.8560141 207.19613647 43.27415466 C204.10293664 42.75927311 204.10293664 42.75927311 200.69613647 42.83665466 C199.55144897 42.81731873 198.40676147 42.79798279 197.22738647 42.77806091 C194.2271053 43.00153574 194.2271053 43.00153574 192.53158569 44.68797302 Z M-43.51332092 151.34033203 C-45.19829009 153.89199103 -46.48850426 156.51194195 -47.80386353 159.27415466 C-48.11909973 159.92394287 -48.43433594 160.57373108 -48.75912476 161.24320984 C-51.50026381 166.90447814 -54.12544337 172.61672751 -56.74136353 178.33665466 C-57.57673442 180.15275845 -58.41251402 181.96867429 -59.24868774 183.78440857 C-61.36535365 188.38552444 -63.47431901 192.99011726 -65.57980347 197.59635925 C-66.76335704 200.1855413 -67.9482399 202.774111 -69.13345337 205.36253357 C-71.23604855 209.95619688 -73.33401764 214.55195271 -75.42886353 219.14915466 C-75.75023285 219.85387909 -76.07160217 220.55860352 -76.40270996 221.28468323 C-77.30125293 223.25692244 -78.19754533 225.23016565 -79.09292603 227.20384216 C-79.595177 228.30969666 -80.09742798 229.41555115 -80.61489868 230.55491638 C-81.85859167 233.28780583 -81.85859167 233.28780583 -82.80386353 236.27415466 C-81.13710571 236.34763123 -81.13710571 236.34763123 -79.43667603 236.42259216 C-55.44350317 237.58028772 -55.44350317 237.58028772 -48.17886353 244.91477966 C-34.55435155 259.98034579 -41.30907783 277.04472542 -40.80386353 299.27415466 C26.84613647 299.27415466 94.49613647 299.27415466 164.19613647 299.27415466 C164.52613647 286.73415466 164.85613647 274.19415466 165.19613647 261.27415466 C168.48291269 246.48366171 168.48291269 246.48366171 175.94613647 241.39915466 C185.19930489 236.30221532 195.90106066 236.72330837 206.19613647 236.27415466 C204.33028351 230.32005093 202.15079031 224.66647549 199.49301147 219.02415466 C199.13824234 218.2600679 198.78347321 217.49598114 198.41795349 216.70874023 C197.2653117 214.22835816 196.10604851 211.75114426 194.94613647 209.27415466 C193.3175789 205.78431759 191.69183025 202.29317938 190.06723022 198.80149841 C189.65788742 197.92267502 189.24854462 197.04385162 188.82679749 196.13839722 C186.1312894 190.3354825 183.50301997 184.50628688 180.91879272 178.65306091 C180.25066101 177.14843143 179.58237036 175.6438725 178.91390991 174.13938904 C177.97026878 172.01479669 177.03122662 169.8888517 176.10787964 167.75535583 C170.11908996 153.6543299 170.11908996 153.6543299 158.13447285 144.90816593 C155.05510314 143.90093358 152.17213245 143.93969978 148.95004272 143.98118591 C147.96607765 143.98755318 147.96607765 143.98755318 146.9622345 143.99404907 C144.89392737 144.01066688 142.82664247 144.04828228 140.75863647 144.08665466 C139.34523922 144.10172356 137.93182649 144.11540808 136.5184021 144.12767029 C133.07732213 144.16051362 129.63682929 144.21217452 126.19613647 144.27415466 C126.19249084 145.43989517 126.18884521 146.60563568 126.18508911 147.80670166 C126.14804894 158.82583272 126.09017783 169.84468665 126.01223373 180.86360645 C125.97282842 186.52772952 125.94060582 192.19169873 125.92514038 197.85594177 C125.90992815 203.32857003 125.87540142 208.80077511 125.82782745 214.27321434 C125.81306071 216.35460914 125.80509818 218.43606436 125.80425262 220.51751137 C125.78312852 246.45769823 125.78312852 246.45769823 116.05551147 256.62181091 C109.5226523 262.42727191 102.12017159 264.57960893 93.49765015 264.54881287 C92.75045212 264.5539238 92.00325409 264.55903473 91.2334137 264.56430054 C88.77689477 264.57813697 86.32065837 264.57724395 83.86410522 264.57493591 C82.14546099 264.57882679 80.42681771 264.58316226 78.70817566 264.58792114 C75.10964845 264.59537107 71.51121936 264.59510148 67.91268921 264.58982849 C63.3197215 264.58404275 58.72715823 264.60094907 54.13425732 264.62417316 C50.58501366 264.63896603 47.03586609 264.63977455 43.48659706 264.63666344 C41.79425571 264.6371741 40.10190862 264.64236358 38.4095974 264.65247536 C27.01505301 264.71219578 15.9295805 264.71509099 7.19613647 256.27415466 C0.61258397 248.20399352 -1.09751138 240.84523013 -1.12271118 230.66697693 C-1.13275681 229.72961197 -1.14280243 228.79224701 -1.15315247 227.82647705 C-1.18388587 224.74784421 -1.20099224 221.66929795 -1.21792603 218.59056091 C-1.23664558 216.44821432 -1.25621958 214.30587503 -1.27661133 212.1635437 C-1.3278552 206.53958962 -1.36752242 200.91561165 -1.40475464 195.29154968 C-1.44484283 189.54675933 -1.49591321 183.80206767 -1.54605103 178.05735779 C-1.64271864 166.79635949 -1.72715275 155.53530536 -1.80386353 144.27415466 C-5.89297723 144.14913472 -9.98132817 144.05916101 -14.07192993 143.99949646 C-15.45884617 143.97458661 -16.84563439 143.94064464 -18.23208618 143.8969574 C-27.52878716 143.61167957 -37.09690786 143.58497792 -43.51332092 151.34033203 Z M9.19613647 144.27415466 C9.13426147 159.45415466 9.07238647 174.63415466 9.00863647 190.27415466 C8.98132446 195.05657654 8.95401245 199.83899841 8.9258728 204.76634216 C8.91583576 209.07590925 8.91583576 209.07590925 8.9098053 213.38548279 C8.9052168 215.29598591 8.89470351 217.20648068 8.87940979 219.1169281 C8.85733573 222.02105157 8.85442227 224.92464692 8.8555603 227.82884216 C8.84476598 228.671315 8.83397165 229.51378784 8.82285023 230.38179016 C8.85613295 236.75966339 9.85314898 242.46060901 14.06332397 247.51634216 C14.7259021 248.05517029 15.38848022 248.59399841 16.07113647 249.14915466 C16.72855835 249.70345154 17.38598022 250.25774841 18.06332397 250.82884216 C22.77872833 254.0242627 26.77870872 254.53100801 32.42977905 254.56468201 C33.49424507 254.57475784 33.49424507 254.57475784 34.58021545 254.58503723 C36.9171049 254.60397347 39.25370641 254.60793934 41.59066772 254.61009216 C43.22345597 254.61652374 44.85624307 254.62325237 46.48902893 254.63026428 C49.9094103 254.64222653 53.32969075 254.64594625 56.75009155 254.64476013 C61.11797669 254.64455714 65.48520975 254.67184312 69.85294056 254.70630455 C73.22543773 254.72862056 76.59777922 254.73259622 79.97034264 254.73154068 C81.5797926 254.73389018 83.18924728 254.74267688 84.79862404 254.75820541 C94.1875544 254.84030747 101.62147099 254.89101083 109.21957397 248.59837341 C109.6655896 248.05825623 110.11160522 247.51813904 110.57113647 246.96165466 C111.03262085 246.42927185 111.49410522 245.89688904 111.96957397 245.34837341 C115.38875955 239.56624748 115.47928564 233.55671183 115.42318726 227.03416443 C115.42354886 225.66501719 115.42354886 225.66501719 115.42391777 224.26821041 C115.42243324 221.33389235 115.40724009 218.39983311 115.39144897 215.46556091 C115.38850587 213.64586001 115.38646708 211.82615741 115.38534546 210.00645447 C115.37488911 203.28316193 115.34696656 196.55990571 115.32113647 189.83665466 C115.27988647 174.80102966 115.23863647 159.76540466 115.19613647 144.27415466 C80.21613647 144.27415466 45.23613647 144.27415466 9.19613647 144.27415466 Z M-116.80386353 252.27415466 C-121.20460018 258.34607109 -121.35882143 263.26052328 -121.25796509 270.62547302 C-121.25854919 271.74815582 -121.2591333 272.87083862 -121.25973511 274.02754211 C-121.25695746 277.7233465 -121.22587883 281.41833562 -121.19448853 285.11399841 C-121.18702505 287.6823177 -121.18133262 290.2506427 -121.17733765 292.81896973 C-121.1636468 298.87856199 -121.13214985 304.93781984 -121.09193969 310.99728638 C-121.0427385 318.57715009 -121.02092514 326.1570616 -120.99917603 333.73704529 C-120.96028425 347.24964119 -120.88014577 360.7616033 -120.80386353 374.27415466 C-98.03386353 374.27415466 -75.26386353 374.27415466 -51.80386353 374.27415466 C-51.68370037 352.80027961 -51.68370037 352.80027961 -51.60284805 331.32635689 C-51.58068184 323.64658341 -51.55253994 315.96698371 -51.50210571 308.28733826 C-51.45792725 301.55704381 -51.43472911 294.8269763 -51.42435455 288.09653091 C-51.41696068 285.52807784 -51.40252235 282.95963512 -51.3809433 280.39126205 C-51.35192988 276.79519614 -51.34790684 273.19990854 -51.34976196 269.60374451 C-51.33538086 268.54063049 -51.32099976 267.47751648 -51.30618286 266.38218689 C-51.33994534 260.33851786 -51.77972779 256.87763642 -55.80386353 252.27415466 C-61.07612227 247.44494287 -66.11002829 247.68913049 -72.89761353 247.74290466 C-73.9625 247.73907776 -75.02738647 247.73525085 -76.12454224 247.73130798 C-78.3703608 247.72859256 -80.61621119 247.73592772 -82.86196899 247.75267029 C-86.29253897 247.77408397 -89.72101467 247.75285475 -93.15151978 247.72727966 C-95.3377223 247.729923 -97.52392352 247.73504811 -99.71011353 247.74290466 C-101.24315125 247.73075928 -101.24315125 247.73075928 -102.80715942 247.71836853 C-108.59836723 247.79433551 -112.39660581 248.12951429 -116.80386353 252.27415466 Z M178.06472778 254.7066803 C175.11283504 259.29640896 175.67128573 264.41945113 175.74203491 269.69554138 C175.74145081 270.8375853 175.7408667 271.97962921 175.74026489 273.15628052 C175.74304646 276.92244604 175.77414376 280.68781528 175.80551147 284.45384216 C175.81297356 287.06843127 175.81866664 289.68302598 175.82266235 292.29762268 C175.83507444 298.4705626 175.8678717 304.64321777 175.90806031 310.81603253 C175.95722886 318.5363935 175.97906762 326.25680111 176.00082397 333.97727966 C176.03973651 347.74312624 176.11987164 361.50835185 176.19613647 375.27415466 C198.96613647 375.60415466 221.73613647 375.93415466 245.19613647 376.27415466 C245.31633656 354.85053351 245.31633656 354.85053351 245.39715195 333.42686462 C245.41930166 325.76388107 245.44740453 318.10107203 245.49789429 310.43821716 C245.54213289 303.72088117 245.56528288 297.00377309 245.57564545 290.2862854 C245.58302912 287.72506742 245.59744767 285.16385963 245.6190567 282.60272217 C245.64814553 279.01185367 245.65209001 275.42176289 245.65023804 271.83079529 C245.66461914 270.77487183 245.67900024 269.71894836 245.69381714 268.63102722 C245.65873764 262.33406382 244.85842589 257.50844843 241.19613647 252.27415466 C236.09105976 247.34847713 230.80976543 247.68976592 224.10238647 247.74290466 C223.0375 247.73907776 221.97261353 247.73525085 220.87545776 247.73130798 C218.6296392 247.72859256 216.38378881 247.73592772 214.13803101 247.75267029 C210.70746103 247.77408397 207.27898533 247.75285475 203.84848022 247.72727966 C201.6622777 247.729923 199.47607648 247.73504811 197.28988647 247.74290466 C195.75684875 247.73075928 195.75684875 247.73075928 194.19284058 247.71836853 C186.9323739 247.81360872 182.99298579 249.0821776 178.06472778 254.7066803 Z M-40.80386353 310.27415466 C-40.80386353 328.42415466 -40.80386353 346.57415466 -40.80386353 365.27415466 C-36.54356013 361.62246604 -32.54063564 358.13657917 -28.60293579 354.20262146 C-28.13374222 353.73518021 -27.66454865 353.26773895 -27.18113708 352.78613281 C-25.6583532 351.26768797 -24.13918233 349.74568998 -22.62026978 348.22337341 C-21.5542484 347.15802668 -20.4880787 346.09282834 -19.42176819 345.027771 C-17.20221042 342.8096788 -14.98444999 340.58980954 -12.76797485 338.36863708 C-9.92092218 335.51584583 -7.06934687 332.66762386 -4.21644688 329.82068157 C-2.02115106 327.6289867 0.17177315 325.43493146 2.3639698 323.2401371 C3.4154621 322.18797639 4.4677014 321.13656167 5.52068901 320.08589745 C6.98320856 318.62590123 8.44251209 317.16276677 9.90097046 315.69871521 C10.73257187 314.86631821 11.56417328 314.0339212 12.42097473 313.17630005 C14.30985023 311.58593967 14.30985023 311.58593967 14.19613647 310.27415466 C-3.95386353 310.27415466 -22.10386353 310.27415466 -40.80386353 310.27415466 Z M-31.80386353 373.27415466 C-31.80386353 373.60415466 -31.80386353 373.93415466 -31.80386353 374.27415466 C-23.36681464 374.46504611 -14.92927567 374.62662547 -6.49136353 374.77415466 C-5.47345104 374.79197054 -5.47345104 374.79197054 -4.43497467 374.81014633 C30.31463069 375.40797543 65.06765821 375.35812467 99.82113647 375.33665466 C100.52790417 375.33623043 101.23467187 375.3358062 101.96285677 375.33536911 C120.37396165 375.3241336 138.7850516 375.30376917 157.19613647 375.27415466 C156.82126854 374.83983092 156.4464006 374.40550718 156.06017303 373.95802212 C152.71099878 370.06604129 149.4256509 366.13000063 146.1746521 362.15525818 C114.65981913 322.72318369 114.65981913 322.72318369 70.13998413 303.01194763 C24.7655055 300.17763044 -6.14018052 340.62486165 -31.80386353 373.27415466 Z M110.19613647 310.27415466 C113.8197314 314.50168207 117.2731275 318.47674721 121.1758728 322.38328552 C121.63356049 322.84272552 122.09124817 323.30216553 122.56280518 323.77552795 C124.04878556 325.26584551 125.53831617 326.75255162 127.02816772 328.23899841 C128.07109419 329.28259957 129.11387227 330.32634904 130.1565094 331.37023926 C132.32752336 333.54271853 134.50031348 335.71340091 136.67440796 337.88279724 C139.46666568 340.66931548 142.25435234 343.46035711 145.04076099 346.25272274 C147.18613278 348.40169543 149.33386477 350.54829646 151.48233604 352.69417 C152.51216804 353.72333362 153.54125416 354.75324416 154.56958961 355.78390312 C155.99843878 357.21527563 157.43081343 358.6431263 158.8633728 360.07078552 C159.67800491 360.88462204 160.49263702 361.69845856 161.33195496 362.53695679 C162.89337685 364.38777978 162.89337685 364.38777978 164.19613647 364.27415466 C164.19613647 346.45415466 164.19613647 328.63415466 164.19613647 310.27415466 C146.37613647 310.27415466 128.55613647 310.27415466 110.19613647 310.27415466 Z M-169.61636353 391.33665466 C-171.72327312 394.77424401 -171.94015337 397.62993144 -171.98086548 401.56834412 C-171.99370071 402.64989273 -172.00653595 403.73144135 -172.01976013 404.84576416 C-172.02714706 406.01451584 -172.034534 407.18326752 -172.04214478 408.38743591 C-172.05021652 409.5897435 -172.05828827 410.79205109 -172.06660461 412.03079224 C-172.08044324 414.57698627 -172.09116638 417.12319884 -172.09902954 419.66941833 C-172.11624915 423.56080789 -172.16013999 427.45134948 -172.20425415 431.34251404 C-172.21438049 433.81581508 -172.22289678 436.28912335 -172.22964478 438.76243591 C-172.24715286 439.9251149 -172.26466095 441.08779388 -172.28269958 442.28570557 C-172.26576802 448.59984029 -172.10254729 452.50534086 -167.80386353 457.27415466 C-163.47867608 461.27495305 -160.28695757 462.40512784 -154.49429321 462.38768005 C-153.65372375 462.38760452 -152.8131543 462.38752899 -151.94711304 462.38745117 C-151.04905945 462.38228989 -150.15100586 462.3771286 -149.22573853 462.37181091 C-147.83587738 462.36968849 -147.83587738 462.36968849 -146.41793823 462.36752319 C-143.4632136 462.3619329 -140.50856519 462.34938217 -137.55386353 462.33665466 C-135.54865629 462.33163841 -133.54344786 462.32707572 -131.53823853 462.32298279 C-126.6267509 462.31196665 -121.71532013 462.29470866 -116.80386353 462.27415466 C-116.77308464 461.3015419 -116.77308464 461.3015419 -116.74168396 460.3092804 C-116.6850982 458.52117042 -116.62805804 456.73307479 -116.57061768 454.94499207 C-116.51259331 453.08110725 -116.46208875 451.2169842 -116.41592407 449.35276794 C-116.05252368 440.26864226 -114.6109797 431.68723916 -107.92411804 425.11233521 C-98.99072793 417.36742357 -87.14543973 418.74429821 -76.08901978 418.84837341 C-74.01376136 418.85292793 -71.93849852 418.85572956 -69.86323547 418.85696411 C-64.0887477 418.86578638 -58.31465175 418.90028478 -52.54029846 418.9391861 C-46.31146985 418.97727954 -40.08257808 418.99358464 -33.85366821 419.01292419 C-23.1347696 419.04936369 -12.41600686 419.0996147 -1.69720769 419.15817308 C14.09743583 419.24431355 29.89205918 419.30788877 45.68685913 419.35765076 C46.7511683 419.3610061 47.81547748 419.36436145 48.91203845 419.36781847 C49.983934 419.37119703 51.05582956 419.37457559 52.16020679 419.37805653 C73.24860016 419.44464743 94.33692602 419.52502461 115.4252525 419.61003929 C123.22931398 419.64119489 131.0333837 419.66851077 138.83746338 419.69465637 C148.46557975 419.7271755 158.09363295 419.76730417 167.72167927 419.81644315 C172.71265186 419.84175753 177.70358573 419.86387873 182.69460487 419.87758446 C187.31889249 419.8903993 191.94304441 419.91240588 196.56725705 419.94155753 C198.24832421 419.9505742 199.92941301 419.95629128 201.61050308 419.95836294 C224.84011664 419.99222017 224.84011664 419.99222017 233.19613647 427.27415466 C237.43940247 432.66510302 239.27803521 437.38690328 239.51254272 444.25462341 C239.55443726 445.41800232 239.59633179 446.58138123 239.63949585 447.78001404 C239.67881226 448.99495544 239.71812866 450.20989685 239.75863647 451.46165466 C239.80182007 452.68819763 239.84500366 453.9147406 239.88949585 455.17845154 C239.99566738 458.21023847 240.097716 461.24210781 240.19613647 464.27415466 C246.35252255 464.34847033 252.50864583 464.4028355 258.66537476 464.43894958 C260.75852 464.45400935 262.85163384 464.47446138 264.94467163 464.50047302 C267.95825975 464.53697967 270.97142959 464.55390939 273.98519897 464.56712341 C275.38241684 464.5903492 275.38241684 464.5903492 276.80786133 464.61404419 C282.76263397 464.6155767 287.29221594 463.98494034 291.84066772 459.73899841 C295.13807363 455.42700608 296.31863428 453.38497474 296.37313843 448.00169373 C296.38597366 446.90004883 296.3988089 445.79840393 296.41203308 444.66337585 C296.41942001 443.46758911 296.42680695 442.27180237 296.43441772 441.03977966 C296.44248947 439.81386108 296.45056122 438.5879425 296.45887756 437.32487488 C296.47272885 434.7256258 296.48344631 432.12635846 296.49130249 429.52708435 C296.50451705 425.55447395 296.55238401 421.58247684 296.5965271 417.61009216 C296.60665456 415.08666079 296.6151705 412.56322234 296.62191772 410.03977966 C296.64817986 408.25824493 296.64817986 408.25824493 296.67497253 406.4407196 C296.6582896 400.08673366 296.5473798 396.06653554 292.19613647 391.27415466 C288.29198766 387.84323601 285.02072459 387.1517988 279.91001892 387.07775879 C278.25147605 387.05053458 278.25147605 387.05053458 276.55942726 387.02276039 C274.72552972 387.00036828 274.72552972 387.00036828 272.85458374 386.9775238 C271.55557821 386.95825521 270.25657269 386.93898663 268.91820335 386.91913414 C265.28544479 386.86604763 261.65262723 386.81991239 258.01975322 386.7755115 C255.68005228 386.74656358 253.34037796 386.71597162 251.00070381 386.68493843 C206.84102779 386.10292607 162.67772194 385.9179116 118.51497078 385.72633696 C115.11075416 385.7115553 111.70653823 385.69662115 108.30232239 385.6816597 C80.39501777 385.55933852 52.48767904 385.44900367 24.58028603 385.34893513 C13.42408624 385.30881902 2.26789836 385.26710956 -8.88827515 385.22019958 C-9.94956723 385.21574249 -11.01085931 385.21128539 -12.10431176 385.20669323 C-13.68630594 385.20004813 -13.68630594 385.20004813 -15.30025959 385.19326878 C-35.23466587 385.1095938 -55.16901954 385.03919904 -75.10356617 384.9993372 C-84.20222643 384.98092241 -93.30076607 384.95655434 -102.39935303 384.91499329 C-110.02612532 384.88023567 -117.65277709 384.85900006 -125.27963108 384.85622752 C-129.12603178 384.85446335 -132.97213414 384.84638624 -136.81845665 384.82082367 C-140.95146532 384.79355225 -145.083857 384.79723228 -149.21694946 384.80418396 C-150.41817979 384.79137107 -151.61941011 384.77855818 -152.85704136 384.76535702 C-160.44907145 384.81325751 -164.48263026 385.49482026 -169.61636353 391.33665466 Z M-103.17886353 435.77415466 C-107.42341047 444.91625578 -106.04897089 457.13770813 -106.09902954 467.12083435 C-106.11063782 468.73029815 -106.13122634 470.33972089 -106.16055298 471.94895935 C-106.59771341 484.23887728 -106.59771341 484.23887728 -101.80386353 495.27415466 C-97.92472722 498.96406481 -94.87411004 500.38683412 -89.56045532 500.43237305 C-88.25166538 500.44705863 -88.25166538 500.44705863 -86.91643524 500.4620409 C-85.95502876 500.46779479 -84.99362228 500.47354868 -84.00308228 500.47947693 C-82.97949867 500.48936236 -81.95591507 500.4992478 -80.90131378 500.50943279 C-77.43135449 500.54144265 -73.96138379 500.56610709 -70.49136353 500.59056091 C-67.97984596 500.61151096 -65.4683307 500.63273859 -62.95681763 500.65422058 C-55.30173073 500.71742831 -47.64659723 500.77092381 -39.99142075 500.82197237 C-37.81269897 500.83659536 -35.63397986 500.85156612 -33.45526123 500.86664963 C-9.84207388 501.0298039 13.77124564 501.15452565 37.38475037 501.26137924 C40.24989903 501.27439897 43.11504661 501.28764171 45.98019409 501.30091858 C70.47140586 501.41386628 94.96255636 501.50415069 119.45399475 501.54897213 C121.48604332 501.55271788 123.51809187 501.55647947 125.55014038 501.56025696 C127.05448434 501.56304703 127.05448434 501.56304703 128.58921909 501.56589347 C135.6839819 501.58006266 142.77866525 501.604559 149.87338257 501.63331604 C158.58707074 501.66844784 167.30065244 501.68933996 176.01441336 501.69208181 C180.50706549 501.69385992 184.99946386 501.70214366 189.49205017 501.72748566 C193.63462751 501.75061785 197.77679493 501.75510618 201.91942024 501.74484336 C203.42465158 501.7443715 204.92990328 501.75070062 206.43507195 501.76444447 C208.4841409 501.78212994 210.53171023 501.77507992 212.58078003 501.76190186 C214.29143269 501.76548439 214.29143269 501.76548439 216.03664398 501.76913929 C220.74595221 501.03135144 223.893373 498.75660965 227.00863647 495.21165466 C229.00247535 491.95854913 229.32975671 489.25769054 229.37313843 485.53074646 C229.38597366 484.56932236 229.3988089 483.60789825 229.41203308 482.61734009 C229.41942001 481.57983109 229.42680695 480.54232208 229.43441772 479.47337341 C229.44248947 478.4042421 229.45056122 477.33511078 229.45887756 476.23358154 C229.47271239 473.96986002 229.48343723 471.70611769 229.49130249 469.44236755 C229.50851771 465.98550292 229.55241063 462.52959406 229.5965271 459.07298279 C229.60665401 456.87312002 229.61517012 454.67324914 229.62191772 452.47337341 C229.64817986 450.92621895 229.64817986 450.92621895 229.67497253 449.34780884 C229.65733773 443.49551211 229.33652658 439.77008716 225.19613647 435.27415466 C220.57282548 431.57161044 216.85757062 430.64233114 211.06938171 430.5369873 C210.28454291 430.50851276 209.4997041 430.48003822 208.6910823 430.45070082 C206.19274523 430.36840154 203.6954422 430.31694819 201.19613647 430.27415466 C200.01420357 430.25032215 200.01420357 430.25032215 198.80839324 430.22600818 C192.94706762 430.11568814 187.08642877 430.08766277 181.22421265 430.0688324 C179.29053048 430.05921823 177.35685025 430.04920631 175.423172 430.03883362 C170.20383401 430.01200241 164.98448736 429.99083447 159.76511931 429.97083163 C154.19420311 429.9485834 148.62331095 429.92133424 143.05241394 429.89477539 C133.63019973 429.85057483 124.20797567 429.80985951 114.78573608 429.77146912 C105.30427529 429.7328206 95.82283346 429.69136175 86.34140015 429.64646912 C85.19137886 429.64103541 84.04135757 429.6356017 82.85648715 429.63000333 C80.53949721 429.6190527 78.22250728 429.60810146 75.90551734 429.59714961 C55.34857816 429.50023966 34.79164968 429.4198456 14.23457694 429.35722423 C1.17259024 429.31721099 -11.88902633 429.26002943 -24.95076472 429.16930121 C-33.03940665 429.11347088 -41.12804332 429.07041101 -49.21681112 429.03754312 C-53.878682 429.01793555 -58.54026661 428.99139942 -63.20197487 428.94724846 C-67.47197049 428.90684289 -71.74165116 428.88481999 -76.01182771 428.87735438 C-77.55598862 428.87131401 -79.10014113 428.85840372 -80.64417815 428.83793187 C-89.94337277 428.71873872 -96.44309508 428.68387209 -103.17886353 435.77415466 Z " fill="#000000" transform="translate(193.80386352539063,-0.2741546630859375)"/>
<path d="M0 0 C1.18505292 3.55515876 1.14162177 6.40813386 1.16113281 10.16186523 C1.16609772 10.88739594 1.17106262 11.61292664 1.17617798 12.36044312 C1.19077974 14.75983631 1.19759756 17.15916343 1.203125 19.55859375 C1.2088772 21.22624208 1.21463493 22.8938904 1.22039795 24.5615387 C1.23090167 28.05771187 1.23674874 31.55386209 1.24023438 35.05004883 C1.24572394 39.53034995 1.26976433 44.01034791 1.29820633 48.49055386 C1.31682541 51.93493031 1.32203787 55.37923355 1.32357025 58.82365608 C1.32659795 60.4754814 1.33463046 62.1273054 1.34775543 63.77908134 C1.36480431 66.08920303 1.36293911 68.39858122 1.35644531 70.70874023 C1.36009094 72.02317612 1.36373657 73.337612 1.36749268 74.69187927 C0.98057621 78.17485042 0.52567401 79.61033914 -2 82 C-5 82.5 -5 82.5 -8 82 C-10.51977582 79.61299717 -10.98023356 78.17437989 -11.3742218 74.6986084 C-11.37327766 72.73147888 -11.37327766 72.73147888 -11.37231445 70.72460938 C-11.37596512 69.99893265 -11.37961578 69.27325592 -11.38337708 68.52558899 C-11.3914704 66.13140318 -11.37788309 63.73789679 -11.36328125 61.34375 C-11.36276249 59.67753093 -11.36328079 58.01131124 -11.36479187 56.34509277 C-11.3647022 52.85480602 -11.35428381 49.3647505 -11.33618164 45.87451172 C-11.31349464 41.40212043 -11.31295094 36.93006696 -11.31969929 32.45763397 C-11.32304185 29.01752728 -11.31640376 25.5774975 -11.30657005 22.1374054 C-11.30272273 20.48839216 -11.3015679 18.83937036 -11.3031559 17.19035339 C-11.30352704 14.88520017 -11.29089291 12.58047891 -11.2746582 10.27539062 C-11.27005081 8.96397095 -11.26544342 7.65255127 -11.26069641 6.3013916 C-11.01779395 3.22533793 -10.80227156 1.47593514 -9 -1 C-5.19881294 -2.26706235 -3.6149628 -1.57172296 0 0 Z " fill="#000000" transform="translate(294,155)"/>
<path d="M0 0 C2.91010694 1.56698066 3.31600532 2.25179327 4.4375 5.3125 C4.69819641 8.53123474 4.69819641 8.53123474 4.7121582 12.38842773 C4.71726913 13.09299103 4.72238007 13.79755432 4.72764587 14.52346802 C4.74152264 16.8477635 4.7405866 19.17176182 4.73828125 21.49609375 C4.74216922 23.11507782 4.7465041 24.73406087 4.75126648 26.3530426 C4.75872454 29.74491687 4.75844041 33.13668704 4.75317383 36.52856445 C4.74737946 40.87088783 4.76431117 45.21278464 4.7875185 49.5550375 C4.80226456 52.89824405 4.80312637 56.24134807 4.80000877 59.58458138 C4.80052154 61.18533231 4.80575093 62.78608905 4.81582069 64.3868084 C4.82818515 66.62721189 4.82139414 68.86678707 4.80981445 71.10717773 C4.81044388 72.38084702 4.8110733 73.6545163 4.8117218 74.96678162 C4.40833404 78.57325734 3.69233 80.48781722 1.4375 83.3125 C-1.5625 83.875 -1.5625 83.875 -4.5625 83.3125 C-7.10248318 80.91066292 -7.54493235 79.46958022 -7.9367218 75.96641541 C-7.95145443 74.62083856 -7.94968691 73.27501867 -7.93481445 71.92944336 C-7.93846512 71.19240677 -7.94211578 70.45537018 -7.94587708 69.69599915 C-7.95397023 67.26454488 -7.9403845 64.83375958 -7.92578125 62.40234375 C-7.92526255 60.7113088 -7.92578064 59.02027324 -7.92729187 57.32923889 C-7.92720221 53.78767886 -7.91678366 50.24634674 -7.89868164 46.70483398 C-7.87597729 42.16284355 -7.87545411 37.6211856 -7.88219929 33.07915401 C-7.88553859 29.58847594 -7.8789102 26.09787383 -7.86907005 22.60721016 C-7.8652184 20.93225057 -7.86406969 19.25728253 -7.8656559 17.58231926 C-7.86602627 15.24343597 -7.85341524 12.90498111 -7.8371582 10.56616211 C-7.83963562 9.87257599 -7.84211304 9.17898987 -7.84466553 8.46438599 C-7.80451815 4.85006642 -7.62904462 3.41231693 -5.5625 0.3125 C-2.5625 -0.6875 -2.5625 -0.6875 0 0 Z " fill="#000000" transform="translate(257.5625,153.6875)"/>
<path d="M0 0 C1.70296522 1.70296522 1.1320232 3.84321515 1.14663696 6.11564636 C1.14618378 6.84761734 1.14573059 7.57958832 1.14526367 8.33374023 C1.14862228 9.10120575 1.1519809 9.86867126 1.15544128 10.65939331 C1.16497942 13.20914303 1.16689582 15.75882728 1.16796875 18.30859375 C1.17117934 20.07357308 1.17454326 21.83855213 1.17805481 23.60353088 C1.18405325 27.30836606 1.18589398 31.01317788 1.18530273 34.71801758 C1.18520107 39.47426875 1.19885445 44.23037077 1.21607494 48.98658657 C1.22717271 52.63333326 1.22922263 56.28004364 1.22869301 59.9268055 C1.22987645 61.68075131 1.23431844 63.43469796 1.24202538 65.18862724 C1.25178063 67.63814731 1.24896508 70.08734034 1.24291992 72.53686523 C1.24853943 73.26681198 1.25415894 73.99675873 1.25994873 74.74882507 C1.22831567 79.77168433 1.22831567 79.77168433 -1 82 C-6.13917068 82.54672028 -6.13917068 82.54672028 -8.6681366 80.94055176 C-10.67861503 78.01124425 -10.40951338 75.06722201 -10.37231445 71.63867188 C-10.37596512 70.89202774 -10.37961578 70.14538361 -10.38337708 69.37611389 C-10.39148655 66.90676159 -10.3778696 64.4380647 -10.36328125 61.96875 C-10.36276269 60.25386556 -10.36328023 58.53898053 -10.36479187 56.82409668 C-10.36470213 53.22948333 -10.35426897 49.63509418 -10.33618164 46.04052734 C-10.31349437 41.43012836 -10.31295015 36.82005705 -10.31969929 32.20961761 C-10.32303888 28.66832562 -10.31640937 25.12710849 -10.30657005 21.58583069 C-10.30271759 19.88575126 -10.30157003 18.1856635 -10.3031559 16.48558044 C-10.30352627 14.11066793 -10.29091453 11.73617734 -10.2746582 9.36132812 C-10.27713562 8.65682022 -10.27961304 7.95231232 -10.28216553 7.22645569 C-10.24238904 3.59017213 -10.07723671 2.11585506 -8 -1 C-4.36442231 -2.21185923 -3.36216382 -1.59260392 0 0 Z " fill="#000000" transform="translate(227,155)"/>
<path d="M0 0 C1.26714844 -0.01417969 2.53429687 -0.02835937 3.83984375 -0.04296875 C7.0625 0.1875 7.0625 0.1875 9.0625 2.1875 C9.4375 5.125 9.4375 5.125 9.0625 8.1875 C6.17293637 11.00449468 4.04621954 11.59893646 0.0625 11.5625 C-0.783125 11.57023437 -1.62875 11.57796875 -2.5 11.5859375 C-5.37115432 11.1166142 -6.77191027 10.08239101 -8.9375 8.1875 C-7.90055874 0.04010436 -7.90055874 0.04010436 0 0 Z " fill="#000000" transform="translate(382.9375,395.8125)"/>
<path d="M0 0 C1.258125 -0.01675781 2.51625 -0.03351563 3.8125 -0.05078125 C4.864375 0.06910156 5.91625 0.18898438 7 0.3125 C9.14762184 3.53393276 9.561068 4.5720467 9 8.3125 C6.07954247 11.0996033 3.99364444 11.72402724 0 11.6875 C-0.845625 11.69523437 -1.69125 11.70296875 -2.5625 11.7109375 C-5.4948264 11.23161492 -6.88229281 10.37702276 -9 8.3125 C-9.375 5.25 -9.375 5.25 -9 2.3125 C-6.12699457 -0.56050543 -3.9965678 0.01228453 0 0 Z " fill="#000000" transform="translate(129,395.6875)"/>
<path d="M0 0 C1.73056641 -0.04253906 1.73056641 -0.04253906 3.49609375 -0.0859375 C6.5625 0.375 6.5625 0.375 8.484375 2.234375 C9.5625 4.375 9.5625 4.375 9.375 7 C8.5625 9.375 8.5625 9.375 6.5625 11.375 C3.84765625 11.67578125 3.84765625 11.67578125 0.625 11.6875 C-0.43589844 11.70425781 -1.49679687 11.72101563 -2.58984375 11.73828125 C-5.4375 11.375 -5.4375 11.375 -7.296875 10.046875 C-9.04883382 7.47893536 -8.7585463 5.39283524 -8.4375 2.375 C-5.6645481 -0.3979519 -3.86486269 0.04308654 0 0 Z " fill="#000000" transform="translate(467.4375,441.625)"/>
<path d="M0 0 C1.1653125 0.00515625 2.330625 0.0103125 3.53125 0.015625 C4.6965625 0.01046875 5.861875 0.0053125 7.0625 0 C10.03125 0.265625 10.03125 0.265625 12.03125 2.265625 C12.58404542 7.46190196 12.58404542 7.46190196 10.88671875 9.9296875 C8.25112957 11.82731171 6.24891109 11.69918179 3.03125 11.703125 C1.4534375 11.73212891 1.4534375 11.73212891 -0.15625 11.76171875 C-2.96875 11.265625 -2.96875 11.265625 -4.85546875 9.40234375 C-5.96875 7.265625 -5.96875 7.265625 -5.78125 4.640625 C-4.5727696 1.10814383 -3.75007748 0.33553325 0 0 Z " fill="#000000" transform="translate(40.96875,441.734375)"/>
<path d="M0 0 C1.73056641 -0.02513672 1.73056641 -0.02513672 3.49609375 -0.05078125 C6.5625 0.3125 6.5625 0.3125 8.48046875 1.640625 C9.5625 3.3125 9.5625 3.3125 9.4375 6.375 C8.5625 9.3125 8.5625 9.3125 5.5625 11.3125 C2.96875 11.61328125 2.96875 11.61328125 0.0625 11.625 C-0.8965625 11.64175781 -1.855625 11.65851563 -2.84375 11.67578125 C-5.4375 11.3125 -5.4375 11.3125 -7.26171875 9.984375 C-9.06249619 7.4238011 -8.76051818 5.34887086 -8.4375 2.3125 C-5.65940605 -0.46559395 -3.86994797 0.01294297 0 0 Z " fill="#000000" transform="translate(467.4375,418.6875)"/>
<path d="M0 0 C1.258125 -0.01675781 2.51625 -0.03351563 3.8125 -0.05078125 C4.864375 0.06910156 5.91625 0.18898438 7 0.3125 C9 3.3125 9 3.3125 8.8125 6.375 C8 9.3125 8 9.3125 5 11.3125 C2.66015625 11.61328125 2.66015625 11.61328125 0.0625 11.625 C-0.79214844 11.64175781 -1.64679688 11.65851563 -2.52734375 11.67578125 C-5.50170993 11.23878906 -6.86322259 10.40527056 -9 8.3125 C-9.375 5.25 -9.375 5.25 -9 2.3125 C-6.12699457 -0.56050543 -3.9965678 0.01228453 0 0 Z " fill="#000000" transform="translate(468,395.6875)"/>
<path d="M0 0 C1.258125 -0.01675781 2.51625 -0.03351563 3.8125 -0.05078125 C4.864375 0.06910156 5.91625 0.18898438 7 0.3125 C9 3.3125 9 3.3125 8.8125 6.375 C8 9.3125 8 9.3125 5 11.3125 C2.66015625 11.61328125 2.66015625 11.61328125 0.0625 11.625 C-0.79214844 11.64175781 -1.64679688 11.65851563 -2.52734375 11.67578125 C-5.50170993 11.23878906 -6.86322259 10.40527056 -9 8.3125 C-9.375 5.25 -9.375 5.25 -9 2.3125 C-6.12699457 -0.56050543 -3.9965678 0.01228453 0 0 Z " fill="#000000" transform="translate(341,395.6875)"/>
<path d="M0 0 C1.26714844 -0.02578125 2.53429687 -0.0515625 3.83984375 -0.078125 C5.43505859 0.08429688 5.43505859 0.08429688 7.0625 0.25 C9.21012184 3.47143276 9.623568 4.5095467 9.0625 8.25 C6.14204247 11.0371033 4.05614444 11.66152724 0.0625 11.625 C-0.783125 11.63273437 -1.62875 11.64046875 -2.5 11.6484375 C-5.37115432 11.1791142 -6.77191027 10.14489101 -8.9375 8.25 C-7.8997488 0.09624059 -7.8997488 0.09624059 0 0 Z " fill="#000000" transform="translate(255.9375,395.75)"/>
<path d="M0 0 C1.26714844 -0.01417969 2.53429687 -0.02835937 3.83984375 -0.04296875 C7.0625 0.1875 7.0625 0.1875 9.0625 2.1875 C9.4375 5.125 9.4375 5.125 9.0625 8.1875 C6.18425603 10.98688797 4.02993118 11.61895209 0.0625 11.625 C-3.29320629 11.51099521 -4.70145978 11.33022199 -7.625 9.5625 C-8.9375 7.1875 -8.9375 7.1875 -8.75 4 C-7.27754911 -1.09694539 -5.00320063 0.02539696 0 0 Z " fill="#000000" transform="translate(170.9375,395.8125)"/>
<path d="M0 0 C1.26714844 -0.01417969 2.53429688 -0.02835937 3.83984375 -0.04296875 C7.0625 0.1875 7.0625 0.1875 9.0625 2.1875 C9.4375 5.125 9.4375 5.125 9.0625 8.1875 C6.18425603 10.98688797 4.02993118 11.61895209 0.0625 11.625 C-3.29320629 11.51099521 -4.70145978 11.33022199 -7.625 9.5625 C-8.9375 7.1875 -8.9375 7.1875 -8.75 4 C-7.27754911 -1.09694539 -5.00320063 0.02539696 0 0 Z " fill="#000000" transform="translate(43.9375,395.8125)"/>
<path d="M0 0 C1.1653125 0.00515625 2.330625 0.0103125 3.53125 0.015625 C4.6965625 0.01046875 5.861875 0.0053125 7.0625 0 C10.03125 0.265625 10.03125 0.265625 12.03125 2.265625 C12.58626103 7.48272865 12.58626103 7.48272865 10.8515625 9.9296875 C7.18454088 12.62093512 2.35391577 11.84714954 -1.96875 11.265625 C-4.71875 9.578125 -4.71875 9.578125 -5.96875 7.265625 C-5.75456902 2.76782452 -4.74329003 0.42439963 0 0 Z " fill="#000000" transform="translate(40.96875,418.734375)"/>
<path d="M0 0 C1.74796875 -0.02126953 1.74796875 -0.02126953 3.53125 -0.04296875 C6.5 0.1875 6.5 0.1875 8.5 2.1875 C8.875 5.125 8.875 5.125 8.5 8.1875 C5.62175603 10.98688797 3.46743118 11.61895209 -0.5 11.625 C-3.85570629 11.51099521 -5.26395978 11.33022199 -8.1875 9.5625 C-9.5 7.1875 -9.5 7.1875 -9.375 4 C-9.08625 3.071875 -8.7975 2.14375 -8.5 1.1875 C-5.65161879 -0.2366906 -3.17212092 0.01754492 0 0 Z " fill="#000000" transform="translate(298.5,395.8125)"/>
<path d="M0 0 C1.73056641 -0.04253906 1.73056641 -0.04253906 3.49609375 -0.0859375 C6.5625 0.375 6.5625 0.375 8.48046875 2.234375 C9.5625 4.375 9.5625 4.375 9.4375 7 C8.5625 9.375 8.5625 9.375 5.5625 11.375 C3.22265625 11.67578125 3.22265625 11.67578125 0.625 11.6875 C-0.22964844 11.70425781 -1.08429688 11.72101563 -1.96484375 11.73828125 C-4.93920993 11.30128906 -6.30072259 10.46777056 -8.4375 8.375 C-8.8125 5.3125 -8.8125 5.3125 -8.4375 2.375 C-5.6645481 -0.3979519 -3.86486269 0.04308654 0 0 Z " fill="#000000" transform="translate(213.4375,395.625)"/>
<path d="M0 0 C1.15371094 0.02835937 2.30742187 0.05671875 3.49609375 0.0859375 C4.65238281 0.09882813 5.80867188 0.11171875 7 0.125 C9.93359375 0.4609375 9.93359375 0.4609375 11.93359375 2.4609375 C12.30859375 5.3984375 12.30859375 5.3984375 11.93359375 8.4609375 C9.79681634 10.55370806 8.43530368 11.38722656 5.4609375 11.82421875 C4.17896484 11.79908203 4.17896484 11.79908203 2.87109375 11.7734375 C1.58525391 11.76763672 1.58525391 11.76763672 0.2734375 11.76171875 C-2.06640625 11.4609375 -2.06640625 11.4609375 -5.06640625 9.4609375 C-5.94140625 7.0859375 -5.94140625 7.0859375 -6.06640625 4.4609375 C-4.42775068 1.2191207 -3.64842649 0.54842589 0 0 Z " fill="#000000" transform="translate(422.06640625,395.5390625)"/>
<path d="M0 0 C1.73056641 -0.04253906 1.73056641 -0.04253906 3.49609375 -0.0859375 C6.5625 0.375 6.5625 0.375 8.515625 2.19921875 C9.5625 4.375 9.5625 4.375 8.875 7.5625 C7.5625 10.375 7.5625 10.375 5.5625 11.375 C3.3203125 11.578125 3.3203125 11.578125 0.6875 11.625 C-0.60800781 11.66367187 -0.60800781 11.66367187 -1.9296875 11.703125 C-4.9455551 11.3085255 -6.28164055 10.49624703 -8.4375 8.375 C-8.8125 5.3125 -8.8125 5.3125 -8.4375 2.375 C-5.6645481 -0.3979519 -3.86486269 0.04308654 0 0 Z " fill="#000000" transform="translate(86.4375,395.625)"/>
<path d="M0 0 C1.0725 0.00515625 2.145 0.0103125 3.25 0.015625 C4.85875 0.00789063 4.85875 0.00789063 6.5 0 C9.25 0.265625 9.25 0.265625 11.25 2.265625 C11.80477054 7.48046803 11.80477054 7.48046803 10.07421875 9.9296875 C7.57743841 11.75816475 5.82009036 11.69899853 2.75 11.703125 C1.31140625 11.73212891 1.31140625 11.73212891 -0.15625 11.76171875 C-2.75 11.265625 -2.75 11.265625 -4.60546875 9.40234375 C-5.75 7.265625 -5.75 7.265625 -5.5625 4.640625 C-4.40413079 1.2546227 -3.60374321 0.34808883 0 0 Z " fill="#000000" transform="translate(216.75,473.734375)"/>
<path d="M0 0 C1.0725 -0.02578125 2.145 -0.0515625 3.25 -0.078125 C4.61125 0.08429688 4.61125 0.08429688 6 0.25 C8.15502531 3.48253796 8.46856135 4.50150923 8 8.25 C6.82421875 9.8828125 6.82421875 9.8828125 5 11.25 C2.40625 11.6484375 2.40625 11.6484375 -0.5 11.625 C-1.4590625 11.63273437 -2.418125 11.64046875 -3.40625 11.6484375 C-6 11.25 -6 11.25 -7.85546875 9.953125 C-9 8.25 -9 8.25 -8.8125 4.625 C-8.544375 3.51125 -8.27625 2.3975 -8 1.25 C-5.27976922 -0.11011539 -3.0338119 0.0437569 0 0 Z " fill="#000000" transform="translate(184,473.75)"/>
<path d="M0 0 C1.60488281 -0.03867187 1.60488281 -0.03867187 3.2421875 -0.078125 C6.125 0.25 6.125 0.25 7.984375 1.609375 C9.61611458 3.95639768 9.54397429 5.45683805 9.125 8.25 C7.9453125 9.8828125 7.9453125 9.8828125 6.125 11.25 C3.53125 11.6484375 3.53125 11.6484375 0.625 11.625 C-0.3340625 11.63273437 -1.293125 11.64046875 -2.28125 11.6484375 C-4.875 11.25 -4.875 11.25 -6.734375 9.953125 C-7.875 8.25 -7.875 8.25 -7.625 4.625 C-6.44526529 -0.6838062 -5.15112219 0.07411687 0 0 Z " fill="#000000" transform="translate(110.875,473.75)"/>
<path d="M0 0 C1.59134766 -0.04253906 1.59134766 -0.04253906 3.21484375 -0.0859375 C6.0625 0.375 6.0625 0.375 7.953125 2.234375 C9.0625 4.375 9.0625 4.375 8.875 7 C8.0625 9.375 8.0625 9.375 6.0625 11.375 C3.56640625 11.67578125 3.56640625 11.67578125 0.625 11.6875 C-0.82712891 11.71263672 -0.82712891 11.71263672 -2.30859375 11.73828125 C-4.9375 11.375 -4.9375 11.375 -6.765625 10.046875 C-8.56099446 7.48548124 -8.26029667 5.40928874 -7.9375 2.375 C-5.25290608 -0.30959392 -3.74009802 0.04533452 0 0 Z " fill="#000000" transform="translate(399.9375,473.625)"/>
<path d="M0 0 C1.0725 0.00515625 2.145 0.0103125 3.25 0.015625 C4.85875 0.00789063 4.85875 0.00789063 6.5 0 C9.25 0.265625 9.25 0.265625 11.25 2.265625 C11.80477054 7.48046803 11.80477054 7.48046803 10.07421875 9.9296875 C7.57743841 11.75816475 5.82009036 11.69899853 2.75 11.703125 C1.31140625 11.73212891 1.31140625 11.73212891 -0.15625 11.76171875 C-2.75 11.265625 -2.75 11.265625 -4.60546875 9.40234375 C-5.75 7.265625 -5.75 7.265625 -5.5625 4.640625 C-4.40413079 1.2546227 -3.60374321 0.34808883 0 0 Z " fill="#000000" transform="translate(252.75,473.734375)"/>
<path d="M0 0 C1.45212891 -0.03867187 1.45212891 -0.03867187 2.93359375 -0.078125 C5.5625 0.25 5.5625 0.25 7.38671875 1.609375 C9.06458516 3.95058394 8.98437381 5.43750795 8.5625 8.25 C7.3828125 9.8828125 7.3828125 9.8828125 5.5625 11.25 C2.96875 11.6484375 2.96875 11.6484375 0.0625 11.625 C-0.8965625 11.63273437 -1.855625 11.64046875 -2.84375 11.6484375 C-5.4375 11.25 -5.4375 11.25 -7.29296875 9.953125 C-8.4375 8.25 -8.4375 8.25 -8.25 4.625 C-7.981875 3.51125 -7.71375 2.3975 -7.4375 1.25 C-4.85741408 -0.04004296 -2.88008426 0.04589776 0 0 Z " fill="#000000" transform="translate(147.4375,473.75)"/>
<path d="M0 0 C1.1653125 -0.01675781 2.330625 -0.03351563 3.53125 -0.05078125 C5.00078125 0.12904297 5.00078125 0.12904297 6.5 0.3125 C8.5 3.3125 8.5 3.3125 8.3125 6.375 C7.5 9.3125 7.5 9.3125 4.5 11.3125 C0.43826104 11.88847403 -3.2905183 11.84349197 -7.0625 10.1875 C-9.12848726 7.49273401 -8.92151163 5.61434112 -8.5 2.3125 C-5.71220121 -0.47529879 -3.88197673 0.01288267 0 0 Z " fill="#000000" transform="translate(400.5,445.6875)"/>
<path d="M0 0 C1.76150391 -0.02126953 1.76150391 -0.02126953 3.55859375 -0.04296875 C6.5625 0.1875 6.5625 0.1875 8.5625 2.1875 C8.98401163 5.48934112 9.19098726 7.36773401 7.125 10.0625 C3.2675713 11.75600528 -0.29587951 11.86259931 -4.4375 11.1875 C-7.0625 9.5625 -7.0625 9.5625 -8.4375 7.1875 C-8.02191295 0.12252023 -6.6860258 0.03661569 0 0 Z " fill="#000000" transform="translate(255.4375,445.8125)"/>
<path d="M0 0 C1.76150391 -0.02126953 1.76150391 -0.02126953 3.55859375 -0.04296875 C6.5625 0.1875 6.5625 0.1875 8.5625 2.1875 C8.98401163 5.48934112 9.19098726 7.36773401 7.125 10.0625 C3.2675713 11.75600528 -0.29587951 11.86259931 -4.4375 11.1875 C-7.0625 9.5625 -7.0625 9.5625 -8.4375 7.1875 C-8.02191295 0.12252023 -6.6860258 0.03661569 0 0 Z " fill="#000000" transform="translate(219.4375,445.8125)"/>
<path d="M0 0 C1.76150391 -0.02126953 1.76150391 -0.02126953 3.55859375 -0.04296875 C6.5625 0.1875 6.5625 0.1875 8.5625 2.1875 C8.98401163 5.48934112 9.19098726 7.36773401 7.125 10.0625 C3.2675713 11.75600528 -0.29587951 11.86259931 -4.4375 11.1875 C-7.0625 9.5625 -7.0625 9.5625 -8.4375 7.1875 C-8.02191295 0.12252023 -6.6860258 0.03661569 0 0 Z " fill="#000000" transform="translate(183.4375,445.8125)"/>
<path d="M0 0 C1.17433594 -0.02578125 2.34867188 -0.0515625 3.55859375 -0.078125 C4.54988281 0.03015625 5.54117188 0.1384375 6.5625 0.25 C8.71012184 3.47143276 9.123568 4.5095467 8.5625 8.25 C6.75202935 10.53276734 5.30214875 11.15092778 2.43359375 11.53515625 C-1.31191032 11.67707815 -3.7191965 11.67047034 -7 9.75 C-7.474375 9.255 -7.94875 8.76 -8.4375 8.25 C-7.39987857 0.09726018 -7.39987857 0.09726018 0 0 Z " fill="#000000" transform="translate(147.4375,445.75)"/>
<path d="M0 0 C1.1653125 -0.01675781 2.330625 -0.03351563 3.53125 -0.05078125 C5.00078125 0.12904297 5.00078125 0.12904297 6.5 0.3125 C8.5 3.3125 8.5 3.3125 8.3125 6.375 C7.5 9.3125 7.5 9.3125 4.5 11.3125 C0.43826104 11.88847403 -3.2905183 11.84349197 -7.0625 10.1875 C-9.12848726 7.49273401 -8.92151163 5.61434112 -8.5 2.3125 C-5.71220121 -0.47529879 -3.88197673 0.01288267 0 0 Z " fill="#000000" transform="translate(111.5,445.6875)"/>
<path d="M0 0 C1.59134766 -0.04253906 1.59134766 -0.04253906 3.21484375 -0.0859375 C6.0625 0.375 6.0625 0.375 7.984375 2.19921875 C9.0625 4.375 9.0625 4.375 8.375 7.5625 C7.0625 10.375 7.0625 10.375 5.0625 11.375 C3.41994209 11.49614921 1.77197522 11.55040767 0.125 11.5625 C-0.75027344 11.57667969 -1.62554687 11.59085937 -2.52734375 11.60546875 C-4.9375 11.375 -4.9375 11.375 -7.9375 9.375 C-8.25 5.875 -8.25 5.875 -7.9375 2.375 C-5.25290608 -0.30959392 -3.74009802 0.04533452 0 0 Z " fill="#000000" transform="translate(363.9375,473.625)"/>
<path d="M0 0 C1.06089844 0.02835937 2.12179687 0.05671875 3.21484375 0.0859375 C4.81005859 0.10527344 4.81005859 0.10527344 6.4375 0.125 C9.15234375 0.4609375 9.15234375 0.4609375 11.15234375 2.4609375 C11.46484375 5.9609375 11.46484375 5.9609375 11.15234375 9.4609375 C7.91320146 11.62036569 6.90374642 11.73326728 3.15234375 11.7109375 C2.28609375 11.71609375 1.41984375 11.72125 0.52734375 11.7265625 C-1.84765625 11.4609375 -1.84765625 11.4609375 -4.84765625 9.4609375 C-5.72265625 7.0859375 -5.72265625 7.0859375 -5.84765625 4.4609375 C-4.24002631 1.36977536 -3.49448309 0.5656365 0 0 Z " fill="#000000" transform="translate(288.84765625,473.5390625)"/>
<path d="M0 0 C1.0725 0.00515625 2.145 0.0103125 3.25 0.015625 C4.85875 0.00789063 4.85875 0.00789063 6.5 0 C9.25 0.265625 9.25 0.265625 11.25 2.265625 C11.5625 5.765625 11.5625 5.765625 11.25 9.265625 C8.01085771 11.42505319 7.00140267 11.53795478 3.25 11.515625 C2.38375 11.52078125 1.5175 11.5259375 0.625 11.53125 C-1.75 11.265625 -1.75 11.265625 -4.75 9.265625 C-5.0625 5.765625 -5.0625 5.765625 -4.75 2.265625 C-2.75 0.265625 -2.75 0.265625 0 0 Z " fill="#000000" transform="translate(324.75,473.734375)"/>
<path d="M0 0 C1.59134766 -0.04253906 1.59134766 -0.04253906 3.21484375 -0.0859375 C6.0625 0.375 6.0625 0.375 7.984375 2.19921875 C9.0625 4.375 9.0625 4.375 8.375 7.5625 C7.0625 10.375 7.0625 10.375 5.0625 11.375 C3.42107459 11.52140501 1.7726859 11.59596589 0.125 11.625 C-0.75027344 11.65078125 -1.62554687 11.6765625 -2.52734375 11.703125 C-4.9375 11.375 -4.9375 11.375 -6.734375 10.05078125 C-8.5708556 7.49282613 -8.26228889 5.42801557 -7.9375 2.375 C-5.25290608 -0.30959392 -3.74009802 0.04533452 0 0 Z " fill="#000000" transform="translate(363.9375,445.625)"/>
<path d="M0 0 C1.0725 0.00515625 2.145 0.0103125 3.25 0.015625 C4.85875 0.00789063 4.85875 0.00789063 6.5 0 C9.25 0.265625 9.25 0.265625 11.25 2.265625 C11.5625 5.765625 11.5625 5.765625 11.25 9.265625 C8.01085771 11.42505319 7.00140267 11.53795478 3.25 11.515625 C2.38375 11.52078125 1.5175 11.5259375 0.625 11.53125 C-1.75 11.265625 -1.75 11.265625 -4.75 9.265625 C-5.0625 5.765625 -5.0625 5.765625 -4.75 2.265625 C-2.75 0.265625 -2.75 0.265625 0 0 Z " fill="#000000" transform="translate(324.75,445.734375)"/>
<path d="M0 0 C1.06089844 0.02835937 2.12179687 0.05671875 3.21484375 0.0859375 C4.81005859 0.10527344 4.81005859 0.10527344 6.4375 0.125 C9.15234375 0.4609375 9.15234375 0.4609375 11.15234375 2.4609375 C11.57385538 5.76277862 11.78083101 7.64117151 9.71484375 10.3359375 C5.94286205 11.99192947 2.21408271 12.03691153 -1.84765625 11.4609375 C-4.84765625 9.4609375 -4.84765625 9.4609375 -5.72265625 7.0859375 C-5.84765625 4.4609375 -5.84765625 4.4609375 -4.734375 2.3203125 C-2.84765625 0.4609375 -2.84765625 0.4609375 0 0 Z " fill="#000000" transform="translate(288.84765625,445.5390625)"/>
</svg>
