<?xml version="1.0" encoding="UTF-8"?>
<svg version="1.1" xmlns="http://www.w3.org/2000/svg" width="512" height="512">
<path d="M0 0 C10.23 0 20.46 0 31 0 C31 8.25 31 16.5 31 25 C80.5 25 130 25 181 25 C181 16.75 181 8.5 181 0 C191.23 0 201.46 0 212 0 C212.01030746 3.1393103 212.02061493 6.27862061 212.03123474 9.51306152 C212.12623286 38.30919617 212.22605073 67.10530993 212.33111694 95.90140948 C212.34488632 99.67646035 212.35861344 103.45151138 212.37231445 107.2265625 C212.37504276 107.97809894 212.37777106 108.72963538 212.38058204 109.50394565 C212.42464245 121.66853554 212.46528115 133.83313458 212.50465261 145.99774045 C212.54513547 158.48217006 212.58930171 170.96658273 212.63687855 183.45098734 C212.66611392 191.15289104 212.69248523 198.85479356 212.71517897 206.55671936 C212.73289615 212.46515511 212.75574109 218.37356409 212.78049088 224.28197479 C212.78983527 226.70389469 212.79751987 229.12582164 212.80341911 231.54775238 C212.81172474 234.85555992 212.82601379 238.16329016 212.84178162 241.47106934 C212.84324878 242.90689369 212.84324878 242.90689369 212.84474558 244.37172461 C212.85022002 245.26546868 212.85569446 246.15921275 212.8613348 247.08003998 C212.86399284 247.8425184 212.86665089 248.60499682 212.86938947 249.39058065 C213.04718197 252.9426312 213.5588708 256.47096639 214 260 C228.19 260 242.38 260 257 260 C257 247.46 257 234.92 257 222 C276.8 222 296.6 222 317 222 C317 256.98 317 291.96 317 328 C297.2 328 277.4 328 257 328 C257 315.46 257 302.92 257 290 C245.78 290 234.56 290 223 290 C225.94622147 301.41438624 228.89308209 312.82860695 231.84104633 324.24254322 C233.21009888 329.54334837 234.57887892 334.84422357 235.94702148 340.14526367 C237.26908673 345.26772898 238.59188701 350.39000398 239.91518211 355.51215172 C240.41815175 357.45954412 240.92086323 359.40700322 241.4233036 361.35453224 C242.13086961 364.09696862 242.83933138 366.83917193 243.5480957 369.58129883 C243.87483009 370.84802036 243.87483009 370.84802036 244.20816517 372.14033222 C245.57570433 377.42361638 247.00137845 382.68622084 248.53092957 387.92533875 C249 390 249 390 249 394 C154.62 394 60.24 394 -37 394 C-35.87500193 385.00001547 -35.87500193 385.00001547 -34.9753418 381.57220459 C-34.7734726 380.79288574 -34.57160339 380.01356689 -34.36361694 379.21063232 C-34.14436554 378.38541077 -33.92511414 377.56018921 -33.69921875 376.70996094 C-33.46659332 375.8178894 -33.2339679 374.92581787 -32.99429321 374.00671387 C-32.23017364 371.0813174 -31.45888404 368.1578635 -30.6875 365.234375 C-30.15278734 363.1928469 -29.61853324 361.15119865 -29.0847168 359.10943604 C-27.68234614 353.75048285 -26.27390686 348.39314321 -24.86413574 343.03613281 C-23.42929154 337.57971159 -21.99997442 332.1218434 -20.5703125 326.6640625 C-18.96421222 320.53386719 -17.35751103 314.40383387 -15.74682617 308.27484131 C-15.37997208 306.87875641 -15.37997208 306.87875641 -15.00570679 305.45446777 C-14.54947913 303.7186735 -14.09305112 301.98293187 -13.63638306 300.24725342 C-13.43451385 299.47921387 -13.23264465 298.71117432 -13.0246582 297.91986084 C-12.76251274 296.92331797 -12.76251274 296.92331797 -12.49507141 295.90664291 C-11.98464311 293.9408568 -11.49258335 291.97033341 -11 290 C-22.22 290 -33.44 290 -45 290 C-45 302.54 -45 315.08 -45 328 C-64.8 328 -84.6 328 -105 328 C-105 293.02 -105 258.04 -105 222 C-85.2 222 -65.4 222 -45 222 C-45 234.54 -45 247.08 -45 260 C-30.81 260 -16.62 260 -2 260 C-1.15542898 253.5002436 -1.15542898 253.5002436 -0.8613348 247.08003998 C-0.85586036 246.18629591 -0.85038591 245.29255183 -0.84474558 244.37172461 C-0.84376747 243.41450837 -0.84278936 242.45729213 -0.84178162 241.47106934 C-0.83684364 240.43517874 -0.83190566 239.39928815 -0.82681805 238.33200693 C-0.81150721 234.87433429 -0.80309985 231.41668013 -0.79467773 227.95898438 C-0.78509417 225.47507567 -0.77508381 222.99116858 -0.76467896 220.50726318 C-0.74326501 215.16644325 -0.72481081 209.82562575 -0.70907402 204.48478699 C-0.68631639 196.76292774 -0.6581819 189.04109536 -0.62875474 181.31925899 C-0.58115086 168.78967414 -0.53786727 156.26007826 -0.49731445 143.73046875 C-0.45792279 131.56249128 -0.41648783 119.39452359 -0.37231445 107.2265625 C-0.36959018 106.4759414 -0.36686591 105.7253203 -0.36405908 104.95195311 C-0.350379 101.18613211 -0.33665885 97.42031126 -0.32291877 93.65449047 C-0.20906723 62.43634704 -0.10250032 31.21818286 0 0 Z M31 56 C31 71.51 31 87.02 31 103 C80.5 103 130 103 181 103 C181 87.49 181 71.98 181 56 C131.5 56 82 56 31 56 Z M31 134 C31 171.95 31 209.9 31 249 C80.5 249 130 249 181 249 C181 211.05 181 173.1 181 134 C131.5 134 82 134 31 134 Z " fill="#000000" transform="translate(150,0)"/>
<path d="M0 0 C19.8 0 39.6 0 60 0 C60 10.56 60 21.12 60 32 C75.84 32 91.68 32 108 32 C108 21.77 108 11.54 108 1 C205.68 1 303.36 1 404 1 C404 11.23 404 21.46 404 32 C419.84 32 435.68 32 452 32 C452 21.44 452 10.88 452 0 C471.8 0 491.6 0 512 0 C512 29.7 512 59.4 512 90 C492.2 90 472.4 90 452 90 C452 81.09 452 72.18 452 63 C436.16 63 420.32 63 404 63 C404 71.91 404 80.82 404 90 C306.32 90 208.64 90 108 90 C108 81.09 108 72.18 108 63 C92.16 63 76.32 63 60 63 C60 71.91 60 80.82 60 90 C40.2 90 20.4 90 0 90 C0 60.3 0 30.6 0 0 Z " fill="#000000" transform="translate(0,422)"/>
</svg>
