<?xml version="1.0" encoding="UTF-8"?>
<svg version="1.1" xmlns="http://www.w3.org/2000/svg" width="512" height="512">
<path d="M0 0 C1.66233237 -0.00779046 3.32466082 -0.01646317 4.98698425 -0.02597046 C8.46093685 -0.04083532 11.93448275 -0.04035717 15.40844727 -0.02978516 C19.83001525 -0.01821383 24.24990261 -0.05203727 28.67119312 -0.0984745 C32.1022441 -0.12814204 35.53289946 -0.12966672 38.96405602 -0.12345505 C40.59253957 -0.12447222 42.22104803 -0.13477163 43.84940529 -0.15507889 C54.79289277 -0.27480959 64.12416929 0.839736 72.83210754 8.22494507 C79.85424023 15.70429237 81.51441389 24.01966517 81.30859375 33.98046875 C81.30456543 34.91499878 81.30053711 35.84952881 81.29638672 36.81237793 C81.27564878 40.26314264 81.21980502 43.71362482 81.16796875 47.1640625 C81.08546875 54.8984375 81.00296875 62.6328125 80.91796875 70.6015625 C104.01796875 70.6015625 127.11796875 70.6015625 150.91796875 70.6015625 C151.90796875 68.6215625 151.90796875 68.6215625 152.91796875 66.6015625 C160.5147366 58.18720529 171.72323358 51.50296776 183.15429688 50.38232422 C199.08001331 49.60806746 212.92002556 51.87371633 225.31640625 62.6953125 C227.28864681 64.60527178 229.19454077 66.46412668 230.91796875 68.6015625 C230.91796875 69.2615625 230.91796875 69.9215625 230.91796875 70.6015625 C254.01796875 70.6015625 277.11796875 70.6015625 300.91796875 70.6015625 C300.68157234 55.34455579 300.68157234 55.34455579 300.37744141 40.08886719 C300.21568725 27.91941099 300.24608013 18.34516396 308.54272461 8.71582031 C317.58715945 0.0651906 328.2073707 -0.02312078 340 0 C341.66233237 -0.00779046 343.32466082 -0.01646317 344.98698425 -0.02597046 C348.46093685 -0.04083532 351.93448275 -0.04035717 355.40844727 -0.02978516 C359.83001525 -0.01821383 364.24990261 -0.05203727 368.67119312 -0.0984745 C372.1022441 -0.12814204 375.53289946 -0.12966672 378.96405602 -0.12345505 C380.59253957 -0.12447222 382.22104803 -0.13477163 383.84940529 -0.15507889 C394.79289277 -0.27480959 404.12416929 0.839736 412.83210754 8.22494507 C420.91987838 16.83931475 421.51042266 26.41516694 421.46728516 37.75317383 C421.47599333 39.27196753 421.48636425 40.79075246 421.4982605 42.30952454 C421.52491681 46.41307227 421.52621171 50.5162502 421.5211339 54.61986756 C421.51898562 58.05642679 421.52878392 61.49291254 421.53834474 64.92945594 C421.56049314 73.04360334 421.56143416 81.15756555 421.54931641 89.27172852 C421.53724429 97.6169759 421.56184845 105.96154825 421.60445654 114.3066805 C421.63979281 121.49429462 421.65167484 128.68169489 421.64518106 135.86939257 C421.64157089 140.15222371 421.64666977 144.43457346 421.67461014 148.71732521 C421.69992874 152.74866501 421.69573029 156.77896014 421.66978836 160.81028557 C421.66509205 162.28074638 421.67039882 163.75128259 421.68703461 165.2216568 C421.79664311 175.67175221 420.24335126 184.49712483 413.17805386 192.59601116 C411.52204833 194.181427 409.86183041 195.38911124 407.91796875 196.6015625 C407.34762405 196.96389984 406.77727936 197.32623718 406.18965149 197.69955444 C398.5155579 201.74842707 390.27305901 201.21966693 381.8359375 201.203125 C380.17360513 201.21091546 378.51127668 201.21958817 376.84895325 201.22909546 C373.37500065 201.24396032 369.90145475 201.24348217 366.42749023 201.23291016 C362.00592225 201.22133883 357.58603489 201.25516227 353.16474438 201.3015995 C349.7336934 201.33126704 346.30303804 201.33279172 342.87188148 201.32658005 C341.24339793 201.32759722 339.61488947 201.33789663 337.98653221 201.35820389 C327.04304473 201.47793459 317.71176821 200.363389 309.00382996 192.97817993 C301.98169727 185.49883263 300.32152361 177.18345983 300.52734375 167.22265625 C300.53137207 166.28812622 300.53540039 165.35359619 300.53955078 164.39074707 C300.56028872 160.93998236 300.61613248 157.48950018 300.66796875 154.0390625 C300.75046875 146.3046875 300.83296875 138.5703125 300.91796875 130.6015625 C277.81796875 130.6015625 254.71796875 130.6015625 230.91796875 130.6015625 C230.25796875 131.9215625 229.59796875 133.2415625 228.91796875 134.6015625 C227.48046875 136.3046875 227.48046875 136.3046875 225.91796875 137.8515625 C225.14453125 138.63273437 225.14453125 138.63273437 224.35546875 139.4296875 C222.91796875 140.6015625 222.91796875 140.6015625 220.91796875 140.6015625 C220.91796875 155.7815625 220.91796875 170.9615625 220.91796875 186.6015625 C223.22796875 186.6015625 225.53796875 186.6015625 227.91796875 186.6015625 C230.4296875 187.66796875 230.4296875 187.66796875 232.60546875 189.1640625 C233.33121094 189.63972656 234.05695313 190.11539063 234.8046875 190.60546875 C239.5437575 195.08174374 241.14395873 199.05897397 241.43936157 205.46994019 C241.4691255 207.83119063 241.47692552 210.19278088 241.46728516 212.55419922 C241.47750702 213.84774323 241.48772888 215.14128723 241.4982605 216.47402954 C241.52493989 220.00728053 241.5262093 223.54010234 241.5211339 227.07343435 C241.51898736 230.03051255 241.52877938 232.98750516 241.53834474 235.94456494 C241.56050069 242.92518583 241.5614297 249.90559146 241.54931641 256.88623047 C241.53724083 264.07047015 241.5618549 271.25392605 241.60445654 278.43803203 C241.63976781 284.62175267 241.65167888 290.80522473 241.64518106 296.9890424 C241.64156715 300.67547699 241.64670703 304.36135253 241.67461014 308.04769516 C241.70459248 312.16235417 241.68576009 316.27543357 241.66259766 320.39013672 C241.67788513 321.59978088 241.69317261 322.80942505 241.70892334 324.0557251 C241.61336738 331.75103217 240.21592647 336.87077362 234.91796875 342.6015625 C230.2941118 346.50744861 227.2021396 346.6015625 220.91796875 346.6015625 C220.91796875 355.1815625 220.91796875 363.7615625 220.91796875 372.6015625 C222.23796875 373.2615625 223.55796875 373.9215625 224.91796875 374.6015625 C226.62109375 376.0390625 226.62109375 376.0390625 228.16796875 377.6015625 C228.68875 378.1171875 229.20953125 378.6328125 229.74609375 379.1640625 C230.91796875 380.6015625 230.91796875 380.6015625 230.91796875 382.6015625 C254.01796875 382.6015625 277.11796875 382.6015625 300.91796875 382.6015625 C300.68157234 367.34455579 300.68157234 367.34455579 300.37744141 352.08886719 C300.21568725 339.91941099 300.24608013 330.34516396 308.54272461 320.71582031 C317.58715945 312.0651906 328.2073707 311.97687922 340 312 C341.66233237 311.99220954 343.32466082 311.98353683 344.98698425 311.97402954 C348.46093685 311.95916468 351.93448275 311.95964283 355.40844727 311.97021484 C359.83001525 311.98178617 364.24990261 311.94796273 368.67119312 311.9015255 C372.1022441 311.87185796 375.53289946 311.87033328 378.96405602 311.87654495 C380.59253957 311.87552778 382.22104803 311.86522837 383.84940529 311.84492111 C394.79289277 311.72519041 404.12416929 312.839736 412.83210754 320.22494507 C420.91987838 328.83931475 421.51042266 338.41516694 421.46728516 349.75317383 C421.47599333 351.27196753 421.48636425 352.79075246 421.4982605 354.30952454 C421.52491681 358.41307227 421.52621171 362.5162502 421.5211339 366.61986756 C421.51898562 370.05642679 421.52878392 373.49291254 421.53834474 376.92945594 C421.56049314 385.04360334 421.56143416 393.15756555 421.54931641 401.27172852 C421.53724429 409.6169759 421.56184845 417.96154825 421.60445654 426.3066805 C421.63979281 433.49429462 421.65167484 440.68169489 421.64518106 447.86939257 C421.64157089 452.15222371 421.64666977 456.43457346 421.67461014 460.71732521 C421.69992874 464.74866501 421.69573029 468.77896014 421.66978836 472.81028557 C421.66509205 474.28074638 421.67039882 475.75128259 421.68703461 477.2216568 C421.79664311 487.67175221 420.24335126 496.49712483 413.17805386 504.59601116 C411.52204833 506.181427 409.86183041 507.38911124 407.91796875 508.6015625 C407.34762405 508.96389984 406.77727936 509.32623718 406.18965149 509.69955444 C398.5155579 513.74842707 390.27305901 513.21966693 381.8359375 513.203125 C380.17360513 513.21091546 378.51127668 513.21958817 376.84895325 513.22909546 C373.37500065 513.24396032 369.90145475 513.24348217 366.42749023 513.23291016 C362.00592225 513.22133883 357.58603489 513.25516227 353.16474438 513.3015995 C349.7336934 513.33126704 346.30303804 513.33279172 342.87188148 513.32658005 C341.24339793 513.32759722 339.61488947 513.33789663 337.98653221 513.35820389 C327.04304473 513.47793459 317.71176821 512.363389 309.00382996 504.97817993 C301.98169727 497.49883263 300.32152361 489.18345983 300.52734375 479.22265625 C300.53137207 478.28812622 300.53540039 477.35359619 300.53955078 476.39074707 C300.56028872 472.93998236 300.61613248 469.48950018 300.66796875 466.0390625 C300.75046875 458.3046875 300.83296875 450.5703125 300.91796875 442.6015625 C277.81796875 442.6015625 254.71796875 442.6015625 230.91796875 442.6015625 C230.25796875 443.9215625 229.59796875 445.2415625 228.91796875 446.6015625 C221.3212009 455.01591971 210.11270392 461.70015724 198.68164062 462.82080078 C181.98621076 463.63247851 168.66406789 460.88739033 155.67578125 449.6640625 C153.98095528 448.0304953 152.35768228 446.46385407 150.91796875 444.6015625 C150.91796875 443.9415625 150.91796875 443.2815625 150.91796875 442.6015625 C127.81796875 442.6015625 104.71796875 442.6015625 80.91796875 442.6015625 C81.15436516 457.85856921 81.15436516 457.85856921 81.45849609 473.11425781 C81.62025025 485.28371401 81.58985737 494.85796104 73.29321289 504.48730469 C64.24877805 513.1379344 53.6285668 513.22624578 41.8359375 513.203125 C40.17360513 513.21091546 38.51127668 513.21958817 36.84895325 513.22909546 C33.37500065 513.24396032 29.90145475 513.24348217 26.42749023 513.23291016 C22.00592225 513.22133883 17.58603489 513.25516227 13.16474438 513.3015995 C9.7336934 513.33126704 6.30303804 513.33279172 2.87188148 513.32658005 C1.24339793 513.32759722 -0.38511053 513.33789663 -2.01346779 513.35820389 C-12.95695527 513.47793459 -22.28823179 512.363389 -30.99617004 504.97817993 C-39.08394088 496.36381025 -39.67448516 486.78795806 -39.63134766 475.44995117 C-39.64005583 473.93115747 -39.65042675 472.41237254 -39.662323 470.89360046 C-39.68897931 466.79005273 -39.69027421 462.6868748 -39.6851964 458.58325744 C-39.68304812 455.14669821 -39.69284642 451.71021246 -39.70240724 448.27366906 C-39.72455564 440.15952166 -39.72549666 432.04555945 -39.71337891 423.93139648 C-39.70130679 415.5861491 -39.72591095 407.24157675 -39.76851904 398.8964445 C-39.80385531 391.70883038 -39.81573734 384.52143011 -39.80924356 377.33373243 C-39.80563339 373.05090129 -39.81073227 368.76855154 -39.83867264 364.48579979 C-39.86399124 360.45445999 -39.85979279 356.42416486 -39.83385086 352.39283943 C-39.82915455 350.92237862 -39.83446132 349.45184241 -39.85109711 347.9814682 C-39.96070561 337.53137279 -38.40741376 328.70600017 -31.34211636 320.60711384 C-29.68611083 319.021698 -28.02589291 317.81401376 -26.08203125 316.6015625 C-25.51168655 316.23922516 -24.94134186 315.87688782 -24.35371399 315.50357056 C-16.6796204 311.45469793 -8.43712151 311.98345807 0 312 C1.66233237 311.99220954 3.32466082 311.98353683 4.98698425 311.97402954 C8.46093685 311.95916468 11.93448275 311.95964283 15.40844727 311.97021484 C19.83001525 311.98178617 24.24990261 311.94796273 28.67119312 311.9015255 C32.1022441 311.87185796 35.53289946 311.87033328 38.96405602 311.87654495 C40.59253957 311.87552778 42.22104803 311.86522837 43.84940529 311.84492111 C54.79289277 311.72519041 64.12416929 312.839736 72.83210754 320.22494507 C79.85424023 327.70429237 81.51441389 336.01966517 81.30859375 345.98046875 C81.30456543 346.91499878 81.30053711 347.84952881 81.29638672 348.81237793 C81.27564878 352.26314264 81.21980502 355.71362482 81.16796875 359.1640625 C81.08546875 366.8984375 81.00296875 374.6328125 80.91796875 382.6015625 C104.01796875 382.6015625 127.11796875 382.6015625 150.91796875 382.6015625 C151.57796875 381.2815625 152.23796875 379.9615625 152.91796875 378.6015625 C154.35546875 376.8984375 154.35546875 376.8984375 155.91796875 375.3515625 C156.43359375 374.83078125 156.94921875 374.31 157.48046875 373.7734375 C158.91796875 372.6015625 158.91796875 372.6015625 160.91796875 372.6015625 C160.91796875 364.0215625 160.91796875 355.4415625 160.91796875 346.6015625 C158.60796875 346.6015625 156.29796875 346.6015625 153.91796875 346.6015625 C151.40625 345.53515625 151.40625 345.53515625 149.23046875 344.0390625 C148.50472656 343.56339844 147.77898437 343.08773438 147.03125 342.59765625 C142.29218 338.12138126 140.69197877 334.14415103 140.39657593 327.73318481 C140.366812 325.37193437 140.35901198 323.01034412 140.36865234 320.64892578 C140.35843048 319.35538177 140.34820862 318.06183777 140.337677 316.72909546 C140.31099761 313.19584447 140.3097282 309.66302266 140.3148036 306.12969065 C140.31695014 303.17261245 140.30715812 300.21561984 140.29759276 297.25856006 C140.27543681 290.27793917 140.2745078 283.29753354 140.28662109 276.31689453 C140.29869667 269.13265485 140.2740826 261.94919895 140.23148096 254.76509297 C140.19616969 248.58137233 140.18425862 242.39790027 140.19075644 236.2140826 C140.19437035 232.52764801 140.18923047 228.84177247 140.16132736 225.15542984 C140.13134502 221.04077083 140.15017741 216.92769143 140.17333984 212.81298828 C140.15805237 211.60334412 140.14276489 210.39369995 140.12701416 209.1473999 C140.22257012 201.45209283 141.62001103 196.33235138 146.91796875 190.6015625 C151.5418257 186.69567639 154.6337979 186.6015625 160.91796875 186.6015625 C160.91796875 171.4215625 160.91796875 156.2415625 160.91796875 140.6015625 C159.59796875 139.9415625 158.27796875 139.2815625 156.91796875 138.6015625 C155.21484375 137.1640625 155.21484375 137.1640625 153.66796875 135.6015625 C152.88679688 134.828125 152.88679688 134.828125 152.08984375 134.0390625 C150.91796875 132.6015625 150.91796875 132.6015625 150.91796875 130.6015625 C127.81796875 130.6015625 104.71796875 130.6015625 80.91796875 130.6015625 C81.15436516 145.85856921 81.15436516 145.85856921 81.45849609 161.11425781 C81.62025025 173.28371401 81.58985737 182.85796104 73.29321289 192.48730469 C64.24877805 201.1379344 53.6285668 201.22624578 41.8359375 201.203125 C40.17360513 201.21091546 38.51127668 201.21958817 36.84895325 201.22909546 C33.37500065 201.24396032 29.90145475 201.24348217 26.42749023 201.23291016 C22.00592225 201.22133883 17.58603489 201.25516227 13.16474438 201.3015995 C9.7336934 201.33126704 6.30303804 201.33279172 2.87188148 201.32658005 C1.24339793 201.32759722 -0.38511053 201.33789663 -2.01346779 201.35820389 C-12.96119462 201.47798097 -22.45161544 200.40630792 -31.06890869 192.86210632 C-32.65967396 191.20834506 -33.86457403 189.54433513 -35.08203125 187.6015625 C-35.44482178 187.05636963 -35.8076123 186.51117676 -36.18139648 185.94946289 C-40.25900442 178.46556646 -39.72028579 170.24984164 -39.65844727 161.96191406 C-39.6444863 159.34313096 -39.67883713 156.7278626 -39.71679688 154.109375 C-39.7177474 152.43489496 -39.71589285 150.76041047 -39.7109375 149.0859375 C-39.72419571 148.3087738 -39.73745392 147.53161011 -39.75111389 146.730896 C-39.68163595 142.67655545 -39.25755411 140.82169884 -36.69897461 137.61279297 C-33.85588341 135.42775842 -32.61665721 134.92133397 -29.08203125 134.9765625 C-28.25703125 134.96367187 -27.43203125 134.95078125 -26.58203125 134.9375 C-22.9359626 135.90598698 -21.46417357 137.71681111 -19.08203125 140.6015625 C-18.47021484 143.81201172 -18.47021484 143.81201172 -18.48046875 147.40625 C-18.465 148.71207031 -18.44953125 150.01789063 -18.43359375 151.36328125 C-18.43947691 152.73438464 -18.44730497 154.10548099 -18.45703125 155.4765625 C-18.87893256 167.01657397 -18.87893256 167.01657397 -15.08203125 177.6015625 C-11.46856966 179.54049311 -7.88983794 179.75313704 -3.8671875 180.140625 C-2.97008057 180.22779785 -2.07297363 180.3149707 -1.14868164 180.40478516 C-0.46668701 180.46972168 0.21530762 180.5346582 0.91796875 180.6015625 C0.90131416 179.02088737 0.90131416 179.02088737 0.88432312 177.40827942 C0.78295717 167.47653526 0.70800817 157.54489607 0.65890789 147.61275196 C0.63281611 142.50650788 0.59742546 137.40068144 0.54077148 132.29467773 C0.48643712 127.36688318 0.45654506 122.43949029 0.44358253 117.5114193 C0.43434523 115.63150395 0.41630667 113.75161054 0.38931847 111.87186623 C0.3530086 109.23806926 0.34802411 106.60593089 0.3503418 103.97192383 C0.33236542 103.19508743 0.31438904 102.41825104 0.29586792 101.61787415 C0.33420525 97.59034831 0.75256818 95.80884227 3.29719543 92.61991882 C6.14292626 90.42831424 7.3780176 89.92125076 10.91796875 89.9765625 C12.15546875 89.95722656 12.15546875 89.95722656 13.41796875 89.9375 C17.12019085 90.92090274 18.54076196 92.62245015 20.91796875 95.6015625 C21.38727675 98.58956752 21.55449991 100.99427786 21.4855957 103.97192383 C21.48632584 104.80170746 21.48705597 105.63149109 21.48780823 106.48641968 C21.48433456 109.21948423 21.44548535 111.95082828 21.40625 114.68359375 C21.39692105 116.58215911 21.38980533 118.48073653 21.3848114 120.37931824 C21.36574802 125.36910407 21.31665278 130.35815872 21.2612915 135.34765625 C21.21008486 140.44195668 21.18729433 145.5363756 21.16210938 150.63085938 C21.10853351 160.62141447 21.02322856 170.61142761 20.91796875 180.6015625 C25.0626302 180.50737435 29.20676345 180.40114351 33.35083008 180.28417969 C34.75797273 180.24610957 36.16520544 180.21122005 37.57250977 180.1796875 C39.60595698 180.1335547 41.63879582 180.07564682 43.671875 180.015625 C44.89205322 179.9842041 46.11223145 179.9527832 47.36938477 179.92041016 C51.25872605 179.57094475 54.33516057 179.19594385 57.91796875 177.6015625 C61.0832369 171.40833755 60.20585835 163.86492545 60.19262695 157.06640625 C60.19697934 155.69743574 60.20216424 154.32846767 60.20811462 152.95950317 C60.22145739 149.25705876 60.22208872 145.55471672 60.21955132 141.85225296 C60.21847868 138.75583424 60.22337233 135.65943598 60.22815675 132.56302166 C60.23923499 125.25651697 60.23969843 117.9500637 60.23364258 110.64355469 C60.22759967 103.11641367 60.23992563 95.58945943 60.26121265 88.06235027 C60.27884562 81.58825588 60.28482745 75.11422085 60.2815749 68.64010334 C60.27976505 64.77839892 60.28236866 60.91682784 60.29628944 57.05514526 C60.30889136 53.42382003 60.30690161 49.79278561 60.29387856 46.16146469 C60.29039689 44.2007445 60.30167252 42.24001533 60.31344604 40.27932739 C60.2761063 34.01112806 60.19081024 29.04750044 56.91796875 23.6015625 C52.6635286 21.41029464 48.50134754 21.30882862 43.76953125 21.1875 C43.11213959 21.16813385 42.45474792 21.1487677 41.7774353 21.1288147 C39.6994074 21.06953789 37.62132251 21.02284456 35.54296875 20.9765625 C34.12497725 20.93833472 32.70700778 20.89928027 31.2890625 20.859375 C27.83223414 20.76388079 24.37523892 20.67966061 20.91796875 20.6015625 C20.93891602 21.39328857 20.95986328 22.18501465 20.98144531 23.00073242 C21.06472342 26.59671268 21.11666766 30.19248986 21.16796875 33.7890625 C21.21824219 35.65788086 21.21824219 35.65788086 21.26953125 37.56445312 C21.28242187 38.76650391 21.2953125 39.96855469 21.30859375 41.20703125 C21.32954102 42.31199951 21.35048828 43.41696777 21.37207031 44.55541992 C20.81468965 48.29436534 19.52406295 49.91823051 16.91796875 52.6015625 C13.71623621 54.20242877 10.39219816 54.10073339 6.91796875 53.6015625 C4.10793415 51.80792339 2.40856407 50.58275315 0.91796875 47.6015625 C0.83269247 45.56923616 0.8108074 43.53409244 0.8203125 41.5 C0.82353516 40.28828125 0.82675781 39.0765625 0.83007812 37.828125 C0.84264648 35.92160156 0.84264648 35.92160156 0.85546875 33.9765625 C0.85998047 32.6978125 0.86449219 31.4190625 0.86914062 30.1015625 C0.88095672 26.93484958 0.8974306 23.76822894 0.91796875 20.6015625 C-1.33428191 20.8304008 -3.58387942 21.08545473 -5.83203125 21.3515625 C-7.085 21.49078125 -8.33796875 21.63 -9.62890625 21.7734375 C-13.43443567 22.68607578 -14.77697903 23.49086096 -17.08203125 26.6015625 C-18.31153719 30.15870984 -18.20765606 33.64261004 -18.22265625 37.37890625 C-18.24199219 38.69697266 -18.26132812 40.01503906 -18.28125 41.37304688 C-18.3102232 43.45788994 -18.33203186 45.54165136 -18.33251953 47.62670898 C-18.33586321 49.64843761 -18.3726318 51.67002313 -18.41015625 53.69140625 C-18.41950195 54.89659912 -18.42884766 56.10179199 -18.43847656 57.34350586 C-19.25760353 61.4904138 -20.83570318 62.98188368 -24.08203125 65.6015625 C-26.58203125 66.265625 -26.58203125 66.265625 -29.08203125 66.2265625 C-30.31953125 66.24589844 -30.31953125 66.24589844 -31.58203125 66.265625 C-35.28236052 65.28272504 -36.70109189 63.57560629 -39.08203125 60.6015625 C-39.59440585 57.61355989 -39.80839008 55.20612832 -39.78125 52.22265625 C-39.7884053 51.41474136 -39.79556061 50.60682648 -39.80293274 49.77442932 C-39.8107006 48.06569518 -39.80571675 46.3568616 -39.78881836 44.64819336 C-39.76976085 42.07012265 -39.80880497 39.49757768 -39.85351562 36.91992188 C-39.90834104 26.12068721 -38.75554333 17.26388668 -31.45849609 8.69506836 C-22.34920348 0.1006259 -11.82322239 -0.02318076 0 0 Z M323.91796875 23.6015625 C319.74830842 29.79436573 320.49527774 36.90337979 320.52978516 44.13671875 C320.52571519 45.50569069 320.52037092 46.87465934 320.51385498 48.24362183 C320.50022599 51.94612115 320.5054616 55.64836854 320.51499224 59.35087204 C320.52261183 63.23400275 320.51553685 67.11711254 320.51083374 71.00024414 C320.50538287 77.52005874 320.51255021 84.03977123 320.52685547 90.55957031 C320.54318075 98.08672169 320.53789176 105.61362925 320.52137625 113.14077473 C320.50774229 119.6148782 320.50585104 126.08890846 320.51369226 132.56302166 C320.5183583 136.42471498 320.51902318 140.28629387 320.50908279 144.14797974 C320.5003875 147.77932213 320.50648138 151.41035156 320.52376556 155.04166031 C320.52959477 157.00236842 320.52073676 158.96310314 320.51138306 160.92379761 C320.55639498 167.1890828 320.63072258 172.16690273 323.91796875 177.6015625 C328.69307514 180.43476586 332.6770739 180.96517917 338.1640625 180.89453125 C338.82003922 180.89028641 339.47601593 180.88604156 340.15187073 180.88166809 C342.22017786 180.86505029 344.28746276 180.82743488 346.35546875 180.7890625 C347.768866 180.77399361 349.18227873 180.76030909 350.59570312 180.74804688 C354.0367831 180.71520354 357.47727594 180.66354265 360.91796875 180.6015625 C360.92731445 179.80459961 360.93666016 179.00763672 360.94628906 178.18652344 C360.99998373 174.57424075 361.08363483 170.96325429 361.16796875 167.3515625 C361.18214844 166.09730469 361.19632812 164.84304687 361.2109375 163.55078125 C361.24316406 162.34550781 361.27539062 161.14023438 361.30859375 159.8984375 C361.32954102 158.78823242 361.35048828 157.67802734 361.37207031 156.53417969 C362.03677453 152.96332677 363.064631 151.78805278 365.91796875 149.6015625 C370.10317268 148.43900585 372.22269044 148.33117649 376.29296875 149.9140625 C378.91796875 151.6015625 378.91796875 151.6015625 379.91796875 153.6015625 C380.07207981 155.6323102 380.16779328 157.66762671 380.234375 159.703125 C380.27626953 160.91484375 380.31816406 162.1265625 380.36132812 163.375 C380.40064453 164.64601562 380.43996094 165.91703125 380.48046875 167.2265625 C380.52365234 168.5053125 380.56683594 169.7840625 380.61132812 171.1015625 C380.71766761 174.26811598 380.81969708 177.43475003 380.91796875 180.6015625 C382.5024955 180.63044759 384.0871764 180.65094744 385.671875 180.66796875 C386.55431885 180.68029541 387.4367627 180.69262207 388.34594727 180.70532227 C392.35969617 180.54340074 394.49619724 179.76635672 397.91796875 177.6015625 C401.81939824 171.1072025 401.34145399 164.46622785 401.30615234 157.06640625 C401.31022231 155.69743431 401.31556658 154.32846566 401.32208252 152.95950317 C401.33571151 149.25700385 401.3304759 145.55475646 401.32094526 141.85225296 C401.31332567 137.96912225 401.32040065 134.08601246 401.32510376 130.20288086 C401.33055463 123.68306626 401.32338729 117.16335377 401.30908203 110.64355469 C401.29275675 103.11640331 401.29804574 95.58949575 401.31456125 88.06235027 C401.32819521 81.5882468 401.33008646 75.11421654 401.32224524 68.64010334 C401.3175792 64.77841002 401.31691432 60.91683113 401.32685471 57.05514526 C401.33555 53.42380287 401.32945612 49.79277344 401.31217194 46.16146469 C401.30634273 44.20075658 401.31520074 42.24002186 401.32455444 40.27932739 C401.27949767 34.0077998 401.1903455 29.04879477 397.91796875 23.6015625 C393.66171788 20.90883236 390.66787578 20.46536824 385.671875 20.53515625 C384.77927979 20.54474365 383.88668457 20.55433105 382.96704102 20.56420898 C382.29084717 20.57653564 381.61465332 20.5888623 380.91796875 20.6015625 C380.90766129 21.65978714 380.89735382 22.71801178 380.88673401 23.80830383 C380.78907195 33.77025733 380.68634468 43.73214736 380.57862949 53.69399738 C380.52341273 58.81575166 380.46999465 63.93751165 380.4206543 69.05932617 C380.37299245 74.00008863 380.32064887 78.94078114 380.265028 83.88146019 C380.24461272 85.76852876 380.22589827 87.6556165 380.20889473 89.54271889 C380.1848325 92.18130056 380.15478031 94.81974994 380.12329102 97.45825195 C380.11753555 98.2422789 380.11178009 99.02630585 380.10585022 99.83409119 C380.06259446 103.01272206 379.93038655 105.56430909 378.91796875 108.6015625 C375.96970112 109.58431838 373.99144371 109.73570975 370.91796875 109.7265625 C369.61859375 109.73042969 369.61859375 109.73042969 368.29296875 109.734375 C365.91796875 109.6015625 365.91796875 109.6015625 362.91796875 108.6015625 C361.67103022 104.86074692 361.7412652 101.35678206 361.71264648 97.45825195 C361.70274689 96.62876038 361.69284729 95.7992688 361.68264771 94.94464111 C361.6510467 92.20140441 361.62628077 89.45815039 361.6015625 86.71484375 C361.58099177 84.81340585 361.55999526 82.91197251 361.53858948 81.01054382 C361.48338114 76.00466606 361.43396637 70.99874712 361.38574219 65.99279785 C361.33551815 60.88513522 361.27983679 55.77753243 361.22460938 50.66992188 C361.11704293 40.64718654 361.01559456 30.62439925 360.91796875 20.6015625 C356.77371787 20.52690856 352.62983251 20.47272529 348.48510742 20.43676758 C347.07781141 20.42176373 345.67056151 20.40135387 344.26342773 20.37524414 C342.23018968 20.33848585 340.19757443 20.32175266 338.1640625 20.30859375 C336.94388428 20.2928833 335.72370605 20.27717285 334.46655273 20.26098633 C330.28307967 20.66249613 327.54114483 21.45183141 323.91796875 23.6015625 Z M166.91796875 82.6015625 C161.82959929 90.60177345 161.19270741 98.23445473 161.91796875 107.6015625 C163.73804578 114.72586403 168.05501455 121.04830853 174.19921875 125.109375 C182.54662085 129.8522171 191.07989778 131.34851494 200.59375 128.91796875 C209.55673472 125.18726181 214.89490512 119.32928318 218.91796875 110.6015625 C221.17361881 103.83461232 221.04427854 95.27405573 218.29296875 88.6640625 C214.40122163 81.2916683 209.02671602 75.60315089 201.15625 72.51953125 C187.90171116 68.76221324 175.9494837 72.4666498 166.91796875 82.6015625 Z M80.91796875 90.6015625 C80.91796875 97.2015625 80.91796875 103.8015625 80.91796875 110.6015625 C100.71796875 110.6015625 120.51796875 110.6015625 140.91796875 110.6015625 C140.91796875 104.0015625 140.91796875 97.4015625 140.91796875 90.6015625 C121.11796875 90.6015625 101.31796875 90.6015625 80.91796875 90.6015625 Z M240.91796875 90.6015625 C240.91796875 97.2015625 240.91796875 103.8015625 240.91796875 110.6015625 C260.71796875 110.6015625 280.51796875 110.6015625 300.91796875 110.6015625 C300.91796875 104.0015625 300.91796875 97.4015625 300.91796875 90.6015625 C281.11796875 90.6015625 261.31796875 90.6015625 240.91796875 90.6015625 Z M180.91796875 150.6015625 C180.91796875 162.4815625 180.91796875 174.3615625 180.91796875 186.6015625 C187.51796875 186.6015625 194.11796875 186.6015625 200.91796875 186.6015625 C200.91796875 174.7215625 200.91796875 162.8415625 200.91796875 150.6015625 C194.31796875 150.6015625 187.71796875 150.6015625 180.91796875 150.6015625 Z M160.91796875 206.6015625 C160.91796875 246.2015625 160.91796875 285.8015625 160.91796875 326.6015625 C180.71796875 326.6015625 200.51796875 326.6015625 220.91796875 326.6015625 C220.91796875 287.0015625 220.91796875 247.4015625 220.91796875 206.6015625 C201.11796875 206.6015625 181.31796875 206.6015625 160.91796875 206.6015625 Z M-16.08203125 335.6015625 C-19.98346074 342.0959225 -19.50551649 348.73689715 -19.47021484 356.13671875 C-19.47428481 357.50569069 -19.47962908 358.87465934 -19.48614502 360.24362183 C-19.49977401 363.94612115 -19.4945384 367.64836854 -19.48500776 371.35087204 C-19.47738817 375.23400275 -19.48446315 379.11711254 -19.48916626 383.00024414 C-19.49461713 389.52005874 -19.48744979 396.03977123 -19.47314453 402.55957031 C-19.45681925 410.08672169 -19.46210824 417.61362925 -19.47862375 425.14077473 C-19.49225771 431.6148782 -19.49414896 438.08890846 -19.48630774 444.56302166 C-19.4816417 448.42471498 -19.48097682 452.28629387 -19.49091721 456.14797974 C-19.4996125 459.77932213 -19.49351862 463.41035156 -19.47623444 467.04166031 C-19.47040523 469.00236842 -19.47926324 470.96310314 -19.48861694 472.92379761 C-19.44356017 479.1953252 -19.354408 484.15433023 -16.08203125 489.6015625 C-11.82578038 492.29429264 -8.83193828 492.73775676 -3.8359375 492.66796875 C-2.94334229 492.65838135 -2.05074707 492.64879395 -1.13110352 492.63891602 C-0.11681274 492.62042603 -0.11681274 492.62042603 0.91796875 492.6015625 C0.92161438 491.93392883 0.92526001 491.26629517 0.92901611 490.57843018 C0.97079705 483.63526486 1.04011201 476.6927633 1.12548828 469.75 C1.15372982 467.15827062 1.1749284 464.56645461 1.18896484 461.97460938 C1.21034937 458.25084979 1.25697961 454.52813549 1.30859375 450.8046875 C1.31043671 449.06387909 1.31043671 449.06387909 1.31231689 447.28790283 C1.34189484 445.66667511 1.34189484 445.66667511 1.37207031 444.01269531 C1.38095276 443.06227356 1.38983521 442.11185181 1.39898682 441.13262939 C2.07343981 437.84333255 3.31223844 436.66094061 5.91796875 434.6015625 C10.10317268 433.43900585 12.22269044 433.33117649 16.29296875 434.9140625 C18.91796875 436.6015625 18.91796875 436.6015625 19.91796875 438.6015625 C20.03714043 440.32683371 20.09514201 442.05649148 20.12329102 443.78564453 C20.15320885 445.40709885 20.15320885 445.40709885 20.18373108 447.06130981 C20.20044357 448.23217133 20.21715607 449.40303284 20.234375 450.609375 C20.2551561 451.80513153 20.27593719 453.00088806 20.29734802 454.23287964 C20.36289164 458.06404714 20.42175093 461.89528488 20.48046875 465.7265625 C20.52364938 468.31901777 20.56726352 470.91146586 20.61132812 473.50390625 C20.71857794 479.86971677 20.82033535 486.23559763 20.91796875 492.6015625 C25.06221963 492.67621644 29.20610499 492.73039971 33.35083008 492.76635742 C34.75812609 492.78136127 36.16537599 492.80177113 37.57250977 492.82788086 C39.60574782 492.86463915 41.63836307 492.88137234 43.671875 492.89453125 C44.89205322 492.9102417 46.11223145 492.92595215 47.36938477 492.94213867 C51.55285783 492.54062887 54.29479267 491.75129359 57.91796875 489.6015625 C61.8356718 483.12459606 61.34140262 476.45545957 61.30615234 469.06640625 C61.31022231 467.69743431 61.31556658 466.32846566 61.32208252 464.95950317 C61.33571151 461.25700385 61.3304759 457.55475646 61.32094526 453.85225296 C61.31332567 449.96912225 61.32040065 446.08601246 61.32510376 442.20288086 C61.33055463 435.68306626 61.32338729 429.16335377 61.30908203 422.64355469 C61.29275675 415.11640331 61.29804574 407.58949575 61.31456125 400.06235027 C61.32819521 393.5882468 61.33008646 387.11421654 61.32224524 380.64010334 C61.3175792 376.77841002 61.31691432 372.91683113 61.32685471 369.05514526 C61.33555 365.42380287 61.32945612 361.79277344 61.31217194 358.16146469 C61.30634273 356.20075658 61.31520074 354.24002186 61.32455444 352.27932739 C61.27954252 346.0140422 61.20521492 341.03622227 57.91796875 335.6015625 C53.14286236 332.76835914 49.1588636 332.23794583 43.671875 332.30859375 C42.68790993 332.31496101 42.68790993 332.31496101 41.68406677 332.32145691 C39.61575964 332.33807471 37.54847474 332.37569012 35.48046875 332.4140625 C34.0670715 332.42913139 32.65365877 332.44281591 31.24023438 332.45507812 C27.7991544 332.48792146 24.35866156 332.53958235 20.91796875 332.6015625 C20.91432312 333.31930847 20.91067749 334.03705444 20.90692139 334.77655029 C20.86903413 341.54498184 20.81217327 348.31301757 20.73406601 355.08109665 C20.69457824 358.56059387 20.66239665 362.03983755 20.64697266 365.51953125 C20.62891328 369.52124626 20.57896894 373.52201374 20.52734375 377.5234375 C20.52611511 378.77147156 20.52488647 380.01950562 20.52362061 381.30535889 C20.50390198 382.46626038 20.48418335 383.62716187 20.46386719 384.82324219 C20.45054352 386.35546417 20.45054352 386.35546417 20.43695068 387.91864014 C19.77880482 391.32098258 18.62201075 392.49299354 15.91796875 394.6015625 C11.73276482 395.76411915 9.61324706 395.87194851 5.54296875 394.2890625 C2.91796875 392.6015625 2.91796875 392.6015625 1.91796875 390.6015625 C1.79826814 388.75374708 1.74069915 386.9017689 1.71264648 385.05029297 C1.69270126 383.88924042 1.67275604 382.72818787 1.65220642 381.5319519 C1.63549393 380.27359528 1.61878143 379.01523865 1.6015625 377.71875 C1.5807814 376.43420929 1.56000031 375.14966858 1.53858948 373.82620239 C1.48337826 370.41006891 1.43396487 366.99387505 1.38574219 363.57763672 C1.33552018 360.09206769 1.27983778 356.60658641 1.22460938 353.12109375 C1.11703947 346.28132608 1.01559191 339.44147916 0.91796875 332.6015625 C-0.666558 332.57267741 -2.2512389 332.55217756 -3.8359375 332.53515625 C-4.71838135 332.52282959 -5.6008252 332.51050293 -6.51000977 332.49780273 C-10.52375867 332.65972426 -12.66025974 333.43676828 -16.08203125 335.6015625 Z M323.91796875 335.6015625 C319.74830842 341.79436573 320.49527774 348.90337979 320.52978516 356.13671875 C320.52571519 357.50569069 320.52037092 358.87465934 320.51385498 360.24362183 C320.50022599 363.94612115 320.5054616 367.64836854 320.51499224 371.35087204 C320.52261183 375.23400275 320.51553685 379.11711254 320.51083374 383.00024414 C320.50538287 389.52005874 320.51255021 396.03977123 320.52685547 402.55957031 C320.54318075 410.08672169 320.53789176 417.61362925 320.52137625 425.14077473 C320.50774229 431.6148782 320.50585104 438.08890846 320.51369226 444.56302166 C320.5183583 448.42471498 320.51902318 452.28629387 320.50908279 456.14797974 C320.5003875 459.77932213 320.50648138 463.41035156 320.52376556 467.04166031 C320.52959477 469.00236842 320.52073676 470.96310314 320.51138306 472.92379761 C320.55639498 479.1890828 320.63072258 484.16690273 323.91796875 489.6015625 C328.69307514 492.43476586 332.6770739 492.96517917 338.1640625 492.89453125 C338.82003922 492.89028641 339.47601593 492.88604156 340.15187073 492.88166809 C342.22017786 492.86505029 344.28746276 492.82743488 346.35546875 492.7890625 C347.768866 492.77399361 349.18227873 492.76030909 350.59570312 492.74804688 C354.0367831 492.71520354 357.47727594 492.66354265 360.91796875 492.6015625 C360.92731445 491.56225586 360.93666016 490.52294922 360.94628906 489.45214844 C360.98620998 485.59022412 361.05197353 481.7290947 361.12548828 477.86767578 C361.15368593 476.19753239 361.17490654 474.52725585 361.18896484 472.85693359 C361.21041212 470.45340878 361.2570672 468.05148267 361.30859375 465.6484375 C361.30982239 464.90350037 361.31105103 464.15856323 361.31231689 463.39105225 C361.41067526 459.89727068 361.65563691 457.94513434 363.80371094 455.13183594 C366.36207715 453.28012238 367.78174368 453.06331585 370.91796875 453.1015625 C371.76359375 453.09125 372.60921875 453.0809375 373.48046875 453.0703125 C376.82536607 453.79932858 377.83995185 454.8800168 379.91796875 457.6015625 C380.33583577 460.40852253 380.52271188 462.84008191 380.52734375 465.6484375 C380.54388 466.41963928 380.56041626 467.19084106 380.57745361 467.9854126 C380.62591468 470.44087704 380.64729912 472.89572234 380.66796875 475.3515625 C380.69613021 477.01956237 380.72605789 478.68753342 380.7578125 480.35546875 C380.83167247 484.437449 380.88125811 488.51908595 380.91796875 492.6015625 C382.5024955 492.63044759 384.0871764 492.65094744 385.671875 492.66796875 C386.55431885 492.68029541 387.4367627 492.69262207 388.34594727 492.70532227 C392.35969617 492.54340074 394.49619724 491.76635672 397.91796875 489.6015625 C401.81939824 483.1072025 401.34145399 476.46622785 401.30615234 469.06640625 C401.31022231 467.69743431 401.31556658 466.32846566 401.32208252 464.95950317 C401.33571151 461.25700385 401.3304759 457.55475646 401.32094526 453.85225296 C401.31332567 449.96912225 401.32040065 446.08601246 401.32510376 442.20288086 C401.33055463 435.68306626 401.32338729 429.16335377 401.30908203 422.64355469 C401.29275675 415.11640331 401.29804574 407.58949575 401.31456125 400.06235027 C401.32819521 393.5882468 401.33008646 387.11421654 401.32224524 380.64010334 C401.3175792 376.77841002 401.31691432 372.91683113 401.32685471 369.05514526 C401.33555 365.42380287 401.32945612 361.79277344 401.31217194 358.16146469 C401.30634273 356.20075658 401.31520074 354.24002186 401.32455444 352.27932739 C401.27949767 346.0077998 401.1903455 341.04879477 397.91796875 335.6015625 C393.66171788 332.90883236 390.66787578 332.46536824 385.671875 332.53515625 C384.77927979 332.54474365 383.88668457 332.55433105 382.96704102 332.56420898 C382.29084717 332.57653564 381.61465332 332.5888623 380.91796875 332.6015625 C380.90766129 333.57209061 380.89735382 334.54261871 380.88673401 335.54255676 C380.78905805 344.68041079 380.68632945 353.81819584 380.57862949 362.95593739 C380.52342048 367.65395062 380.47000365 372.3519701 380.4206543 377.05004883 C380.37298101 381.58233285 380.32063703 386.11454088 380.265028 390.64673424 C380.2446179 392.37750041 380.22590259 394.1082874 380.20889473 395.83909035 C380.18482099 398.25974697 380.15477045 400.68026004 380.12329102 403.10083008 C380.11753555 403.81940186 380.11178009 404.53797363 380.10585022 405.27832031 C380.06075768 408.32060564 379.88792425 410.69169599 378.91796875 413.6015625 C374.76753157 415.4273986 370.32459104 416.01114689 365.91796875 414.9140625 C364.92796875 414.4809375 363.93796875 414.0478125 362.91796875 413.6015625 C361.73349991 410.04815598 361.74228122 406.80073803 361.71264648 403.10083008 C361.70274689 402.33961349 361.69284729 401.57839691 361.68264771 400.79411316 C361.65106146 398.27813832 361.62628666 395.76214461 361.6015625 393.24609375 C361.58099049 391.50159718 361.55999395 389.75710557 361.53858948 388.01261902 C361.48339433 383.42103083 361.43397376 378.82939785 361.38574219 374.23773193 C361.33550851 369.55232761 361.27983218 364.86698833 361.22460938 360.18164062 C361.11705907 350.98833682 361.01560713 341.79497654 360.91796875 332.6015625 C356.77371787 332.52690856 352.62983251 332.47272529 348.48510742 332.43676758 C347.07781141 332.42176373 345.67056151 332.40135387 344.26342773 332.37524414 C342.23018968 332.33848585 340.19757443 332.32175266 338.1640625 332.30859375 C336.94388428 332.2928833 335.72370605 332.27717285 334.46655273 332.26098633 C330.28307967 332.66249613 327.54114483 333.45183141 323.91796875 335.6015625 Z M180.91796875 346.6015625 C180.91796875 351.8815625 180.91796875 357.1615625 180.91796875 362.6015625 C187.51796875 362.6015625 194.11796875 362.6015625 200.91796875 362.6015625 C200.91796875 357.3215625 200.91796875 352.0415625 200.91796875 346.6015625 C194.31796875 346.6015625 187.71796875 346.6015625 180.91796875 346.6015625 Z M166.91796875 394.6015625 C161.82959929 402.60177345 161.19270741 410.23445473 161.91796875 419.6015625 C163.73804578 426.72586403 168.05501455 433.04830853 174.19921875 437.109375 C182.54662085 441.8522171 191.07989778 443.34851494 200.59375 440.91796875 C209.55673472 437.18726181 214.89490512 431.32928318 218.91796875 422.6015625 C221.17361881 415.83461232 221.04427854 407.27405573 218.29296875 400.6640625 C214.40122163 393.2916683 209.02671602 387.60315089 201.15625 384.51953125 C187.90171116 380.76221324 175.9494837 384.4666498 166.91796875 394.6015625 Z M80.91796875 402.6015625 C80.91796875 409.2015625 80.91796875 415.8015625 80.91796875 422.6015625 C100.71796875 422.6015625 120.51796875 422.6015625 140.91796875 422.6015625 C140.91796875 416.0015625 140.91796875 409.4015625 140.91796875 402.6015625 C121.11796875 402.6015625 101.31796875 402.6015625 80.91796875 402.6015625 Z M240.91796875 402.6015625 C240.91796875 409.2015625 240.91796875 415.8015625 240.91796875 422.6015625 C260.71796875 422.6015625 280.51796875 422.6015625 300.91796875 422.6015625 C300.91796875 416.0015625 300.91796875 409.4015625 300.91796875 402.6015625 C281.11796875 402.6015625 261.31796875 402.6015625 240.91796875 402.6015625 Z " fill="#000000" transform="translate(65.08203125,-0.6015625)"/>
<path d="M0 0 C3.125 1.875 3.125 1.875 5 5 C5.98876625 10.02622846 5.7769173 13.70513784 3.125 18.125 C-1.29486216 20.7769173 -4.97377154 20.98876625 -10 20 C-13.125 18.125 -13.125 18.125 -15 15 C-15.98876625 9.97377154 -15.7769173 6.29486216 -13.125 1.875 C-8.70513784 -0.7769173 -5.02622846 -0.98876625 0 0 Z " fill="#000000" transform="translate(41,90)"/>
</svg>
