<?xml version="1.0" encoding="UTF-8"?>
<svg version="1.1" xmlns="http://www.w3.org/2000/svg" width="64" height="64">
<path d="M0 0 C6.6 0 13.2 0 20 0 C20 3.96 20 7.92 20 12 C18.02 12 16.04 12 14 12 C14 14.31 14 16.62 14 19 C15.32 19 16.64 19 18 19 C18 21.31 18 23.62 18 26 C21.3 26 24.6 26 28 26 C28 26.66 28 27.32 28 28 C33.28 28 38.56 28 44 28 C44 26.35 44 24.7 44 23 C45.32 23 46.64 23 48 23 C48 19.37 48 15.74 48 12 C46.02 12 44.04 12 42 12 C42 8.04 42 4.08 42 0 C48.6 0 55.2 0 62 0 C62 3.96 62 7.92 62 12 C60.02 12 58.04 12 56 12 C56 15.63 56 19.26 56 23 C57.65 23 59.3 23 61 23 C63.30821663 26.46232494 63.27000989 27.91798316 63.25 32 C63.25773437 33.5778125 63.25773437 33.5778125 63.265625 35.1875 C63 38 63 38 61 41 C59.35 41 57.7 41 56 41 C56 44.63 56 48.26 56 52 C57.98 52 59.96 52 62 52 C62 55.96 62 59.92 62 64 C55.4 64 48.8 64 42 64 C42 60.04 42 56.08 42 52 C43.98 52 45.96 52 48 52 C48 48.37 48 44.74 48 41 C46.68 41 45.36 41 44 41 C44 39.35 44 37.7 44 36 C38.72 36 33.44 36 28 36 C28 36.66 28 37.32 28 38 C24.7 38 21.4 38 18 38 C18 40.31 18 42.62 18 45 C16.68 45 15.36 45 14 45 C14 47.31 14 49.62 14 52 C15.98 52 17.96 52 20 52 C20 55.96 20 59.92 20 64 C13.4 64 6.8 64 0 64 C0 60.04 0 56.08 0 52 C1.98 52 3.96 52 6 52 C6 49.69 6 47.38 6 45 C5.21625 44.87625 4.4325 44.7525 3.625 44.625 C1 44 1 44 -1 42 C-1.44869661 38.70756396 -1.32408242 35.38202257 -1.3125 32.0625 C-1.32861328 31.14275391 -1.34472656 30.22300781 -1.36132812 29.27539062 C-1.36197266 28.39173828 -1.36261719 27.50808594 -1.36328125 26.59765625 C-1.36626221 25.78820557 -1.36924316 24.97875488 -1.37231445 24.14477539 C-1 22 -1 22 0.27270508 20.21264648 C2 19 2 19 6 19 C6 16.69 6 14.38 6 12 C4.02 12 2.04 12 0 12 C0 8.04 0 4.08 0 0 Z " fill="#FF614A" transform="translate(1,0)"/>
<path d="M0 0 C6.6 0 13.2 0 20 0 C20 3.96 20 7.92 20 12 C18.02 12 16.04 12 14 12 C14 15.63 14 19.26 14 23 C15.65 23 17.3 23 19 23 C21.30821663 26.46232494 21.27000989 27.91798316 21.25 32 C21.25773437 33.5778125 21.25773437 33.5778125 21.265625 35.1875 C21 38 21 38 19 41 C17.35 41 15.7 41 14 41 C14 44.63 14 48.26 14 52 C15.98 52 17.96 52 20 52 C20 55.96 20 59.92 20 64 C13.4 64 6.8 64 0 64 C0 60.04 0 56.08 0 52 C1.98 52 3.96 52 6 52 C6 48.37 6 44.74 6 41 C4.68 41 3.36 41 2 41 C2 39.35 2 37.7 2 36 C-3.28 36 -8.56 36 -14 36 C-14 33.36 -14 30.72 -14 28 C-8.72 28 -3.44 28 2 28 C2 26.35 2 24.7 2 23 C3.32 23 4.64 23 6 23 C6 19.37 6 15.74 6 12 C4.02 12 2.04 12 0 12 C0 8.04 0 4.08 0 0 Z " fill="#FE614A" transform="translate(43,0)"/>
<path d="M0 0 C6.6 0 13.2 0 20 0 C20 3.96 20 7.92 20 12 C18.02 12 16.04 12 14 12 C14 14.31 14 16.62 14 19 C15.32 19 16.64 19 18 19 C18 21.31 18 23.62 18 26 C15.03 26.33 12.06 26.66 9 27 C8.67 29.97 8.34 32.94 8 36 C5.03 36 2.06 36 -1 36 C-1.08097324 33.72975032 -1.13917704 31.45867925 -1.1875 29.1875 C-1.22230469 27.92292969 -1.25710937 26.65835937 -1.29296875 25.35546875 C-1 22 -1 22 0.26171875 20.05078125 C2 19 2 19 6 19 C6 16.69 6 14.38 6 12 C4.02 12 2.04 12 0 12 C0 8.04 0 4.08 0 0 Z " fill="#FF614A" transform="translate(1,0)"/>
<path d="M0 0 C6.6 0 13.2 0 20 0 C20 3.96 20 7.92 20 12 C13.4 12 6.8 12 0 12 C0 8.04 0 4.08 0 0 Z " fill="#484B4D" transform="translate(43,52)"/>
<path d="M0 0 C6.6 0 13.2 0 20 0 C20 3.96 20 7.92 20 12 C13.4 12 6.8 12 0 12 C0 8.04 0 4.08 0 0 Z " fill="#484B4D" transform="translate(1,52)"/>
<path d="M0 0 C6.6 0 13.2 0 20 0 C20 3.96 20 7.92 20 12 C13.4 12 6.8 12 0 12 C0 8.04 0 4.08 0 0 Z " fill="#484B4D" transform="translate(43,0)"/>
<path d="M0 0 C6.6 0 13.2 0 20 0 C20 3.96 20 7.92 20 12 C13.4 12 6.8 12 0 12 C0 8.04 0 4.08 0 0 Z " fill="#484B4D" transform="translate(1,0)"/>
<path d="M0 0 C5.28 0 10.56 0 16 0 C16 2.64 16 5.28 16 8 C10.72 8 5.44 8 0 8 C0 5.36 0 2.72 0 0 Z " fill="#FFD551" transform="translate(29,28)"/>
<path d="M0 0 C3.3 0 6.6 0 10 0 C10 3.96 10 7.92 10 12 C6.7 12 3.4 12 0 12 C0 8.04 0 4.08 0 0 Z " fill="#E43320" transform="translate(19,26)"/>
<path d="M0 0 C3.46679688 0.04882812 3.46679688 0.04882812 6.93359375 0.09765625 C6.93359375 4.05765625 6.93359375 8.01765625 6.93359375 12.09765625 C-0 12.1953125 -0 12.1953125 -2.06640625 12.09765625 C-3.06640625 11.09765625 -3.06640625 11.09765625 -3.19921875 8.84765625 C-3.19664063 7.94015625 -3.1940625 7.03265625 -3.19140625 6.09765625 C-3.19398437 5.19015625 -3.1965625 4.28265625 -3.19921875 3.34765625 C-3.02705496 0.43099912 -2.91867841 0.13793376 0 0 Z " fill="#FED250" transform="translate(12.06640625,25.90234375)"/>
<path d="M0 0 C7.71484375 -0.09765625 7.71484375 -0.09765625 10 0 C11 1 11 1 11.1328125 2.8125 C11.13023438 3.534375 11.12765625 4.25625 11.125 5 C11.12757812 5.721875 11.13015625 6.44375 11.1328125 7.1875 C11 9 11 9 10 10 C6.66381769 10.14257189 3.34024394 10.04228157 0 10 C0 6.7 0 3.4 0 0 Z " fill="#E53320" transform="translate(49,27)"/>
<path d="M0 0 C2.64 0 5.28 0 8 0 C8 3.63 8 7.26 8 11 C5.36 11 2.72 11 0 11 C0 7.37 0 3.74 0 0 Z " fill="#FFD551" transform="translate(49,41)"/>
<path d="M0 0 C2.64 0 5.28 0 8 0 C8 3.63 8 7.26 8 11 C5.36 11 2.72 11 0 11 C0 7.37 0 3.74 0 0 Z " fill="#FFD551" transform="translate(49,12)"/>
<path d="M0 0 C2.97 0 5.94 0 9 0 C9 2.64 9 5.28 9 8 C6.03 8 3.06 8 0 8 C0 5.36 0 2.72 0 0 Z " fill="#E53320" transform="translate(0,28)"/>
<path d="M0 0 C2.64 0 5.28 0 8 0 C8 2.31 8 4.62 8 7 C5.36 7 2.72 7 0 7 C0 4.69 0 2.38 0 0 Z " fill="#FFD551" transform="translate(7,45)"/>
<path d="M0 0 C2.64 0 5.28 0 8 0 C8 2.31 8 4.62 8 7 C5.36 7 2.72 7 0 7 C0 4.69 0 2.38 0 0 Z " fill="#FFD551" transform="translate(7,12)"/>
</svg>
