<?xml version="1.0" encoding="UTF-8"?>
<svg version="1.1" xmlns="http://www.w3.org/2000/svg" width="512" height="512">
<path d="M0 0 C2.31054688 1.12890625 2.31054688 1.12890625 4.71875 2.5625 C5.6360791 3.10334229 6.5534082 3.64418457 7.49853516 4.20141602 C8.48901855 4.79494873 9.47950195 5.38848145 10.5 6 C12.66401011 7.28003649 14.82807503 8.55998032 16.9921875 9.83984375 C18.14429346 10.5244292 19.29631026 11.20916473 20.44824219 11.89404297 C24.04287049 14.02868732 27.6488743 16.14356636 31.2578125 18.25390625 C31.86312805 18.60790497 32.4684436 18.96190369 33.09210205 19.32662964 C34.31960453 20.04444102 35.54712327 20.76222458 36.7746582 21.47998047 C46.74083124 27.31056646 56.68863144 33.17207241 66.62475586 39.05371094 C74.74951981 43.85993021 82.89576839 48.62921955 91.04232788 53.39834595 C99.98261331 58.63321404 108.90428581 63.89822774 117.8125 69.1875 C128.10236669 75.2958302 138.42437906 81.34634858 148.765625 87.3671875 C155.72582935 91.42021968 162.67651558 95.48941843 169.625 99.5625 C170.55212799 100.10594559 170.55212799 100.10594559 171.49798584 100.66036987 C180.21434852 105.77056679 188.91885577 110.90050336 197.61376953 116.04711914 C205.23021805 120.55243735 212.86402722 125.02789673 220.5 129.5 C229.40408811 134.71523704 238.30334859 139.93833426 247.1875 145.1875 C248.04085938 145.69152344 248.89421875 146.19554687 249.7734375 146.71484375 C251.33914235 147.640825 252.8966982 148.58082802 254.44290829 149.53900719 C256.94838544 151.05198892 256.94838544 151.05198892 259.60611057 152.02417946 C262.65495403 153.36683931 264.6748352 154.59587021 267 157 C268.55264703 162.31268959 268.400095 167.58631397 268.34155273 173.06787109 C268.36002519 174.72083026 268.38270121 176.37374699 268.40925598 178.02659607 C268.46760562 182.50868442 268.46234256 186.98858496 268.44204974 191.47092772 C268.4307497 195.21602058 268.45023877 198.96069762 268.46959931 202.70573771 C268.51468381 211.54344256 268.5080092 220.38007138 268.46850586 229.21777344 C268.42863047 238.32683148 268.4725829 247.43272936 268.55852169 256.54139841 C268.62959205 264.36941089 268.65006894 272.19643587 268.62985379 280.02474463 C268.61819507 284.69705734 268.62515767 289.36739406 268.68014336 294.03944016 C268.72954257 298.43558501 268.71548597 302.82711612 268.65333366 307.22305489 C268.64097905 308.83224253 268.65059677 310.44177802 268.68425369 312.05066109 C268.77843171 316.93188652 268.64771803 321.33908818 267 326 C263.04631516 329.76823436 258.9935678 331.76707791 254 334 C252.02496794 335.09907562 250.05823823 336.2134016 248.10546875 337.3515625 C246.13403442 338.4449145 244.16134188 339.53600039 242.1875 340.625 C233.77413512 345.29902143 225.42078817 350.05794958 217.125 354.9375 C208.65049134 359.91757473 200.1059389 364.75079668 191.5 369.5 C182.81350687 374.29468624 174.18567868 379.1714719 165.625 384.1875 C164.65264404 384.7554126 163.68028809 385.3233252 162.6784668 385.90844727 C157.77548648 388.7753431 152.8868097 391.6640579 148.01171875 394.578125 C146.11219346 395.69828014 144.21246262 396.81808681 142.3125 397.9375 C141.44512207 398.46432373 140.57774414 398.99114746 139.68408203 399.53393555 C138.87696777 400.00613525 138.06985352 400.47833496 137.23828125 400.96484375 C136.53743408 401.3837085 135.83658691 401.80257324 135.11450195 402.23413086 C132.30861058 403.25042011 130.83406897 402.88077143 128 402 C125.51831055 400.82348633 125.51831055 400.82348633 122.88671875 399.33203125 C121.40486084 398.4978064 121.40486084 398.4978064 119.89306641 397.64672852 C118.83522949 397.04143311 117.77739258 396.4361377 116.6875 395.8125 C115.57810059 395.184646 114.46870117 394.55679199 113.32568359 393.90991211 C104.89680887 389.12471372 96.52902484 384.23621438 88.17138672 379.32788086 C79.47358762 374.23608861 70.67384668 369.338935 61.85375977 364.46289062 C52.46678034 359.27103985 43.14367831 353.97560469 33.84228516 348.63232422 C28.31462934 345.45779177 22.78304144 342.29013344 17.25 339.125 C16.65767578 338.78610748 16.06535156 338.44721497 15.45507812 338.09805298 C5.97896724 332.67864429 -3.53327014 327.32640759 -13.06420898 322.00390625 C-23.08275754 316.40518837 -33.0442014 310.70932157 -43 305 C-47.58231646 302.37322086 -52.16547084 299.74791488 -56.75 297.125 C-57.34214294 296.78619812 -57.93428589 296.44739624 -58.54437256 296.09832764 C-66.98434986 291.27150666 -75.4489026 286.49096844 -83.9375 281.75 C-99.58950304 273.0079359 -115.13298924 264.08265237 -130.66015625 255.12109375 C-131.8646176 254.42605496 -133.06908534 253.73102723 -134.27355957 253.03601074 C-137.18243549 251.35744867 -140.09124773 249.67877634 -143 248 C-143.3975323 226.13860555 -143.69709631 204.27780868 -143.88080692 182.41353035 C-143.96838527 172.2607844 -144.08771838 162.11028677 -144.2824707 151.95898438 C-144.45218638 143.10845902 -144.56164882 134.2595617 -144.59950441 125.40745437 C-144.62162971 120.72138908 -144.67339845 116.03997985 -144.79741096 111.35541153 C-145.52341426 82.84973139 -145.52341426 82.84973139 -141.35395241 76.48878288 C-137.45832858 72.79664365 -133.21592045 71.0027458 -128.0862484 69.62720013 C-124.89465522 68.66769423 -122.3817579 67.03948456 -119.56640625 65.26953125 C-117.5655446 64.11642292 -115.56423659 62.96408881 -113.5625 61.8125 C-111.31117415 60.51566626 -109.05987277 59.21879004 -106.80859375 57.921875 C-105.67921387 57.27154297 -104.54983398 56.62121094 -103.38623047 55.95117188 C-100.10119378 54.05830863 -96.81783564 52.16257293 -93.53515625 50.265625 C-82.37246813 43.81609077 -71.19660909 37.39042887 -60 31 C-50.72042359 25.70263511 -41.44737425 20.39424875 -32.1875 15.0625 C-31.10960205 14.44375 -30.0317041 13.825 -28.92114258 13.1875 C-24.31082065 10.53193163 -19.72426718 7.85775748 -15.21875 5.02734375 C-14.52370361 4.59349365 -13.82865723 4.15964355 -13.11254883 3.71264648 C-11.35152164 2.60332219 -9.60281266 1.4745048 -7.85546875 0.34375 C-4.47338328 -1.24781963 -3.51575925 -0.99990988 0 0 Z " fill="#6C7FBC" transform="translate(194,55)"/>
<path d="M0 0 C3.76565551 0.46057113 6.4796521 1.63427789 9.71875 3.5625 C10.6360791 4.10334229 11.5534082 4.64418457 12.49853516 5.20141602 C13.48901855 5.79494873 14.47950195 6.38848145 15.5 7 C17.66401011 8.28003649 19.82807503 9.55998032 21.9921875 10.83984375 C23.14429346 11.5244292 24.29631026 12.20916473 25.44824219 12.89404297 C29.04287049 15.02868732 32.6488743 17.14356636 36.2578125 19.25390625 C36.86312805 19.60790497 37.4684436 19.96190369 38.09210205 20.32662964 C39.31960453 21.04444102 40.54712327 21.76222458 41.7746582 22.47998047 C51.74083124 28.31056646 61.68863144 34.17207241 71.62475586 40.05371094 C79.74951981 44.85993021 87.89576839 49.62921955 96.04232788 54.39834595 C104.98261331 59.63321404 113.90428581 64.89822774 122.8125 70.1875 C133.10236669 76.2958302 143.42437906 82.34634858 153.765625 88.3671875 C160.72582935 92.42021968 167.67651558 96.48941843 174.625 100.5625 C175.55212799 101.10594559 175.55212799 101.10594559 176.49798584 101.66036987 C185.21434852 106.77056679 193.91885577 111.90050336 202.61376953 117.04711914 C210.23021805 121.55243735 217.86402722 126.02789673 225.5 130.5 C234.40408811 135.71523704 243.30334859 140.93833426 252.1875 146.1875 C253.04085938 146.69152344 253.89421875 147.19554687 254.7734375 147.71484375 C260.53001267 151.11936833 266.26874109 154.55304304 272 158 C269.52079295 160.77339447 266.79477299 162.40788797 263.56640625 164.23046875 C262.45716797 164.86017578 261.34792969 165.48988281 260.20507812 166.13867188 C258.99090721 166.82165334 257.77671388 167.50459493 256.5625 168.1875 C255.29983742 168.90247797 254.03747242 169.6179817 252.77539062 170.33398438 C250.15235438 171.82154145 247.52804997 173.30682413 244.90283203 174.79052734 C238.92314507 178.17255266 232.96260152 181.58796828 227 185 C224.67337783 186.3297785 222.34643641 187.65899802 220.01953125 188.98828125 C215.88621296 191.34991958 211.75358581 193.71276114 207.62173462 196.07696533 C204.64386606 197.78084347 201.66572228 199.48424021 198.6875 201.1875 C198.10327271 201.52166931 197.51904541 201.85583862 196.91711426 202.20013428 C188.12473106 207.2281431 179.31607074 212.22656767 170.47973633 217.17700195 C165.4106762 220.0282086 160.39424817 222.94901884 155.4140625 225.953125 C154.3219043 226.60716309 153.22974609 227.26120117 152.10449219 227.93505859 C149.99605599 229.20158672 147.89474166 230.4800689 145.80175781 231.77197266 C144.85397461 232.33964355 143.90619141 232.90731445 142.9296875 233.4921875 C142.09679199 234.00120605 141.26389648 234.51022461 140.40576172 235.03466797 C137.4022494 236.23985243 136.05011179 236.00462646 133 235 C130.68945313 233.85522461 130.68945313 233.85522461 128.28125 232.40234375 C127.36408203 231.85642578 126.44691406 231.31050781 125.50195312 230.74804688 C124.51130859 230.15056641 123.52066406 229.55308594 122.5 228.9375 C120.33513759 227.65190479 118.16838709 226.36948499 116 225.08984375 C115.43406128 224.75584564 114.86812256 224.42184753 114.28503418 224.07772827 C107.7658934 220.24748753 101.13419078 216.62589538 94.5 213 C84.56183841 207.5605772 74.72681666 201.97217141 64.96362305 196.22314453 C56.33826739 191.15938842 47.6058031 186.30123925 38.8527832 181.46240234 C29.46618306 176.27061819 20.14336324 170.9754237 10.84228516 165.63232422 C5.31462934 162.45779177 -0.21695856 159.29013344 -5.75 156.125 C-6.34232422 155.78610748 -6.93464844 155.44721497 -7.54492188 155.09805298 C-17.02103276 149.67864429 -26.53327014 144.32640759 -36.06420898 139.00390625 C-46.08275754 133.40518837 -56.0442014 127.70932157 -66 122 C-70.58231652 119.37322083 -75.16551444 116.74799114 -79.75 114.125 C-80.34147827 113.78653046 -80.93295654 113.44806091 -81.5423584 113.09933472 C-91.04391148 107.66449165 -100.58413404 102.30170845 -110.14331055 96.96875 C-119.48806461 91.74701562 -128.75646092 86.39849124 -138 81 C-135.4916488 78.18215963 -132.70077062 76.54276277 -129.42578125 74.69921875 C-128.29591797 74.05919922 -127.16605469 73.41917969 -126.00195312 72.75976562 C-125.40133057 72.42243408 -124.80070801 72.08510254 -124.18188477 71.73754883 C-120.98682938 69.94285989 -117.80079863 68.13225025 -114.61328125 66.32421875 C-113.96634308 65.95787323 -113.31940491 65.59152771 -112.65286255 65.21408081 C-106.73796676 61.86140996 -100.86461299 58.43981629 -95 55 C-85.22549832 49.27662693 -75.40212149 43.6415605 -65.5625 38.03125 C-56.63916158 32.94254366 -47.7373873 27.81725302 -38.84448242 22.67553711 C-32.96692792 19.28004733 -27.08096222 15.89998181 -21.18359375 12.5390625 C-20.53444 12.16896057 -19.88528625 11.79885864 -19.21646118 11.4175415 C-16.052477 9.61400958 -12.88740567 7.81242643 -9.72070312 6.01367188 C-8.59470703 5.37236328 -7.46871094 4.73105469 -6.30859375 4.0703125 C-4.80510376 3.21590576 -4.80510376 3.21590576 -3.27124023 2.34423828 C-1.10819715 1.19098526 -1.10819715 1.19098526 0 0 Z " fill="#97A8D3" transform="translate(189,54)"/>
<path d="M0 0 C0.3039049 19.67971186 0.53303139 39.35894666 0.67355824 59.04051971 C0.7405475 68.1795045 0.83184176 77.31703012 0.98071289 86.45507812 C1.11043443 94.42148965 1.19418908 102.38684452 1.22315043 110.35428286 C1.24007801 114.57231267 1.27973701 118.78732023 1.37449074 123.00437927 C1.46304917 126.97807849 1.48989808 130.94752684 1.47039986 134.92211914 C1.47396347 136.37674627 1.49966325 137.83152193 1.54967117 139.28529358 C1.69769049 143.81211432 1.59020712 147.73661576 0 152 C-3.96548755 155.66561473 -8.09044598 157.7331769 -13 160 C-14.97361574 161.10161689 -16.94007882 162.216294 -18.89453125 163.3515625 C-20.86596558 164.4449145 -22.83865812 165.53600039 -24.8125 166.625 C-33.22586488 171.29902143 -41.57921183 176.05794958 -49.875 180.9375 C-58.34950866 185.91757473 -66.8940611 190.75079668 -75.5 195.5 C-84.1864503 200.2946626 -92.81517813 205.17005691 -101.375 210.1875 C-102.34518066 210.7561377 -103.31536133 211.32477539 -104.31494141 211.91064453 C-106.24125315 213.04012983 -108.16752311 214.1696864 -110.09375 215.29931641 C-115.01024342 218.17635716 -119.93849676 221.03244864 -124.875 223.875 C-125.76751465 224.39344482 -126.6600293 224.91188965 -127.57958984 225.44604492 C-128.39637207 225.91502197 -129.2131543 226.38399902 -130.0546875 226.8671875 C-131.12952393 227.48762939 -131.12952393 227.48762939 -132.22607422 228.12060547 C-134 229 -134 229 -136 229 C-136.3039049 209.32028814 -136.53303139 189.64105334 -136.67355824 169.95948029 C-136.7405475 160.8204955 -136.83184176 151.68296988 -136.98071289 142.54492188 C-137.11043443 134.57851035 -137.19418908 126.61315548 -137.22315043 118.64571714 C-137.24007801 114.42768733 -137.27973701 110.21267977 -137.37449074 105.99562073 C-137.46304917 102.02192151 -137.48989808 98.05247316 -137.47039986 94.07788086 C-137.47396347 92.62325373 -137.49966325 91.16847807 -137.54967117 89.71470642 C-137.69769049 85.18788568 -137.59020712 81.26338424 -136 77 C-132.03451245 73.33438527 -127.90955402 71.2668231 -123 69 C-121.02638472 67.89838227 -119.05992196 66.78370467 -117.10546875 65.6484375 C-115.13402678 64.55509929 -113.16133486 63.46401234 -111.1875 62.375 C-102.73400485 57.678049 -94.33819752 52.89866522 -86 48 C-77.88594697 43.23548021 -69.72196043 38.57577189 -61.5 34 C-53.2378624 29.40128727 -45.03182964 24.72055545 -36.875 19.9375 C-28.65157329 15.11950095 -20.40885443 10.33849628 -12.125 5.625 C-10.64362549 4.77603149 -10.64362549 4.77603149 -9.13232422 3.90991211 C-7.77131592 3.13852905 -7.77131592 3.13852905 -6.3828125 2.3515625 C-5.58246582 1.89604004 -4.78211914 1.44051758 -3.95751953 0.97119141 C-2 0 -2 0 0 0 Z " fill="#98A9D3" transform="translate(461,229)"/>
<path d="M0 0 C3.63 1.98 7.26 3.96 11 6 C11.66 6.33 12.32 6.66 13 7 C13 44.62 13 82.24 13 121 C6.565 117.535 6.565 117.535 0 114 C0 76.38 0 38.76 0 0 Z " fill="#40588E" transform="translate(135,217)"/>
<path d="M0 0 C6 2 6 2 13 6 C13 43.62 13 81.24 13 120 C9.37 118.02 5.74 116.04 2 114 C1.34 113.67 0.68 113.34 0 113 C0 75.71 0 38.42 0 0 Z " fill="#41598F" transform="translate(197,253)"/>
<path d="M0 0 C1.6975594 0.58353604 3.35544725 1.28050817 5 2 C5.68684624 2.28428203 6.37369247 2.56856405 7.08135223 2.86146069 C9.44649063 4.03593139 11.15515817 5.10257348 13 7 C14.15816022 10.64130396 14.0132494 14.14725658 13.90820312 17.94067383 C13.90937134 19.04355743 13.91053955 20.14644104 13.91174316 21.28274536 C13.90617276 24.92545841 13.8439619 28.56489084 13.78125 32.20703125 C13.76632797 34.73335481 13.75494078 37.25970153 13.74694824 39.78605652 C13.71953235 45.75413714 13.6564993 51.72081119 13.57615232 57.68832844 C13.48664928 64.48379542 13.44272678 71.27931938 13.40258884 78.07522929 C13.31902743 92.05080341 13.17836727 106.02533729 13 120 C11.3024406 119.41646396 9.64455275 118.71949183 8 118 C6.96973064 117.57357696 6.96973064 117.57357696 5.91864777 117.13853931 C3.55350937 115.96406861 1.84484183 114.89742652 0 113 C-1.15816022 109.35869604 -1.0132494 105.85274342 -0.90820312 102.05932617 C-0.90937134 100.95644257 -0.91053955 99.85355896 -0.91174316 98.71725464 C-0.90617276 95.07454159 -0.8439619 91.43510916 -0.78125 87.79296875 C-0.76632797 85.26664519 -0.75494078 82.74029847 -0.74694824 80.21394348 C-0.71953235 74.24586286 -0.6564993 68.27918881 -0.57615232 62.31167156 C-0.48664928 55.51620458 -0.44272678 48.72068062 -0.40258884 41.92477071 C-0.31902743 27.94919659 -0.17836727 13.97466271 0 0 Z " fill="#41598F" transform="translate(166,235)"/>
<path d="M0 0 C1.6975594 0.58353604 3.35544725 1.28050817 5 2 C5.68684624 2.28428203 6.37369247 2.56856405 7.08135223 2.86146069 C9.44649063 4.03593139 11.15515817 5.10257348 13 7 C14.15816022 10.64130396 14.0132494 14.14725658 13.90820312 17.94067383 C13.90937134 19.04355743 13.91053955 20.14644104 13.91174316 21.28274536 C13.90617276 24.92545841 13.8439619 28.56489084 13.78125 32.20703125 C13.76632797 34.73335481 13.75494078 37.25970153 13.74694824 39.78605652 C13.71953235 45.75413714 13.6564993 51.72081119 13.57615232 57.68832844 C13.48664928 64.48379542 13.44272678 71.27931938 13.40258884 78.07522929 C13.31902743 92.05080341 13.17836727 106.02533729 13 120 C11.01963514 119.02325896 9.04073867 118.04354018 7.0625 117.0625 C5.96035156 116.51722656 4.85820313 115.97195313 3.72265625 115.41015625 C1 114 1 114 0 113 C-0.09565123 111.5325104 -0.12188309 110.06043116 -0.12025452 108.58982849 C-0.12162918 107.63765442 -0.12300385 106.68548035 -0.12442017 105.70445251 C-0.12082489 104.65141434 -0.11722961 103.59837616 -0.11352539 102.51342773 C-0.11367142 101.41112823 -0.11381744 100.30882874 -0.1139679 99.17312622 C-0.11326821 95.50992908 -0.10547324 91.84678206 -0.09765625 88.18359375 C-0.09579227 85.65153532 -0.09436827 83.11947652 -0.09336853 80.5874176 C-0.08993346 74.59151751 -0.08204269 68.59563911 -0.07201904 62.59974772 C-0.06085677 55.77518942 -0.05534717 48.95063028 -0.05032361 42.12606514 C-0.03986004 28.08403336 -0.0222613 14.04201767 0 0 Z " fill="#40588E" transform="translate(104,200)"/>
<path d="M0 0 C1.98036486 0.97674104 3.95926133 1.95645982 5.9375 2.9375 C7.03964844 3.48277344 8.14179687 4.02804688 9.27734375 4.58984375 C12 6 12 6 13 7 C13.09565123 8.4674896 13.12188309 9.93956884 13.12025452 11.41017151 C13.12162918 12.36234558 13.12300385 13.31451965 13.12442017 14.29554749 C13.12082489 15.34858566 13.11722961 16.40162384 13.11352539 17.48657227 C13.11367142 18.58887177 13.11381744 19.69117126 13.1139679 20.82687378 C13.11326821 24.49007092 13.10547324 28.15321794 13.09765625 31.81640625 C13.09579227 34.34846468 13.09436827 36.88052348 13.09336853 39.4125824 C13.08993346 45.40848249 13.08204269 51.40436089 13.07201904 57.40025228 C13.06085677 64.22481058 13.05534717 71.04936972 13.05032361 77.87393486 C13.03986004 91.91596664 13.0222613 105.95798233 13 120 C11.3024406 119.41646396 9.64455275 118.71949183 8 118 C6.96973064 117.57357696 6.96973064 117.57357696 5.91864777 117.13853931 C3.55350937 115.96406861 1.84484183 114.89742652 0 113 C-1.15816022 109.35869604 -1.0132494 105.85274342 -0.90820312 102.05932617 C-0.90937134 100.95644257 -0.91053955 99.85355896 -0.91174316 98.71725464 C-0.90617276 95.07454159 -0.8439619 91.43510916 -0.78125 87.79296875 C-0.76632797 85.26664519 -0.75494078 82.74029847 -0.74694824 80.21394348 C-0.71953235 74.24586286 -0.6564993 68.27918881 -0.57615232 62.31167156 C-0.48664928 55.51620458 -0.44272678 48.72068062 -0.40258884 41.92477071 C-0.31902743 27.94919659 -0.17836727 13.97466271 0 0 Z " fill="#40588E" transform="translate(73,182)"/>
<path d="M0 0 C8.79090258 2.93030086 8.79090258 2.93030086 12 6 C12.88134714 9.60253713 12.75755663 13.1356121 12.68115234 16.82714844 C12.6820285 17.92988602 12.68290466 19.0326236 12.68380737 20.16877747 C12.67962478 23.81636206 12.63293643 27.46211139 12.5859375 31.109375 C12.57474787 33.63713578 12.56620659 36.16490956 12.56021118 38.69268799 C12.53963755 44.6675967 12.49234455 50.64171674 12.43211424 56.6163094 C12.36502525 63.41908143 12.33205435 70.22188514 12.30194163 77.02490568 C12.23924349 91.01696882 12.13372377 105.00844831 12 119 C7.58282601 117.39375491 4.22743482 115.41567704 0 113 C0 75.71 0 38.42 0 0 Z " fill="#40588E" transform="translate(229,271)"/>
<path d="M0 0 C4.41717399 1.60624509 7.77256518 3.58432296 12 6 C12 43.29 12 80.58 12 119 C3.20909742 116.06969914 3.20909742 116.06969914 0 113 C-0.88134714 109.39746287 -0.75755663 105.8643879 -0.68115234 102.17285156 C-0.6820285 101.07011398 -0.68290466 99.9673764 -0.68380737 98.83122253 C-0.67962478 95.18363794 -0.63293643 91.53788861 -0.5859375 87.890625 C-0.57474787 85.36286422 -0.56620659 82.83509044 -0.56021118 80.30731201 C-0.53963755 74.3324033 -0.49234455 68.35828326 -0.43211424 62.3836906 C-0.36502525 55.58091857 -0.33205435 48.77811486 -0.30194163 41.97509432 C-0.23924349 27.98303118 -0.13372377 13.99155169 0 0 Z " fill="#40588E" transform="translate(291,306)"/>
<path d="M0 0 C11 6 11 6 12 7 C12.09565123 8.4674896 12.12188309 9.93956884 12.12025452 11.41017151 C12.12162918 12.36234558 12.12300385 13.31451965 12.12442017 14.29554749 C12.12082489 15.34858566 12.11722961 16.40162384 12.11352539 17.48657227 C12.11367142 18.58887177 12.11381744 19.69117126 12.1139679 20.82687378 C12.11326821 24.49007092 12.10547324 28.15321794 12.09765625 31.81640625 C12.09579227 34.34846468 12.09436827 36.88052348 12.09336853 39.4125824 C12.08993346 45.40848249 12.08204269 51.40436089 12.07201904 57.40025228 C12.06085677 64.22481058 12.05534717 71.04936972 12.05032361 77.87393486 C12.03986004 91.91596694 12.02206079 105.95798179 12 120 C8.04 118.02 4.08 116.04 0 114 C0 76.38 0 38.76 0 0 Z " fill="#40588E" transform="translate(260,288)"/>
<path d="M0 0 C0 6.27 0 12.54 0 19 C-12.05872909 25.45247785 -24.22058821 31.67722971 -36.44403076 37.81063843 C-38.19296477 38.68852984 -39.94121358 39.56778759 -41.68878174 40.44839478 C-44.17717802 41.70152981 -46.66823647 42.94920179 -49.16015625 44.1953125 C-50.30121071 44.77119865 -50.30121071 44.77119865 -51.46531677 45.35871887 C-56.77089648 48 -56.77089648 48 -59 48 C-59 41.73 -59 35.46 -59 29 C-45.19405822 21.78578404 -31.36299385 14.62474004 -17.44293213 7.63284302 C-16.10594137 6.96092958 -14.7696363 6.28764999 -13.434021 5.61300659 C-11.5609108 4.66757613 -9.68520508 3.72752016 -7.80859375 2.7890625 C-6.73407959 2.24975098 -5.65956543 1.71043945 -4.55249023 1.15478516 C-2 0 -2 0 0 0 Z " fill="#5F74AD" transform="translate(423,322)"/>
<path d="M0 0 C3.63 0 7.26 0 11 0 C11.09261231 12.70846761 11.16372062 25.41685515 11.20724869 38.12559128 C11.22813825 44.02655696 11.25648131 49.92729204 11.30175781 55.828125 C11.34516607 61.52099123 11.36912679 67.21363543 11.37950897 72.90665436 C11.38690932 75.08043158 11.40136019 77.25419643 11.42292023 79.42787933 C11.45188698 82.46878987 11.45595876 85.50877876 11.45410156 88.54980469 C11.47567322 89.9027916 11.47567322 89.9027916 11.49768066 91.28311157 C11.45744595 97.35700521 11.45744595 97.35700521 9.1708374 100.57110596 C6.30247502 102.45912664 4.36502684 102.37389187 1 102 C-0.95365306 100.04634694 -0.12022124 97.06600248 -0.12442017 94.46598816 C-0.12082489 93.52515884 -0.11722961 92.58432953 -0.11352539 91.61499023 C-0.11367142 90.62973358 -0.11381744 89.64447693 -0.1139679 88.62936401 C-0.11326832 85.35575193 -0.10547385 82.08219596 -0.09765625 78.80859375 C-0.09579223 76.54557832 -0.09436825 74.28256249 -0.09336853 72.01954651 C-0.0895421 66.05021052 -0.07971075 60.08089868 -0.06866455 54.11157227 C-0.05845312 48.02555671 -0.05387149 41.93953727 -0.04882812 35.85351562 C-0.03808859 23.90233311 -0.02101068 11.95116856 0 0 Z " fill="#E5E5E5" transform="translate(352,313)"/>
<path d="M0 0 C0.99 0.495 0.99 0.495 2 1 C3.54023996 1.06950541 5.08334988 1.08452357 6.625 1.0625 C7.44226563 1.05347656 8.25953125 1.04445313 9.1015625 1.03515625 C9.72804688 1.02355469 10.35453125 1.01195312 11 1 C11.09261231 13.70846761 11.16372062 26.41685515 11.20724869 39.12559128 C11.22813825 45.02655696 11.25648131 50.92729204 11.30175781 56.828125 C11.34516607 62.52099123 11.36912679 68.21363543 11.37950897 73.90665436 C11.38690932 76.08043158 11.40136019 78.25419643 11.42292023 80.42787933 C11.45188698 83.46878987 11.45595876 86.50877876 11.45410156 89.54980469 C11.47567322 90.9027916 11.47567322 90.9027916 11.49768066 92.28311157 C11.45735208 98.37117645 11.45735208 98.37117645 9.13568115 101.56329346 C6.49980841 103.33648681 5.11421309 103.57367083 2 103 C-0.0529894 99.9205159 -0.24921619 99.31265368 -0.24050903 95.84284973 C-0.24325836 94.99731033 -0.24600769 94.15177094 -0.24884033 93.28060913 C-0.24164978 92.35632111 -0.23445923 91.43203308 -0.22705078 90.47973633 C-0.22734283 89.50394119 -0.22763489 88.52814606 -0.22793579 87.52278137 C-0.22654072 84.29244136 -0.21097108 81.06233105 -0.1953125 77.83203125 C-0.191583 75.59429551 -0.18873573 73.35655814 -0.18673706 71.11882019 C-0.17909564 65.22510277 -0.15944272 59.3314837 -0.1373291 53.43780518 C-0.11688166 47.42534719 -0.1077377 41.41287334 -0.09765625 35.40039062 C-0.07619736 23.60021717 -0.04205523 11.80011676 0 0 Z " fill="#E2E3E4" transform="translate(423,274)"/>
<path d="M0 0 C0.34433896 4.0555478 0.53765149 7.95686082 0 12 C-2.68508324 14.56834049 -4.22212653 16 -8 16 C-8 12.04 -8 8.08 -8 4 C-1.125 0 -1.125 0 0 0 Z " fill="#818285" transform="translate(352,328)"/>
<path d="M0 0 C0.13504138 1.93559313 0.23201129 3.873872 0.3125 5.8125 C0.39951172 7.43091797 0.39951172 7.43091797 0.48828125 9.08203125 C0 12 0 12 -2.33203125 13.88671875 C-5 15 -5 15 -8 15 C-8 11.37 -8 7.74 -8 4 C-1.125 0 -1.125 0 0 0 Z " fill="#818284" transform="translate(352,393)"/>
<path d="M0 0 C0.13504138 1.93559313 0.23201129 3.873872 0.3125 5.8125 C0.37050781 6.89144531 0.42851562 7.97039062 0.48828125 9.08203125 C0 12 0 12 -2.39453125 13.88671875 C-5 15 -5 15 -7 15 C-7 11.04 -7 7.08 -7 3 C-1.125 0 -1.125 0 0 0 Z " fill="#808183" transform="translate(423,354)"/>
<path d="M0 0 C0 3.96 0 7.92 0 12 C-3.465 13.485 -3.465 13.485 -7 15 C-7.13504138 13.06440687 -7.23201129 11.126128 -7.3125 9.1875 C-7.37050781 8.10855469 -7.42851562 7.02960938 -7.48828125 5.91796875 C-7 3 -7 3 -4.60546875 1.11328125 C-2 0 -2 0 0 0 Z " fill="#808183" transform="translate(442,345)"/>
<path d="M0 0 C0.13504138 1.93559313 0.23201129 3.873872 0.3125 5.8125 C0.37050781 6.89144531 0.42851562 7.97039062 0.48828125 9.08203125 C0 12 0 12 -2.39453125 13.88671875 C-5 15 -5 15 -7 15 C-7 11.04 -7 7.08 -7 3 C-1.125 0 -1.125 0 0 0 Z " fill="#808183" transform="translate(442,280)"/>
<path d="M0 0 C0 3.96 0 7.92 0 12 C-4 14 -4 14 -7 14 C-7.28328822 10.29207191 -7.45269973 6.69795687 -7 3 C-4.54305747 0.73702662 -3.3203746 0 0 0 Z " fill="#808182" transform="translate(423,290)"/>
<path d="M0 0 C0 3.96 0 7.92 0 12 C-1.98 12.99 -3.96 13.98 -6 15 C-6.13504138 13.06440687 -6.23201129 11.126128 -6.3125 9.1875 C-6.37050781 8.10855469 -6.42851562 7.02960938 -6.48828125 5.91796875 C-6 3 -6 3 -3.54296875 1.11328125 C-1 0 -1 0 0 0 Z " fill="#808081" transform="translate(370,384)"/>
<path d="M0 0 C0 3.96 0 7.92 0 12 C-1.98 12.99 -3.96 13.98 -6 15 C-6.13504138 13.06440687 -6.23201129 11.126128 -6.3125 9.1875 C-6.37050781 8.10855469 -6.42851562 7.02960938 -6.48828125 5.91796875 C-6 3 -6 3 -3.54296875 1.11328125 C-1 0 -1 0 0 0 Z " fill="#808081" transform="translate(370,319)"/>
<path d="M0 0 C1.670625 0.061875 1.670625 0.061875 3.375 0.125 C4.035 1.445 4.695 2.765 5.375 4.125 C4.375 5.125 4.375 5.125 2.30859375 5.22265625 C1.48488281 5.21105469 0.66117187 5.19945312 -0.1875 5.1875 C-1.01378906 5.17847656 -1.84007812 5.16945313 -2.69140625 5.16015625 C-3.32949219 5.14855469 -3.96757812 5.13695312 -4.625 5.125 C-4.955 4.135 -5.285 3.145 -5.625 2.125 C-3.625 0.125 -3.625 0.125 0 0 Z " fill="#828385" transform="translate(357.625,308.875)"/>
<path d="M0 0 C2.05078125 0.03255208 4.1015625 0.06510417 6.15234375 0.09765625 C6.71484375 2.03515625 6.71484375 2.03515625 7.15234375 4.09765625 C6.15234375 5.09765625 6.15234375 5.09765625 4.3046875 5.1953125 C2.25390625 5.16276042 0.203125 5.13020833 -1.84765625 5.09765625 C-2.41015625 3.16015625 -2.41015625 3.16015625 -2.84765625 1.09765625 C-1.84765625 0.09765625 -1.84765625 0.09765625 0 0 Z " fill="#838384" transform="translate(426.84765625,270.90234375)"/>
</svg>
