<?xml version="1.0" encoding="UTF-8"?>
<svg version="1.1" xmlns="http://www.w3.org/2000/svg" width="512" height="512">
<path d="M0 0 C3.63 0 7.26 0 11 0 C11 5.61 11 11.22 11 17 C15.11850013 15.23529282 19.23101677 13.46246757 23.33520508 11.66552734 C24.73261881 11.05696835 26.1323655 10.45373763 27.53442383 9.85595703 C29.54884959 8.99599333 31.55412179 8.11724722 33.55859375 7.234375 C34.76829834 6.71069336 35.97800293 6.18701172 37.22436523 5.64746094 C38.59830444 4.83196777 38.59830444 4.83196777 40 4 C40.33 2.68 40.66 1.36 41 0 C44.63 0 48.26 0 52 0 C52.139847 8.26756881 52.24604419 16.53463254 52.31087303 24.80309677 C52.34200914 28.64373703 52.38414856 32.48356028 52.45263672 36.32373047 C52.51847453 40.03911454 52.55383878 43.75371965 52.56926346 47.46964264 C52.58023603 48.87772109 52.60165926 50.28576336 52.63438034 51.69350433 C52.84933008 61.33649553 51.69154598 68.99386733 46 77 C41.6486118 80.8748779 37.77834455 83.07587108 32 84 C31.41998937 93.02772727 31.41998937 93.02772727 34.671875 100.8984375 C36.73548554 102.09431435 36.73548554 102.09431435 38.9296875 103.04296875 C43.39786767 105.10844826 45.52240079 108.84942009 47.375 113.3125 C48.12932941 117.76304351 47.74189262 121.57872102 47 126 C47.58918213 126.27908203 48.17836426 126.55816406 48.78540039 126.84570312 C50.84492274 127.9191704 52.58514884 129.07052351 54.43359375 130.46875 C55.07514404 130.95182617 55.71669434 131.43490234 56.37768555 131.93261719 C57.3972937 132.70847168 57.3972937 132.70847168 58.4375 133.5 C59.15268799 134.04043945 59.86787598 134.58087891 60.60473633 135.13769531 C65.87190761 139.12429694 71.11096718 143.14692696 76.33984375 147.18359375 C80.96140949 150.74640556 85.6068986 154.2778324 90.25 157.8125 C96.67177086 162.70169263 103.09054118 167.59467663 109.5 172.5 C118.42658211 179.33070209 127.36828232 186.14150821 136.31054688 192.95166016 C140.70751269 196.30047489 145.10372362 199.65028027 149.5 203 C151.24999626 204.33333824 152.99999627 205.66667157 154.75 207 C186.25 231 186.25 231 188.87744141 233.00195312 C190.61918372 234.32893312 192.3610448 235.65575725 194.10302734 236.98242188 C198.60537996 240.4116618 203.10534202 243.84397288 207.6015625 247.28125 C208.52646484 247.98765625 209.45136719 248.6940625 210.40429688 249.421875 C212.14856953 250.75418376 213.89212481 252.08743254 215.63476562 253.421875 C217.26078514 254.66323072 218.89840983 255.8895281 220.54711914 257.10058594 C223 259 223 259 225.29467773 261.21972656 C234.26728039 269.25436132 244.45472531 267.98573629 255.8125 267.75 C258.74429759 267.71092545 261.67504119 267.68366827 264.60710144 267.67926025 C266.4203696 267.67445603 268.23374049 267.64898603 270.04634094 267.59954834 C275.54627254 267.55885958 278.67391408 268.27198107 283 272 C286.01659681 275.01697991 286.35622592 277.51819503 286.41055441 281.72297561 C286.40256252 282.86664397 286.40256252 282.86664397 286.39440918 284.03341675 C286.40050028 284.84931152 286.40659139 285.6652063 286.41286707 286.50582516 C286.429534 289.24344496 286.42471602 291.98060151 286.41992188 294.71826172 C286.4272601 296.67953984 286.4358456 298.64081364 286.44558716 300.6020813 C286.46783868 305.93269393 286.47073199 311.26315214 286.46883965 316.59380484 C286.4687201 321.04219157 286.47727763 325.4905454 286.48561716 329.938923 C286.50486461 340.43309982 286.50773027 350.92719708 286.50097656 361.42138672 C286.49433554 372.25054915 286.51719967 383.07937097 286.55429029 393.90846431 C286.58497036 403.20284933 286.59634913 412.49712469 286.59245348 421.79155934 C286.59038411 427.34404255 286.59589421 432.89626082 286.62034607 438.44869614 C286.64258234 443.67072763 286.64076116 448.89220489 286.62041855 454.11423874 C286.61700291 456.03066944 286.62212137 457.94713722 286.63640213 459.86351776 C286.65455799 462.48053211 286.64187384 465.09565898 286.62145996 467.71261597 C286.63397781 468.4706001 286.64649566 469.22858423 286.65939283 470.00953758 C286.59524883 473.84643195 286.05983478 476.41079463 283.71115875 479.3929615 C278.91257343 484.00726034 275.27920972 484.29096788 268.75994205 484.25447559 C267.49658338 484.25928531 267.49658338 484.25928531 266.20770231 484.26419219 C263.36659519 484.27253768 260.52569639 484.26655205 257.68458557 484.26069641 C255.63466961 484.26371502 253.58475478 484.26760303 251.53484195 484.27228898 C245.88693097 484.28261516 240.23908313 484.28037545 234.59116685 484.27610838 C228.50586973 484.27364952 222.42058814 484.28264482 216.33529663 484.29014587 C204.4080389 484.30291819 192.48080308 484.30468929 180.55354161 484.30234561 C170.86260067 484.3005144 161.17166635 484.30226893 151.48072624 484.30657005 C150.08944446 484.30717245 148.69816268 484.30777365 147.3068809 484.30837366 C145.21046793 484.30928089 143.11405495 484.31018955 141.01764198 484.31110601 C121.52118617 484.31953807 102.02473286 484.32386947 82.52827549 484.31969929 C81.4253384 484.31946472 81.4253384 484.31946472 80.30011975 484.31922542 C76.57319787 484.31841961 72.846276 484.31757384 69.11935414 484.31671212 C68.37914847 484.31654103 67.6389428 484.31636994 66.87630666 484.31619367 C65.37943051 484.31584702 63.88255437 484.31549849 62.38567823 484.31514808 C39.09003028 484.3097899 15.79442018 484.31772303 -7.5012207 484.33618164 C-33.66177211 484.35688593 -59.82230008 484.36762739 -85.98286015 484.36360615 C-88.77087692 484.36321079 -91.5588937 484.36284925 -94.34691048 484.36250877 C-95.03341315 484.36241804 -95.71991582 484.36232731 -96.42722161 484.36223383 C-106.80190328 484.36106664 -117.17656133 484.36772533 -127.55123711 484.37832069 C-139.3464818 484.3903544 -151.14168347 484.39167369 -162.93693214 484.37953053 C-168.95873295 484.37362048 -174.98043172 484.37260087 -181.00222588 484.38453293 C-186.50986899 484.39531969 -192.01732398 484.39237491 -197.52495802 484.37827124 C-199.52222231 484.37560433 -201.519501 484.37805273 -203.51675122 484.38600711 C-206.22276464 484.39604001 -208.92811478 484.38775413 -211.63410091 484.37473011 C-212.41718214 484.38203946 -213.20026337 484.3893488 -214.00707433 484.39687964 C-218.50496366 484.35172565 -221.43062013 483.80278359 -225 481 C-226.58006401 477.83987198 -226.15171979 474.44313376 -226.15390015 470.97257996 C-226.1582824 470.13318715 -226.16266465 469.29379434 -226.1671797 468.42896539 C-226.18059601 465.60002094 -226.18675288 462.77110766 -226.19287109 459.94213867 C-226.20076976 457.92042397 -226.20903856 455.89871069 -226.21765137 453.8769989 C-226.24389623 447.2240026 -226.25918032 440.57099992 -226.2734375 433.91796875 C-226.27879595 431.63046069 -226.28417345 429.34295268 -226.28956985 427.05544472 C-226.31120116 417.54283666 -226.32993941 408.03023031 -226.34119225 398.51760387 C-226.35744132 384.86971846 -226.39063966 371.22211732 -226.44759309 357.57433909 C-226.48624595 347.98618949 -226.50581936 338.39811606 -226.51111281 328.80989057 C-226.51477231 323.07909129 -226.52685746 317.34859504 -226.55921555 311.61787987 C-226.58921455 306.22766222 -226.59563713 300.83793224 -226.58383179 295.447649 C-226.58361038 293.46789613 -226.59197104 291.48812115 -226.60948563 289.50844574 C-226.63208044 286.80782904 -226.62392791 284.10899523 -226.60800171 281.40837097 C-226.6218838 280.62276407 -226.63576588 279.83715717 -226.65006864 279.027744 C-226.59171435 275.01875481 -226.15428084 273.19653735 -223.64798927 270.00378895 C-220.3643344 267.51897853 -218.80011852 267.4876963 -214.73046875 267.71484375 C-212.91434082 267.76547974 -212.91434082 267.76547974 -211.06152344 267.81713867 C-209.7830957 267.85685791 -208.50466797 267.89657715 -207.1875 267.9375 C-194.00426682 267.91561979 -187.19171633 265.70532454 -177.82910156 256.67285156 C-174.67695693 253.78997716 -171.14813043 251.46465259 -167.625 249.0625 C-166.19763346 248.06476409 -164.77185902 247.0647468 -163.34765625 246.0625 C-162.63367676 245.56105469 -161.91969727 245.05960938 -161.18408203 244.54296875 C-155.17294265 240.29633328 -149.22591862 235.95931095 -143.26611328 231.64111328 C-139.513552 228.92351827 -135.75656581 226.21205527 -132 223.5 C-130.49997854 222.41669638 -128.99997854 221.33336304 -127.5 220.25 C-46.5 161.75 -46.5 161.75 -44.25024414 160.12524414 C-42.7493445 159.04121584 -41.24853078 157.95706858 -39.74780273 156.87280273 C-36.01226033 154.17412345 -32.27527746 151.47748688 -28.53515625 148.78515625 C-20.47382169 142.97895563 -12.43860522 137.13900051 -4.4375 131.25 C-3.60935791 130.64099854 -2.78121582 130.03199707 -1.92797852 129.40454102 C-1.16670654 128.84307373 -0.40543457 128.28160645 0.37890625 127.703125 C1.0551001 127.20458008 1.73129395 126.70603516 2.42797852 126.19238281 C3.95526337 125.090088 3.95526337 125.090088 5 124 C4.9690625 122.576875 4.9690625 122.576875 4.9375 121.125 C5 118 5 118 7 115 C10.625 114.8125 10.625 114.8125 14 115 C14.33 115.99 14.66 116.98 15 118 C15.99 117.67 16.98 117.34 18 117 C24.29033273 115.220916 29.87272599 115.5490904 36 118 C33.8861435 113.06766817 30.77561171 111.53358631 26.15625 109.30859375 C23.65490647 107.79056824 22.54657778 106.47719896 21 104 C20.65942383 101.70996094 20.65942383 101.70996094 20.70703125 99.234375 C20.71669922 98.34492187 20.72636719 97.45546875 20.73632812 96.5390625 C20.76146484 95.61867188 20.78660156 94.69828125 20.8125 93.75 C20.82603516 92.81414062 20.83957031 91.87828125 20.85351562 90.9140625 C20.88880046 88.60878673 20.93809719 86.3046894 21 84 C19.90945312 83.86980469 18.81890625 83.73960938 17.6953125 83.60546875 C10.84578807 82.48318938 6.97518291 78.47930617 3 73 C-1.08206156 66.08666319 -0.38025292 58.65565159 -0.29296875 50.87890625 C-0.28736618 49.40917903 -0.28309921 47.93944616 -0.28010559 46.4697113 C-0.26870869 42.62106574 -0.23928682 38.77276549 -0.20599365 34.92425537 C-0.17518083 30.98926462 -0.16157641 27.05421751 -0.14648438 23.11914062 C-0.11441139 15.41260382 -0.06327854 7.70635049 0 0 Z M33.55859375 18.84375 C32.91632339 19.13229858 32.27405304 19.42084717 31.61231995 19.71813965 C29.55325796 20.64368448 27.49537218 21.57181316 25.4375 22.5 C24.04499836 23.12647211 22.65242121 23.75277642 21.25976562 24.37890625 C17.83881657 25.91700738 14.41946831 27.45859261 11 29 C11 33.62 11 38.24 11 43 C14.31283162 41.58410484 17.62527157 40.16730499 20.9375 38.75 C21.86369141 38.35425781 22.78988281 37.95851563 23.74414062 37.55078125 C29.51718757 35.07951203 35.26731408 32.56353955 41 30 C41 25.38 41 20.76 41 16 C38.52816283 16 35.81590374 17.8235516 33.55859375 18.84375 Z M32.8984375 44.625 C32.30197418 44.89135254 31.70551086 45.15770508 31.0909729 45.43212891 C29.1840745 46.28461952 27.27953329 47.14224042 25.375 48 C24.08348515 48.57846407 22.79182027 49.15659332 21.5 49.734375 C18.33158259 51.1523673 15.16525942 52.57497001 12 54 C12 54.33 12 54.66 12 55 C21.57 55 31.14 55 41 55 C41 50.71 41 46.42 41 42 C37.94876893 42 35.67194059 43.3808117 32.8984375 44.625 Z M12 65 C14.22175391 69.44350783 16.56388481 71.7819424 21 74 C26.68331608 74.59106487 31.14777003 74.27243416 36 71 C38.73199119 68.3829518 38.73199119 68.3829518 40 65 C30.76 65 21.52 65 12 65 Z M22 127 C22 127.99 22 128.98 22 130 C26.0100934 130.17864631 26.0100934 130.17864631 30 130 C30.66 129.34 31.32 128.68 32 128 C28.52674819 126.8422494 25.63932552 126.93133348 22 127 Z M7.29931641 135.8293457 C6.73905762 136.27366943 6.17879883 136.71799316 5.6015625 137.17578125 C4.96492676 137.66876709 4.32829102 138.16175293 3.67236328 138.66967773 C2.65891846 139.48287476 2.65891846 139.48287476 1.625 140.3125 C0.1781537 141.43627527 -1.26978132 142.55865011 -2.71875 143.6796875 C-3.44191406 144.24397461 -4.16507813 144.80826172 -4.91015625 145.38964844 C-7.84436525 147.65063472 -10.84864022 149.80228923 -13.875 151.9375 C-15.02366781 152.75227958 -16.17209976 153.56739175 -17.3203125 154.3828125 C-17.91102539 154.80208008 -18.50173828 155.22134766 -19.11035156 155.65332031 C-22.6690694 158.1894815 -26.20873706 160.75205222 -29.75 163.3125 C-30.50780762 163.860271 -31.26561523 164.40804199 -32.04638672 164.97241211 C-33.59284925 166.09038993 -35.13923554 167.20847322 -36.68554688 168.32666016 C-40.45593019 171.05263139 -44.22803694 173.77621534 -48 176.5 C-49.50000859 177.58332144 -51.00000858 178.66665479 -52.5 179.75 C-133.5 238.25 -133.5 238.25 -135.75244141 239.87670898 C-137.24437213 240.95425052 -138.73623472 242.03188642 -140.22802734 243.10961914 C-144.1009184 245.90736583 -147.97517062 248.70319916 -151.8515625 251.49609375 C-152.65078125 252.07230469 -153.45 252.64851563 -154.2734375 253.2421875 C-155.78601316 254.33264902 -157.29900059 255.42253971 -158.8125 256.51171875 C-160.87917176 258.00218091 -162.94121694 259.49866152 -165 261 C-165.75893555 261.55316895 -166.51787109 262.10633789 -167.29980469 262.67626953 C-168.03360352 263.21751465 -168.76740234 263.75875977 -169.5234375 264.31640625 C-170.52383057 265.05225952 -170.52383057 265.05225952 -171.54443359 265.80297852 C-172.26493896 266.39550415 -172.26493896 266.39550415 -173 267 C-173 267.33 -173 267.66 -173 268 C-44.96 268 83.08 268 215 268 C211.9520562 264.9520562 209.32911902 262.33906507 205.99609375 259.765625 C205.26221436 259.19666504 204.52833496 258.62770508 203.7722168 258.04150391 C203.00176025 257.45030762 202.23130371 256.85911133 201.4375 256.25 C200.63030518 255.62657715 199.82311035 255.0031543 198.99145508 254.36083984 C193.81056588 250.36742101 188.59675384 246.42032552 183.3515625 242.51171875 C176.11924119 237.10896215 168.96489144 231.6014378 161.78759766 226.12597656 C158.16041194 223.35968359 154.53124508 220.5959965 150.90209961 217.83227539 C143.07599714 211.87210364 135.25581328 205.90431771 127.44335938 199.92626953 C119.20147754 193.62126855 110.94496218 187.33548006 102.68945312 181.04833984 C99.16427993 178.36349933 95.6395957 175.67801741 92.11499023 172.99243164 C90.37238917 171.66469685 88.62971344 170.33706005 86.88696289 169.00952148 C82.44796121 165.62799675 78.01009196 162.24500287 73.57421875 158.859375 C63.08603119 150.85684913 52.57015874 142.89397993 42 135 C41.40574219 135.3609375 40.81148437 135.721875 40.19921875 136.09375 C33.73850072 139.71094827 28.39216227 141.23755183 21 140 C18.76041183 139.15968551 16.80036242 138.20583394 14.75390625 136.97265625 C12.15237219 135.52993469 10.11108242 134.45817586 7.29931641 135.8293457 Z M-215 279 C-216.2263757 281.45275141 -216.11415314 283.0505781 -216.09765625 285.7890625 C-216.09443359 286.73007812 -216.09121094 287.67109375 -216.08789062 288.640625 C-216.07951172 289.62546875 -216.07113281 290.6103125 -216.0625 291.625 C-216.05798828 292.61757813 -216.05347656 293.61015625 -216.04882812 294.6328125 C-216.03702161 297.08856722 -216.01908582 299.54429106 -216 302 C-210.72 302 -205.44 302 -200 302 C-200 305.63 -200 309.26 -200 313 C-205.28 313 -210.56 313 -216 313 C-216 353.92 -216 394.84 -216 437 C-210.72 437 -205.44 437 -200 437 C-200 440.63 -200 444.26 -200 448 C-205.28 448 -210.56 448 -216 448 C-216.05374281 451.79185383 -216.09354937 455.58295298 -216.125 459.375 C-216.14175781 460.45523438 -216.15851563 461.53546875 -216.17578125 462.6484375 C-216.18222656 463.6796875 -216.18867188 464.7109375 -216.1953125 465.7734375 C-216.20578613 466.72653809 -216.21625977 467.67963867 -216.22705078 468.66162109 C-216.23131867 471.1923213 -216.23131867 471.1923213 -214 473 C-193.87 473 -173.74 473 -153 473 C-153 408.98 -153 344.96 -153 279 C-173.46 279 -193.92 279 -215 279 Z M-142 279 C-142 343.02 -142 407.04 -142 473 C-121.54 473 -101.08 473 -80 473 C-80 464.75 -80 456.5 -80 448 C-84.95 448 -89.9 448 -95 448 C-95 444.37 -95 440.74 -95 437 C-90.05 437 -85.1 437 -80 437 C-80 396.08 -80 355.16 -80 313 C-84.95 313 -89.9 313 -95 313 C-95 309.37 -95 305.74 -95 302 C-90.05 302 -85.1 302 -80 302 C-80 294.41 -80 286.82 -80 279 C-100.46 279 -120.92 279 -142 279 Z M-69 279 C-69 343.02 -69 407.04 -69 473 C-8.08594026 473.05824426 -8.08594026 473.05824426 52.828125 473.09765625 C61.03059904 473.10157225 69.233073 473.10561329 77.43554688 473.10986328 C78.46365408 473.11039078 79.49176128 473.11091828 80.55102324 473.11146176 C97.16900594 473.12017051 113.78697484 473.13594371 130.40494935 473.15430559 C147.44780517 473.17298049 164.49065376 473.18411161 181.53351939 473.18817699 C192.05766432 473.19092707 202.58177033 473.19962618 213.10590328 473.21583293 C220.3136851 473.22637009 227.52144667 473.22960808 234.72923563 473.22700275 C238.89345808 473.22571634 243.0576123 473.22774705 247.22182274 473.23841095 C251.02890059 473.2480896 254.83586385 473.24867031 258.64294679 473.24179779 C260.02520972 473.24094745 261.40747957 473.24353005 262.78972869 473.24976636 C264.65885137 473.25771359 266.52801696 473.25230448 268.39714622 473.24609566 C269.43833937 473.2468551 270.47953252 473.24761454 271.55227697 473.24839699 C274.17904727 473.2423544 274.17904727 473.2423544 276 471 C276.19525046 468.48351133 276.26492548 466.07727449 276.24723816 463.55981445 C276.25085978 462.39555545 276.25085978 462.39555545 276.25455457 461.20777607 C276.26021469 458.59286027 276.25151111 455.97818628 276.24291992 453.36328125 C276.24399223 451.49433323 276.24593015 449.62538553 276.24867249 447.75643921 C276.25353214 442.66977608 276.2458512 437.58320027 276.23571944 432.4965477 C276.22695708 427.18300216 276.22869603 421.8694595 276.2290802 416.5559082 C276.22814273 407.63133273 276.21944758 398.70679119 276.20581055 389.78222656 C276.19008415 379.45189083 276.1848124 369.12159229 276.1855461 358.79124546 C276.1861557 348.86964462 276.18105646 338.94805593 276.17275429 329.02645874 C276.16921622 324.79682317 276.16739029 320.56719191 276.16686058 316.33755493 C276.16585865 311.36032365 276.15977434 306.38312379 276.14969444 301.40590286 C276.14676475 299.57487811 276.14554502 297.74384973 276.14612198 295.91282272 C276.14661 293.42190986 276.14098341 290.93108605 276.13371277 288.44018555 C276.13526137 287.70809529 276.13680997 286.97600504 276.1384055 286.22173023 C276.17599658 282.48599712 276.17599658 282.48599712 275 279 C161.48 279 47.96 279 -69 279 Z " fill="#000000" transform="translate(226,14)"/>
<path d="M0 0 C3.63 0 7.26 0 11 0 C11 51.81 11 103.62 11 157 C7.37 157 3.74 157 0 157 C0 105.19 0 53.38 0 0 Z " fill="#000000" transform="translate(422,307)"/>
<path d="M0 0 C3.63 0 7.26 0 11 0 C11 51.81 11 103.62 11 157 C7.7 157 4.4 157 1 157 C0 156 0 156 -0.12304783 153.44064236 C-0.12212604 152.29116651 -0.12120424 151.14169065 -0.12025452 149.9573822 C-0.12162918 148.64339951 -0.12300385 147.32941681 -0.12442017 145.97561646 C-0.12088054 144.50579812 -0.11724573 143.03598 -0.11352539 141.56616211 C-0.11324353 140.02908836 -0.11340123 138.49201447 -0.1139679 136.9549408 C-0.11425591 132.7691714 -0.10835852 128.58343041 -0.10139394 124.39766765 C-0.09516109 120.02809844 -0.09455666 115.65852865 -0.09336853 111.28895569 C-0.09025501 103.00872953 -0.08204135 94.7285165 -0.07201904 86.44829613 C-0.06085854 77.02402841 -0.05534761 67.59976008 -0.05032361 58.1754874 C-0.03985875 38.78365081 -0.02225891 19.39182646 0 0 Z " fill="#000000" transform="translate(175,309)"/>
<path d="M0 0 C3.63 0 7.26 0 11 0 C11 51.48 11 102.96 11 156 C7.37 156 3.74 156 0 156 C0 104.52 0 53.04 0 0 Z " fill="#000000" transform="translate(381,308)"/>
<path d="M0 0 C3.63 0 7.26 0 11 0 C11 51.48 11 102.96 11 156 C7.37 156 3.74 156 0 156 C0 104.52 0 53.04 0 0 Z " fill="#000000" transform="translate(340,308)"/>
<path d="M0 0 C3.63 0 7.26 0 11 0 C11 51.48 11 102.96 11 156 C7.37 156 3.74 156 0 156 C0 104.52 0 53.04 0 0 Z " fill="#000000" transform="translate(463,307)"/>
<path d="M0 0 C3.3 0 6.6 0 10 0 C10 51.81 10 103.62 10 157 C6.7 157 3.4 157 0 157 C0 105.19 0 53.38 0 0 Z " fill="#000000" transform="translate(299,308)"/>
<path d="M0 0 C3.3 0 6.6 0 10 0 C10 51.48 10 102.96 10 156 C6.7 156 3.4 156 0 156 C0 104.52 0 53.04 0 0 Z " fill="#000000" transform="translate(258,309)"/>
<path d="M0 0 C3.3 0 6.6 0 10 0 C10 51.48 10 102.96 10 156 C6.7 156 3.4 156 0 156 C0 104.52 0 53.04 0 0 Z " fill="#000000" transform="translate(217,309)"/>
<path d="M0 0 C3.63 0 7.26 0 11 0 C11 35.64 11 71.28 11 108 C7.37 108 3.74 108 0 108 C0 72.36 0 36.72 0 0 Z " fill="#000000" transform="translate(53,331)"/>
<path d="M0 0 C3.3 0 6.6 0 10 0 C11 1 11 1 11.12304783 2.79410648 C11.12166514 3.97630599 11.12166514 3.97630599 11.12025452 5.18238831 C11.12162918 6.08407745 11.12300385 6.9857666 11.12442017 7.91477966 C11.12082489 8.91171341 11.11722961 9.90864716 11.11352539 10.93579102 C11.11367142 11.97956909 11.11381744 13.02334717 11.1139679 14.09875488 C11.11326826 17.56715943 11.10547353 21.03551103 11.09765625 24.50390625 C11.09579225 26.90144318 11.09436826 29.2989805 11.09336853 31.69651794 C11.08954194 38.02095584 11.07971046 44.34537094 11.06866455 50.6697998 C11.05845345 57.11775402 11.05387156 63.56571191 11.04882812 70.01367188 C11.03808832 82.67579129 11.02101021 95.33789375 11 108 C7.37 108 3.74 108 0 108 C0 72.36 0 36.72 0 0 Z " fill="#000000" transform="translate(96,331)"/>
</svg>
