<?xml version="1.0" encoding="UTF-8"?>
<svg version="1.1" xmlns="http://www.w3.org/2000/svg" width="512" height="512">
<path d="M0 0 C2.47167969 1.16064453 2.47167969 1.16064453 4.921875 2.6328125 C5.85104736 3.18372559 6.78021973 3.73463867 7.73754883 4.30224609 C9.22871216 5.20450928 9.22871216 5.20450928 10.75 6.125 C12.91486948 7.41229133 15.08025148 8.69872105 17.24609375 9.984375 C18.36226074 10.65017578 19.47842773 11.31597656 20.62841797 12.00195312 C25.99201712 15.18049733 31.40378779 18.27408179 36.8125 21.375 C45.74945532 26.51528832 54.63907783 31.72980753 63.5 37 C76.59738068 44.78847263 89.78577549 52.41191039 103 60 C117.3556322 68.24352753 131.66340769 76.55607272 145.89208984 85.01708984 C156.79071747 91.48898512 167.76651034 97.8230237 178.75732422 104.13671875 C197.53488062 114.92653282 216.26176881 125.80118566 234.95898438 136.72949219 C246.28852991 143.3502187 257.62984527 149.94921348 269 156.5 C277.71852331 161.52422267 286.42924993 166.56144752 295.125 171.625 C296.10210937 172.19283203 297.07921875 172.76066406 298.0859375 173.34570312 C299.47039062 174.15297852 299.47039062 174.15297852 300.8828125 174.9765625 C301.68090332 175.44143066 302.47899414 175.90629883 303.30126953 176.38525391 C304.19185059 176.91812012 305.08243164 177.45098633 306 178 C306.65312416 178.30085699 307.30624832 178.60171398 307.97916412 178.91168785 C313.54245617 181.74832944 313.54245617 181.74832944 314.7390728 185.02182961 C315.01874993 187.59860339 315.03848937 190.07252401 314.97802734 192.6640625 C314.98726856 193.64982773 314.99650978 194.63559296 315.00603104 195.65122986 C315.02828484 198.97682786 314.99410774 202.29952668 314.9609375 205.625 C314.96602354 208.01946101 314.97503327 210.41391638 314.98764038 212.80834961 C315.00724828 217.36259381 315.0142043 221.91641919 315.00319874 226.47069454 C314.98123808 235.92851681 315.07505893 245.38289597 315.19628906 254.83984375 C315.37461228 269.041333 315.487157 283.2420298 315.54820633 297.44450378 C315.5843722 305.62685355 315.63856838 313.80833988 315.73388672 321.99023438 C315.81891598 329.29049403 315.8725342 336.59016889 315.88746679 343.89092159 C315.89627149 347.71059296 315.92006965 351.52872241 315.98213577 355.34793091 C316.04983679 359.55176205 316.04690944 363.7526657 316.03759766 367.95703125 C316.06838409 369.19712952 316.09917053 370.43722778 316.13088989 371.71490479 C316.03160459 379.91983659 316.03160459 379.91983659 313.02462387 383.06835938 C310.74130118 384.60750154 308.48710871 385.82727873 306 387 C305.08089844 387.62648438 304.16179687 388.25296875 303.21484375 388.8984375 C297.89789472 392.34579039 294.36298798 394.02262307 288 393 C286 390 286 390 285.8125 387.1875 C288.2709728 380.58844143 296.05556621 377.9722169 302 375 C302 316.26 302 257.52 302 197 C286.1699054 206.04576834 270.34934569 215.09916438 254.5625 224.21875 C247.72001451 228.16633778 240.86109634 232.08489977 234 236 C221.72772781 243.0035602 209.48292157 250.05399244 197.24853516 257.12353516 C193.92039446 259.04598288 190.59122808 260.96664246 187.26171875 262.88671875 C186.15006348 263.52786621 185.0384082 264.16901367 183.89306641 264.82958984 C181.6989941 266.0946956 179.50466446 267.3593552 177.31005859 268.62353516 C172.26903208 271.52899249 167.2340275 274.4436637 162.21484375 277.38671875 C161.32917725 277.90459961 160.44351074 278.42248047 159.53100586 278.95605469 C157.88774342 279.91788708 156.24650284 280.88318523 154.60766602 281.85253906 C149.22318174 285 149.22318174 285 147 285 C147 344.07 147 403.14 147 464 C156.24 458.72 165.48 453.44 175 448 C182.9453125 443.46484375 182.9453125 443.46484375 186.0949707 441.66723633 C195.0896752 436.53247835 204.07713039 431.38587525 213.04345703 426.20166016 C216.2573674 424.3443608 219.47416006 422.49213854 222.69140625 420.640625 C226.98181733 418.17069109 231.25768633 415.67749143 235.52734375 413.171875 C237.60132622 411.96834273 239.6755355 410.76520122 241.75 409.5625 C242.69657471 409.00022705 243.64314941 408.4379541 244.6184082 407.85864258 C252.97892761 403.04473308 252.97892761 403.04473308 258 404 C260 406 260 406 260.6875 409.25 C260 413 260 413 258.3815918 414.43701172 C257.66140869 414.88834473 256.94122559 415.33967773 256.19921875 415.8046875 C255.37881104 416.32160156 254.55840332 416.83851563 253.71313477 417.37109375 C248.88567103 420.26939646 244.01888708 423.09044443 239.125 425.875 C236.80127776 427.20565451 234.4781355 428.53724421 232.15625 429.87109375 C231.56373444 430.21135086 230.97121887 430.55160797 230.36074829 430.9021759 C224.07808681 434.51765167 217.85142593 438.22619782 211.625 441.9375 C201.25401193 448.11122628 190.81631072 454.15294268 180.31835938 460.10742188 C174.55212174 463.38243671 168.81092891 466.68947045 163.11328125 470.08203125 C162.01975342 470.73091309 160.92622559 471.37979492 159.79956055 472.04833984 C157.74028997 473.27379825 155.68546132 474.5067639 153.63598633 475.74853516 C152.71712646 476.29429199 151.7982666 476.84004883 150.8515625 477.40234375 C150.05572754 477.88179443 149.25989258 478.36124512 148.43994141 478.85522461 C145.5072596 480.23118468 143.24407017 480.83248895 140 481 C137.16113281 479.8828125 137.16113281 479.8828125 134.203125 478.125 C132.53817993 477.15336914 132.53817993 477.15336914 130.83959961 476.16210938 C129.64292496 475.44164113 128.4463956 474.72093154 127.25 474 C125.99779873 473.26201916 124.7446078 472.52571521 123.49047852 471.79101562 C120.91044923 470.27714523 118.3355418 468.75507235 115.76416016 467.2265625 C111.2419842 464.5436734 106.67977202 461.93203086 102.11621094 459.3203125 C91.04876972 452.98245983 80.06927425 446.50092927 69.10742188 439.98266602 C57.1371814 432.87425648 45.07265535 425.93255897 33 419 C18.64351913 410.75598513 4.33361565 402.445 -9.89428711 393.98071289 C-17.56174346 389.42600174 -25.26663525 384.9417754 -33 380.5 C-43.01721985 374.74645776 -52.96678715 368.88684815 -62.89453125 362.98046875 C-70.56199142 358.42597972 -78.26680084 353.94184209 -86 349.5 C-95.93651054 343.79094673 -105.81405635 337.98941287 -115.66381836 332.13208008 C-123.48710216 327.48169481 -131.33318994 322.87241672 -139.1913147 318.28125 C-148.03277833 313.11321516 -156.86743263 307.9344058 -165.625 302.625 C-166.34695557 302.19082764 -167.06891113 301.75665527 -167.81274414 301.30932617 C-173.86017167 297.61363451 -173.86017167 297.61363451 -176 295 C-176.39620399 293.13225651 -176.39620399 293.13225651 -176.42642212 290.98536682 C-176.44501408 290.16366816 -176.46360603 289.34196949 -176.48276138 288.49537086 C-176.48796673 287.59012358 -176.49317207 286.68487629 -176.49853516 285.75219727 C-176.51552334 284.78601156 -176.53251152 283.81982586 -176.5500145 282.8243618 C-176.60304538 279.55090969 -176.63385321 276.27764349 -176.6640625 273.00390625 C-176.6957426 270.64798353 -176.72828816 268.29207231 -176.7616272 265.93617249 C-176.85747766 258.66962616 -176.92340056 251.40298048 -176.98237801 244.13606739 C-177.00017763 241.97846782 -177.019031 239.82087981 -177.03819275 237.66329193 C-177.20361916 218.95358783 -177.30711042 200.24426089 -177.34103012 181.53384972 C-177.35776699 172.49132666 -177.39181558 163.44921153 -177.44759309 154.40684217 C-177.48618445 147.92508551 -177.505805 141.44344028 -177.51111281 134.96157175 C-177.51474655 131.13124432 -177.52658055 127.30137369 -177.55921555 123.47117424 C-177.59468354 119.25778205 -177.59095433 115.04532177 -177.58349609 110.83178711 C-177.59990143 109.58292725 -177.61630676 108.33406738 -177.63320923 107.04736328 C-177.62489075 105.90681992 -177.61657227 104.76627655 -177.60800171 103.59117126 C-177.61131186 102.6017903 -177.614622 101.61240934 -177.61803246 100.59304714 C-176.57309822 96.20887006 -173.12179042 94.70486977 -169.48999023 92.42285156 C-168.60512939 91.9172168 -167.72026855 91.41158203 -166.80859375 90.890625 C-165.79619629 90.30933838 -164.78379883 89.72805176 -163.74072266 89.12915039 C-162.65065918 88.50903076 -161.5605957 87.88891113 -160.4375 87.25 C-159.27892223 86.58687722 -158.12056077 85.92337639 -156.96240234 85.25952148 C-153.91899553 83.51638722 -150.87270674 81.77835313 -147.82574463 80.04144287 C-144.89642072 78.37049533 -141.96982341 76.6948004 -139.04296875 75.01953125 C-131.4416717 70.67048233 -123.83563414 66.32976312 -116.22924805 61.98962402 C-112.11078415 59.63958343 -107.99264275 57.2889791 -103.875 54.9375 C-103.29445862 54.60597931 -102.71391724 54.27445862 -102.11578369 53.93289185 C-93.73122469 49.14373456 -85.36086157 44.3304097 -77 39.5 C-65.16113724 32.66020759 -53.29452236 25.86977316 -41.41915894 19.09364319 C-36.97048326 16.55491807 -32.52397645 14.01241715 -28.078125 11.46875 C-26.13817909 10.35909299 -24.19821149 9.24947391 -22.25823975 8.13986206 C-21.01029896 7.42594124 -19.76245432 6.71185232 -18.51470947 5.99758911 C-16.78873235 5.00962183 -15.06234499 4.02237131 -13.3359375 3.03515625 C-12.35157715 2.4719165 -11.3672168 1.90867676 -10.35302734 1.32836914 C-6.25322217 -0.98611934 -4.67674294 -1.0683753 0 0 Z M-10.89453125 13.58203125 C-13.22349178 14.96554027 -15.52006449 16.37208829 -17.8125 17.8125 C-19.05854551 18.56482124 -20.30646411 19.3140481 -21.55615234 20.06030273 C-24.12831376 21.60045227 -26.69101597 23.15477215 -29.24755859 24.72070312 C-34.80758109 28.11487906 -40.47036309 31.329426 -46.125 34.5625 C-48.27670576 35.8035368 -50.42774753 37.04572554 -52.578125 38.2890625 C-53.63837891 38.90168945 -54.69863281 39.51431641 -55.79101562 40.14550781 C-56.84998047 40.75749023 -57.90894531 41.36947266 -59 42 C-72.94674476 50.05991123 -86.90619611 58.09593487 -100.89968872 66.07434082 C-110.04141225 71.28826717 -119.14044312 76.57202367 -128.22119141 81.89135742 C-138.74762472 88.04495785 -149.36721009 94.03255668 -160 100 C-157.31409053 103.0555959 -153.99614834 104.98634956 -150.5390625 107.046875 C-149.59768936 107.61006439 -149.59768936 107.61006439 -148.63729858 108.18463135 C-147.31248659 108.97384516 -145.98608275 109.76039216 -144.65820312 110.54443359 C-142.63085527 111.74652818 -140.61646575 112.96859894 -138.6015625 114.19140625 C-137.31064687 114.95699697 -136.01900339 115.721362 -134.7265625 116.484375 C-134.12744049 116.85197937 -133.52831848 117.21958374 -132.91104126 117.59832764 C-130.28919737 119.11822238 -128.46620102 120.0187217 -125.40405273 119.89575195 C-122.68249948 118.88169905 -120.31258393 117.65890291 -117.80859375 116.18359375 C-116.79603516 115.59255859 -115.78347656 115.00152344 -114.74023438 114.39257812 C-113.65033203 113.74740234 -112.56042969 113.10222656 -111.4375 112.4375 C-110.28109018 111.76022827 -109.12417869 111.08381247 -107.96679688 110.40820312 C-106.15471279 109.3503715 -104.34291631 108.29208297 -102.53256226 107.23129272 C-96.62977915 103.77366031 -90.69150218 100.37976229 -84.74679565 96.99487305 C-70.79960048 89.05136316 -56.89689849 81.03110476 -43 73 C-38.70877226 70.52007259 -34.417185 68.04077029 -30.125 65.5625 C-29.064021 64.94987305 -28.00304199 64.33724609 -26.90991211 63.70605469 C-19.97420874 59.70518958 -13.02623312 55.72642121 -6.07080078 51.76000977 C-1.42255261 49.10927809 3.22203548 46.45217143 7.86572266 43.79345703 C9.86959228 42.64682778 11.8743864 41.50181171 13.88037109 40.35888672 C16.34123331 38.95493617 18.7965229 37.54180411 21.25 36.125 C21.95326416 35.72627686 22.65652832 35.32755371 23.38110352 34.91674805 C24.95501428 34.00102927 26.48424016 33.00906298 28 32 C28 31.34 28 30.68 28 30 C24.42548451 27.9368208 20.85085438 25.87384036 17.27612305 23.81103516 C16.06287623 23.11089299 14.84965944 22.41069878 13.63647461 21.71044922 C13.04938721 21.37158691 12.4622998 21.03272461 11.85742188 20.68359375 C11.27858749 20.34841232 10.69975311 20.0132309 10.1033783 19.66789246 C8.39768932 18.68716674 6.681437 17.72488725 4.96508789 16.76293945 C2 15 2 15 0.04858398 13.38354492 C-4.0924267 10.00922298 -6.59714746 11.3764588 -10.89453125 13.58203125 Z M34.46875 40.53515625 C33.52676758 41.08929199 32.58478516 41.64342773 31.61425781 42.21435547 C30.0727002 43.12918701 30.0727002 43.12918701 28.5 44.0625 C26.29722119 45.35866143 24.09408428 46.65421444 21.890625 47.94921875 C21.32132263 48.28447571 20.75202026 48.61973267 20.16546631 48.96514893 C14.21325213 52.46917532 8.23430141 55.92614779 2.25 59.375 C1.17685547 59.99383057 0.10371094 60.61266113 -1.00195312 61.25024414 C-9.57828379 66.19103926 -18.17118319 71.10261971 -26.76739502 76.00869751 C-38.45748115 82.68104271 -50.11909414 89.40215294 -61.7734375 96.13671875 C-65.03524007 98.0203505 -68.29861844 99.90122321 -71.5625 101.78125 C-86.07011673 110.13927311 -100.54707192 118.54777631 -115 127 C-111.476834 129.96352072 -107.92453054 132.29092939 -103.88671875 134.49609375 C-103.31347366 134.81151627 -102.74022858 135.12693878 -102.14961243 135.45191956 C-100.33134798 136.45164138 -98.50971243 137.44499534 -96.6875 138.4375 C-94.88103354 139.42480275 -93.07538006 140.41353426 -91.27102661 141.4046936 C-89.54561306 142.35247537 -87.81847707 143.29711929 -86.09130859 144.24169922 C-83.45488829 145.74126477 -80.96337034 147.33230442 -78.45703125 149.03515625 C-75.30825237 151.25862656 -75.30825237 151.25862656 -72.58105469 150.78515625 C-69.83963007 149.9512155 -67.70350577 148.87313315 -65.24609375 147.40234375 C-64.32393066 146.85650635 -63.40176758 146.31066895 -62.45166016 145.74829102 C-60.95965088 144.85194946 -60.95965088 144.85194946 -59.4375 143.9375 C-57.26766795 142.6523941 -55.09706372 141.3685913 -52.92578125 140.0859375 C-51.79092285 139.41401367 -50.65606445 138.74208984 -49.48681641 138.04980469 C-43.73561461 134.6581684 -37.9275976 131.36507818 -32.125 128.0625 C-29.75483412 126.71159316 -27.38514669 125.3598489 -25.015625 124.0078125 C-24.43038559 123.67392517 -23.84514618 123.34003784 -23.24217224 122.99603271 C-17.10912117 119.49500999 -10.99074383 115.96865801 -4.875 112.4375 C-3.80894531 111.82197266 -2.74289063 111.20644531 -1.64453125 110.57226562 C1.57057523 108.71529806 4.78535378 106.85776421 8 105 C22.05237842 96.87904242 36.11682927 88.78049306 50.21343994 80.73660278 C60.50009424 74.86630486 70.76045845 68.95204878 81 63 C79.71316457 59.13949371 78.44499018 58.84559317 74.92578125 56.92578125 C73.87140869 56.34393066 72.81703613 55.76208008 71.73071289 55.16259766 C70.60270264 54.55206543 69.47469238 53.9415332 68.3125 53.3125 C66.02573131 52.0565545 63.7392711 50.80004716 61.453125 49.54296875 C60.34388672 48.93630371 59.23464844 48.32963867 58.09179688 47.70458984 C53.13790467 44.97337732 48.25815935 42.11950941 43.37890625 39.2578125 C39.46252759 37.18708355 38.10063753 38.38516067 34.46875 40.53515625 Z M86.93359375 71.75390625 C85.90443848 72.35323975 84.8752832 72.95257324 83.81494141 73.57006836 C82.70038574 74.2275708 81.58583008 74.88507324 80.4375 75.5625 C79.26521571 76.24751889 78.0925199 76.93183399 76.91943359 77.61547852 C74.48192735 79.03677816 72.04622509 80.46109701 69.61181641 81.88769531 C64.13110251 85.0967121 58.62767742 88.26634367 53.125 91.4375 C51.52676392 92.35994507 51.52676392 92.35994507 49.89624023 93.30102539 C41.35535191 98.22799404 32.79567422 103.12168437 24.23205566 108.00897217 C11.46351532 115.29689742 -1.27041773 122.64427756 -14 130 C-29.64512961 139.03797727 -45.30238963 148.05342445 -61 157 C-61 157.66 -61 158.32 -61 159 C-60.29093506 159.40726318 -59.58187012 159.81452637 -58.85131836 160.23413086 C-56.14774073 161.78789347 -53.44510546 163.3432834 -50.74276733 164.89920044 C-48.94386236 165.93384069 -47.14349665 166.96590472 -45.34301758 167.99780273 C-40.21467151 170.9433056 -35.09883652 173.89227047 -30.109375 177.0703125 C-29.09049194 177.71432007 -29.09049194 177.71432007 -28.05102539 178.37133789 C-26.30979772 179.48432752 -24.58206925 180.61835774 -22.85546875 181.75390625 C-20.11920999 183.3197266 -20.11920999 183.3197266 -17.65039062 182.26220703 C-14.93178347 180.96751295 -12.34076722 179.5656472 -9.73828125 178.05078125 C-8.71549072 177.45789307 -7.6927002 176.86500488 -6.63891602 176.25415039 C-4.99234009 175.29303345 -4.99234009 175.29303345 -3.3125 174.3125 C-2.1498542 173.63695098 -0.98700871 172.96174553 0.17602539 172.28686523 C1.98146491 171.23903698 3.78669998 170.19086762 5.59117126 169.14137268 C9.56981155 166.82747163 13.55562915 164.52649739 17.546875 162.234375 C28.53704781 155.92167478 39.48450643 149.54580122 50.375 143.0625 C59.59535244 137.57448107 68.86245251 132.18242457 78.1875 126.875 C97.60235799 115.82310936 116.88022169 104.55527541 136 93 C132.34296796 89.90815342 128.61544809 87.54091184 124.4140625 85.25 C123.79405365 84.91000977 123.1740448 84.57001953 122.5352478 84.21972656 C120.56761296 83.14193315 118.59646178 82.07077434 116.625 81 C114.6615032 79.92777011 112.69875404 78.85418308 110.73617554 77.78027344 C108.95113531 76.8044341 107.16433905 75.83180897 105.37744141 74.859375 C103.61298899 73.8879951 101.8508487 72.91079526 100.12225342 71.87695312 C94.52246907 68.5364927 92.47161757 68.50361545 86.93359375 71.75390625 Z M140.765625 101.7890625 C139.21077393 102.69603882 139.21077393 102.69603882 137.62451172 103.62133789 C135.95412842 104.61315063 135.95412842 104.61315063 134.25 105.625 C133.08007152 106.31128727 131.90965384 106.99674123 130.73876953 107.68139648 C128.32938112 109.0919011 125.92283036 110.50706805 123.51855469 111.92626953 C119.29448193 114.4185619 115.05517933 116.88448365 110.81591797 119.35083008 C105.87349778 122.22741217 100.9371098 125.11431635 96 128 C82.59382119 135.83575666 69.17079317 143.64037711 55.71582031 151.39208984 C46.45954708 156.72778273 37.22642249 162.10229819 28.00390625 167.49609375 C23.78992774 169.95953249 19.56741049 172.40761301 15.33984375 174.84765625 C14.24752441 175.47986084 13.15520508 176.11206543 12.02978516 176.76342773 C9.93890304 177.97324532 7.84622429 179.17996502 5.75146484 180.38305664 C1.24025694 182.99795352 -3.06352619 185.54399515 -7 189 C0.0664822 193.88586572 7.39161228 198.31072913 14.79443359 202.66088867 C16.76433701 203.8209429 18.72780972 204.99141927 20.69140625 206.16210938 C21.95534865 206.90689614 23.21965859 207.65105959 24.484375 208.39453125 C25.61584961 209.06331299 26.74732422 209.73209473 27.91308594 210.42114258 C30.80666429 211.90111499 32.76779483 212.85178142 36 213 C38.68735034 212.02551878 38.68735034 212.02551878 41.359375 210.38671875 C42.38329346 209.8035791 43.40721191 209.22043945 44.4621582 208.61962891 C45.547146 207.98202637 46.63213379 207.34442383 47.75 206.6875 C49.44225708 205.71562744 49.44225708 205.71562744 51.16870117 204.72412109 C54.45507862 202.83151665 57.72948902 200.91986365 61 199 C61.7852002 198.54093262 62.57040039 198.08186523 63.37939453 197.60888672 C66.01538494 196.06649214 68.64830493 194.51920312 71.2746582 192.96044922 C77.95186352 189.00141927 84.69396801 185.15696896 91.4375 181.3125 C100.67928185 176.04250851 109.91178236 170.75736536 119.125 165.4375 C120.19049072 164.82229492 121.25598145 164.20708984 122.35375977 163.57324219 C125.56943894 161.71595433 128.78478571 159.8580925 132 158 C136.29122775 155.52007258 140.58296746 153.04103427 144.875 150.5625 C145.92582764 149.95494873 146.97665527 149.34739746 148.05932617 148.72143555 C153.94329081 145.32390464 159.8406084 141.95157169 165.75390625 138.60546875 C167.0490392 137.87109758 168.34412427 137.13664195 169.63916016 136.40209961 C172.12414828 134.99262348 174.61257874 133.58949707 177.10302734 132.18969727 C178.22273926 131.55475342 179.34245117 130.91980957 180.49609375 130.265625 C181.98387329 129.42692871 181.98387329 129.42692871 183.50170898 128.57128906 C185.68018623 127.20114546 187.29685979 125.90924356 189 124 C181.78358487 118.60667922 174.15128464 114.01044573 166.39746094 109.44042969 C161.44901174 106.51396912 156.67776797 103.46353456 152.01000977 100.10375977 C147.62479135 97.695698 144.66285977 99.49338408 140.765625 101.7890625 Z M-166 111 C-166.35062038 134.18270642 -166.61501785 157.36497495 -166.77718258 180.5497961 C-166.85448584 191.31543108 -166.95984133 202.0794175 -167.1315918 212.84399414 C-167.28124523 222.22810883 -167.37790467 231.61102975 -167.41132742 240.99630457 C-167.43086325 245.96515982 -167.47665157 250.93060054 -167.58595085 255.8983593 C-167.6880925 260.57889564 -167.71912073 265.2546275 -167.69661522 269.93617249 C-167.70072884 271.65003193 -167.73040537 273.36405837 -167.78808212 275.07695198 C-167.95900598 280.41680765 -167.87144033 284.95253767 -166 290 C-162.34687531 293.87613164 -157.60990036 296.08079871 -152.79235661 298.18943989 C-150.36570475 299.28684829 -148.13918959 300.65096106 -145.88671875 302.06640625 C-144.48728359 302.89894942 -143.08755904 303.73100641 -141.6875 304.5625 C-140.59791992 305.21702148 -140.59791992 305.21702148 -139.48632812 305.88476562 C-135.98448688 308.18524079 -135.98448688 308.18524079 -132 309 C-131.62590219 285.96502963 -131.34393181 262.93056136 -131.17100525 239.8931675 C-131.08856941 229.1958106 -130.97623316 218.50034309 -130.79296875 207.80419922 C-130.63327075 198.47903688 -130.53021969 189.15524275 -130.49458408 179.82875097 C-130.47375632 174.89150203 -130.42499099 169.95816627 -130.30831909 165.02217484 C-130.19925644 160.37017999 -130.16629089 155.72368563 -130.1902771 151.07053375 C-130.18589389 149.36834347 -130.15429927 147.66595951 -130.0927124 145.96487808 C-129.78167897 138.26115317 -129.78167897 138.26115317 -132 131 C-135.93424134 126.84914369 -140.98912672 124.32900717 -146.10477829 121.91205668 C-148.58959927 120.71626119 -150.91029204 119.29799521 -153.24609375 117.8359375 C-154.64190911 117.01338085 -156.03896981 116.19293232 -157.4375 115.375 C-158.16775391 114.94316406 -158.89800781 114.51132813 -159.65039062 114.06640625 C-162.64564171 111.9563124 -162.64564171 111.9563124 -166 111 Z M195.59375 133.9296875 C193.90294312 134.86735962 193.90294312 134.86735962 192.17797852 135.82397461 C190.95186234 136.50742851 189.72587232 137.1911088 188.5 137.875 C187.8813205 138.21935089 187.26264099 138.56370178 186.62521362 138.91848755 C178.90496967 143.21690861 171.22227043 147.56836781 163.62915039 152.08837891 C156.94614171 156.05875396 150.19184441 159.90282034 143.4375 163.75 C134.59728535 168.78681673 125.77989944 173.85842483 117 179 C108.44457769 184.00759985 99.85919316 188.96055017 91.25 193.875 C90.67371857 194.20422455 90.09743713 194.5334491 89.50369263 194.87265015 C83.37297115 198.37492433 77.23744619 201.86842696 71.09060669 205.34234619 C68.4960181 206.80945802 65.90348058 208.28017188 63.31115723 209.75128174 C62.07203925 210.45310415 60.8319003 211.15312732 59.59069824 211.85125732 C57.86918218 212.81961743 56.15130244 213.79443347 54.43359375 214.76953125 C53.45447021 215.32229736 52.47534668 215.87506348 51.46655273 216.44458008 C49.30370499 217.80848218 47.69462965 219.10428237 46 221 C46.67877197 221.40726318 47.35754395 221.81452637 48.05688477 222.23413086 C50.08136107 223.44881664 52.10568007 224.66376464 54.12988281 225.87890625 C56.42330599 227.25512485 58.71836434 228.62856076 61.01464844 230 C65.97940233 232.96778148 70.93853912 235.93824011 75.82421875 239.03515625 C76.50218506 239.45998291 77.18015137 239.88480957 77.87866211 240.32250977 C79.62864089 241.42363796 81.36937832 242.53941492 83.109375 243.65625 C86.51866141 245.24110747 87.46596023 245.01061772 91 244 C93.44432679 242.83605143 93.44432679 242.83605143 95.89453125 241.33203125 C96.83748047 240.77580078 97.78042969 240.21957031 98.75195312 239.64648438 C99.76193359 239.04126953 100.77191406 238.43605469 101.8125 237.8125 C103.98556541 236.52715493 106.15874566 235.242004 108.33203125 233.95703125 C109.99613037 232.96823975 109.99613037 232.96823975 111.69384766 231.95947266 C116.77973873 228.94519398 121.89014445 225.9734055 127 223 C129.00275206 221.83228487 131.00535583 220.66431537 133.0078125 219.49609375 C133.99813477 218.91843262 134.98845703 218.34077148 136.00878906 217.74560547 C138.98306294 216.0098841 141.95648422 214.27271075 144.9296875 212.53515625 C156.36078507 205.85698872 167.81288112 199.21678347 179.28417969 192.60791016 C189.52750792 186.70323856 199.74086184 180.74792984 209.94873047 174.78222656 C213.18481006 172.89205366 216.4223067 171.00432676 219.66015625 169.1171875 C220.75247559 168.48047119 221.84479492 167.84375488 222.97021484 167.18774414 C225.06288327 165.96800016 227.15565135 164.74842713 229.24853516 163.52905273 C230.19132324 162.97934814 231.13411133 162.42964355 232.10546875 161.86328125 C232.93199951 161.38157471 233.75853027 160.89986816 234.61010742 160.40356445 C235.39877197 159.94038818 236.18743652 159.47721191 237 159 C237.92594971 158.48719482 238.85189941 157.97438965 239.8059082 157.44604492 C240.5299585 156.9688501 241.25400879 156.49165527 242 156 C242 155.34 242 154.68 242 154 C241.32122803 153.62302979 240.64245605 153.24605957 239.94311523 152.85766602 C216.06428103 139.58131714 216.06428103 139.58131714 206.15405273 133.49047852 C201.12630841 130.4085269 200.78028558 131.0514723 195.59375 133.9296875 Z M-121 137 C-121 196.07 -121 255.14 -121 316 C-112.42 320.95 -103.84 325.9 -95 331 C-85.9375 336.4375 -85.9375 336.4375 -82.46484375 338.55859375 C-80.33202199 340.0841344 -80.33202199 340.0841344 -79 340 C-78.32074028 316.95701309 -77.81032286 293.9156881 -77.49744701 270.86470127 C-77.3482625 260.15955936 -77.14518279 249.4606557 -76.81225586 238.75952148 C-76.5219894 229.42510604 -76.33585336 220.09520617 -76.27143365 210.75640339 C-76.23378957 205.81440298 -76.14636108 200.88530974 -75.93382835 195.94748116 C-74.33285248 176.81049497 -74.33285248 176.81049497 -80.28907824 159.29026175 C-86.90179705 152.49449997 -95.7380607 148.88601566 -104.42698097 145.51370049 C-108.9613979 143.59270621 -112.87700287 141.08692906 -116.92615032 138.3067255 C-118.87348481 136.82230129 -118.87348481 136.82230129 -121 137 Z M247.8828125 164.9375 C246.81546875 165.576875 245.748125 166.21625 244.6484375 166.875 C243.78943848 167.39320313 243.78943848 167.39320313 242.91308594 167.921875 C239.84667376 169.77076579 236.77122085 171.60446375 233.6953125 173.4375 C232.73905975 174.00766846 232.73905975 174.00766846 231.76348877 174.58935547 C225.22398602 178.47883269 218.61738979 182.24476428 212 186 C202.77538927 191.23872333 193.612985 196.56827902 184.5 202 C175.38696494 207.43175082 166.22371606 212.75964906 157 218 C144.24095446 225.25024187 131.61132895 232.70331147 119.00390625 240.21386719 C114.61511209 242.82345903 110.21520316 245.41396229 105.8125 248 C105.10520752 248.41556152 104.39791504 248.83112305 103.66918945 249.25927734 C102.11302925 250.17325397 100.55655853 251.08670191 99 252 C103.08787398 255.5187778 107.40600269 258.01933393 112.125 260.5625 C117.22665939 263.33032598 122.27836292 266.13865182 127.23046875 269.16796875 C128.50543213 269.93935181 128.50543213 269.93935181 129.80615234 270.72631836 C131.45210744 271.72694233 133.0895591 272.74171668 134.71728516 273.77172852 C135.46671387 274.22346436 136.21614258 274.6752002 136.98828125 275.140625 C137.64352783 275.54829102 138.29877441 275.95595703 138.97387695 276.37597656 C142.64343348 277.50615929 145.36233414 275.3328832 148.59277344 273.64648438 C149.96224121 272.87788086 149.96224121 272.87788086 151.359375 272.09375 C152.38345459 271.52019775 153.40753418 270.94664551 154.46264648 270.35571289 C155.54747314 269.74332764 156.6322998 269.13094238 157.75 268.5 C158.87672119 267.86634521 160.00344238 267.23269043 161.16430664 266.57983398 C167.95517743 262.74999436 174.70984746 258.86664399 181.4152832 254.8894043 C187.72724595 251.14695296 194.07944641 247.476019 200.4375 243.8125 C202.09616089 242.85657959 202.09616089 242.85657959 203.78833008 241.88134766 C207.1919253 239.9203862 210.59591889 237.96011785 214 236 C227.66270531 228.13134214 241.31538999 220.24710053 254.92626953 212.2890625 C260.27473671 209.16447362 265.63127163 206.05449033 271 202.96484375 C271.58587891 202.62756256 272.17175781 202.29028137 272.77539062 201.94277954 C275.6068348 200.31319993 278.4393741 198.68556772 281.2734375 197.06054688 C286.92200325 193.81297727 292.5015181 190.49602996 298 187 C294.79054331 184.46703456 291.42173386 182.44059905 287.87109375 180.41796875 C286.98648216 179.912976 286.98648216 179.912976 286.08399963 179.39778137 C284.8365892 178.68636319 283.58843966 177.97623958 282.33959961 177.26733398 C280.46630162 176.20385086 278.59526006 175.13649078 276.72460938 174.06835938 C273.15634994 172.03370765 269.57995628 170.01400955 266 168 C264.91605957 167.38979004 263.83211914 166.77958008 262.71533203 166.15087891 C261.72774902 165.60222168 260.74016602 165.05356445 259.72265625 164.48828125 C258.42146851 163.76378784 258.42146851 163.76378784 257.09399414 163.0246582 C253.15487689 161.09712234 251.44392032 162.78951088 247.8828125 164.9375 Z M-68 168 C-68.37409238 191.1653578 -68.65606563 214.33021637 -68.82899475 237.49798393 C-68.91143167 248.25586912 -69.02377023 259.01187564 -69.20703125 269.76855469 C-69.36672564 279.14645466 -69.46977951 288.52299419 -69.50541592 297.90221608 C-69.5262442 302.8674009 -69.57501363 307.82869474 -69.69168091 312.79262924 C-69.80073748 317.47088083 -69.8337101 322.14366281 -69.8097229 326.8230648 C-69.81410635 328.5349287 -69.84570407 330.24698507 -69.9072876 331.95774651 C-70.21486519 339.69755676 -70.21486519 339.69755676 -68 347 C-64.11827574 351.13544476 -59.1019357 353.60091426 -54.03535843 356.00183702 C-50.88771201 357.54547871 -47.97493161 359.3986288 -45.00390625 361.2578125 C-42.85767972 362.54838768 -40.71055956 363.83747806 -38.5625 365.125 C-37.45068359 365.7953125 -36.33886719 366.465625 -35.19335938 367.15625 C-34.14083984 367.78789062 -33.08832031 368.41953125 -32.00390625 369.0703125 C-31.06361572 369.63508301 -30.1233252 370.19985352 -29.15454102 370.78173828 C-27.26743962 372.08203392 -27.26743962 372.08203392 -26 372 C-25.69620711 348.79988316 -25.46702132 325.60009457 -25.32644176 302.39839172 C-25.25943007 291.62510664 -25.16808868 280.85305786 -25.01928711 270.08056641 C-24.88963943 260.6902382 -24.80582735 251.30080526 -24.77684957 241.90960693 C-24.75991101 236.93724728 -24.72016852 231.96744853 -24.62550926 226.99591064 C-24.5370746 222.3132299 -24.51008123 217.63415633 -24.52960014 212.95071983 C-24.52603149 211.23489431 -24.5002677 209.5189449 -24.45032883 207.80384254 C-24.30592103 202.5871994 -24.35526676 197.98673827 -26 193 C-29.9572681 189.17316593 -33.94075364 187.19412643 -39 185 C-40.36018174 184.20508692 -41.70765505 183.38720664 -43.03027344 182.53125 C-45.982041 180.73023019 -48.93464923 178.93061838 -51.88867188 177.13330078 C-53.15159359 176.36434976 -54.41394507 175.59446154 -55.67578125 174.82373047 C-57.52737337 173.69288284 -59.38066425 172.56487042 -61.234375 171.4375 C-62.31944336 170.77621094 -63.40451172 170.11492187 -64.52246094 169.43359375 C-66.66718885 167.91652758 -66.66718885 167.91652758 -68 168 Z M-14 200 C-14.21021163 223.10449221 -14.36893456 246.20882683 -14.46630955 269.31408119 C-14.51272377 280.0422321 -14.57600503 290.76978897 -14.67895508 301.49755859 C-14.76864067 310.8475774 -14.82671914 320.19716603 -14.84679645 329.54760301 C-14.85853372 334.49919214 -14.88612715 339.44955063 -14.95157051 344.40074539 C-15.01267678 349.06158736 -15.03150216 353.72069248 -15.01796913 358.38189697 C-15.02044457 360.09200864 -15.03834214 361.80217854 -15.07284927 363.51194382 C-15.57658199 372.48142461 -15.57658199 372.48142461 -12.05496502 380.30064392 C-9.74865037 381.86711741 -7.57609166 382.95224601 -5 384 C-3.78092515 384.71613563 -2.5712417 385.44899054 -1.37963867 386.20996094 C-0.22739144 386.88756683 0.92652443 387.56234269 2.08203125 388.234375 C2.70349533 388.59847473 3.32495941 388.96257446 3.96525574 389.33770752 C5.2592074 390.09507608 6.5539133 390.8511575 7.84936523 391.60595703 C9.82784079 392.75894005 11.80373273 393.91625562 13.77929688 395.07421875 C20.79687098 399.20683324 20.79687098 399.20683324 28 403 C28.35062038 379.81729358 28.61501785 356.63502505 28.77718258 333.4502039 C28.85448584 322.68456892 28.95984133 311.9205825 29.1315918 301.15600586 C29.28124523 291.77189117 29.37790467 282.38897025 29.41132742 273.00369543 C29.43086325 268.03484018 29.47665157 263.06939946 29.58595085 258.1016407 C29.6880925 253.42110436 29.71912073 248.7453725 29.69661522 244.06382751 C29.70072884 242.34996807 29.73040537 240.63594163 29.78808212 238.92304802 C30.28854163 230.08626235 30.28854163 230.08626235 26.55672193 222.45632052 C22.97974108 219.65671764 19.07285349 217.72255964 14.93249333 215.89814556 C11.83827035 214.46007455 9.02580496 212.65241416 6.13671875 210.83984375 C5.06615234 210.19208984 3.99558594 209.54433594 2.89257812 208.87695312 C0.70311462 207.55206753 -1.48429746 206.22378741 -3.66992188 204.89257812 C-4.72373047 204.25642578 -5.77753906 203.62027344 -6.86328125 202.96484375 C-7.80469971 202.3937085 -8.74611816 201.82257324 -9.71606445 201.23413086 C-11.86058466 199.84153694 -11.86058466 199.84153694 -14 200 Z M40 231 C39.41472944 254.07807537 38.97454997 277.15492014 38.7046957 300.23892307 C38.57603342 310.95893147 38.40083084 321.67431777 38.11401367 332.39135742 C37.86398717 341.73819461 37.70336254 351.08168541 37.64778763 360.4317736 C37.61531162 365.38005994 37.53969689 370.31877921 37.35674858 375.26397896 C35.78895926 395.16080445 35.78895926 395.16080445 42.42909622 413.08958054 C48.29934519 418.12179731 54.76511833 421.14608758 61.9716053 423.80787468 C66.30281972 425.51285401 70.0631021 427.88878947 73.9375 430.4375 C77.69879253 433.03036271 77.69879253 433.03036271 82 434 C82.21021163 410.89550779 82.36893456 387.79117317 82.46630955 364.68591881 C82.51272377 353.9577679 82.57600503 343.23021103 82.67895508 332.50244141 C82.76864067 323.1524226 82.82671914 313.80283397 82.84679645 304.45239699 C82.85853372 299.50080786 82.88612715 294.55044937 82.95157051 289.59925461 C83.01267678 284.93841264 83.03150216 280.27930752 83.01796913 275.61810303 C83.02044457 273.90799136 83.03834214 272.19782146 83.07284927 270.48805618 C83.57658199 261.51857539 83.57658199 261.51857539 80.05496502 253.69935608 C77.74865037 252.13288259 75.57609166 251.04775399 73 250 C71.78092515 249.28386437 70.5712417 248.55100946 69.37963867 247.79003906 C68.22739144 247.11243317 67.07347557 246.43765731 65.91796875 245.765625 C65.29650467 245.40152527 64.67504059 245.03742554 64.03474426 244.66229248 C62.7407926 243.90492392 61.4460867 243.1488425 60.15063477 242.39404297 C58.17215921 241.24105995 56.19626727 240.08374438 54.22070312 238.92578125 C47.20312902 234.79316676 47.20312902 234.79316676 40 231 Z M93 262 C93 321.07 93 380.14 93 441 C100.26 444.96 107.52 448.92 115 453 C118.9483711 455.23518737 122.88928529 457.47260653 126.8125 459.75 C128.56789706 460.76754811 130.32434369 461.78328858 132.08203125 462.796875 C133.18381714 463.43641113 133.18381714 463.43641113 134.30786133 464.08886719 C135.82643801 465.07901537 135.82643801 465.07901537 137 465 C137 405.93 137 346.86 137 286 C128.75 281.38 120.5 276.76 112 272 C102.0625 266.125 102.0625 266.125 98.03515625 263.6953125 C95.28840761 261.83745164 95.28840761 261.83745164 93 262 Z " fill="#000000" transform="translate(187,16)"/>
<path d="M0 0 C2.55855642 1.01302416 3.61346285 1.72623252 5.28271484 3.90380859 C5.66023827 6.48223877 5.66023827 6.48223877 5.66366577 9.63525391 C5.67212524 10.82985229 5.68058472 12.02445068 5.68930054 13.25524902 C5.6801915 15.22370789 5.6801915 15.22370789 5.67089844 17.23193359 C5.67496307 18.62650972 5.68030434 20.02108263 5.68682861 21.41564941 C5.70052108 25.20488866 5.69519573 28.99388323 5.68569136 32.78312683 C5.6781047 36.7455614 5.6851376 40.70797478 5.68984985 44.67041016 C5.69531032 51.32507088 5.68810821 57.97963177 5.67382812 64.63427734 C5.657501 72.33183416 5.66278931 80.02915261 5.67930734 87.72670364 C5.69291397 94.33144804 5.69484592 100.9361206 5.68699133 107.54087448 C5.68231026 111.4874538 5.68170181 115.43392102 5.6916008 119.38049316 C5.70025628 123.09056272 5.69427488 126.80032447 5.67691803 130.51036072 C5.67104803 132.52435887 5.67998083 134.53838302 5.68930054 136.55236816 C5.67661133 138.34426575 5.67661133 138.34426575 5.66366577 140.17236328 C5.66253469 141.21285828 5.66140362 142.25335327 5.66023827 143.32537842 C5.22157866 146.32135984 4.66902749 147.11385231 2.28271484 148.90380859 C-0.26087792 150.39710584 -2.80807134 151.82172484 -5.40478516 153.21630859 C-12.70516482 157.20361076 -19.9183284 161.31845896 -27.09228516 165.52880859 C-35.89466334 170.68787219 -44.72861849 175.78843163 -53.59228516 180.84130859 C-61.610002 185.41308203 -69.62343303 189.99160077 -77.6171875 194.60522461 C-79.75171751 195.83698254 -81.88744405 197.06666954 -84.02441406 198.29418945 C-89.07223036 201.1980574 -94.10383286 204.12379906 -99.09579468 207.12254333 C-101.47417058 208.54927723 -103.8597512 209.96370536 -106.24603271 211.37716675 C-107.92740268 212.38002067 -109.59814165 213.40063073 -111.26855469 214.42163086 C-112.28804199 215.02418701 -113.3075293 215.62674316 -114.35791016 216.24755859 C-115.25026367 216.78574219 -116.14261719 217.32392578 -117.06201172 217.87841797 C-120.37518841 219.15787201 -122.31977045 218.79094404 -125.71728516 217.90380859 C-126.37728516 217.57380859 -127.03728516 217.24380859 -127.71728516 216.90380859 C-127.83403753 198.19769455 -127.92223355 179.49165434 -127.97634602 160.78525162 C-128.00213818 152.09971189 -128.03730782 143.41439842 -128.09448242 134.72900391 C-128.14428668 127.15963713 -128.17656881 119.59043419 -128.18772763 112.02090812 C-128.19425154 108.01204636 -128.20960483 104.00365336 -128.24593544 99.99494171 C-128.27984836 96.22246877 -128.29034796 92.45065808 -128.28282356 88.67804718 C-128.28420025 87.29289146 -128.29416169 85.90771383 -128.31331253 84.52268982 C-128.33816856 82.632497 -128.32923264 80.74194963 -128.31855774 78.85162354 C-128.3231667 77.79340519 -128.32777567 76.73518684 -128.3325243 75.64490128 C-127.4995142 71.93356737 -125.82963112 70.95569683 -122.71728516 68.90380859 C-121.00934338 67.8306344 -119.27722841 66.79520474 -117.52587891 65.79443359 C-116.00679932 64.92226196 -116.00679932 64.92226196 -114.45703125 64.0324707 C-113.36729004 63.41251221 -112.27754883 62.79255371 -111.15478516 62.15380859 C-110.01090332 61.49840088 -108.86702148 60.84299316 -107.68847656 60.16772461 C-104.64661422 58.42499749 -101.60182108 56.68746451 -98.55596924 54.95172119 C-93.81922931 52.25213321 -89.08506138 49.54803141 -84.35037231 46.84484863 C-83.1731332 46.17286455 -81.99578439 45.50107258 -80.81832886 44.82946777 C-71.78522294 39.6767445 -62.79141895 34.45983558 -53.81689453 29.20581055 C-42.62586696 22.66375027 -31.37660958 16.2203482 -20.09130859 9.84228516 C-17.68656926 8.46069106 -15.31172946 7.05690849 -12.94482422 5.61376953 C-12.3181485 5.23827972 -11.69147278 4.86278992 -11.04580688 4.47592163 C-9.29071784 3.42286821 -7.5440173 2.35587068 -5.79785156 1.28808594 C-2.71728516 -0.09619141 -2.71728516 -0.09619141 0 0 Z M-13.60791016 20.50927734 C-14.63013672 21.08226562 -15.65236328 21.65525391 -16.70556641 22.24560547 C-17.78193359 22.8546875 -18.85830078 23.46376953 -19.96728516 24.09130859 C-20.96630859 24.65011719 -21.96533203 25.20892578 -22.99462891 25.78466797 C-25.15963647 27.00298403 -27.30565732 28.25551818 -29.43374634 29.53723145 C-32.59716827 31.37557485 -35.80515163 32.79100015 -39.19125366 34.17236328 C-49.93858384 38.8375599 -49.93858384 38.8375599 -56.94943237 47.73267555 C-58.69631198 55.48908631 -58.32102234 63.36698985 -57.94795179 71.26113725 C-57.80911572 74.70076001 -57.79740495 78.14093976 -57.77139282 81.58293152 C-57.70336534 88.08175314 -57.52341704 94.57230051 -57.30170405 101.06749791 C-57.05461162 108.46914162 -56.93456046 115.87121082 -56.82440448 123.27596056 C-56.59526844 138.48983218 -56.20909866 153.69598824 -55.71728516 168.90380859 C-51.68780164 167.60294318 -48.19449767 166.19490046 -44.54931641 164.03271484 C-43.5715625 163.45714844 -42.59380859 162.88158203 -41.58642578 162.28857422 C-40.57773437 161.68722656 -39.56904297 161.08587891 -38.52978516 160.46630859 C-36.55744337 159.30041187 -34.58477567 158.13506636 -32.61181641 156.97021484 C-31.61449493 156.34488861 -30.61717346 155.71956238 -29.58963013 155.07528687 C-26.7909093 153.40440239 -24.00850556 152.21971194 -20.95297241 151.09182739 C-15.48846898 148.87246181 -10.56562215 146.48999823 -6.71728516 141.90380859 C-3.51289507 133.71541126 -4.44035257 124.37246841 -4.79080033 115.74926782 C-4.91046069 112.30403512 -4.92080088 108.8584125 -4.94328308 105.41142273 C-5.00209754 98.89939118 -5.1576207 92.39349754 -5.34892339 85.88415736 C-5.56210023 78.46774509 -5.66595121 71.05102211 -5.76113665 63.63230383 C-5.95917848 48.38592954 -6.29283442 33.14566343 -6.71728516 17.90380859 C-9.5448921 17.90380859 -11.14394675 19.12523466 -13.60791016 20.50927734 Z M-72.98291016 53.76318359 C-74.66320312 54.69710937 -74.66320312 54.69710937 -76.37744141 55.64990234 C-76.97057129 55.98103027 -77.56370117 56.3121582 -78.17480469 56.65332031 C-79.88942733 57.61035159 -81.60604464 58.56380658 -83.32275391 59.51708984 C-94.1728753 65.55849602 -104.93293432 71.7413224 -115.71728516 77.90380859 C-115.71728516 119.15380859 -115.71728516 160.40380859 -115.71728516 202.90380859 C-106.75871398 198.42452301 -98.10280434 193.94443076 -89.52978516 188.84130859 C-87.53722621 187.66135023 -85.54374112 186.48295435 -83.54931641 185.30615234 C-82.69055908 184.79560303 -81.83180176 184.28505371 -80.94702148 183.7590332 C-76.24896857 181.06037842 -71.47370027 178.49821684 -66.71728516 175.90380859 C-66.71728516 134.65380859 -66.71728516 93.40380859 -66.71728516 50.90380859 C-68.86843627 50.90380859 -71.1885001 52.76486452 -72.98291016 53.76318359 Z " fill="#000000" transform="translate(473.71728515625,237.09619140625)"/>
<path d="M0 0 C2.32749345 3.49124017 2.50299316 4.89222251 2 9 C-1.12141974 12.82977186 -5.03774609 14.99506651 -9.3125 17.3125 C-9.95123047 17.68439453 -10.58996094 18.05628906 -11.24804688 18.43945312 C-15.84069537 20.93818893 -18.75866417 21.34853127 -24 20 C-25 19 -25 19 -25.625 15.8125 C-25 12 -25 12 -23.37890625 10.4140625 C-20.98197513 8.79901801 -18.53449204 7.38941218 -16 6 C-15.05253906 5.43667969 -14.10507812 4.87335938 -13.12890625 4.29296875 C-4.52407799 -0.69246092 -4.52407799 -0.69246092 0 0 Z " fill="#000000" transform="translate(396,366)"/>
<path d="M0 0 C2.20691302 5.39467628 2.20691302 5.39467628 1.30200195 8.04199219 C-0.22576747 10.33951906 -1.5572601 11.23631748 -3.95703125 12.578125 C-4.74013672 13.01640625 -5.52324219 13.4546875 -6.33007812 13.90625 C-7.55887695 14.57140625 -7.55887695 14.57140625 -8.8125 15.25 C-9.62009766 15.70890625 -10.42769531 16.1678125 -11.25976562 16.640625 C-15.40144101 18.92007288 -18.16388934 20.40078543 -23 20 C-24.875 18.9375 -24.875 18.9375 -26 17 C-26.09765625 13.71484375 -26.09765625 13.71484375 -25 10 C-22.46045558 7.70229905 -19.5872025 6.20246467 -16.5625 4.625 C-15.37817383 3.96951172 -15.37817383 3.96951172 -14.16992188 3.30078125 C-6.03307039 -1.18038334 -6.03307039 -1.18038334 0 0 Z " fill="#000000" transform="translate(453,361)"/>
<path d="M0 0 C2 2.125 2 2.125 3 5 C2.5100809 8.13974244 1.91824453 10.24180608 -0.58837891 12.31152344 C-2.62022369 13.58251813 -4.68400716 14.711294 -6.8125 15.8125 C-7.52470703 16.20630859 -8.23691406 16.60011719 -8.97070312 17.00585938 C-12.55252988 18.93759388 -15.87049405 20.71674869 -20 21 C-22.8125 19.5625 -22.8125 19.5625 -25 18 C-25 14.8125 -25 14.8125 -24 11 C-21.61998419 8.82505082 -18.83489939 7.50328544 -16 6 C-14.29074763 4.89725654 -12.58242801 3.7930661 -10.875 2.6875 C-4.36662842 -1.17153445 -4.36662842 -1.17153445 0 0 Z " fill="#000000" transform="translate(452,308)"/>
<path d="M0 0 C2 2 2 2 2.6875 5.25 C2 9 2 9 0.3046875 10.6171875 C-2.06979927 12.2139678 -4.49554433 13.61665878 -7 15 C-7.77730469 15.48984375 -8.55460937 15.9796875 -9.35546875 16.484375 C-14.01433201 19.33903132 -17.37986995 20.80287572 -23 20 C-25 18 -25 18 -25.375 15.125 C-24.90125474 11.17712281 -23.99898519 10.54721499 -21 8 C-18.61173995 6.4431819 -16.14133723 5.08742333 -13.625 3.75 C-12.97789062 3.38648438 -12.33078125 3.02296875 -11.6640625 2.6484375 C-7.65749231 0.49975268 -4.66048963 -0.63239682 0 0 Z " fill="#000000" transform="translate(396,340)"/>
<path d="M0 0 C2.0625 1.2890625 2.0625 1.2890625 3.0625 2.2890625 C3.53482988 7.72085617 3.53482988 7.72085617 1.77075195 9.84301758 C-1.15103204 12.31632422 -4.43124547 14.09001754 -7.75 15.9765625 C-8.44931641 16.39228516 -9.14863281 16.80800781 -9.86914062 17.23632812 C-14.00341486 19.59158819 -17.04202378 21.02814038 -21.9375 20.2890625 C-23.9375 18.2890625 -23.9375 18.2890625 -24.375 14.9140625 C-23.9375 11.2890625 -23.9375 11.2890625 -21.91015625 9.3359375 C-18.37233806 6.89991026 -14.75834266 4.86678098 -10.9375 2.9140625 C-9.88949219 2.34365234 -9.88949219 2.34365234 -8.8203125 1.76171875 C-3.64813057 -0.88292522 -3.64813057 -0.88292522 0 0 Z " fill="#000000" transform="translate(394.9375,313.7109375)"/>
<path d="M0 0 C2.0625 1.625 2.0625 1.625 3 4 C2.51548412 7.20047184 1.83844612 9.28357895 -0.66577148 11.42333984 C-2.81264351 12.84601238 -4.99947846 14.1230292 -7.25 15.375 C-8.00152344 15.82488281 -8.75304687 16.27476562 -9.52734375 16.73828125 C-13.802752 19.19309681 -16.93276233 20.69972478 -22 20 C-23.9375 18.9375 -23.9375 18.9375 -25 17 C-25.07421875 13.71875 -25.07421875 13.71875 -24 10 C-21.57682793 7.66966398 -18.81707697 6.15899495 -15.875 4.5625 C-15.12734375 4.11712891 -14.3796875 3.67175781 -13.609375 3.21289062 C-8.94362849 0.56707096 -5.49465281 -0.69119521 0 0 Z " fill="#000000" transform="translate(452,282)"/>
<path d="M0 0 C2 2 2 2 2.4375 5.375 C2 9 2 9 -0.02734375 10.953125 C-3.56516194 13.38915224 -7.17915734 15.42228152 -11 17.375 C-11.69867188 17.75527344 -12.39734375 18.13554687 -13.1171875 18.52734375 C-18.28936943 21.17198772 -18.28936943 21.17198772 -21.9375 20.2890625 C-24 19 -24 19 -25 18 C-25.375 15.1875 -25.375 15.1875 -25 12 C-21.61508139 8.88686318 -17.84592581 6.60648095 -13.875 4.3125 C-12.84117187 3.71050781 -11.80734375 3.10851562 -10.7421875 2.48828125 C-7.01128575 0.46339013 -4.22170207 -0.32474631 0 0 Z " fill="#000000" transform="translate(396,392)"/>
<path d="M0 0 C1.1875 2.1875 1.1875 2.1875 2 5 C-0.12644506 10.2343263 -4.02439107 12.22117613 -8.75 14.8125 C-9.78640625 15.42254883 -9.78640625 15.42254883 -10.84375 16.04492188 C-15.33088296 18.55417386 -18.73316209 19.76091251 -24 19 C-26 16 -26 16 -26.1640625 12.65625 C-24.6923365 8.03364753 -22.96955761 7.07367762 -18.85546875 4.78125 C-18.03691406 4.3584375 -17.21835937 3.935625 -16.375 3.5 C-15.18197266 2.819375 -15.18197266 2.819375 -13.96484375 2.125 C-8.80143636 -0.65594848 -5.70494426 -1.52947567 0 0 Z " fill="#000000" transform="translate(453,335)"/>
<path d="M0 0 C2 2 2 2 2.625 4.75 C1.90540326 8.49190307 1.35496623 8.90163115 -1.5625 11.125 C-3.02777842 12.10443655 -4.50704341 13.06329437 -6 14 C-6.62003906 14.42925781 -7.24007813 14.85851562 -7.87890625 15.30078125 C-10.90234387 17.26905943 -12.67796418 18.01822844 -16.3125 17.8125 C-19 17 -19 17 -21 16 C-21.3125 12.75 -21.3125 12.75 -21 9 C-19.0625 6.875 -19.0625 6.875 -16 5 C-15.31035156 4.55398438 -14.62070312 4.10796875 -13.91015625 3.6484375 C-9.1719082 0.74879168 -5.70795629 -0.81542233 0 0 Z " fill="#000000" transform="translate(470,407)"/>
</svg>
