<?xml version="1.0" encoding="UTF-8"?>
<svg version="1.1" xmlns="http://www.w3.org/2000/svg" width="512" height="512">
<path d="M0 0 C3.381237 1.45143132 6.48924974 3.24676339 9.6171875 5.16796875 C11.14242852 6.0846668 12.66852699 6.99993915 14.1953125 7.9140625 C15.02998047 8.41534668 15.86464844 8.91663086 16.72460938 9.43310547 C21.74129776 12.41866894 26.80683196 15.31975496 31.8671875 18.23046875 C34.11591509 19.52599016 36.36461261 20.82156377 38.61328125 22.1171875 C39.74233887 22.7673584 40.87139648 23.4175293 42.03466797 24.08740234 C47.5013873 27.23628929 52.96543637 30.38980139 58.4296875 33.54296875 C60.59634061 34.79299225 62.76300729 36.04299222 64.9296875 37.29296875 C149.4296875 86.04296875 149.4296875 86.04296875 233.9296875 134.79296875 C235.0029126 135.41212158 236.0761377 136.03127441 237.18188477 136.66918945 C239.34128145 137.91502645 241.50062419 139.16095693 243.65991211 140.40698242 C249.18736347 143.59645828 254.71583871 146.7841376 260.24609375 149.96875 C261.37595703 150.61972656 262.50582031 151.27070313 263.66992188 151.94140625 C265.78414604 153.15947779 267.89869369 154.37698815 270.01367188 155.59375 C271.98063653 156.72729872 273.92710172 157.89729307 275.84953308 159.10482788 C278.42706685 160.62690582 280.8334097 161.49111252 283.71711731 162.27407837 C289.09969844 164.04027441 293.24609918 166.22374533 296.4296875 171.04296875 C299.55692096 182.16308912 298.48165485 194.39584328 298.18631601 205.82501721 C298.08316315 210.50918478 298.07666255 215.19351778 298.05929565 219.87864685 C298.0116773 228.75978375 297.8766971 237.63736593 297.71055305 246.51698869 C297.52716887 256.5596045 297.44534968 266.60224135 297.37041497 276.64615548 C297.25623252 291.50308217 297.10252643 306.3595033 296.85378265 321.21482658 C296.82725488 322.80894487 296.80182836 324.403082 296.77768326 325.99723816 C296.71141484 330.2963224 296.61986119 334.59344792 296.49015856 338.89110303 C296.4481712 340.38522516 296.41407976 341.87958176 296.38619947 343.37403369 C296.33958373 345.70609698 296.26427039 348.03572836 296.18283081 350.36680603 C296.16931743 351.43000764 296.16931743 351.43000764 296.15553105 352.51468807 C296.00151627 356.0498426 295.64776492 357.78325678 293.34489632 360.52578068 C290.67134871 362.47505128 288.00771746 363.80750875 284.9921875 365.16796875 C282.78432989 366.30438555 280.57732687 367.44246388 278.37109375 368.58203125 C276.65043701 369.42942871 276.65043701 369.42942871 274.89501953 370.29394531 C269.26610011 373.13497524 263.86497119 376.35156058 258.4296875 379.54296875 C256.24578564 380.80380657 254.06089009 382.06292479 251.875 383.3203125 C241.70370163 389.18860442 231.56769523 395.11742034 221.4296875 401.04296875 C208.03879746 408.8697893 194.64292367 416.68694936 181.18725586 424.40209961 C175.6330104 427.59192753 170.11077632 430.82382068 164.62890625 434.13671875 C163.53513672 434.79220703 162.44136719 435.44769531 161.31445312 436.12304688 C159.22904081 437.3753134 157.15051214 438.63913703 155.08007812 439.91601562 C154.14744141 440.47353516 153.21480469 441.03105469 152.25390625 441.60546875 C151.03320435 442.34990234 151.03320435 442.34990234 149.7878418 443.109375 C146.85365999 444.27101815 145.4072561 443.98691363 142.4296875 443.04296875 C139.96866025 441.72925314 137.61497662 440.37535554 135.2421875 438.91796875 C133.71694648 438.0012707 132.19084801 437.08599835 130.6640625 436.171875 C129.82939453 435.67059082 128.99472656 435.16930664 128.13476562 434.65283203 C123.11807724 431.66726856 118.05254304 428.76618254 112.9921875 425.85546875 C110.74345991 424.55994734 108.49476239 423.26437373 106.24609375 421.96875 C105.11703613 421.3185791 103.98797852 420.6684082 102.82470703 419.99853516 C97.3579877 416.84964821 91.89393863 413.69613611 86.4296875 410.54296875 C84.26303439 409.29294525 82.09636771 408.04294528 79.9296875 406.79296875 C58.26302083 394.29296875 36.59635417 381.79296875 14.9296875 369.29296875 C13.85702637 368.67413818 12.78436523 368.05530762 11.67919922 367.41772461 C9.51411679 366.16861357 7.34907768 364.91942746 5.18408203 363.67016602 C-0.25646956 360.53094566 -5.69778466 357.39306312 -11.140625 354.2578125 C-21.59237449 348.23549546 -32.03330798 342.19627538 -42.4453125 336.10546875 C-51.12293491 331.03021752 -59.83636818 326.02038108 -68.5703125 321.04296875 C-78.28633604 315.5058765 -87.96927457 309.91554041 -97.62182617 304.26831055 C-106.02135831 299.35595635 -114.44557211 294.48722347 -122.87744141 289.63061523 C-124.86824559 288.48389774 -126.84142932 287.30601502 -128.79527283 286.09739685 C-131.56035168 284.47858919 -134.27690943 283.42331831 -137.3143158 282.41397095 C-142.96341218 280.28339379 -147.81414751 277.90207107 -151.5703125 273.04296875 C-154.8897916 263.50218794 -153.86286318 252.58770578 -153.52972889 242.62187886 C-153.41342915 238.53269799 -153.40633856 234.44322671 -153.38665771 230.35264587 C-153.33282252 222.57718028 -153.18161388 214.8067879 -152.99521613 207.03349441 C-152.79123246 198.32866363 -152.69680466 189.62382505 -152.61168718 180.91715062 C-152.45978154 165.74735728 -152.28985567 150.57498404 -151.8649025 135.4099741 C-151.67485157 128.46985064 -151.54931165 121.55013928 -151.66211057 114.60732919 C-151.71000505 111.30851031 -151.71511654 108.010252 -151.71580458 104.71112525 C-151.72736786 103.14605937 -151.75887292 101.58099047 -151.81208467 100.01678669 C-152.21328182 87.95731034 -152.21328182 87.95731034 -148.09471893 83.15847683 C-143.13053716 79.26647767 -137.91537171 76.29331655 -132.0078125 74.1171875 C-124.57625871 71.20462154 -117.98179181 67.30707505 -111.1953125 63.10546875 C-108.94473017 61.76004918 -106.69079075 60.42022995 -104.43359375 59.0859375 C-103.30775879 58.41997559 -102.18192383 57.75401367 -101.02197266 57.06787109 C-94.00712264 52.94027246 -86.9228034 48.9325249 -79.84912109 44.90698242 C-69.36391816 38.93855953 -58.93933758 32.86978136 -48.52783203 26.77392578 C-45.48972385 24.99580237 -42.45022406 23.22008329 -39.41015625 21.4453125 C-38.39058838 20.85000732 -37.37102051 20.25470215 -36.32055664 19.64135742 C-34.30127531 18.46391279 -32.28095257 17.28825206 -30.25952148 16.11450195 C-25.48754332 13.34208187 -20.73393774 10.54654144 -16.015625 7.68359375 C-15.14719971 7.1630542 -14.27877441 6.64251465 -13.3840332 6.10620117 C-11.76342255 5.13383478 -10.14945763 4.15026977 -8.54370117 3.15356445 C-3.34351949 0.0558947 -3.34351949 0.0558947 0 0 Z " fill="#8EAAFD" transform="translate(183.5703125,33.95703125)"/>
<path d="M0 0 C3.381237 1.45143132 6.48924974 3.24676339 9.6171875 5.16796875 C11.14242852 6.0846668 12.66852699 6.99993915 14.1953125 7.9140625 C15.02998047 8.41534668 15.86464844 8.91663086 16.72460938 9.43310547 C21.74129776 12.41866894 26.80683196 15.31975496 31.8671875 18.23046875 C34.11591509 19.52599016 36.36461261 20.82156377 38.61328125 22.1171875 C39.74233887 22.7673584 40.87139648 23.4175293 42.03466797 24.08740234 C47.5013873 27.23628929 52.96543637 30.38980139 58.4296875 33.54296875 C60.59634061 34.79299225 62.76300729 36.04299222 64.9296875 37.29296875 C149.4296875 86.04296875 149.4296875 86.04296875 233.9296875 134.79296875 C235.0029126 135.41212158 236.0761377 136.03127441 237.18188477 136.66918945 C239.34128145 137.91502645 241.50062419 139.16095693 243.65991211 140.40698242 C249.18736347 143.59645828 254.71583871 146.7841376 260.24609375 149.96875 C272.34154796 156.93619757 284.41754281 163.93271598 296.4296875 171.04296875 C294.0146126 173.72110627 291.41915838 175.34731985 288.29296875 177.125 C287.25333984 177.71990234 286.21371094 178.31480469 285.14257812 178.92773438 C284.02044922 179.56388672 282.89832031 180.20003906 281.7421875 180.85546875 C279.96635007 181.86949049 278.19152766 182.88527404 276.41671753 183.90109253 C275.20326976 184.59543466 273.98950095 185.289216 272.77542114 185.98245239 C266.97119581 189.29788726 261.19828095 192.66596014 255.4296875 196.04296875 C247.17781632 200.86800798 238.90385882 205.65297733 230.6171875 210.41796875 C221.72067385 215.53575565 212.87323229 220.72956592 204.0546875 225.98046875 C191.37846782 233.52522166 178.60783114 240.89611597 165.75537109 248.13671875 C163.37036785 249.50377978 161.01660861 250.89394889 158.67041016 252.32421875 C158.04387039 252.69961792 157.41733063 253.07501709 156.77180481 253.46179199 C155.01436425 254.51637494 153.26533836 255.58494382 151.5168457 256.65429688 C148.05589476 258.21110897 146.93392064 258.32551524 143.4296875 257.04296875 C140.94799805 255.86645508 140.94799805 255.86645508 138.31640625 254.375 C137.32842041 253.8188501 136.34043457 253.2627002 135.32250977 252.68969727 C134.26475342 252.08440186 133.20699707 251.47910645 132.1171875 250.85546875 C131.00851318 250.22761475 129.89983887 249.59976074 128.75756836 248.95288086 C119.30003092 243.58103176 109.90267099 238.10600896 100.51953125 232.60546875 C94.21398331 228.91083565 87.88674314 225.25444194 81.5546875 221.60546875 C79.93445679 220.67166382 79.93445679 220.67166382 78.28149414 219.71899414 C76.09172416 218.45720049 73.90186395 217.19556341 71.71191406 215.93408203 C66.28308808 212.80616727 60.85649469 209.67438427 55.4296875 206.54296875 C53.26303167 205.29294996 51.096365 204.04294997 48.9296875 202.79296875 C1.26302083 175.29296875 -46.40364583 147.79296875 -94.0703125 120.29296875 C-95.144021 119.67357422 -96.21772949 119.05417969 -97.32397461 118.41601562 C-99.47861874 117.17284575 -101.63308007 115.929359 -103.78735352 114.68554688 C-108.79785371 111.79313728 -113.80993885 108.90361648 -118.82894897 106.02600098 C-120.58759999 105.01748561 -122.34564459 104.00792105 -124.10351562 102.99804688 C-126.29503481 101.73946357 -128.48765754 100.48279888 -130.68164062 99.22851562 C-137.43303652 95.34765543 -144.03622385 91.27938243 -150.5703125 87.04296875 C-147.26879561 84.29833871 -143.96736966 81.9867395 -140.23828125 79.86328125 C-139.20509766 79.27160156 -138.17191406 78.67992188 -137.10742188 78.0703125 C-135.44936523 77.12865234 -135.44936523 77.12865234 -133.7578125 76.16796875 C-131.99548154 75.16056854 -130.23406718 74.15157817 -128.47268677 73.14251709 C-127.27022179 72.45376632 -126.06748111 71.76549669 -124.86447144 71.07769775 C-119.0788533 67.76846422 -113.32268367 64.40962372 -107.5703125 61.04296875 C-99.25312684 56.18137489 -90.91825195 51.3515554 -82.5703125 46.54296875 C-71.21025297 39.99831129 -59.87933498 33.40493379 -48.56005859 26.79003906 C-45.50788064 25.00648644 -42.45523225 23.22374235 -39.40234375 21.44140625 C-38.38390381 20.84666504 -37.36546387 20.25192383 -36.31616211 19.63916016 C-34.29855446 18.46245053 -32.27985882 17.28760413 -30.26000977 16.11474609 C-25.48784611 13.34228226 -20.73409344 10.54663592 -16.015625 7.68359375 C-15.14719971 7.1630542 -14.27877441 6.64251465 -13.3840332 6.10620117 C-11.76342255 5.13383478 -10.14945763 4.15026977 -8.54370117 3.15356445 C-3.34351949 0.0558947 -3.34351949 0.0558947 0 0 Z " fill="#8FAAFE" transform="translate(183.5703125,33.95703125)"/>
<path d="M0 0 C7.26337777 3.94040646 14.49426983 7.93296304 21.6875 12 C23.16899536 12.83748779 23.16899536 12.83748779 24.68041992 13.69189453 C32.76162596 18.27309445 40.79257062 22.93713304 48.80981445 27.62915039 C59.41811048 33.837196 70.06716947 39.97379721 80.71777344 46.10888672 C86.14659942 49.23680148 91.57319281 52.36858448 97 55.5 C99.16665583 56.75001879 101.3333225 58.00001878 103.5 59.25 C175 100.5 175 100.5 246.5 141.75 C247.57435303 142.36979736 248.64870605 142.98959473 249.75561523 143.62817383 C251.90364046 144.86746267 254.05159075 146.10688141 256.19946289 147.34643555 C261.28655549 150.28202567 266.37441847 153.21625672 271.4649353 156.14590454 C273.87543748 157.53328095 276.28551376 158.92139624 278.69555664 160.30957031 C280.40143968 161.29173815 282.10793986 162.27283385 283.81445312 163.25390625 C285.35842773 164.14335937 285.35842773 164.14335937 286.93359375 165.05078125 C287.84165771 165.57325439 288.74972168 166.09572754 289.68530273 166.6340332 C291.49126201 167.69977966 293.25521129 168.83680752 295 170 C299.63880916 169.70249631 302.88722718 168.21266196 306.8671875 165.89453125 C307.98770508 165.24790527 309.10822266 164.6012793 310.26269531 163.93505859 C311.46691463 163.2277395 312.6710132 162.5202148 313.875 161.8125 C315.13072168 161.08334881 316.38691347 160.35500669 317.64355469 159.62744141 C320.83199464 157.7785615 324.01411557 155.91910154 327.19445801 154.05633545 C329.9049237 152.47057283 332.62053276 150.89369245 335.3359375 149.31640625 C340.25327748 146.45707604 345.1644515 143.58735702 350.07324219 140.71337891 C364.44587359 132.29937097 378.84191582 123.92752921 393.27319336 115.61450195 C400.67439223 111.34860625 408.06086694 107.05822408 415.4375 102.75 C417.395831 101.60676684 419.35416429 100.46353759 421.3125 99.3203125 C424.16545969 97.65478507 427.01841266 95.98924676 429.87109375 94.32324219 C432.55859363 92.75491268 435.24778791 91.18953168 437.9375 89.625 C438.7430835 89.15416992 439.54866699 88.68333984 440.37866211 88.19824219 C445.88559737 85 445.88559737 85 447 85 C447.02343119 106.74125882 447.04102916 128.48251553 447.05181217 150.22378445 C447.0569535 160.32017376 447.06395468 170.4165552 447.07543945 180.51293945 C447.08545269 189.31993508 447.09186913 198.126925 447.09408849 206.93392617 C447.09538439 211.590784 447.09839844 216.24762551 447.10573006 220.90447807 C447.1125954 225.30143319 447.11459593 229.6983655 447.11310768 234.09532547 C447.11337934 235.69590568 447.11532136 237.29648678 447.11920547 238.8970623 C447.13081034 243.93281349 447.0916663 248.96508278 447 254 C446.98408503 255.15530208 446.98408503 255.15530208 446.96784854 256.33394361 C446.92643784 258.66672379 446.8529002 260.99637989 446.77000427 263.32801819 C446.75496561 264.39083973 446.75496561 264.39083973 446.73962313 265.47513241 C446.57812745 269.00687207 446.21533934 270.7437054 443.91415501 273.48255062 C441.24116104 275.43258984 438.57802796 276.7645409 435.5625 278.125 C433.35464239 279.2614168 431.14763937 280.39949513 428.94140625 281.5390625 C427.22074951 282.38645996 427.22074951 282.38645996 425.46533203 283.25097656 C419.83641261 286.09200649 414.43528369 289.30859183 409 292.5 C406.81609814 293.76083782 404.63120259 295.01995604 402.4453125 296.27734375 C392.27401413 302.14563567 382.13800773 308.07445159 372 314 C358.61086163 321.82579672 345.2072018 329.62459747 331.76635742 337.36132812 C326.18638113 340.5756643 320.61488244 343.80353177 315.05859375 347.05859375 C313.94677734 347.70957031 312.83496094 348.36054688 311.68945312 349.03125 C309.55810812 350.280615 307.42785818 351.53185044 305.29882812 352.78515625 C304.35330078 353.33945312 303.40777344 353.89375 302.43359375 354.46484375 C301.59884521 354.955896 300.76409668 355.44694824 299.90405273 355.95288086 C298 357 298 357 297 357 C297.0169693 356.14707808 297.0339386 355.29415615 297.05142212 354.41538811 C297.45692336 333.61479815 297.7282863 312.81617383 297.8523407 292.01193047 C297.91553639 281.95037346 298.02327704 271.89305869 298.23779297 261.83349609 C298.42476856 253.06001942 298.52622635 244.29031502 298.52715683 235.5147754 C298.53058088 230.87048338 298.57531865 226.23527466 298.72271729 221.59313583 C300.07231027 202.85845686 300.07231027 202.85845686 293.63537216 186.0925045 C287.94856667 181.36201648 281.71265884 178.49829296 274.78463364 176.03181648 C271.17078505 174.69274319 268.14381112 172.92003892 264.8828125 170.87890625 C262.96389348 169.77282692 261.04463128 168.66734273 259.125 167.5625 C256.94009462 166.30340198 254.75519908 165.04428689 252.5703125 163.78515625 C251.48524414 163.16012207 250.40017578 162.53508789 249.28222656 161.89111328 C243.85340058 158.76319852 238.42680719 155.63141552 233 152.5 C230.83334417 151.24998121 228.6666775 149.99998122 226.5 148.75 C170.16666667 116.25 113.83333333 83.75 57.5 51.25 C56.42637207 50.63060547 55.35274414 50.01121094 54.24658203 49.37304688 C52.09128689 48.1295949 49.93601327 46.88610564 47.78076172 45.64257812 C42.77662326 42.75537125 37.7722948 39.8684957 32.76715088 36.98303223 C31.01658759 35.97380896 29.26609589 34.96446164 27.515625 33.95507812 C25.33607835 32.6983234 23.15640168 31.44179414 20.9765625 30.18554688 C18.98095943 29.03473196 16.99054306 27.87486801 15.00585938 26.70532227 C12.90879904 25.5155914 10.76958363 24.39850045 8.60351562 23.33959961 C0.51487525 19.22199548 0.51487525 19.22199548 -0.94287109 15.76220703 C-1.18382036 13.25458787 -1.06395464 11.0600494 -0.75 8.5625 C-0.69585937 7.73556641 -0.64171875 6.90863281 -0.5859375 6.05664062 C-0.44558302 4.03319681 -0.23030721 2.01518805 0 0 Z " fill="#576EF9" transform="translate(33,121)"/>
<path d="M0 0 C7.26337777 3.94040646 14.49426983 7.93296304 21.6875 12 C23.16899536 12.83748779 23.16899536 12.83748779 24.68041992 13.69189453 C32.76162596 18.27309445 40.79257062 22.93713304 48.80981445 27.62915039 C59.41811048 33.837196 70.06716947 39.97379721 80.71777344 46.10888672 C86.14659942 49.23680148 91.57319281 52.36858448 97 55.5 C99.16665583 56.75001879 101.3333225 58.00001878 103.5 59.25 C175 100.5 175 100.5 246.5 141.75 C247.57435303 142.36979736 248.64870605 142.98959473 249.75561523 143.62817383 C251.90364046 144.86746267 254.05159075 146.10688141 256.19946289 147.34643555 C261.28655549 150.28202567 266.37441847 153.21625672 271.4649353 156.14590454 C273.87543748 157.53328095 276.28551376 158.92139624 278.69555664 160.30957031 C280.40143968 161.29173815 282.10793986 162.27283385 283.81445312 163.25390625 C285.35842773 164.14335937 285.35842773 164.14335937 286.93359375 165.05078125 C287.84165771 165.57325439 288.74972168 166.09572754 289.68530273 166.6340332 C291.49126201 167.69977966 293.25521129 168.83680752 295 170 C299.63880916 169.70249631 302.88722718 168.21266196 306.8671875 165.89453125 C307.98770508 165.24790527 309.10822266 164.6012793 310.26269531 163.93505859 C311.46691463 163.2277395 312.6710132 162.5202148 313.875 161.8125 C315.13072168 161.08334881 316.38691347 160.35500669 317.64355469 159.62744141 C320.83199464 157.7785615 324.01411557 155.91910154 327.19445801 154.05633545 C329.9049237 152.47057283 332.62053276 150.89369245 335.3359375 149.31640625 C340.25327748 146.45707604 345.1644515 143.58735702 350.07324219 140.71337891 C364.44587359 132.29937097 378.84191582 123.92752921 393.27319336 115.61450195 C400.67439223 111.34860625 408.06086694 107.05822408 415.4375 102.75 C417.395831 101.60676684 419.35416429 100.46353759 421.3125 99.3203125 C424.16545969 97.65478507 427.01841266 95.98924676 429.87109375 94.32324219 C432.55859363 92.75491268 435.24778791 91.18953168 437.9375 89.625 C438.7430835 89.15416992 439.54866699 88.68333984 440.37866211 88.19824219 C445.88559737 85 445.88559737 85 447 85 C447.02343119 106.74125882 447.04102916 128.48251553 447.05181217 150.22378445 C447.0569535 160.32017376 447.06395468 170.4165552 447.07543945 180.51293945 C447.08545269 189.31993508 447.09186913 198.126925 447.09408849 206.93392617 C447.09538439 211.590784 447.09839844 216.24762551 447.10573006 220.90447807 C447.1125954 225.30143319 447.11459593 229.6983655 447.11310768 234.09532547 C447.11337934 235.69590568 447.11532136 237.29648678 447.11920547 238.8970623 C447.13081034 243.93281349 447.0916663 248.96508278 447 254 C446.98408503 255.15530208 446.98408503 255.15530208 446.96784854 256.33394361 C446.92643784 258.66672379 446.8529002 260.99637989 446.77000427 263.32801819 C446.75496561 264.39083973 446.75496561 264.39083973 446.73962313 265.47513241 C446.57812745 269.00687207 446.21533934 270.7437054 443.91415501 273.48255062 C441.24116104 275.43258984 438.57802796 276.7645409 435.5625 278.125 C433.35464239 279.2614168 431.14763937 280.39949513 428.94140625 281.5390625 C427.22074951 282.38645996 427.22074951 282.38645996 425.46533203 283.25097656 C419.83641261 286.09200649 414.43528369 289.30859183 409 292.5 C406.81609814 293.76083782 404.63120259 295.01995604 402.4453125 296.27734375 C392.27401413 302.14563567 382.13800773 308.07445159 372 314 C358.61086163 321.82579672 345.2072018 329.62459747 331.76635742 337.36132812 C326.18638113 340.5756643 320.61488244 343.80353177 315.05859375 347.05859375 C313.94677734 347.70957031 312.83496094 348.36054688 311.68945312 349.03125 C309.55810812 350.280615 307.42785818 351.53185044 305.29882812 352.78515625 C304.35330078 353.33945312 303.40777344 353.89375 302.43359375 354.46484375 C301.59884521 354.955896 300.76409668 355.44694824 299.90405273 355.95288086 C298 357 298 357 297 357 C297.0169693 356.14707808 297.0339386 355.29415615 297.05142212 354.41538811 C297.45692336 333.61479815 297.7282863 312.81617383 297.8523407 292.01193047 C297.91553639 281.95037346 298.02327704 271.89305869 298.23779297 261.83349609 C298.42476856 253.06001942 298.52622635 244.29031502 298.52715683 235.5147754 C298.53058088 230.87048338 298.57531865 226.23527466 298.72271729 221.59313583 C300.07231027 202.85845686 300.07231027 202.85845686 293.63537216 186.0925045 C287.94856667 181.36201648 281.71265884 178.49829296 274.78463364 176.03181648 C271.17078505 174.69274319 268.14381112 172.92003892 264.8828125 170.87890625 C262.96389348 169.77282692 261.04463128 168.66734273 259.125 167.5625 C256.94009462 166.30340198 254.75519908 165.04428689 252.5703125 163.78515625 C251.48524414 163.16012207 250.40017578 162.53508789 249.28222656 161.89111328 C243.85340058 158.76319852 238.42680719 155.63141552 233 152.5 C230.83334417 151.24998121 228.6666775 149.99998122 226.5 148.75 C170.16666667 116.25 113.83333333 83.75 57.5 51.25 C56.42637207 50.63060547 55.35274414 50.01121094 54.24658203 49.37304688 C52.09128689 48.1295949 49.93601327 46.88610564 47.78076172 45.64257812 C42.77662326 42.75537125 37.7722948 39.8684957 32.76715088 36.98303223 C31.01658759 35.97380896 29.26609589 34.96446164 27.515625 33.95507812 C25.33607835 32.6983234 23.15640168 31.44179414 20.9765625 30.18554688 C18.98095943 29.03473196 16.99054306 27.87486801 15.00585938 26.70532227 C12.90879904 25.5155914 10.76958363 24.39850045 8.60351562 23.33959961 C0.51487525 19.22199548 0.51487525 19.22199548 -0.94287109 15.76220703 C-1.18382036 13.25458787 -1.06395464 11.0600494 -0.75 8.5625 C-0.69585937 7.73556641 -0.64171875 6.90863281 -0.5859375 6.05664062 C-0.44558302 4.03319681 -0.23030721 2.01518805 0 0 Z M431.3984375 119.5703125 C429.96975342 120.40937134 429.96975342 120.40937134 428.51220703 121.26538086 C427.47692871 121.87905518 426.44165039 122.49272949 425.375 123.125 C423.17192778 124.42066266 420.96880132 125.7162331 418.765625 127.01171875 C417.07276367 128.01017822 417.07276367 128.01017822 415.34570312 129.02880859 C410.28065232 132.01298987 405.20342074 134.97614643 400.125 137.9375 C399.14192871 138.51129395 398.15885742 139.08508789 397.14599609 139.67626953 C388.68582359 144.61034194 380.20203567 149.50299015 371.71582031 154.39208984 C359.37048811 161.50844213 347.06762326 168.69720023 334.76708984 175.890625 C332.58664388 177.16565625 330.40598189 178.44031814 328.22509766 179.71459961 C326.18390627 180.90726424 324.14318164 182.10072822 322.10302734 183.29516602 C321.17312988 183.83842529 320.24323242 184.38168457 319.28515625 184.94140625 C318.47957275 185.41263916 317.67398926 185.88387207 316.84399414 186.36938477 C312.91883059 188.61989274 308.95518206 190.80267664 305 193 C305 242.17 305 291.34 305 342 C312.25606142 338.04214832 319.49356485 334.06751868 326.6875 330 C327.67371338 329.4423999 328.65992676 328.8847998 329.67602539 328.31030273 C339.83432437 322.55085626 349.91754443 316.66507785 359.99267578 310.76171875 C364.95069773 307.85726296 369.91245472 304.95921881 374.875 302.0625 C375.86048828 301.48693359 376.84597656 300.91136719 377.86132812 300.31835938 C383.03500378 297.30010213 388.21639113 294.29606877 393.41015625 291.3125 C394.50021973 290.68593506 395.5902832 290.05937012 396.71337891 289.41381836 C398.73393748 288.25359606 400.75557977 287.09525681 402.77880859 285.93969727 C404.78683977 284.78674073 406.77370593 283.59633696 408.74075317 282.37477112 C412.07858583 280.39715449 415.5028476 278.95370472 419.09436035 277.49301147 C431.47242084 272.04372789 431.47242084 272.04372789 439.40583992 261.6492672 C441.39786882 252.39399847 440.95766228 242.99924784 440.53484845 233.59358525 C440.37714792 229.48673581 440.36377692 225.37929166 440.33421326 221.2698822 C440.25689306 213.50999841 440.05237169 205.75905666 439.80047601 198.00309032 C439.5197505 189.16500466 439.38328057 180.32646075 439.25809014 171.4850179 C438.99766739 153.31829824 438.55878861 135.15987061 438 117 C435.22382471 117 433.78857074 118.15873008 431.3984375 119.5703125 Z " fill="#748BFD" transform="translate(33,121)"/>
<path d="M0 0 C3.375 0.6875 3.375 0.6875 4.375 1.6875 C4.4633967 4.0631852 4.49030305 6.40958674 4.47265625 8.78515625 C4.4712413 9.49401474 4.46982635 10.20287323 4.46836853 10.93321228 C4.46275443 13.20551712 4.45019963 15.47772475 4.4375 17.75 C4.43248681 19.28710796 4.42792359 20.82421745 4.42382812 22.36132812 C4.41278042 26.13675642 4.39550641 29.91211171 4.375 33.6875 C5.365 33.3575 6.355 33.0275 7.375 32.6875 C7.42891993 34.47883978 7.46775571 36.27063899 7.5 38.0625 C7.52320313 39.06023437 7.54640625 40.05796875 7.5703125 41.0859375 C7.375 43.6875 7.375 43.6875 5.375 45.6875 C5.09582705 48.89563626 5.09582705 48.89563626 5.1796875 52.6640625 C5.18393234 53.69193375 5.18393234 53.69193375 5.18826294 54.74057007 C5.19946719 56.93139027 5.22457141 59.12180316 5.25 61.3125 C5.26002952 62.7968691 5.26915542 64.2812446 5.27734375 65.765625 C5.29940706 69.40638261 5.33393824 73.04690156 5.375 76.6875 C6.035 76.6875 6.695 76.6875 7.375 76.6875 C7.375 80.3175 7.375 83.9475 7.375 87.6875 C6.385 88.1825 6.385 88.1825 5.375 88.6875 C5.33741577 90.4972229 5.33741577 90.4972229 5.29907227 92.34350586 C5.20517477 96.80325661 5.10491167 101.26284513 5.00268555 105.72241211 C4.95926959 107.65564185 4.91759958 109.58891159 4.87768555 111.5222168 C4.82014369 114.29488202 4.7564038 117.06734457 4.69140625 119.83984375 C4.67469376 120.70963364 4.65798126 121.57942352 4.64076233 122.47557068 C4.48887171 128.57362829 4.48887171 128.57362829 3.375 129.6875 C0.70441149 129.82865161 -1.94932238 129.72997107 -4.625 129.6875 C-4.955 128.6975 -5.285 127.7075 -5.625 126.6875 C-20.22813322 134.52428276 -34.6621034 142.61751156 -48.90820312 151.08789062 C-50.76434235 152.18075764 -52.63364358 153.25149475 -54.51367188 154.30273438 C-55.42181641 154.81900391 -56.32996094 155.33527344 -57.265625 155.8671875 C-58.08063477 156.32077637 -58.89564453 156.77436523 -59.73535156 157.24169922 C-62.03654465 158.69739451 -62.03654465 158.69739451 -62.625 162.4375 C-62.625 163.51 -62.625 164.5825 -62.625 165.6875 C-64.625 167.6875 -64.625 167.6875 -66.5 167.953125 C-67.20125 167.94796875 -67.9025 167.9428125 -68.625 167.9375 C-69.32625 167.94265625 -70.0275 167.9478125 -70.75 167.953125 C-72.625 167.6875 -72.625 167.6875 -74.625 165.6875 C-74.79995606 163.17829154 -74.85669569 160.78125059 -74.8203125 158.2734375 C-74.8174826 157.54379791 -74.81465271 156.81415833 -74.81173706 156.06240845 C-74.80053002 153.72893972 -74.7754251 151.39585297 -74.75 149.0625 C-74.73997085 147.48177637 -74.73084489 145.90104673 -74.72265625 144.3203125 C-74.70058905 140.44256086 -74.66605615 136.56509522 -74.625 132.6875 C-75.945 133.0175 -77.265 133.3475 -78.625 133.6875 C-78.625 130.0575 -78.625 126.4275 -78.625 122.6875 C-76.645 122.1925 -76.645 122.1925 -74.625 121.6875 C-74.955 111.1275 -75.285 100.5675 -75.625 89.6875 C-77.11 90.1825 -77.11 90.1825 -78.625 90.6875 C-78.70586147 88.89656809 -78.76412702 87.10460372 -78.8125 85.3125 C-78.84730469 84.31476563 -78.88210938 83.31703125 -78.91796875 82.2890625 C-78.82128906 81.43054688 -78.72460938 80.57203125 -78.625 79.6875 C-77.14 78.6975 -77.14 78.6975 -75.625 77.6875 C-75.32422049 74.8079561 -75.20806084 72.13208219 -75.21875 69.25 C-75.20249573 67.9961853 -75.20249573 67.9961853 -75.18591309 66.71704102 C-75.15155936 64.04044868 -75.1360373 61.36428417 -75.125 58.6875 C-75.11048069 55.16625177 -75.0768953 51.64596681 -75.03125 48.125 C-75.03427124 47.31039307 -75.03729248 46.49578613 -75.04040527 45.65649414 C-75.00976562 43.37109375 -75.00976562 43.37109375 -74.625 39.6875 C-71.36736778 37.51574519 -70.40060787 37.22706002 -66.625 37.6875 C-65.26181745 38.64641142 -63.92348417 39.64264756 -62.625 40.6875 C-36.52097668 26.30154759 -36.52097668 26.30154759 -10.94628906 11.00854492 C-8.625 9.6875 -8.625 9.6875 -6.625 9.6875 C-6.686875 8.40875 -6.74875 7.13 -6.8125 5.8125 C-6.91796875 3.6328125 -6.91796875 3.6328125 -6.625 1.6875 C-3.625 -0.3125 -3.625 -0.3125 0 0 Z " fill="#738AFC" transform="translate(445.625,264.3125)"/>
<path d="M0 0 C0.33 0 0.66 0 1 0 C1.02343119 21.74125882 1.04102916 43.48251553 1.05181217 65.22378445 C1.0569535 75.32017376 1.06395468 85.4165552 1.07543945 95.51293945 C1.08545269 104.31993508 1.09186913 113.126925 1.09408849 121.93392617 C1.09538439 126.590784 1.09839844 131.24762551 1.10573006 135.90447807 C1.1125954 140.30143319 1.11459593 144.6983655 1.11310768 149.09532547 C1.11337934 150.69590568 1.11532136 152.29648678 1.11920547 153.8970623 C1.13081034 158.93281349 1.0916663 163.96508278 1 169 C0.98408503 170.15530208 0.98408503 170.15530208 0.96784854 171.33394361 C0.92643784 173.66672379 0.8529002 175.99637989 0.77000427 178.32801819 C0.75496561 179.39083973 0.75496561 179.39083973 0.73962313 180.47513241 C0.57812745 184.00687207 0.21533934 185.7437054 -2.08584499 188.48255062 C-4.75883896 190.43258984 -7.42197204 191.7645409 -10.4375 193.125 C-12.64535761 194.2614168 -14.85236063 195.39949513 -17.05859375 196.5390625 C-18.20569824 197.10399414 -19.35280273 197.66892578 -20.53466797 198.25097656 C-26.16358739 201.09200649 -31.56471631 204.30859183 -37 207.5 C-39.18390186 208.76083782 -41.36879741 210.01995604 -43.5546875 211.27734375 C-53.72598587 217.14563567 -63.86199227 223.07445159 -74 229 C-87.38913837 236.82579672 -100.7927982 244.62459747 -114.23364258 252.36132812 C-119.81361887 255.5756643 -125.38511756 258.80353177 -130.94140625 262.05859375 C-132.05322266 262.70957031 -133.16503906 263.36054688 -134.31054688 264.03125 C-136.44189188 265.280615 -138.57214182 266.53185044 -140.70117188 267.78515625 C-141.64669922 268.33945312 -142.59222656 268.89375 -143.56640625 269.46484375 C-144.40115479 269.955896 -145.23590332 270.44694824 -146.09594727 270.95288086 C-148 272 -148 272 -149 272 C-149 216.23 -149 160.46 -149 103 C-145.37 101.02 -141.74 99.04 -138 97 C-135.87717501 95.80978299 -133.75789832 94.61318086 -131.64453125 93.40625 C-130.54028809 92.77581787 -129.43604492 92.14538574 -128.29833984 91.49584961 C-127.13633332 90.83067105 -125.97438822 90.16538518 -124.8125 89.5 C-124.2070636 89.15373566 -123.6016272 88.80747131 -122.97784424 88.45071411 C-113.60161176 83.08746751 -104.25664742 77.67240074 -94.93408203 72.21630859 C-87.70395064 67.98628131 -80.44949149 63.80004665 -73.1875 59.625 C-64.29093862 54.50728561 -55.44372669 49.31310027 -46.625 44.0625 C-37.61834476 38.70565659 -28.58123964 33.40740499 -19.49041748 28.1947937 C-18.25904493 27.48861687 -17.02827795 26.78138292 -15.79815674 26.07302856 C-14.08879187 25.08947267 -12.3764841 24.11103676 -10.6640625 23.1328125 C-9.68904785 22.57480957 -8.7140332 22.01680664 -7.70947266 21.44189453 C-5 20 -5 20 0 18 C0 12.06 0 6.12 0 0 Z M-14.6015625 34.5703125 C-16.03024658 35.40937134 -16.03024658 35.40937134 -17.48779297 36.26538086 C-18.52307129 36.87905518 -19.55834961 37.49272949 -20.625 38.125 C-22.82807222 39.42066266 -25.03119868 40.7162331 -27.234375 42.01171875 C-28.92723633 43.01017822 -28.92723633 43.01017822 -30.65429688 44.02880859 C-35.71934768 47.01298987 -40.79657926 49.97614643 -45.875 52.9375 C-46.85807129 53.51129395 -47.84114258 54.08508789 -48.85400391 54.67626953 C-57.31417641 59.61034194 -65.79796433 64.50299015 -74.28417969 69.39208984 C-86.62951189 76.50844213 -98.93237674 83.69720023 -111.23291016 90.890625 C-113.41335612 92.16565625 -115.59401811 93.44031814 -117.77490234 94.71459961 C-119.81609373 95.90726424 -121.85681836 97.10072822 -123.89697266 98.29516602 C-124.82687012 98.83842529 -125.75676758 99.38168457 -126.71484375 99.94140625 C-127.52042725 100.41263916 -128.32601074 100.88387207 -129.15600586 101.36938477 C-133.08116941 103.61989274 -137.04481794 105.80267664 -141 108 C-141 157.17 -141 206.34 -141 257 C-133.74393858 253.04214832 -126.50643515 249.06751868 -119.3125 245 C-118.32628662 244.4423999 -117.34007324 243.8847998 -116.32397461 243.31030273 C-106.16567563 237.55085626 -96.08245557 231.66507785 -86.00732422 225.76171875 C-81.04930227 222.85726296 -76.08754528 219.95921881 -71.125 217.0625 C-70.13951172 216.48693359 -69.15402344 215.91136719 -68.13867188 215.31835938 C-62.96499622 212.30010213 -57.78360887 209.29606877 -52.58984375 206.3125 C-51.49978027 205.68593506 -50.4097168 205.05937012 -49.28662109 204.41381836 C-47.26606252 203.25359606 -45.24442023 202.09525681 -43.22119141 200.93969727 C-41.21316023 199.78674073 -39.22629407 198.59633696 -37.25924683 197.37477112 C-33.92141417 195.39715449 -30.4971524 193.95370472 -26.90563965 192.49301147 C-14.52757916 187.04372789 -14.52757916 187.04372789 -6.59416008 176.6492672 C-4.60213118 167.39399847 -5.04233772 157.99924784 -5.46515155 148.59358525 C-5.62285208 144.48673581 -5.63622308 140.37929166 -5.66578674 136.2698822 C-5.74310694 128.50999841 -5.94762831 120.75905666 -6.19952399 113.00309032 C-6.4802495 104.16500466 -6.61671943 95.32646075 -6.74190986 86.4850179 C-7.00233261 68.31829824 -7.44121139 50.15987061 -8 32 C-10.77617529 32 -12.21142926 33.15873008 -14.6015625 34.5703125 Z " fill="#748BFD" transform="translate(479,206)"/>
<path d="M0 0 C0 5.61 0 11.22 0 17 C-2.64078234 18.52352827 -5.28156731 20.047052 -7.92236328 21.57055664 C-10.25671642 22.91732423 -12.59103235 24.26415607 -14.92529297 25.61108398 C-20.83978489 29.02377298 -26.75488441 32.43539406 -32.671875 35.84375 C-47.14269764 44.18138838 -61.58136496 52.57247437 -76 61 C-79.95785474 63.31332038 -83.91611894 65.6259364 -87.875 67.9375 C-88.85710449 68.51105225 -89.83920898 69.08460449 -90.85107422 69.67553711 C-99.38616905 74.65422668 -107.95009338 79.58223381 -116.51928711 84.50195312 C-121.70522066 87.48804395 -126.86641784 90.50543998 -131.98046875 93.61328125 C-132.90504883 94.17515137 -133.82962891 94.73702148 -134.78222656 95.31591797 C-136.50806335 96.36989075 -138.23029505 97.42979766 -139.94824219 98.49658203 C-140.7065332 98.9604834 -141.46482422 99.42438477 -142.24609375 99.90234375 C-142.90279053 100.30960693 -143.5594873 100.71687012 -144.23608398 101.13647461 C-146 102 -146 102 -149 102 C-149.24506639 99.45251978 -149.42162549 96.92863 -149.5625 94.375 C-149.63791016 93.66214844 -149.71332031 92.94929688 -149.79101562 92.21484375 C-149.88776817 89.87128222 -149.78835056 88.21605261 -149 86 C-146.34710629 83.38003021 -143.26973819 81.75156978 -140 80 C-139.17169678 79.51966309 -138.34339355 79.03932617 -137.48999023 78.54443359 C-134.82251465 76.99810786 -132.1331381 75.49664147 -129.4375 74 C-121.27045848 69.42426177 -113.14306099 64.78936628 -105.0625 60.0625 C-104.06839111 59.48105225 -103.07428223 58.89960449 -102.05004883 58.30053711 C-100.03554333 57.12138184 -98.02130152 55.94177594 -96.00732422 54.76171875 C-91.04930249 51.85726309 -86.08761895 48.95909225 -81.125 46.0625 C-80.14023682 45.48765869 -79.15547363 44.91281738 -78.14086914 44.32055664 C-70.77360921 40.02433372 -63.38974197 35.75741475 -56 31.5 C-47.46676644 26.58362359 -38.94411505 21.64980519 -30.4375 16.6875 C-29.45313965 16.11370605 -28.4687793 15.53991211 -27.45458984 14.94873047 C-22.88987239 12.28450745 -18.33292492 9.60857169 -13.79296875 6.90234375 C-12.60199585 6.19428589 -12.60199585 6.19428589 -11.38696289 5.47192383 C-9.92158983 4.59934281 -8.45838631 3.72310379 -6.99780273 2.8425293 C-2.22194217 0 -2.22194217 0 0 0 Z " fill="#566DF9" transform="translate(479,207)"/>
<path d="M0 0 C10.14641833 5.07320917 10.14641833 5.07320917 12 7 C12.49219131 9.46187115 12.49219131 9.46187115 12.48101807 12.44792175 C12.48926605 14.14535271 12.48926605 14.14535271 12.49768066 15.8770752 C12.48329956 17.11928833 12.46891846 18.36150146 12.45410156 19.64135742 C12.45468567 20.94877396 12.45526978 22.25619049 12.45587158 23.60322571 C12.45702065 27.18992979 12.43348098 30.77610028 12.40557575 34.3626802 C12.38059375 38.11027439 12.37822264 41.85788043 12.37347412 45.60554504 C12.36103486 52.70292314 12.32820061 59.80005518 12.28807616 66.89732486 C12.24338783 74.97701246 12.22137884 83.05671174 12.20129442 91.13649213 C12.15946864 107.75780553 12.08909838 124.37887138 12 141 C11.319375 140.690625 10.63875 140.38125 9.9375 140.0625 C6.4071484 138.67277327 6.4071484 138.67277327 0 138 C0 92.46 0 46.92 0 0 Z " fill="#566DF9" transform="translate(136,212)"/>
<path d="M0 0 C9.00775353 3.00258451 9.00775353 3.00258451 12 6 C12.89840893 10.24096815 12.75637683 14.43558556 12.68115234 18.75488281 C12.6820285 20.06244537 12.68290466 21.37000793 12.68380737 22.7171936 C12.68552895 26.29998223 12.65025544 29.88156564 12.60836363 33.46407413 C12.57085521 37.20895844 12.56733124 40.95387041 12.56021118 44.69891357 C12.54156245 51.78932352 12.49232577 58.87917839 12.43211424 65.9693439 C12.36504938 74.04175593 12.33206029 82.11419448 12.30194163 90.18681574 C12.23922614 106.79153544 12.13369144 123.39569688 12 140 C11.319375 139.690625 10.63875 139.38125 9.9375 139.0625 C6.4071484 137.67277327 6.4071484 137.67277327 0 137 C0 91.79 0 46.58 0 0 Z " fill="#566EF9" transform="translate(268,289)"/>
<path d="M0 0 C3.96 1.98 7.92 3.96 12 6 C12 50.55 12 95.1 12 141 C9.36 139.68 6.72 138.36 4 137 C2.68 137.33 1.36 137.66 0 138 C0 92.46 0 46.92 0 0 Z " fill="#566DF9" transform="translate(215,258)"/>
<path d="M0 0 C5 2 5 2 12 6 C12 50.22 12 94.44 12 140 C10.02 139.34 8.04 138.68 6 138 C3.86460679 137.40683522 2.21174384 137 0 137 C0 91.79 0 46.58 0 0 Z " fill="#566DF9" transform="translate(83,182)"/>
<path d="M0 0 C2 2 2 2 2.22705078 5.16455078 C2.22673389 6.50817963 2.21542181 7.8518341 2.1953125 9.1953125 C2.1924826 9.90275604 2.18965271 10.61019958 2.18673706 11.33908081 C2.17553137 13.6012251 2.15042679 15.86297515 2.125 18.125 C2.11497067 19.65754637 2.10584474 21.19009894 2.09765625 22.72265625 C2.07559086 26.48192301 2.04105896 30.24089464 2 34 C3.32 33.34 4.64 32.68 6 32 C6.05391993 33.79133978 6.09275571 35.58313899 6.125 37.375 C6.14820313 38.37273437 6.17140625 39.37046875 6.1953125 40.3984375 C6 43 6 43 4 45 C3.72082705 48.20813626 3.72082705 48.20813626 3.8046875 51.9765625 C3.8075174 52.66181 3.81034729 53.3470575 3.81326294 54.05307007 C3.82446719 56.24389027 3.84957141 58.43430316 3.875 60.625 C3.88502952 62.1093691 3.89415542 63.5937446 3.90234375 65.078125 C3.92440706 68.71888261 3.95893824 72.35940156 4 76 C4.66 76 5.32 76 6 76 C6.05395478 77.62463842 6.09277195 79.24978541 6.125 80.875 C6.14820313 81.77992188 6.17140625 82.68484375 6.1953125 83.6171875 C6 86 6 86 4 88 C3.76601605 91.06969593 3.65036561 94.05578145 3.62109375 97.12890625 C3.60409927 98.03374252 3.5871048 98.9385788 3.56959534 99.87083435 C3.5163502 102.76798492 3.47611254 105.66512027 3.4375 108.5625 C3.39363811 111.46337693 3.34699052 114.36413992 3.29469299 117.26487732 C3.26262642 119.07213324 3.23577097 120.87949013 3.21446228 122.68690491 C3.11173191 128.88826809 3.11173191 128.88826809 2 130 C-3.73611111 130.27314815 -3.73611111 130.27314815 -6 130 C-8 128 -8 128 -8.22705078 124.74365234 C-8.22673382 123.35770705 -8.21541759 121.97173699 -8.1953125 120.5859375 C-8.1924826 119.85629791 -8.18965271 119.12665833 -8.18673706 118.37490845 C-8.17553002 116.04143972 -8.1504251 113.70835297 -8.125 111.375 C-8.11497085 109.79427637 -8.10584489 108.21354673 -8.09765625 106.6328125 C-8.07558905 102.75506086 -8.04105615 98.87759522 -8 95 C-9.98 95.495 -9.98 95.495 -12 96 C-12 92.37 -12 88.74 -12 85 C-10.02 84.505 -10.02 84.505 -8 84 C-8.33 73.44 -8.66 62.88 -9 52 C-10.485 52.495 -10.485 52.495 -12 53 C-12.08086147 51.20906809 -12.13912702 49.41710372 -12.1875 47.625 C-12.22230469 46.62726563 -12.25710938 45.62953125 -12.29296875 44.6015625 C-12.19628906 43.74304688 -12.09960938 42.88453125 -12 42 C-11.01 41.34 -10.02 40.68 -9 40 C-8.69922049 37.1204561 -8.58306084 34.44458219 -8.59375 31.5625 C-8.57749573 30.3086853 -8.57749573 30.3086853 -8.56091309 29.02954102 C-8.52655936 26.35294868 -8.5110373 23.67678417 -8.5 21 C-8.48548069 17.47875177 -8.4518953 13.95846681 -8.40625 10.4375 C-8.40927124 9.62289307 -8.41229248 8.80828613 -8.41540527 7.96899414 C-8.38476562 5.68359375 -8.38476562 5.68359375 -8 2 C-4.77626323 -0.14915785 -3.73296326 -0.38286803 0 0 Z " fill="#E7E5FC" transform="translate(379,302)"/>
<path d="M0 0 C3.375 0.6875 3.375 0.6875 4.375 1.6875 C4.4633967 4.0631852 4.49030305 6.40958674 4.47265625 8.78515625 C4.4712413 9.49401474 4.46982635 10.20287323 4.46836853 10.93321228 C4.46275443 13.20551712 4.45019963 15.47772475 4.4375 17.75 C4.43248681 19.28710796 4.42792359 20.82421745 4.42382812 22.36132812 C4.41278042 26.13675642 4.39550641 29.91211171 4.375 33.6875 C5.86 33.1925 5.86 33.1925 7.375 32.6875 C7.42891993 34.47883978 7.46775571 36.27063899 7.5 38.0625 C7.52320313 39.06023437 7.54640625 40.05796875 7.5703125 41.0859375 C7.375 43.6875 7.375 43.6875 5.375 45.6875 C5.09582705 48.89563626 5.09582705 48.89563626 5.1796875 52.6640625 C5.1825174 53.34931 5.18534729 54.0345575 5.18826294 54.74057007 C5.19946719 56.93139027 5.22457141 59.12180316 5.25 61.3125 C5.26002952 62.7968691 5.26915542 64.2812446 5.27734375 65.765625 C5.29940706 69.40638261 5.33393824 73.04690156 5.375 76.6875 C6.035 76.6875 6.695 76.6875 7.375 76.6875 C7.375 80.3175 7.375 83.9475 7.375 87.6875 C6.385 88.1825 6.385 88.1825 5.375 88.6875 C5.34994385 89.89398193 5.3248877 91.10046387 5.29907227 92.34350586 C5.20517477 96.80325661 5.10491167 101.26284513 5.00268555 105.72241211 C4.95926959 107.65564185 4.91759958 109.58891159 4.87768555 111.5222168 C4.82014369 114.29488202 4.7564038 117.06734457 4.69140625 119.83984375 C4.66633751 121.14452858 4.66633751 121.14452858 4.64076233 122.47557068 C4.48887171 128.57362829 4.48887171 128.57362829 3.375 129.6875 C1.5625 129.8203125 1.5625 129.8203125 -0.625 129.8125 C-1.346875 129.81507813 -2.06875 129.81765625 -2.8125 129.8203125 C-4.625 129.6875 -4.625 129.6875 -5.625 128.6875 C-5.71347743 126.16655924 -5.74027301 123.67319107 -5.72265625 121.15234375 C-5.72053383 120.02246788 -5.72053383 120.02246788 -5.71836853 118.86976624 C-5.71275376 116.4548044 -5.70019883 114.03993399 -5.6875 111.625 C-5.6824869 109.99153779 -5.67792366 108.35807414 -5.67382812 106.72460938 C-5.66277954 102.71220415 -5.64550506 98.69986759 -5.625 94.6875 C-7.605 95.6775 -7.605 95.6775 -9.625 96.6875 C-9.70586147 94.89656809 -9.76412702 93.10460372 -9.8125 91.3125 C-9.84730469 90.31476563 -9.88210938 89.31703125 -9.91796875 88.2890625 C-9.82128906 87.43054688 -9.72460938 86.57203125 -9.625 85.6875 C-8.14 84.6975 -8.14 84.6975 -6.625 83.6875 C-6.20645952 80.48324675 -6.20645952 80.48324675 -6.33203125 76.7109375 C-6.33627609 76.02569 -6.34052094 75.3404425 -6.34489441 74.63442993 C-6.36170247 72.44338871 -6.39935595 70.25326368 -6.4375 68.0625 C-6.45254421 66.57813827 -6.46623307 65.09376215 -6.47851562 63.609375 C-6.5116121 59.96845167 -6.56340793 56.32806522 -6.625 52.6875 C-7.615 52.6875 -8.605 52.6875 -9.625 52.6875 C-9.67895478 51.06286158 -9.71777195 49.43771459 -9.75 47.8125 C-9.78480469 46.45511719 -9.78480469 46.45511719 -9.8203125 45.0703125 C-9.625 42.6875 -9.625 42.6875 -7.625 40.6875 C-7.41565408 37.7736159 -7.32386601 34.94705227 -7.31640625 32.03125 C-7.29125326 30.26952784 -7.26585514 28.50780917 -7.24023438 26.74609375 C-7.21143437 23.96110886 -7.18742393 21.17618437 -7.16870117 18.39111328 C-7.1471233 15.70834304 -7.10769699 13.02627838 -7.06640625 10.34375 C-7.06629044 9.50726929 -7.06617462 8.67078857 -7.0660553 7.80895996 C-7.02563477 5.46289062 -7.02563477 5.46289062 -6.625 1.6875 C-3.625 -0.3125 -3.625 -0.3125 0 0 Z " fill="#E7E5FC" transform="translate(445.625,264.3125)"/>
<path d="M0 0 C0.66 0 1.32 0 2 0 C2 10.56 2 21.12 2 32 C-2.7025 34.536875 -2.7025 34.536875 -7.5 37.125 C-18.89842205 43.31429815 -30.13561909 49.77170405 -41.28369141 56.40087891 C-43.13797619 57.49251699 -45.00565079 58.56164584 -46.88427734 59.61083984 C-47.79129395 60.12598145 -48.69831055 60.64112305 -49.6328125 61.171875 C-50.44637207 61.62401367 -51.25993164 62.07615234 -52.09814453 62.54199219 C-54.32606517 64.24996934 -54.73019864 65.13397008 -55.125 67.875 C-55.08375 68.90625 -55.0425 69.9375 -55 71 C-55.33 71 -55.66 71 -56 71 C-56 57.8 -56 44.6 -56 31 C-55.67 31 -55.34 31 -55 31 C-55 33.97 -55 36.94 -55 40 C-51.50465159 38.00633047 -48.00979835 36.01179544 -44.51531982 34.01660156 C-43.25733312 33.29847154 -41.99923615 32.58053464 -40.74102783 31.86279297 C-33.61959042 27.80005782 -26.50736275 23.72282341 -19.421875 19.59765625 C-18.22446261 18.90174657 -17.02703454 18.20586387 -15.82958984 17.51000977 C-13.55176613 16.18468661 -11.27599684 14.85582535 -9.00244141 13.52319336 C-7.97812012 12.92772705 -6.95379883 12.33226074 -5.8984375 11.71875 C-4.99786621 11.19216797 -4.09729492 10.66558594 -3.16943359 10.12304688 C-1 9 -1 9 1 9 C0.505 4.545 0.505 4.545 0 0 Z " fill="#738AFC" transform="translate(438,359)"/>
<path d="M0 0 C2.64311244 19.13087175 2.64311244 19.13087175 -1.24951172 24.82910156 C-5.00559882 28.06605467 -9.62086585 29.81164313 -14.15283203 31.70947266 C-19.77488806 34.25776524 -25.00440758 37.55031154 -30.3125 40.6875 C-32.45287718 41.92326129 -34.59477163 43.15639889 -36.73828125 44.38671875 C-39.96853607 46.24306485 -43.18856766 48.11196799 -46.39208984 50.01416016 C-47.47312988 50.65530762 -48.55416992 51.29645508 -49.66796875 51.95703125 C-50.64403076 52.54073486 -51.62009277 53.12443848 -52.62573242 53.72583008 C-55 55 -55 55 -57 55 C-56.67 57.31 -56.34 59.62 -56 62 C-56.66 62 -57.32 62 -58 62 C-58 51.77 -58 41.54 -58 31 C-56.02 30.34 -54.04 29.68 -52 29 C-50.12795001 28.03230342 -48.28303198 27.01076985 -46.46484375 25.9453125 C-45.41756104 25.33582764 -44.37027832 24.72634277 -43.29125977 24.09838867 C-42.18451904 23.44717041 -41.07777832 22.79595215 -39.9375 22.125 C-38.78412919 21.451619 -37.63039773 20.77885536 -36.47631836 20.10668945 C-34.71492938 19.08073359 -32.95377102 18.05440621 -31.19380188 17.02601624 C-24.62996075 13.19178461 -18.02180877 9.43610439 -11.41186523 5.68212891 C-10.60692627 5.22370605 -9.8019873 4.7652832 -8.97265625 4.29296875 C-8.27406494 3.8961792 -7.57547363 3.49938965 -6.85571289 3.09057617 C-1.59682113 0 -1.59682113 0 0 0 Z " fill="#738AFC" transform="translate(439,274)"/>
<path d="M0 0 C0.1953125 6.0546875 0.1953125 6.0546875 0 8 C-0.66 8.66 -1.32 9.32 -2 10 C-2.46162427 12.43252661 -2.46162427 12.43252661 -2.625 15.125 C-2.69976562 16.03507812 -2.77453125 16.94515625 -2.8515625 17.8828125 C-2.90054688 18.58148438 -2.94953125 19.28015625 -3 20 C-2.01 20 -1.02 20 0 20 C0 21.32 0 22.64 0 24 C-0.57105469 24.32049316 -1.14210938 24.64098633 -1.73046875 24.97119141 C-14.14118692 31.94358812 -26.50300502 38.98698512 -38.75195312 46.24072266 C-44.71990814 49.75291978 -50.76232974 52.99193041 -57 56 C-57.125 53.125 -57.125 53.125 -57 50 C-56.34 49.34 -55.68 48.68 -55 48 C-54.75712511 45.55987051 -54.75712511 45.55987051 -54.875 42.875 C-54.89304687 41.96492188 -54.91109375 41.05484375 -54.9296875 40.1171875 C-54.95289063 39.41851562 -54.97609375 38.71984375 -55 38 C-55.66 38 -56.32 38 -57 38 C-57 36.02 -57 34.04 -57 32 C-56.42894531 31.67950684 -55.85789062 31.35901367 -55.26953125 31.02880859 C-42.83718175 24.0442593 -30.45747128 16.97929185 -18.16015625 9.75927734 C-1.5198874 0 -1.5198874 0 0 0 Z " fill="#576EF9" transform="translate(439,297)"/>
<path d="M0 0 C0 1.65 0 3.3 0 5 C-0.66 5.33 -1.32 5.66 -2 6 C-2 9.3 -2 12.6 -2 16 C-1.34 16 -0.68 16 0 16 C0 18.64 0 21.28 0 24 C-0.63164062 24.35078613 -1.26328125 24.70157227 -1.9140625 25.06298828 C-27.04918149 38.93839337 -27.04918149 38.93839337 -51.67871094 53.67895508 C-54 55 -54 55 -56 55 C-56.02688151 53.35425434 -56.04634123 51.70838587 -56.0625 50.0625 C-56.07410156 49.14597656 -56.08570313 48.22945313 -56.09765625 47.28515625 C-56 45 -56 45 -55 44 C-54.76712992 42.31816052 -54.58735834 40.6287584 -54.4375 38.9375 C-54.35371094 38.01839844 -54.26992188 37.09929687 -54.18359375 36.15234375 C-54.12300781 35.44207031 -54.06242187 34.73179687 -54 34 C-55.485 34.495 -55.485 34.495 -57 35 C-57 34.01 -57 33.02 -57 32 C-56.2879541 31.59386475 -55.5759082 31.18772949 -54.84228516 30.76928711 C-51.43615601 28.82600137 -48.03043154 26.8820079 -44.625 24.9375 C-44.00328918 24.58251434 -43.38157837 24.22752869 -42.74102783 23.86178589 C-32.14345832 17.80931007 -21.56574051 11.72317677 -11.00244141 5.61108398 C-9.97812012 5.01884033 -8.95379883 4.42659668 -7.8984375 3.81640625 C-6.99786621 3.29506104 -6.09729492 2.77371582 -5.16943359 2.23657227 C-1.24560711 0 -1.24560711 0 0 0 Z " fill="#576EF9" transform="translate(439,344)"/>
<path d="M0 0 C8 4 8 4 9 5 C9.09627113 6.73359598 9.12187568 8.47114646 9.12025452 10.20741272 C9.12162918 11.33628403 9.12300385 12.46515533 9.12442017 13.62823486 C9.12082489 14.87763855 9.11722961 16.12704224 9.11352539 17.41430664 C9.11367142 18.72143112 9.11381744 20.0285556 9.1139679 21.37528992 C9.11425586 24.97017099 9.10835928 28.56501897 9.10139394 32.15989232 C9.09516026 35.91286252 9.09455659 39.6658334 9.09336853 43.41880798 C9.09025526 50.53030826 9.08204192 57.64179325 9.07201904 64.75328678 C9.06085778 72.84747066 9.05534742 80.94165526 9.05032361 89.03584492 C9.03985931 105.69057225 9.02225994 122.34528418 9 139 C5.89656201 137.79310745 2.98806107 136.49403054 0 135 C0 90.45 0 45.9 0 0 Z " fill="#5970F9" transform="translate(113,199)"/>
<path d="M0 0 C3.10343799 1.20689255 6.01193893 2.50596946 9 4 C9 48.22 9 92.44 9 138 C5.25761853 137.06440463 3.01271257 136.34159649 0 134 C-0.61523914 131.53812885 -0.61523914 131.53812885 -0.60127258 128.55207825 C-0.6081459 127.42045761 -0.61501923 126.28883698 -0.62210083 125.1229248 C-0.60412445 123.88071167 -0.58614807 122.63849854 -0.56762695 121.35864258 C-0.56835709 120.05122604 -0.56908722 118.74380951 -0.56983948 117.39677429 C-0.57127586 113.80994691 -0.54185174 110.22395318 -0.50696969 106.6373198 C-0.47574231 102.88974103 -0.47277834 99.14214376 -0.46684265 95.39445496 C-0.45129344 88.2970104 -0.4102508 81.19995029 -0.3600952 74.10267514 C-0.30423493 66.02300712 -0.27672366 57.94332087 -0.25161803 49.86350787 C-0.19933554 33.24211341 -0.11137282 16.62110574 0 0 Z " fill="#5870F9" transform="translate(192,245)"/>
<path d="M0 0 C3.40312738 1.05875074 6.01353231 2.00902154 9 4 C9.36914349 6.33882332 9.36914349 6.33882332 9.36076355 9.32766724 C9.36488754 10.45791321 9.36901154 11.58815918 9.3732605 12.75265503 C9.36247467 13.99846344 9.35168884 15.24427185 9.34057617 16.52783203 C9.34101425 17.83510254 9.34145233 19.14237305 9.34190369 20.48925781 C9.34276654 24.08005683 9.32509427 27.67055689 9.30418181 31.26128626 C9.28546307 35.01156771 9.28366838 38.76185556 9.28010559 42.51217651 C9.27077095 49.61661925 9.2461381 56.72092395 9.21605712 63.82530582 C9.18255713 71.91224053 9.1660382 79.99918174 9.15097082 88.08616853 C9.11958968 104.72419324 9.06680177 121.36207902 9 138 C5.59687262 136.94124926 2.98646769 135.99097846 0 134 C-0.36914349 131.66117668 -0.36914349 131.66117668 -0.36076355 128.67233276 C-0.36488754 127.54208679 -0.36901154 126.41184082 -0.3732605 125.24734497 C-0.36247467 124.00153656 -0.35168884 122.75572815 -0.34057617 121.47216797 C-0.34101425 120.16489746 -0.34145233 118.85762695 -0.34190369 117.51074219 C-0.34276654 113.91994317 -0.32509427 110.32944311 -0.30418181 106.73871374 C-0.28546307 102.98843229 -0.28366838 99.23814444 -0.28010559 95.48782349 C-0.27077095 88.38338075 -0.2461381 81.27907605 -0.21605712 74.17469418 C-0.18255713 66.08775947 -0.1660382 58.00081826 -0.15097082 49.91383147 C-0.11958968 33.27580676 -0.06680177 16.63792098 0 0 Z " fill="#5870F9" transform="translate(60,169)"/>
<path d="M0 0 C2.9719385 1.12451727 5.33440687 2.22293791 8 4 C8.36914349 6.33882332 8.36914349 6.33882332 8.36076355 9.32766724 C8.36488754 10.45791321 8.36901154 11.58815918 8.3732605 12.75265503 C8.36247467 13.99846344 8.35168884 15.24427185 8.34057617 16.52783203 C8.34101425 17.83510254 8.34145233 19.14237305 8.34190369 20.48925781 C8.34276654 24.08005683 8.32509427 27.67055689 8.30418181 31.26128626 C8.28546307 35.01156771 8.28366838 38.76185556 8.28010559 42.51217651 C8.27077095 49.61661925 8.2461381 56.72092395 8.21605712 63.82530582 C8.18255713 71.91224053 8.1660382 79.99918174 8.15097082 88.08616853 C8.11958968 104.72419324 8.06680177 121.36207902 8 138 C5.0280615 136.87548273 2.66559313 135.77706209 0 134 C-0.36914349 131.66117668 -0.36914349 131.66117668 -0.36076355 128.67233276 C-0.36488754 127.54208679 -0.36901154 126.41184082 -0.3732605 125.24734497 C-0.36247467 124.00153656 -0.35168884 122.75572815 -0.34057617 121.47216797 C-0.34101425 120.16489746 -0.34145233 118.85762695 -0.34190369 117.51074219 C-0.34276654 113.91994317 -0.32509427 110.32944311 -0.30418181 106.73871374 C-0.28546307 102.98843229 -0.28366838 99.23814444 -0.28010559 95.48782349 C-0.27077095 88.38338075 -0.2461381 81.27907605 -0.21605712 74.17469418 C-0.18255713 66.08775947 -0.1660382 58.00081826 -0.15097082 49.91383147 C-0.11958968 33.27580676 -0.06680177 16.63792098 0 0 Z " fill="#566DF9" transform="translate(298,306)"/>
<path d="M0 0 C4 1 4 1 8 3 C8 47.55 8 92.1 8 138 C5.36 136.68 2.72 135.36 0 134 C0 89.78 0 45.56 0 0 Z " fill="#566DF9" transform="translate(245,276)"/>
<path d="M0 0 C2.9719385 1.12451727 5.33440687 2.22293791 8 4 C8.36914349 6.33882332 8.36914349 6.33882332 8.36076355 9.32766724 C8.36488754 10.45791321 8.36901154 11.58815918 8.3732605 12.75265503 C8.36247467 13.99846344 8.35168884 15.24427185 8.34057617 16.52783203 C8.34101425 17.83510254 8.34145233 19.14237305 8.34190369 20.48925781 C8.34276654 24.08005683 8.32509427 27.67055689 8.30418181 31.26128626 C8.28546307 35.01156771 8.28366838 38.76185556 8.28010559 42.51217651 C8.27077095 49.61661925 8.2461381 56.72092395 8.21605712 63.82530582 C8.18255713 71.91224053 8.1660382 79.99918174 8.15097082 88.08616853 C8.11958968 104.72419324 8.06680177 121.36207902 8 138 C5.0280615 136.87548273 2.66559313 135.77706209 0 134 C-0.36914349 131.66117668 -0.36914349 131.66117668 -0.36076355 128.67233276 C-0.36488754 127.54208679 -0.36901154 126.41184082 -0.3732605 125.24734497 C-0.36247467 124.00153656 -0.35168884 122.75572815 -0.34057617 121.47216797 C-0.34101425 120.16489746 -0.34145233 118.85762695 -0.34190369 117.51074219 C-0.34276654 113.91994317 -0.32509427 110.32944311 -0.30418181 106.73871374 C-0.28546307 102.98843229 -0.28366838 99.23814444 -0.28010559 95.48782349 C-0.27077095 88.38338075 -0.2461381 81.27907605 -0.21605712 74.17469418 C-0.18255713 66.08775947 -0.1660382 58.00081826 -0.15097082 49.91383147 C-0.11958968 33.27580676 -0.06680177 16.63792098 0 0 Z " fill="#566DF9" transform="translate(166,230)"/>
<path d="M0 0 C2.475 0.495 2.475 0.495 5 1 C4.67 45.55 4.34 90.1 4 136 C2.02 136.99 2.02 136.99 0 138 C0 92.46 0 46.92 0 0 Z " fill="#778EFD" transform="translate(56,167)"/>
<path d="M0 0 C2.475 0.99 2.475 0.99 5 2 C4.67 46.22 4.34 90.44 4 136 C2.02 136.99 2.02 136.99 0 138 C0 92.46 0 46.92 0 0 Z " fill="#758CFC" transform="translate(241,273)"/>
<path d="M0 0 C1.32 0.33 2.64 0.66 4 1 C4 45.55 4 90.1 4 136 C2.02 136.99 2.02 136.99 0 138 C0 92.46 0 46.92 0 0 Z " fill="#768EFD" transform="translate(188,243)"/>
<path d="M0 0 C2.475 0.99 2.475 0.99 5 2 C4.67 46.55 4.34 91.1 4 137 C2.68 137.33 1.36 137.66 0 138 C0 92.46 0 46.92 0 0 Z " fill="#738BFC" transform="translate(162,227)"/>
<path d="M0 0 C1.98 0.99 1.98 0.99 4 2 C4 46.22 4 90.44 4 136 C2.02 136.99 2.02 136.99 0 138 C0 92.46 0 46.92 0 0 Z " fill="#758DFD" transform="translate(109,197)"/>
<path d="M0 0 C1.32 0.33 2.64 0.66 4 1 C4 45.55 4 90.1 4 136 C2.02 136.99 2.02 136.99 0 138 C0 92.46 0 46.92 0 0 Z " fill="#738AFC" transform="translate(294,304)"/>
<path d="M0 0 C2.475 0.99 2.475 0.99 5 2 C4.67 46.55 4.34 91.1 4 137 C2.68 137.33 1.36 137.66 0 138 C0 92.46 0 46.92 0 0 Z " fill="#7188FC" transform="translate(136,212)"/>
<path d="M0 0 C1.32 0.33 2.64 0.66 4 1 C4 45.55 4 90.1 4 136 C2.68 136.33 1.36 136.66 0 137 C0 91.79 0 46.58 0 0 Z " fill="#7087FC" transform="translate(268,289)"/>
<path d="M0 0 C2.475 0.99 2.475 0.99 5 2 C4.67 46.22 4.34 90.44 4 136 C2.02 136.99 2.02 136.99 0 138 C0 92.46 0 46.92 0 0 Z " fill="#7289FC" transform="translate(215,258)"/>
<path d="M0 0 C1.98 0.99 1.98 0.99 4 2 C4 46.22 4 90.44 4 136 C2.68 136.33 1.36 136.66 0 137 C0 91.79 0 46.58 0 0 Z " fill="#7289FC" transform="translate(83,182)"/>
<path d="M0 0 C0.33 0 0.66 0 1 0 C4.18384179 26.63651021 4.18384179 26.63651021 -0.93066406 33.64599609 C-6.07584561 38.01970777 -14.00480385 43 -21 43 C-23.15454177 27.40540714 -23.15454177 27.40540714 -21 20 C-17.20114592 15.21994702 -11.50005675 12.88683454 -5.90112305 10.7800293 C-3.72901796 9.96187248 -3.72901796 9.96187248 -1 8 C-0.42251197 6.03638136 -0.42251197 6.03638136 -0.3125 3.875 C-0.209375 2.59625 -0.10625 1.3175 0 0 Z " fill="#738AFC" transform="translate(370,305)"/>
<path d="M0 0 C1.24610001 7.54178068 2.45155186 15.61855846 0 23 C-5.02627105 28.90211848 -12.79235798 32.42657326 -20 35 C-20.66 35 -21.32 35 -22 35 C-24.05813053 15.20297643 -24.05813053 15.20297643 -20.83691406 10.18994141 C-17.43929435 7.08383345 -13.25626123 5.57253474 -9 4 C-7.58549876 3.19876259 -6.1841333 2.37259225 -4.8125 1.5 C-2 0 -2 0 0 0 Z " fill="#738AFC" transform="translate(371,407)"/>
<path d="M0 0 C1.04214193 7.54303274 2.13417852 15.58226606 0 23 C-4.17042067 28.35409173 -10.79808307 30.72684128 -17 33 C-18.66807589 33.66313276 -20.33508084 34.32898107 -22 35 C-24.15454177 19.40540714 -24.15454177 19.40540714 -22 12 C-18.20114592 7.21994702 -12.50005675 4.88683454 -6.90112305 2.7800293 C-0.12550861 0 -0.12550861 0 0 0 Z " fill="#738AFC" transform="translate(371,360)"/>
<path d="M0 0 C0.66 0 1.32 0 2 0 C2 7.92 2 15.84 2 24 C-4.9375 27.6875 -4.9375 27.6875 -7.12475586 28.81518555 C-10.18809971 30.5058025 -11.79378144 31.39332382 -12.94140625 34.76953125 C-12.96074219 35.50558594 -12.98007812 36.24164063 -13 37 C-13.33 37 -13.66 37 -14 37 C-14 26.44 -14 15.88 -14 5 C-13.67 5.99 -13.34 6.98 -13 8 C-11.01974361 6.85605098 -9.04082322 5.70978896 -7.0625 4.5625 C-5.96035156 3.92441406 -4.85820312 3.28632813 -3.72265625 2.62890625 C-1.1716429 1.25289773 -1.1716429 1.25289773 0 0 Z " fill="#7289FC" transform="translate(464,305)"/>
<path d="M0 0 C0 7.92 0 15.84 0 24 C-2.26875 25.32 -4.5375 26.64 -6.875 28 C-7.58769043 28.41765625 -8.30038086 28.8353125 -9.03466797 29.265625 C-13.77777778 32 -13.77777778 32 -16 32 C-18.38972484 12.23758832 -18.38972484 12.23758832 -14.54394531 7.02734375 C-10.95742433 4.00352574 -4.847082 0 0 0 Z " fill="#738AFC" transform="translate(466,258)"/>
<path d="M0 0 C0.66 0 1.32 0 2 0 C2 10.56 2 21.12 2 32 C-2.7025 34.536875 -2.7025 34.536875 -7.5 37.125 C-18.89842205 43.31429815 -30.13561909 49.77170405 -41.28369141 56.40087891 C-43.13797619 57.49251699 -45.00565079 58.56164584 -46.88427734 59.61083984 C-47.79129395 60.12598145 -48.69831055 60.64112305 -49.6328125 61.171875 C-50.44637207 61.62401367 -51.25993164 62.07615234 -52.09814453 62.54199219 C-54.32606517 64.24996934 -54.73019864 65.13397008 -55.125 67.875 C-55.08375 68.90625 -55.0425 69.9375 -55 71 C-55.33 71 -55.66 71 -56 71 C-56 61.1 -56 51.2 -56 41 C-55.67 41 -55.34 41 -55 41 C-54.67 46.61 -54.34 52.22 -54 58 C-32.76072053 46.46448971 -32.76072053 46.46448971 -11.98144531 34.13671875 C-10 33 -10 33 -7.33886719 31.87890625 C-4.38663962 30.50238192 -2.28544884 29.33210766 0 27 C1.23644128 22.32685103 0.94945509 17.91695202 0.625 13.125 C0.57988281 11.86429687 0.53476562 10.60359375 0.48828125 9.3046875 C0.37061366 6.19826307 0.20651754 3.10157566 0 0 Z " fill="#8EA8FD" transform="translate(438,359)"/>
<path d="M0 0 C-0.20483398 2.30883789 -0.20483398 2.30883789 -1 5 C-3.02758789 6.63061523 -3.02758789 6.63061523 -5.72265625 8.05859375 C-6.72522461 8.60281982 -7.72779297 9.1470459 -8.76074219 9.70776367 C-9.85032227 10.27857666 -10.93990234 10.84938965 -12.0625 11.4375 C-14.34100262 12.66973456 -16.61831514 13.90417183 -18.89453125 15.140625 C-19.77121964 15.61292793 -19.77121964 15.61292793 -20.6656189 16.09477234 C-26.94342823 19.48308224 -33.09945903 23.07409883 -39.25 26.6875 C-40.25426025 27.27523193 -41.25852051 27.86296387 -42.29321289 28.46850586 C-47.51716323 31.52206628 -47.51716323 31.52206628 -52.67871094 34.67895508 C-55 36 -55 36 -57 36 C-56.67 38.31 -56.34 40.62 -56 43 C-56.66 43 -57.32 43 -58 43 C-58 32.77 -58 22.54 -58 12 C-57.67 12 -57.34 12 -57 12 C-56.67 18.27 -56.34 24.54 -56 31 C-41.05535576 22.48862717 -26.12973951 13.9504498 -11.29101562 5.25537109 C-10.35708984 4.7083252 -9.42316406 4.1612793 -8.4609375 3.59765625 C-7.64415527 3.11820557 -6.82737305 2.63875488 -5.98583984 2.14477539 C-2.26530177 0 -2.26530177 0 0 0 Z " fill="#91ABFD" transform="translate(439,293)"/>
<path d="M0 0 C0.33 0 0.66 0 1 0 C1 2.31 1 4.62 1 7 C1.55429687 6.6390625 2.10859375 6.278125 2.6796875 5.90625 C3.40414063 5.4421875 4.12859375 4.978125 4.875 4.5 C5.59429687 4.0359375 6.31359375 3.571875 7.0546875 3.09375 C9 2 9 2 11 2 C11 8.27 11 14.54 11 21 C12.32 21.66 13.64 22.32 15 23 C13.60974609 23.72703125 13.60974609 23.72703125 12.19140625 24.46875 C5.50804312 27.80803259 5.50804312 27.80803259 0.9140625 33.3125 C0.59456919 35.71745649 0.59456919 35.71745649 1 39 C0.67 39 0.34 39 0 39 C0 26.13 0 13.26 0 0 Z " fill="#748BFC" transform="translate(450,353)"/>
<path d="M0 0 C1.85776765 3.13498292 2.20140476 5.37471432 2 9 C1.34 8.01 0.68 7.02 0 6 C-26.10402332 20.38595241 -26.10402332 20.38595241 -51.67871094 35.67895508 C-54 37 -54 37 -56 37 C-55.70301113 33.89311534 -55.50638407 32.43007874 -53.08007812 30.36938477 C-51.8184082 29.6625354 -51.8184082 29.6625354 -50.53125 28.94140625 C-49.57911621 28.39726074 -48.62698242 27.85311523 -47.64599609 27.29248047 C-46.60781738 26.72158691 -45.56963867 26.15069336 -44.5 25.5625 C-43.4373291 24.96066895 -42.3746582 24.35883789 -41.27978516 23.73876953 C-37.86250415 21.80869883 -34.43236876 19.90309081 -31 18 C-27.55417772 16.07359922 -24.11000461 14.14427557 -20.66601562 12.21459961 C-18.51368605 11.01149847 -16.35883067 9.81290203 -14.20117188 8.61938477 C-9.32894934 5.91714704 -4.56645931 3.194963 0 0 Z " fill="#8DA8FD" transform="translate(438,339)"/>
<path d="M0 0 C0.33 0 0.66 0 1 0 C4.18384179 26.63651021 4.18384179 26.63651021 -0.93066406 33.64599609 C-6.07584561 38.01970777 -14.00480385 43 -21 43 C-20.76367188 40.62158203 -20.76367188 40.62158203 -20 38 C-18.15820312 36.85107422 -18.15820312 36.85107422 -15.78125 36.0546875 C-7.56363738 32.76785262 -7.56363738 32.76785262 -1 27 C1.71927484 18.38250446 0.80910107 8.88880881 0 0 Z " fill="#8EA7FD" transform="translate(370,305)"/>
<path d="M0 0 C0 7.92 0 15.84 0 24 C-2.475 23.01 -2.475 23.01 -5 22 C-5.08685287 18.70849875 -5.14033895 15.4172904 -5.1875 12.125 C-5.21263672 11.18785156 -5.23777344 10.25070312 -5.26367188 9.28515625 C-5.27333984 8.38925781 -5.28300781 7.49335938 -5.29296875 6.5703125 C-5.3086792 5.74289551 -5.32438965 4.91547852 -5.34057617 4.06298828 C-5.22818604 3.38220215 -5.1157959 2.70141602 -5 2 C-2 0 -2 0 0 0 Z " fill="#6586EF" transform="translate(466,352)"/>
<path d="M0 0 C0 7.92 0 15.84 0 24 C-2.475 23.01 -2.475 23.01 -5 22 C-5.08710289 18.89601022 -5.14042309 15.79233452 -5.1875 12.6875 C-5.21263672 11.80642578 -5.23777344 10.92535156 -5.26367188 10.01757812 C-5.27333984 9.17001953 -5.28300781 8.32246094 -5.29296875 7.44921875 C-5.3086792 6.66893311 -5.32438965 5.88864746 -5.34057617 5.0847168 C-4.8182622 1.88755625 -3.33053843 0 0 0 Z " fill="#6586EF" transform="translate(466,305)"/>
<path d="M0 0 C0 7.92 0 15.84 0 24 C-2.475 23.01 -2.475 23.01 -5 22 C-5.11613204 18.89614789 -5.18722029 15.79285338 -5.25 12.6875 C-5.28351563 11.80642578 -5.31703125 10.92535156 -5.3515625 10.01757812 C-5.45090101 3.48607129 -5.45090101 3.48607129 -3.046875 0.89453125 C-1 0 -1 0 0 0 Z " fill="#6586EF" transform="translate(466,258)"/>
<path d="M0 0 C-0.31107063 3.02442158 -0.47773759 4.54882505 -2.82592773 6.57739258 C-3.99297241 7.22937622 -3.99297241 7.22937622 -5.18359375 7.89453125 C-6.02857422 8.37470703 -6.87355469 8.85488281 -7.74414062 9.34960938 C-8.63294922 9.83236328 -9.52175781 10.31511719 -10.4375 10.8125 C-11.32244141 11.31458984 -12.20738281 11.81667969 -13.11914062 12.33398438 C-19.66809099 16 -19.66809099 16 -22 16 C-21.68892937 12.97557842 -21.52226241 11.45117495 -19.17407227 9.42260742 C-18.39604248 8.98795166 -17.6180127 8.5532959 -16.81640625 8.10546875 C-15.97142578 7.62529297 -15.12644531 7.14511719 -14.25585938 6.65039062 C-13.36705078 6.16763672 -12.47824219 5.68488281 -11.5625 5.1875 C-10.67755859 4.68541016 -9.79261719 4.18332031 -8.88085938 3.66601562 C-2.33190901 0 -2.33190901 0 0 0 Z " fill="#8CA7FD" transform="translate(371,379)"/>
<path d="M0 0 C0.26904297 2.30541992 0.26904297 2.30541992 0 5 C-1.80419922 6.66918945 -1.80419922 6.66918945 -4.3046875 8.11328125 C-5.19800781 8.63857422 -6.09132813 9.16386719 -7.01171875 9.70507812 C-7.95660156 10.23552734 -8.90148437 10.76597656 -9.875 11.3125 C-11.28072266 12.13717773 -11.28072266 12.13717773 -12.71484375 12.97851562 C-19.65877329 17 -19.65877329 17 -22 17 C-21.69831606 13.87631425 -21.48799803 12.421268 -19.06640625 10.33081055 C-18.24011719 9.85426025 -17.41382813 9.37770996 -16.5625 8.88671875 C-15.66789062 8.36142578 -14.77328125 7.83613281 -13.8515625 7.29492188 C-12.44003906 6.49924805 -12.44003906 6.49924805 -11 5.6875 C-10.05898438 5.13771484 -9.11796875 4.58792969 -8.1484375 4.02148438 C-1.21449922 0 -1.21449922 0 0 0 Z " fill="#8CA8FD" transform="translate(371,425)"/>
<path d="M0 0 C0.33 0 0.66 0 1 0 C1.33 5.61 1.66 11.22 2 17 C4.31 15.68 6.62 14.36 9 13 C12.4375 13.25 12.4375 13.25 15 14 C12.60228961 16.70734849 10.07898494 18.05748434 6.875 19.6875 C3.20907776 21.71750366 3.20907776 21.71750366 1.125 25.16796875 C0.79420026 27.60571332 0.79420026 27.60571332 1 31 C0.67 31 0.34 31 0 31 C0 20.77 0 10.54 0 0 Z " fill="#9AAFFD" transform="translate(450,361)"/>
<path d="M0 0 C0.33 0 0.66 0 1 0 C1.33 5.61 1.66 11.22 2 17 C4.31 15.68 6.62 14.36 9 13 C12.4375 13.25 12.4375 13.25 15 14 C11.94789654 17.41593036 8.18231221 19.18155613 4.1796875 21.3046875 C1.76160142 22.84682932 1.76160142 22.84682932 1.1953125 25.6953125 C1.13085938 26.45585937 1.06640625 27.21640625 1 28 C0.67 28 0.34 28 0 28 C0 18.76 0 9.52 0 0 Z " fill="#8CA5FD" transform="translate(450,314)"/>
<path d="M0 0 C-2.40111178 2.63884562 -5.00555028 4.36413529 -8.0625 6.1875 C-8.94035156 6.71730469 -9.81820313 7.24710937 -10.72265625 7.79296875 C-13 9 -13 9 -15 9 C-15 6.8125 -15 6.8125 -14 4 C-9.6168585 0.03529683 -5.87067665 -1.90796991 0 0 Z " fill="#8CA8FD" transform="translate(465,281)"/>
<path d="M0 0 C0 1.65 0 3.3 0 5 C-6.625 6.25 -6.625 6.25 -10 4 C-9.625 2.0625 -9.625 2.0625 -9 0 C-5.93109813 -1.53445094 -3.29905734 -0.54984289 0 0 Z " fill="#F4F5FE" transform="translate(449,265)"/>
<path d="M0 0 C0.66 0.66 1.32 1.32 2 2 C1.625 4.125 1.625 4.125 1 6 C-2.375 6.625 -2.375 6.625 -6 7 C-6.66 6.34 -7.32 5.68 -8 5 C-7.75 2.9375 -7.75 2.9375 -7 1 C-4.48718205 -0.25640898 -2.78302919 -0.20872719 0 0 Z " fill="#F5F6FE" transform="translate(379,302)"/>
<path d="M0 0 C4.32189851 0.50254634 7.59420689 1.1952292 11 4 C11.3125 6.6875 11.3125 6.6875 11 9 C6.69235185 7.43358249 2.93828536 5.31663844 -1 3 C-0.67 2.01 -0.34 1.02 0 0 Z " fill="#A0B8F7" transform="translate(137,349)"/>
<path d="M0 0 C3.18834086 1.15134531 5.60138114 2.70564409 8.25 4.8125 C8.25 6.1325 8.25 7.4525 8.25 8.8125 C3.94235185 7.24608249 0.18828536 5.12913844 -3.75 2.8125 C-3.75 2.1525 -3.75 1.4925 -3.75 0.8125 C-1.75 -0.1875 -1.75 -0.1875 0 0 Z " fill="#A0B8F7" transform="translate(60.75,303.1875)"/>
<path d="M0 0 C4.37785406 0.50032618 6.88159078 1.88159078 10 5 C10 6.32 10 7.64 10 9 C5.69235185 7.43358249 1.93828536 5.31663844 -2 3 C-1.34 2.01 -0.68 1.02 0 0 Z " fill="#A0B8F7" transform="translate(296,440)"/>
<path d="M0 0 C2.8125 1.8125 2.8125 1.8125 5 4 C5 5.32 5 6.64 5 8 C0.69235185 6.43358249 -3.06171464 4.31663844 -7 2 C-7 1.34 -7 0.68 -7 0 C-4.22339666 -1.38830167 -2.95033814 -0.89196269 0 0 Z " fill="#A0B8F7" transform="translate(275,426)"/>
<path d="M0 0 C2.89378633 1.15751453 4.92778103 2.05278103 7.125 4.25 C7.125 5.57 7.125 6.89 7.125 8.25 C2.52071066 6.93448876 -1.05820388 5.15803514 -4.875 2.25 C-4.875 1.59 -4.875 0.93 -4.875 0.25 C-2.875 -0.75 -2.875 -0.75 0 0 Z " fill="#A0B8F7" transform="translate(193.875,379.75)"/>
<path d="M0 0 C4.01279188 0.6173526 6.85490358 2.49821876 10 5 C10 6.32 10 7.64 10 9 C5.69235185 7.43358249 1.93828536 5.31663844 -2 3 C-1.34 2.01 -0.68 1.02 0 0 Z " fill="#A0B8F7" transform="translate(85,318)"/>
<path d="M0 0 C3.84235498 1.13524124 7.1258669 2.1258669 10 5 C10 6.32 10 7.64 10 9 C5.38486888 7.68139111 1.90102388 5.78644563 -2 3 C-1.34 2.01 -0.68 1.02 0 0 Z " fill="#A0B8F7" transform="translate(217,394)"/>
<path d="M0 0 C2.80063432 1.14194429 5.47332213 2.32801232 8 4 C9 6.75 9 6.75 9 9 C4.94718288 7.77472971 1.55639236 6.30119506 -2 4 C-1.34 2.68 -0.68 1.36 0 0 Z " fill="#A1B9F7" transform="translate(244,409)"/>
<path d="M0 0 C4.40114397 0.50298788 6.71195019 2.08772731 10 5 C9.67 6.32 9.34 7.64 9 9 C5.37 7.02 1.74 5.04 -2 3 C-1.34 2.01 -0.68 1.02 0 0 Z " fill="#A1B9F7" transform="translate(164,364)"/>
<path d="M0 0 C2.80063432 1.14194429 5.47332213 2.32801232 8 4 C9 6.75 9 6.75 9 9 C5.2089881 7.55049545 1.6125362 5.84827434 -2 4 C-1.34 2.68 -0.68 1.36 0 0 Z " fill="#A1B9F7" transform="translate(112,333)"/>
<path d="M0 0 C0 3.3 0 6.6 0 10 C-1.98 10.99 -1.98 10.99 -4 12 C-4 8.37 -4 4.74 -4 1 C-2 0 -2 0 0 0 Z " fill="#F2F3FE" transform="translate(371,386)"/>
<path d="M0 0 C0 3.3 0 6.6 0 10 C-1.98 10.99 -1.98 10.99 -4 12 C-4 8.37 -4 4.74 -4 1 C-2 0 -2 0 0 0 Z " fill="#F1F2FE" transform="translate(371,343)"/>
<path d="M0 0 C0.99 0 1.98 0 3 0 C3 3.3 3 6.6 3 10 C1.02 10.99 1.02 10.99 -1 12 C-1.02687279 10.18757948 -1.04633715 8.37504767 -1.0625 6.5625 C-1.07410156 5.55316406 -1.08570313 4.54382813 -1.09765625 3.50390625 C-1 1 -1 1 0 0 Z " fill="#FAFAFE" transform="translate(437,349)"/>
<path d="M0 0 C0.66 0 1.32 0 2 0 C2 3.63 2 7.26 2 11 C1.01 11 0.02 11 -1 11 C-1.02688151 9.35425434 -1.04634123 7.70838587 -1.0625 6.0625 C-1.07410156 5.14597656 -1.08570313 4.22945313 -1.09765625 3.28515625 C-1 1 -1 1 0 0 Z " fill="#F8F9FE" transform="translate(451,341)"/>
<path d="M0 0 C0.33 0 0.66 0 1 0 C1 3.63 1 7.26 1 11 C0.01 11.33 -0.98 11.66 -2 12 C-2.05395478 10.37536158 -2.09277195 8.75021459 -2.125 7.125 C-2.14820313 6.22007812 -2.17140625 5.31515625 -2.1953125 4.3828125 C-2 2 -2 2 0 0 Z " fill="#F7F8FE" transform="translate(384,334)"/>
<path d="M0 0 C0.33 0 0.66 0 1 0 C1 3.63 1 7.26 1 11 C0.01 11.33 -0.98 11.66 -2 12 C-2.05395478 10.37536158 -2.09277195 8.75021459 -2.125 7.125 C-2.14820313 6.22007812 -2.17140625 5.31515625 -2.1953125 4.3828125 C-2 2 -2 2 0 0 Z " fill="#FBFCFE" transform="translate(452,297)"/>
<path d="M0 0 C0.66 0 1.32 0 2 0 C2 3.3 2 6.6 2 10 C1.01 10.33 0.02 10.66 -1 11 C-1.02688151 9.35425434 -1.04634123 7.70838587 -1.0625 6.0625 C-1.07410156 5.14597656 -1.08570313 4.22945313 -1.09765625 3.28515625 C-1 1 -1 1 0 0 Z " fill="#F9F9FE" transform="translate(383,378)"/>
<path d="M0 0 C0.66 0 1.32 0 2 0 C2 3.3 2 6.6 2 10 C1.01 10.33 0.02 10.66 -1 11 C-1.02688151 9.35425434 -1.04634123 7.70838587 -1.0625 6.0625 C-1.07410156 5.14597656 -1.08570313 4.22945313 -1.09765625 3.28515625 C-1 1 -1 1 0 0 Z " fill="#FEFEFE" transform="translate(437,306)"/>
</svg>
