<?xml version="1.0" encoding="UTF-8"?>
<svg version="1.1" xmlns="http://www.w3.org/2000/svg" width="512" height="512">
<path d="M0 0 C0.8346515 -0.00465992 1.66930299 -0.00931984 2.52924696 -0.01412097 C5.33862136 -0.02611451 8.14751604 -0.01665875 10.95689487 -0.00736332 C12.98633878 -0.01153432 15.01578035 -0.01701055 17.04521757 -0.02368313 C22.63195767 -0.03818703 28.21855086 -0.03387759 33.80529916 -0.02651632 C39.8265281 -0.02179917 45.84772458 -0.03428158 51.86894321 -0.04453373 C62.98628207 -0.06075946 74.1035823 -0.06316113 85.22092807 -0.05822874 C95.49131701 -0.05367427 105.76168846 -0.05426735 116.03207684 -0.06006908 C117.40891314 -0.06082594 118.78574945 -0.06158192 120.16258575 -0.06233703 C122.23726914 -0.0634822 124.31195252 -0.06463208 126.3866359 -0.06579627 C145.67911227 -0.07650376 164.97158281 -0.08122395 184.26406097 -0.07332611 C184.99154683 -0.07302894 185.71903269 -0.07273176 186.46856357 -0.07242559 C192.37653273 -0.06997657 198.28450182 -0.06736502 204.19247091 -0.06474145 C227.23991419 -0.05463813 250.28728463 -0.06299502 273.33471775 -0.086236 C299.22061564 -0.11229696 325.10646966 -0.12515968 350.99238116 -0.11804825 C353.75147282 -0.11733217 356.5105645 -0.11665779 359.26965618 -0.1160078 C360.28871568 -0.11575309 360.28871568 -0.11575309 361.32836223 -0.11549323 C371.59220019 -0.11318842 381.85599748 -0.12117588 392.11982632 -0.13429928 C403.7898666 -0.14919393 415.45982809 -0.14970064 427.12986939 -0.13222837 C433.0870202 -0.12368844 439.04398859 -0.12164168 445.0011301 -0.13687992 C450.45086004 -0.15064794 455.90024993 -0.1460659 461.3499598 -0.12664068 C463.32500395 -0.12285604 465.30007483 -0.12587291 467.27509534 -0.13625234 C469.95371327 -0.14933211 472.63114183 -0.13791983 475.30970764 -0.12025452 C476.08185428 -0.12990503 476.85400092 -0.13955554 477.64954594 -0.14949849 C482.81335901 -0.07926623 485.73702637 1.12591396 489.71777439 4.38031673 C493.77407837 9.60291531 493.49174983 15.03371816 492.71777439 21.38031673 C490.54278855 25.97195352 488.26161874 28.21095784 483.71777439 30.38031673 C480.8967619 30.65769198 478.30281761 30.77315372 475.4857645 30.74108028 C474.66069835 30.74364356 473.83563221 30.74620683 472.98556405 30.74884778 C470.22316857 30.753786 467.46132062 30.73729218 464.69897556 30.72089291 C462.7179678 30.72004664 460.7369591 30.72052176 458.75595188 30.72222042 C453.37823797 30.72308182 448.00072444 30.70543247 442.62305713 30.68449855 C437.00297258 30.66575599 431.38288354 30.66398321 425.76277256 30.66042233 C415.12039655 30.65109476 404.4781129 30.62647128 393.83577758 30.59637386 C381.71982292 30.56285205 369.60386387 30.54634941 357.48787439 30.53128755 C332.5644565 30.4999224 307.64112062 30.447148 282.71777439 30.38031673 C282.719995 31.46137691 282.72221561 32.5424371 282.72450352 33.65625668 C282.74476523 43.83858139 282.75976118 54.02090201 282.76958656 64.2032423 C282.77480767 69.43821966 282.78189136 74.67318076 282.79321384 79.90814877 C282.80407009 84.95909186 282.81005706 90.01001931 282.81265163 95.06097317 C282.81450093 96.98910169 282.81811208 98.91722935 282.82350445 100.84535122 C282.83075115 103.54354874 282.83176379 106.24168138 282.83129978 108.93988705 C282.83489506 109.7390202 282.83849033 110.53815334 282.84219456 111.36150265 C282.83564559 114.87513236 282.66175784 118.00006094 281.71777439 121.38031673 C290.54832995 128.72558144 299.40539631 136.00074536 308.54589939 142.95844173 C311.93911783 145.54932281 315.30120783 148.17661114 318.65527439 150.81781673 C319.23688328 151.27567562 319.81849216 151.73353451 320.41772556 152.20526791 C321.59584697 153.133065 322.77382515 154.06104401 323.95166111 154.98920345 C326.28942429 156.83058783 328.6294704 158.66905673 330.96972752 160.50726986 C332.72065016 161.88257558 334.47116481 163.25839951 336.22168064 164.63422298 C338.54057563 166.45635051 340.86099954 168.27650467 343.18261814 170.09516048 C348.53590525 174.29124499 353.87669905 178.50027664 359.17627048 182.7641058 C365.40446038 187.77355851 371.68599129 192.70599344 378.03027439 197.56781673 C378.76608738 198.13290951 379.50190037 198.69800228 380.26001072 199.28021908 C380.94345554 199.80180599 381.62690037 200.32339291 382.33105564 200.86078548 C383.24044895 201.55530819 383.24044895 201.55530819 384.16821384 202.26386166 C385.73543712 203.45581995 385.73543712 203.45581995 387.71777439 204.38031673 C388.5698447 204.07867611 389.42191502 203.77703548 390.29980564 203.46625423 C399.51686851 200.53786169 411.51580647 201.19911409 420.33105564 205.06000423 C430.92960833 210.92303338 437.90895179 219.07857177 442.08886814 230.41156673 C442.66184428 233.1162988 442.78209491 235.32024082 442.75708103 238.06586361 C442.74856869 239.27864986 442.74856869 239.27864986 442.73988438 240.51593685 C442.73258808 241.13118221 442.72529179 241.74642757 442.71777439 242.38031673 C443.95865818 242.35936947 445.19954197 242.3384222 446.4780283 242.31684017 C451.09607428 242.24426303 455.71407016 242.19845253 460.33252048 242.16059017 C462.32870057 242.14051504 464.32482214 242.11324884 466.32080173 242.07855892 C469.19546059 242.02986017 472.06933979 242.00730687 474.94433689 241.98969173 C476.27593342 241.95872402 476.27593342 241.95872402 477.63443089 241.9271307 C483.14987206 241.92514794 486.42842178 242.57135211 490.71777439 246.38031673 C494.53939865 251.07330431 494.141502 255.73897168 494.10545444 261.50810909 C494.11353275 263.05174998 494.11353275 263.05174998 494.12177426 264.62657553 C494.1360976 268.07968528 494.12893916 271.53241406 494.12182713 274.98554134 C494.12752838 277.45927394 494.13449168 279.9330039 494.14262486 282.4067297 C494.15873082 288.43132523 494.16065144 294.45577071 494.15541195 300.48037308 C494.15137033 305.37723866 494.15281371 310.27407343 494.15816021 315.17093754 C494.15890863 315.86791878 494.15965705 316.56490003 494.16042816 317.28300192 C494.16195963 318.69892387 494.16349798 320.11484581 494.16504312 321.53076775 C494.1787707 334.80864675 494.17332867 348.08646683 494.16185791 361.36434449 C494.15192516 373.51063504 494.16486641 385.65677326 494.1887921 397.80304032 C494.21317675 410.27632033 494.22279255 422.74952937 494.21613938 435.22283274 C494.21264574 442.2250636 494.21488865 449.2271773 494.2323904 456.22939014 C494.24864181 462.81299647 494.24394063 469.39635888 494.22508526 475.97997379 C494.22139023 478.39790573 494.2245343 480.81585909 494.23497105 483.23377132 C494.24811947 486.53136642 494.23668701 489.82798794 494.21897984 493.12554073 C494.22858484 494.08517206 494.23818985 495.04480338 494.24808592 496.03351444 C494.18619147 501.62540856 493.60267378 505.04343115 489.71777439 509.38031673 C485.4556752 512.66352836 481.59533417 512.80560639 476.40431404 512.76063347 C475.5662858 512.76529339 474.72825756 512.76995331 473.86483452 512.77475443 C471.04397396 512.78674839 468.22359114 512.77729206 465.40272617 512.76799679 C463.36503268 512.77216777 461.32734151 512.77764399 459.28965467 512.7843166 C453.68011162 512.79882073 448.07071487 512.79451099 442.46116364 512.78714979 C436.41539466 512.78243269 430.369658 512.794915 424.32389927 512.8051672 C413.16121719 512.82139304 401.99858064 512.82379458 390.83589301 512.81886221 C380.52362532 512.81430777 370.21137505 512.81490079 359.89910793 512.82070255 C358.51666484 512.82145941 357.13422174 512.82221539 355.75177864 512.8229705 C353.66864745 512.82411567 351.58551627 512.82526555 349.50238509 512.82642974 C330.13131703 512.83713725 310.76025479 512.8418574 291.38918495 512.83395958 C290.65873337 512.83366241 289.9282818 512.83336523 289.17569532 512.83305905 C283.24363885 512.83061003 277.31158244 512.82799849 271.37952604 512.82537492 C248.23809754 512.81527159 225.0967416 512.82362849 201.95532322 512.84686947 C175.96394995 512.87293034 149.97262036 512.88579317 123.98123354 512.87868172 C121.2109079 512.87796564 118.44058226 512.87729126 115.67025661 512.87664127 C114.98811732 512.87647146 114.30597802 512.87630166 113.60316783 512.8761267 C103.2974668 512.87382188 92.99180626 512.88180942 82.68611431 512.89493275 C70.96849781 512.90982729 59.25096007 512.91033426 47.53333981 512.89286184 C41.55188606 512.88432182 35.57061399 512.88227537 29.5891695 512.89751339 C24.11723498 512.91128115 18.64563912 512.90669971 13.17372458 512.88727415 C11.19060511 512.88348943 9.20745902 512.88650661 7.2243631 512.8968858 C4.53485516 512.90996501 1.84653189 512.89855378 -0.84292412 512.88088799 C-1.61827945 512.8905385 -2.39363478 512.90018901 -3.19248572 512.91013196 C-8.36751334 512.8400273 -11.28343191 511.62640339 -15.28222561 508.38031673 C-19.21508323 503.8816969 -18.70535238 498.92550124 -18.66990566 493.25252438 C-18.67798397 491.70888349 -18.67798397 491.70888349 -18.68622547 490.13405794 C-18.70054882 486.68094819 -18.69339037 483.22821941 -18.68627834 479.77509212 C-18.6919796 477.30135953 -18.6989429 474.82762957 -18.70707607 472.35390377 C-18.72318203 466.32930824 -18.72510266 460.30486276 -18.71986317 454.28026039 C-18.71582155 449.38339481 -18.71726492 444.48656004 -18.72261143 439.58969593 C-18.72335985 438.89271469 -18.72410827 438.19573344 -18.72487937 437.47763155 C-18.72641085 436.0617096 -18.7279492 434.64578766 -18.72949434 433.22986572 C-18.74322192 419.95198672 -18.73777989 406.67416664 -18.72630913 393.39628898 C-18.71637638 381.24999843 -18.72931762 369.10386021 -18.75324332 356.95759315 C-18.77762797 344.48431314 -18.78724377 332.0111041 -18.78059059 319.53780073 C-18.77709696 312.53556987 -18.77933987 305.53345617 -18.79684162 298.53124332 C-18.81309302 291.947637 -18.80839184 285.36427459 -18.78953648 278.78065968 C-18.78584144 276.36272774 -18.78898551 273.94477438 -18.79942226 271.52686214 C-18.81257069 268.22926705 -18.80113822 264.93264553 -18.78343105 261.63509274 C-18.79303606 260.67546141 -18.80264107 259.71583009 -18.81253713 258.72711903 C-18.74870715 252.96035741 -18.04719795 249.81200889 -14.28222561 245.38031673 C-9.84099097 241.53650321 -5.18418579 241.99062305 0.39355564 242.08734798 C1.31871479 242.09159283 2.24387394 242.09583767 3.19706821 242.10021114 C6.14177069 242.11695681 9.08577999 242.15460152 12.03027439 242.19281673 C14.03091552 242.20786888 16.03156742 242.22155636 18.03222752 242.23383236 C22.92767547 242.2668469 27.82260754 242.31860098 32.71777439 242.38031673 C32.7104781 241.76507137 32.7031818 241.14982601 32.69566441 240.51593685 C32.68998951 239.70741268 32.68431461 238.89888851 32.67846775 238.06586361 C32.66752331 236.86455807 32.66752331 236.86455807 32.65635777 235.63898373 C32.91925178 225.97075422 39.07065706 217.81660076 45.78418064 211.40766048 C56.59805355 202.2961504 68.11642533 201.33048583 81.71777439 202.38031673 C83.09697508 202.65095598 84.47589135 202.9230494 85.85449314 203.19672298 C90.75751617 203.42972812 92.86522071 201.75109309 96.34277439 198.63031673 C97.56363308 197.60368556 98.78500171 196.57766055 100.00683689 195.55219173 C100.62204197 195.02303158 101.23724705 194.49387142 101.8710947 193.94867611 C104.75060781 191.50314567 107.73437586 189.19691689 110.71777439 186.88031673 C111.88501767 185.96438442 113.05168327 185.04771544 114.21777439 184.13031673 C121.21777439 178.63031673 121.21777439 178.63031673 122.96753025 177.25556087 C124.13507849 176.33816665 125.30255888 175.42068607 126.46997166 174.50311947 C129.3726023 172.22187429 132.27636713 169.9421046 135.18261814 167.66547298 C140.53481518 163.47024292 145.87441966 159.26194221 151.17309666 154.99921322 C157.74536427 149.71254232 164.38371428 144.52714013 171.11743259 139.44721127 C172.4364291 138.44773558 173.74035523 137.42811629 175.0299387 136.39096737 C177.12850857 134.82112035 179.16493886 133.494868 181.40223789 132.15308285 C188.8629024 127.39933393 188.8629024 127.39933393 193.56002522 120.14771175 C194.82299399 113.84463289 194.44127314 107.46953764 194.18261814 101.08344173 C194.15459285 99.03800949 194.13326375 96.9924756 194.11830235 94.94690609 C194.06139523 89.59791977 193.91442163 84.25517808 193.74774265 78.90863705 C193.59346949 73.43911887 193.52561642 67.96857728 193.45019627 62.49750423 C193.28998125 51.78905133 193.03446301 41.08520587 192.71777439 30.38031673 C191.68740496 30.38400391 190.65703552 30.38769108 189.59544277 30.39148998 C164.53273316 30.48025943 139.47004392 30.54600608 114.40721035 30.58756542 C102.28704207 30.60819703 90.1669776 30.63632919 78.04687595 30.68207455 C67.48389305 30.72192383 56.92098533 30.74774519 46.35792935 30.75667071 C40.76403666 30.76188866 35.17035904 30.77416541 29.57653522 30.80323696 C24.3119802 30.83037574 19.04772896 30.83876476 13.78311062 30.83274746 C11.85054531 30.83384838 9.91796989 30.84181131 7.98546505 30.85713863 C5.34661625 30.87704251 2.70891417 30.87225459 0.0700388 30.8613348 C-1.07686654 30.87881185 -1.07686654 30.87881185 -2.24694169 30.89664197 C-7.40150329 30.83899358 -10.30913063 29.62596699 -14.28222561 26.38031673 C-18.33852959 21.15771816 -18.05620105 15.72691531 -17.28222561 9.38031673 C-13.54517494 1.49098754 -8.27613583 -0.07199818 0 0 Z M222.71777439 30.38031673 C222.71777439 41.60031673 222.71777439 52.82031673 222.71777439 64.38031673 C225.19277439 63.88531673 225.19277439 63.88531673 227.71777439 63.38031673 C229.27848467 63.29342845 230.84214898 63.24976495 232.40527439 63.24750423 C233.26894627 63.24621517 234.13261814 63.24492611 235.02246189 63.24359798 C235.91191502 63.24746517 236.80136814 63.25133236 237.71777439 63.25531673 C238.60722752 63.25144955 239.49668064 63.24758236 240.41308689 63.24359798 C241.27675877 63.24488705 242.14043064 63.24617611 243.03027439 63.24750423 C243.8101572 63.24863216 244.59004002 63.24976009 245.39355564 63.2509222 C247.71777439 63.38031673 247.71777439 63.38031673 252.71777439 64.38031673 C252.71777439 53.16031673 252.71777439 41.94031673 252.71777439 30.38031673 C242.81777439 30.38031673 232.91777439 30.38031673 222.71777439 30.38031673 Z M224.84277439 99.50531673 C223.15293188 103.82380316 223.05816456 107.80702193 223.71777439 112.38031673 C225.88076276 116.78640416 228.11457918 119.57906643 232.71777439 121.38031673 C237.76102823 122.06457731 241.54854323 121.95430294 246.15527439 119.69281673 C249.51433451 116.6614698 251.4113307 114.63892025 252.03418064 110.04828548 C252.29991091 104.33079864 251.68624591 100.7778122 247.71777439 96.38031673 C243.88064243 92.99461207 240.08375977 92.86740501 235.15527439 93.02875423 C230.49251294 93.70126791 227.86587147 96.07914005 224.84277439 99.50531673 Z M205.65527439 152.06781673 C199.93038613 156.79526529 194.14012901 161.40277287 188.21777439 165.88031673 C182.63065219 170.11286922 177.13648102 174.43419847 171.71777439 178.88031673 C165.604744 183.89613654 159.37532025 188.72997233 153.07324314 193.50531673 C147.53834293 197.71467412 142.13914742 202.07046866 136.76587009 206.48334408 C131.0206428 211.18197402 125.14215553 215.69350502 119.21191502 220.15570736 C118.19967869 220.92044369 118.19967869 220.92044369 117.16699314 221.70062923 C116.5723325 222.14680599 115.97767185 222.59298275 115.36499119 223.05268002 C113.41655935 224.57471919 113.41655935 224.57471919 110.71777439 227.38031673 C111.37777439 232.33031673 112.03777439 237.28031673 112.71777439 242.38031673 C195.21777439 242.38031673 277.71777439 242.38031673 362.71777439 242.38031673 C363.37777439 237.43031673 364.03777439 232.48031673 364.71777439 227.38031673 C361.96060569 223.93385586 360.31956554 222.6507868 356.71777439 220.38031673 C355.07311313 219.12983048 353.46462665 217.83994015 351.85449314 216.5453558 C350.05893829 215.10313906 348.2468699 213.68453076 346.42871189 212.27094173 C342.84974484 209.48500929 339.28252041 206.68440989 335.71777439 203.88031673 C334.55116425 202.96357813 333.38449749 202.04691157 332.21777439 201.13031673 C329.88444106 199.2969834 327.55110772 197.46365007 325.21777439 195.63031673 C324.64035496 195.1766473 324.06293552 194.72297787 323.46801853 194.25556087 C322.30047029 193.33816665 321.1329899 192.42068607 319.96557713 191.50311947 C317.06294649 189.22187429 314.15918165 186.9421046 311.25293064 184.66547298 C305.90000276 180.46967006 300.55973738 176.26071225 295.26025486 171.99750423 C288.42854104 166.50192186 281.51821616 161.12363466 274.52710056 155.83197689 C273.85654636 155.3232806 273.18599216 154.81458431 272.49511814 154.29047298 C271.53097996 153.56380428 271.53097996 153.56380428 270.54736423 152.82245541 C268.78421303 151.4326857 267.15561667 149.95270785 265.50293064 148.43500423 C262.97950057 146.12420252 262.97950057 146.12420252 260.37402439 146.47797298 C259.66246189 146.79637142 258.95089939 147.11476986 258.21777439 147.44281673 C257.50621189 147.7431683 256.79464939 148.04351986 256.06152439 148.35297298 C255.28808689 148.69199642 254.51464939 149.03101986 253.71777439 149.38031673 C248.48082638 151.51473514 243.73628874 151.80092696 238.15527439 151.81781673 C237.27500584 151.82168392 236.39473728 151.82555111 235.48779392 151.82953548 C227.62992081 151.69170325 221.83268754 149.71171419 214.71777439 146.38031673 C211.06391085 146.38031673 208.36847679 149.79653746 205.65527439 152.06781673 Z M63.71777439 238.38031673 C62.74671735 241.33160628 62.57254921 244.09470417 62.50683689 247.18891048 C62.46429783 248.55692806 62.46429783 248.55692806 62.42089939 249.95258236 C62.36892787 251.85863795 62.32462323 253.76491843 62.28808689 255.67133236 C61.98406241 264.64638836 61.98406241 264.64638836 58.71777439 268.38031673 C45.23515425 276.46988882 27.43662145 272.00605847 11.71777439 272.38031673 C11.71777439 341.68031673 11.71777439 410.98031673 11.71777439 482.38031673 C160.87777439 482.38031673 310.03777439 482.38031673 463.71777439 482.38031673 C463.71777439 413.08031673 463.71777439 343.78031673 463.71777439 272.38031673 C449.85777439 272.05031673 435.99777439 271.72031673 421.71777439 271.38031673 C415.46689843 267.62979116 415.46689843 267.62979116 413.71777439 263.38031673 C413.29904283 259.9242859 413.25159418 256.4839236 413.21777439 253.00531673 C413.1532058 246.41932062 412.97916069 241.21081394 409.71777439 235.38031673 C406.04095344 232.92910277 402.98856477 232.55612912 398.71777439 233.38031673 C395.19497223 236.07863328 393.4972414 238.06254489 392.71777439 242.38031673 C392.60813349 243.9809721 392.54090232 245.58486614 392.50683689 247.18891048 C392.47847752 248.1009222 392.45011814 249.01293392 392.42089939 249.95258236 C392.36892787 251.85863795 392.32462323 253.76491843 392.28808689 255.67133236 C391.98406241 264.64638836 391.98406241 264.64638836 388.71777439 268.38031673 C383.82136815 272.54942867 378.14791689 271.79767488 372.06469822 271.76126766 C370.87155663 271.76594763 369.67841505 271.77062761 368.44911766 271.7754494 C365.14062736 271.78534654 361.83264781 271.78178275 358.52418852 271.77249074 C354.9549407 271.76570648 351.38573769 271.77617838 347.81649876 271.7844305 C340.82570631 271.79777671 333.83501044 271.79488617 326.8442142 271.78619258 C321.163113 271.77941993 315.48203887 271.7784975 309.80093479 271.78176403 C308.99265037 271.78222373 308.18436596 271.78268343 307.35158807 271.78315706 C305.70962039 271.78411623 304.06765271 271.78508886 302.42568505 271.78607483 C287.02566179 271.79463132 271.62569209 271.78479053 256.22567761 271.76867373 C243.00914919 271.75527031 229.79269982 271.75759833 216.57617283 271.77143002 C201.23159801 271.78748126 185.88707014 271.79380733 170.5424881 271.78459322 C168.90653007 271.78363757 167.27057203 271.78269446 165.63461399 271.78176403 C164.82967229 271.7813012 164.02473059 271.78083838 163.19539672 271.78036153 C157.5205223 271.77777027 151.84567765 271.78214556 146.17080784 271.78920269 C139.25587935 271.79761283 132.34105303 271.79534784 125.42613626 271.77936046 C121.89741056 271.77147113 118.36885528 271.76839728 114.84013081 271.77830791 C111.01694082 271.78888326 107.19403047 271.77626368 103.37085056 271.76126766 C102.25266847 271.76795983 101.13448637 271.77465199 99.98241997 271.78154695 C90.62763577 271.7100791 90.62763577 271.7100791 86.71777439 268.38031673 C82.76996213 263.8611106 83.2731489 258.70098026 83.21777439 253.00531673 C83.1532058 246.41932062 82.97916069 241.21081394 79.71777439 235.38031673 C73.36435241 231.14470208 68.12935938 232.49820342 63.71777439 238.38031673 Z " fill="#000000" transform="translate(18.282225608825684,-0.38031673431396484)"/>
<path d="M0 0 C4.61826252 2.18759804 6.71711816 4.50087427 9 9 C9.38031673 11.65997219 9.38031673 11.65997219 9.38768005 14.5721283 C9.39758469 15.68099899 9.40748932 16.78986969 9.41769409 17.93234253 C9.41094162 19.74268478 9.41094162 19.74268478 9.40405273 21.58959961 C9.41091599 22.8681633 9.41777924 24.14672699 9.42485046 25.46403503 C9.44277249 28.9641031 9.44161536 32.46392034 9.43590808 35.96402049 C9.43281472 38.88895548 9.43891032 41.8138424 9.44494683 44.73877054 C9.45898737 51.64058508 9.45743481 58.54227583 9.44604492 65.4440918 C9.43456465 72.55774924 9.44863861 79.67102963 9.4754414 86.78463739 C9.49761285 92.89860877 9.50423253 99.01246191 9.49836498 105.12647063 C9.49499755 108.77526699 9.49739592 112.42382169 9.51461601 116.07258415 C9.532985 120.14230017 9.51888337 124.21128466 9.50170898 128.28100586 C9.51137695 129.48587646 9.52104492 130.69074707 9.53100586 131.93212891 C9.47522843 138.23743418 9.33117404 142.25312864 5 147 C-0.22259857 151.05630398 -5.65340142 150.77397544 -12 150 C-16.61826252 147.81240196 -18.71711816 145.49912573 -21 141 C-21.38031673 138.34002781 -21.38031673 138.34002781 -21.38768005 135.4278717 C-21.39758469 134.31900101 -21.40748932 133.21013031 -21.41769409 132.06765747 C-21.41319244 130.86076263 -21.4086908 129.6538678 -21.40405273 128.41040039 C-21.41091599 127.1318367 -21.41777924 125.85327301 -21.42485046 124.53596497 C-21.44277249 121.0358969 -21.44161536 117.53607966 -21.43590808 114.03597951 C-21.43281472 111.11104452 -21.43891032 108.1861576 -21.44494683 105.26122946 C-21.45898737 98.35941492 -21.45743481 91.45772417 -21.44604492 84.5559082 C-21.43456465 77.44225076 -21.44863861 70.32897037 -21.4754414 63.21536261 C-21.49761285 57.10139123 -21.50423253 50.98753809 -21.49836498 44.87352937 C-21.49499755 41.22473301 -21.49739592 37.57617831 -21.51461601 33.92741585 C-21.532985 29.85769983 -21.51888337 25.78871534 -21.50170898 21.71899414 C-21.51137695 20.51412354 -21.52104492 19.30925293 -21.53100586 18.06787109 C-21.47522843 11.76256582 -21.33117404 7.74687136 -17 3 C-11.77740143 -1.05630398 -6.34659858 -0.77397544 0 0 Z " fill="#000000" transform="translate(442,302)"/>
<path d="M0 0 C4.61826252 2.18759804 6.71711816 4.50087427 9 9 C9.38031673 11.65997219 9.38031673 11.65997219 9.38768005 14.5721283 C9.39758469 15.68099899 9.40748932 16.78986969 9.41769409 17.93234253 C9.41094162 19.74268478 9.41094162 19.74268478 9.40405273 21.58959961 C9.41091599 22.8681633 9.41777924 24.14672699 9.42485046 25.46403503 C9.44277249 28.9641031 9.44161536 32.46392034 9.43590808 35.96402049 C9.43281472 38.88895548 9.43891032 41.8138424 9.44494683 44.73877054 C9.45898737 51.64058508 9.45743481 58.54227583 9.44604492 65.4440918 C9.43456465 72.55774924 9.44863861 79.67102963 9.4754414 86.78463739 C9.49761285 92.89860877 9.50423253 99.01246191 9.49836498 105.12647063 C9.49499755 108.77526699 9.49739592 112.42382169 9.51461601 116.07258415 C9.532985 120.14230017 9.51888337 124.21128466 9.50170898 128.28100586 C9.51137695 129.48587646 9.52104492 130.69074707 9.53100586 131.93212891 C9.47522843 138.23743418 9.33117404 142.25312864 5 147 C-0.22259857 151.05630398 -5.65340142 150.77397544 -12 150 C-16.61826252 147.81240196 -18.71711816 145.49912573 -21 141 C-21.38031673 138.34002781 -21.38031673 138.34002781 -21.38768005 135.4278717 C-21.39758469 134.31900101 -21.40748932 133.21013031 -21.41769409 132.06765747 C-21.41319244 130.86076263 -21.4086908 129.6538678 -21.40405273 128.41040039 C-21.41091599 127.1318367 -21.41777924 125.85327301 -21.42485046 124.53596497 C-21.44277249 121.0358969 -21.44161536 117.53607966 -21.43590808 114.03597951 C-21.43281472 111.11104452 -21.43891032 108.1861576 -21.44494683 105.26122946 C-21.45898737 98.35941492 -21.45743481 91.45772417 -21.44604492 84.5559082 C-21.43456465 77.44225076 -21.44863861 70.32897037 -21.4754414 63.21536261 C-21.49761285 57.10139123 -21.50423253 50.98753809 -21.49836498 44.87352937 C-21.49499755 41.22473301 -21.49739592 37.57617831 -21.51461601 33.92741585 C-21.532985 29.85769983 -21.51888337 25.78871534 -21.50170898 21.71899414 C-21.51137695 20.51412354 -21.52104492 19.30925293 -21.53100586 18.06787109 C-21.47522843 11.76256582 -21.33117404 7.74687136 -17 3 C-11.77740143 -1.05630398 -6.34659858 -0.77397544 0 0 Z " fill="#000000" transform="translate(382,302)"/>
<path d="M0 0 C4.61826252 2.18759804 6.71711816 4.50087427 9 9 C9.38031673 11.65997219 9.38031673 11.65997219 9.38768005 14.5721283 C9.39758469 15.68099899 9.40748932 16.78986969 9.41769409 17.93234253 C9.41094162 19.74268478 9.41094162 19.74268478 9.40405273 21.58959961 C9.41091599 22.8681633 9.41777924 24.14672699 9.42485046 25.46403503 C9.44277249 28.9641031 9.44161536 32.46392034 9.43590808 35.96402049 C9.43281472 38.88895548 9.43891032 41.8138424 9.44494683 44.73877054 C9.45898737 51.64058508 9.45743481 58.54227583 9.44604492 65.4440918 C9.43456465 72.55774924 9.44863861 79.67102963 9.4754414 86.78463739 C9.49761285 92.89860877 9.50423253 99.01246191 9.49836498 105.12647063 C9.49499755 108.77526699 9.49739592 112.42382169 9.51461601 116.07258415 C9.532985 120.14230017 9.51888337 124.21128466 9.50170898 128.28100586 C9.51137695 129.48587646 9.52104492 130.69074707 9.53100586 131.93212891 C9.47522843 138.23743418 9.33117404 142.25312864 5 147 C-0.22259857 151.05630398 -5.65340142 150.77397544 -12 150 C-16.61826252 147.81240196 -18.71711816 145.49912573 -21 141 C-21.38031673 138.34002781 -21.38031673 138.34002781 -21.38768005 135.4278717 C-21.39758469 134.31900101 -21.40748932 133.21013031 -21.41769409 132.06765747 C-21.41319244 130.86076263 -21.4086908 129.6538678 -21.40405273 128.41040039 C-21.41091599 127.1318367 -21.41777924 125.85327301 -21.42485046 124.53596497 C-21.44277249 121.0358969 -21.44161536 117.53607966 -21.43590808 114.03597951 C-21.43281472 111.11104452 -21.43891032 108.1861576 -21.44494683 105.26122946 C-21.45898737 98.35941492 -21.45743481 91.45772417 -21.44604492 84.5559082 C-21.43456465 77.44225076 -21.44863861 70.32897037 -21.4754414 63.21536261 C-21.49761285 57.10139123 -21.50423253 50.98753809 -21.49836498 44.87352937 C-21.49499755 41.22473301 -21.49739592 37.57617831 -21.51461601 33.92741585 C-21.532985 29.85769983 -21.51888337 25.78871534 -21.50170898 21.71899414 C-21.51137695 20.51412354 -21.52104492 19.30925293 -21.53100586 18.06787109 C-21.47522843 11.76256582 -21.33117404 7.74687136 -17 3 C-11.77740143 -1.05630398 -6.34659858 -0.77397544 0 0 Z " fill="#000000" transform="translate(322,302)"/>
<path d="M0 0 C4.61826252 2.18759804 6.71711816 4.50087427 9 9 C9.38031673 11.65997219 9.38031673 11.65997219 9.38768005 14.5721283 C9.39758469 15.68099899 9.40748932 16.78986969 9.41769409 17.93234253 C9.41094162 19.74268478 9.41094162 19.74268478 9.40405273 21.58959961 C9.41091599 22.8681633 9.41777924 24.14672699 9.42485046 25.46403503 C9.44277249 28.9641031 9.44161536 32.46392034 9.43590808 35.96402049 C9.43281472 38.88895548 9.43891032 41.8138424 9.44494683 44.73877054 C9.45898737 51.64058508 9.45743481 58.54227583 9.44604492 65.4440918 C9.43456465 72.55774924 9.44863861 79.67102963 9.4754414 86.78463739 C9.49761285 92.89860877 9.50423253 99.01246191 9.49836498 105.12647063 C9.49499755 108.77526699 9.49739592 112.42382169 9.51461601 116.07258415 C9.532985 120.14230017 9.51888337 124.21128466 9.50170898 128.28100586 C9.51137695 129.48587646 9.52104492 130.69074707 9.53100586 131.93212891 C9.47522843 138.23743418 9.33117404 142.25312864 5 147 C-0.22259857 151.05630398 -5.65340142 150.77397544 -12 150 C-16.61826252 147.81240196 -18.71711816 145.49912573 -21 141 C-21.38031673 138.34002781 -21.38031673 138.34002781 -21.38768005 135.4278717 C-21.39758469 134.31900101 -21.40748932 133.21013031 -21.41769409 132.06765747 C-21.41319244 130.86076263 -21.4086908 129.6538678 -21.40405273 128.41040039 C-21.41091599 127.1318367 -21.41777924 125.85327301 -21.42485046 124.53596497 C-21.44277249 121.0358969 -21.44161536 117.53607966 -21.43590808 114.03597951 C-21.43281472 111.11104452 -21.43891032 108.1861576 -21.44494683 105.26122946 C-21.45898737 98.35941492 -21.45743481 91.45772417 -21.44604492 84.5559082 C-21.43456465 77.44225076 -21.44863861 70.32897037 -21.4754414 63.21536261 C-21.49761285 57.10139123 -21.50423253 50.98753809 -21.49836498 44.87352937 C-21.49499755 41.22473301 -21.49739592 37.57617831 -21.51461601 33.92741585 C-21.532985 29.85769983 -21.51888337 25.78871534 -21.50170898 21.71899414 C-21.51137695 20.51412354 -21.52104492 19.30925293 -21.53100586 18.06787109 C-21.47522843 11.76256582 -21.33117404 7.74687136 -17 3 C-11.77740143 -1.05630398 -6.34659858 -0.77397544 0 0 Z " fill="#000000" transform="translate(262,302)"/>
<path d="M0 0 C4.61826252 2.18759804 6.71711816 4.50087427 9 9 C9.38031673 11.65997219 9.38031673 11.65997219 9.38768005 14.5721283 C9.39758469 15.68099899 9.40748932 16.78986969 9.41769409 17.93234253 C9.41094162 19.74268478 9.41094162 19.74268478 9.40405273 21.58959961 C9.41091599 22.8681633 9.41777924 24.14672699 9.42485046 25.46403503 C9.44277249 28.9641031 9.44161536 32.46392034 9.43590808 35.96402049 C9.43281472 38.88895548 9.43891032 41.8138424 9.44494683 44.73877054 C9.45898737 51.64058508 9.45743481 58.54227583 9.44604492 65.4440918 C9.43456465 72.55774924 9.44863861 79.67102963 9.4754414 86.78463739 C9.49761285 92.89860877 9.50423253 99.01246191 9.49836498 105.12647063 C9.49499755 108.77526699 9.49739592 112.42382169 9.51461601 116.07258415 C9.532985 120.14230017 9.51888337 124.21128466 9.50170898 128.28100586 C9.51137695 129.48587646 9.52104492 130.69074707 9.53100586 131.93212891 C9.47522843 138.23743418 9.33117404 142.25312864 5 147 C-0.22259857 151.05630398 -5.65340142 150.77397544 -12 150 C-16.61826252 147.81240196 -18.71711816 145.49912573 -21 141 C-21.38031673 138.34002781 -21.38031673 138.34002781 -21.38768005 135.4278717 C-21.39758469 134.31900101 -21.40748932 133.21013031 -21.41769409 132.06765747 C-21.41319244 130.86076263 -21.4086908 129.6538678 -21.40405273 128.41040039 C-21.41091599 127.1318367 -21.41777924 125.85327301 -21.42485046 124.53596497 C-21.44277249 121.0358969 -21.44161536 117.53607966 -21.43590808 114.03597951 C-21.43281472 111.11104452 -21.43891032 108.1861576 -21.44494683 105.26122946 C-21.45898737 98.35941492 -21.45743481 91.45772417 -21.44604492 84.5559082 C-21.43456465 77.44225076 -21.44863861 70.32897037 -21.4754414 63.21536261 C-21.49761285 57.10139123 -21.50423253 50.98753809 -21.49836498 44.87352937 C-21.49499755 41.22473301 -21.49739592 37.57617831 -21.51461601 33.92741585 C-21.532985 29.85769983 -21.51888337 25.78871534 -21.50170898 21.71899414 C-21.51137695 20.51412354 -21.52104492 19.30925293 -21.53100586 18.06787109 C-21.47522843 11.76256582 -21.33117404 7.74687136 -17 3 C-11.77740143 -1.05630398 -6.34659858 -0.77397544 0 0 Z " fill="#000000" transform="translate(202,302)"/>
<path d="M0 0 C4.61826252 2.18759804 6.71711816 4.50087427 9 9 C9.38031673 11.65997219 9.38031673 11.65997219 9.38768005 14.5721283 C9.39758469 15.68099899 9.40748932 16.78986969 9.41769409 17.93234253 C9.41094162 19.74268478 9.41094162 19.74268478 9.40405273 21.58959961 C9.41091599 22.8681633 9.41777924 24.14672699 9.42485046 25.46403503 C9.44277249 28.9641031 9.44161536 32.46392034 9.43590808 35.96402049 C9.43281472 38.88895548 9.43891032 41.8138424 9.44494683 44.73877054 C9.45898737 51.64058508 9.45743481 58.54227583 9.44604492 65.4440918 C9.43456465 72.55774924 9.44863861 79.67102963 9.4754414 86.78463739 C9.49761285 92.89860877 9.50423253 99.01246191 9.49836498 105.12647063 C9.49499755 108.77526699 9.49739592 112.42382169 9.51461601 116.07258415 C9.532985 120.14230017 9.51888337 124.21128466 9.50170898 128.28100586 C9.51137695 129.48587646 9.52104492 130.69074707 9.53100586 131.93212891 C9.47522843 138.23743418 9.33117404 142.25312864 5 147 C-0.22259857 151.05630398 -5.65340142 150.77397544 -12 150 C-16.61826252 147.81240196 -18.71711816 145.49912573 -21 141 C-21.38031673 138.34002781 -21.38031673 138.34002781 -21.38768005 135.4278717 C-21.39758469 134.31900101 -21.40748932 133.21013031 -21.41769409 132.06765747 C-21.41319244 130.86076263 -21.4086908 129.6538678 -21.40405273 128.41040039 C-21.41091599 127.1318367 -21.41777924 125.85327301 -21.42485046 124.53596497 C-21.44277249 121.0358969 -21.44161536 117.53607966 -21.43590808 114.03597951 C-21.43281472 111.11104452 -21.43891032 108.1861576 -21.44494683 105.26122946 C-21.45898737 98.35941492 -21.45743481 91.45772417 -21.44604492 84.5559082 C-21.43456465 77.44225076 -21.44863861 70.32897037 -21.4754414 63.21536261 C-21.49761285 57.10139123 -21.50423253 50.98753809 -21.49836498 44.87352937 C-21.49499755 41.22473301 -21.49739592 37.57617831 -21.51461601 33.92741585 C-21.532985 29.85769983 -21.51888337 25.78871534 -21.50170898 21.71899414 C-21.51137695 20.51412354 -21.52104492 19.30925293 -21.53100586 18.06787109 C-21.47522843 11.76256582 -21.33117404 7.74687136 -17 3 C-11.77740143 -1.05630398 -6.34659858 -0.77397544 0 0 Z " fill="#000000" transform="translate(142,302)"/>
<path d="M0 0 C4.61826252 2.18759804 6.71711816 4.50087427 9 9 C9.38031673 11.65997219 9.38031673 11.65997219 9.38768005 14.5721283 C9.39758469 15.68099899 9.40748932 16.78986969 9.41769409 17.93234253 C9.41094162 19.74268478 9.41094162 19.74268478 9.40405273 21.58959961 C9.41091599 22.8681633 9.41777924 24.14672699 9.42485046 25.46403503 C9.44277249 28.9641031 9.44161536 32.46392034 9.43590808 35.96402049 C9.43281472 38.88895548 9.43891032 41.8138424 9.44494683 44.73877054 C9.45898737 51.64058508 9.45743481 58.54227583 9.44604492 65.4440918 C9.43456465 72.55774924 9.44863861 79.67102963 9.4754414 86.78463739 C9.49761285 92.89860877 9.50423253 99.01246191 9.49836498 105.12647063 C9.49499755 108.77526699 9.49739592 112.42382169 9.51461601 116.07258415 C9.532985 120.14230017 9.51888337 124.21128466 9.50170898 128.28100586 C9.51137695 129.48587646 9.52104492 130.69074707 9.53100586 131.93212891 C9.47522843 138.23743418 9.33117404 142.25312864 5 147 C-0.22259857 151.05630398 -5.65340142 150.77397544 -12 150 C-16.61826252 147.81240196 -18.71711816 145.49912573 -21 141 C-21.38031673 138.34002781 -21.38031673 138.34002781 -21.38768005 135.4278717 C-21.39758469 134.31900101 -21.40748932 133.21013031 -21.41769409 132.06765747 C-21.41319244 130.86076263 -21.4086908 129.6538678 -21.40405273 128.41040039 C-21.41091599 127.1318367 -21.41777924 125.85327301 -21.42485046 124.53596497 C-21.44277249 121.0358969 -21.44161536 117.53607966 -21.43590808 114.03597951 C-21.43281472 111.11104452 -21.43891032 108.1861576 -21.44494683 105.26122946 C-21.45898737 98.35941492 -21.45743481 91.45772417 -21.44604492 84.5559082 C-21.43456465 77.44225076 -21.44863861 70.32897037 -21.4754414 63.21536261 C-21.49761285 57.10139123 -21.50423253 50.98753809 -21.49836498 44.87352937 C-21.49499755 41.22473301 -21.49739592 37.57617831 -21.51461601 33.92741585 C-21.532985 29.85769983 -21.51888337 25.78871534 -21.50170898 21.71899414 C-21.51137695 20.51412354 -21.52104492 19.30925293 -21.53100586 18.06787109 C-21.47522843 11.76256582 -21.33117404 7.74687136 -17 3 C-11.77740143 -1.05630398 -6.34659858 -0.77397544 0 0 Z " fill="#000000" transform="translate(82,302)"/>
</svg>
