<?xml version="1.0" encoding="UTF-8"?>
<svg version="1.1" xmlns="http://www.w3.org/2000/svg" width="512" height="512">
<path d="M0 0 C0.85183483 -0.0072672 1.70366966 -0.01453441 2.58131766 -0.02202183 C5.44942188 -0.04033911 8.31620012 -0.02288532 11.18429565 -0.00571251 C13.25570423 -0.01147103 15.3271077 -0.01941033 17.39850044 -0.02934873 C23.10127895 -0.05028209 28.80364079 -0.03987726 34.50642109 -0.02441764 C40.65239137 -0.01313464 46.7982885 -0.03055168 52.94424438 -0.04431725 C64.29180969 -0.06529882 75.63920457 -0.06343387 86.98676568 -0.0497599 C97.46914755 -0.03719025 107.95148055 -0.03389481 118.43386841 -0.03987312 C119.47618355 -0.04044601 119.47618355 -0.04044601 120.53955556 -0.04103047 C123.36017036 -0.04258712 126.18078514 -0.04417912 129.00139988 -0.04582929 C155.46982959 -0.06112996 181.93817437 -0.04724803 208.40659097 -0.02034481 C231.93068256 0.00338388 255.45463884 0.00126077 278.97872925 -0.02264977 C305.39823166 -0.04941341 331.817659 -0.06004492 358.23717308 -0.04458845 C361.05269748 -0.04298482 363.8682219 -0.04142062 366.68374634 -0.03987312 C367.72365422 -0.03928004 367.72365422 -0.03928004 368.78457035 -0.03867498 C379.26127751 -0.03298367 389.73793047 -0.03964632 400.21463013 -0.05227089 C412.125176 -0.06655156 424.03556201 -0.06254412 435.94610167 -0.03586717 C442.02669824 -0.02269827 448.10701971 -0.01762909 454.18761444 -0.03411293 C459.74900746 -0.0489616 465.30986917 -0.04090813 470.87121367 -0.01422517 C472.88795816 -0.00861862 474.90474712 -0.01152896 476.92146325 -0.02360411 C479.65416015 -0.0387169 482.38501551 -0.02331245 485.11761475 0 C485.90843185 -0.01170583 486.69924896 -0.02341166 487.51403022 -0.03547221 C491.49392335 0.03281645 493.36155822 0.47669802 496.54705656 2.93963873 C499.18835013 6.47085935 499.25730703 9.39284753 499.19372559 13.63775063 C499.20152554 14.43887118 499.20932549 15.23999174 499.21736181 16.06538868 C499.23729068 18.74728639 499.22151442 21.42776646 499.20578003 24.10967445 C499.21255577 26.03331773 499.22145866 27.95695451 499.23233032 29.88057899 C499.25513532 35.10375416 499.24628225 40.32643582 499.23043489 45.54961967 C499.2177822 51.01390609 499.22951426 56.47815006 499.23736572 61.94243813 C499.2464641 71.11902903 499.23446934 80.29541877 499.21066284 89.47197914 C499.1834513 100.08365149 499.19226532 110.69484354 499.21979487 121.30650425 C499.24247948 130.41492991 499.24568916 139.52321091 499.23260152 148.63165569 C499.22480349 154.07284418 499.22377522 159.51380684 499.24028397 164.95498085 C499.25471994 170.07036655 499.24472271 175.18513258 499.21581268 180.30045128 C499.20919724 182.17858666 499.21110736 184.05677413 499.22212601 185.93488884 C499.23577529 188.49751847 499.21867489 191.05815825 499.19372559 193.62066078 C499.20487919 194.36531184 499.2160328 195.1099629 499.2275244 195.87717915 C499.1527611 199.83140175 498.68277373 201.47790681 496.14162254 204.57933998 C492.05565407 207.82219174 489.02933422 207.75404893 483.91818237 207.72686195 C482.8482605 207.7236393 481.77833862 207.72041664 480.67599487 207.71709633 C479.564823 207.70871742 478.45365112 207.70033852 477.30880737 207.6917057 C475.61884644 207.68493813 475.61884644 207.68493813 473.89474487 207.67803383 C471.1160452 207.66625968 468.33745328 207.6498141 465.55880737 207.6292057 C465.58499146 208.54210365 465.61117554 209.4550016 465.63815308 210.39556313 C465.72359279 213.79692915 465.78615736 217.19714828 465.83346558 220.59917641 C465.85854381 222.06876096 465.89261593 223.53822158 465.93600464 225.00737953 C465.99696236 227.12512252 466.02508053 229.24121147 466.04708862 231.35967445 C466.07327271 232.63222084 466.09945679 233.90476723 466.12643433 235.21587563 C465.55880737 238.6292057 465.55880737 238.6292057 463.8107605 241.55303383 C458.74778157 244.78543419 453.91935757 244.24638371 448.03927612 244.11748695 C446.82556839 244.11041222 445.61186066 244.10333748 444.3613739 244.09604836 C440.48905525 244.0680846 436.61818821 244.00533661 432.74630737 243.9417057 C430.11937514 243.91662566 427.49242023 243.89381199 424.865448 243.87334633 C418.4288935 243.82250467 411.99547298 243.72464226 405.55880737 243.6292057 C405.55880737 253.5292057 405.55880737 263.4292057 405.55880737 273.6292057 C409.4806189 273.61349525 409.4806189 273.61349525 413.48165894 273.59746742 C422.11500045 273.56434474 430.74834475 273.54224283 439.38173294 273.52558136 C444.61673592 273.5151391 449.85167386 273.50097176 455.0866394 273.4783268 C460.13758739 273.45661429 465.18847276 273.44464041 470.23946381 273.43945122 C472.16759985 273.43575261 474.09573243 273.42853026 476.02384186 273.41774559 C478.72209611 273.40325189 481.42009084 273.40122688 484.11837769 273.40215492 C484.91751083 273.39496437 485.71664398 273.38777382 486.53999329 273.38036537 C493.53247677 273.40643161 493.53247677 273.40643161 496.55880737 275.6292057 C499.22654344 279.6308098 499.2735955 282.92351718 498.55880737 287.6292057 C496.68260124 290.13081388 495.31989434 291.24866222 492.55880737 292.6292057 C489.8700547 292.72872865 487.2071021 292.76661507 484.51799297 292.76063347 C483.67299642 292.7626861 482.82799988 292.76473874 481.95739737 292.76685357 C479.09492075 292.77255719 476.23249172 292.7710622 473.37001038 292.7696476 C471.30944698 292.77222931 469.24888408 292.77524192 467.18832189 292.778651 C461.50170425 292.78674704 455.81509922 292.78851201 450.1284765 292.78924847 C444.00497431 292.7910945 437.88147873 292.79863953 431.75798035 292.80538368 C417.65820159 292.81969552 403.55842697 292.82549587 389.45864269 292.83007563 C382.49436007 292.83240992 375.53007828 292.83601238 368.5657963 292.839771 C344.73649562 292.85260763 320.90719541 292.86332694 297.07789135 292.86677361 C295.58144936 292.86699524 294.08500736 292.86721702 292.58856537 292.86743896 C291.08846386 292.8676596 289.58836234 292.86788008 288.08826083 292.8681004 C285.07868715 292.86854296 282.06911347 292.86899008 279.05953979 292.86944008 C277.94023713 292.86960417 277.94023713 292.86960417 276.79832228 292.86977157 C252.59571876 292.87340323 228.39314518 292.88932685 204.19055312 292.91263044 C178.61516268 292.93721092 153.03978936 292.95094561 127.46438676 292.95214152 C124.65836449 292.95231298 121.85234223 292.95252841 119.04631996 292.95277596 C118.00990227 292.95285961 118.00990227 292.95285961 116.95254686 292.95294495 C105.81980866 292.95409693 94.68710112 292.96513138 83.55437328 292.97966301 C72.37037006 292.99400944 61.18640571 292.99702241 50.00239225 292.98922303 C43.94009758 292.98530399 37.87790632 292.98630707 31.81562424 293.00028038 C26.27089778 293.0129443 20.72635324 293.0118883 15.18162731 292.99968967 C13.17084256 292.99771957 11.16004524 293.00087102 9.14927819 293.00953403 C6.42500994 293.02053215 3.70139446 293.01320605 0.9771452 293.0011425 C0.18867924 293.0087377 -0.59978672 293.01633289 -1.41214558 293.02415824 C-5.92266621 292.98076577 -8.86285274 292.44385403 -12.44119263 289.6292057 C-14.16490036 286.18179023 -13.94425934 282.39885231 -13.44119263 278.6292057 C-11.56498649 276.12759753 -10.20227959 275.00974919 -7.44119263 273.6292057 C-4.8149213 273.54253316 -2.2155678 273.51360435 0.41036987 273.53154945 C1.18440155 273.5329644 1.95843323 273.53437935 2.75592041 273.53583717 C5.23192179 273.54144167 7.70783325 273.55399487 10.18380737 273.5667057 C11.8608894 273.57172013 13.53797285 273.57628313 15.21505737 273.58037758 C19.32967543 273.59141255 23.44422615 273.60868016 27.55880737 273.6292057 C26.84216919 272.53164955 26.84216919 272.53164955 26.11105347 271.41192055 C25.48279663 270.43948402 24.85453979 269.4670475 24.20724487 268.4651432 C23.58511108 267.5065641 22.96297729 266.547985 22.32199097 265.56035805 C16.98648556 256.6905051 15.3917955 248.50259396 15.49630737 238.3167057 C15.50081909 237.48074867 15.50533081 236.64479164 15.50997925 235.78350258 C15.5217019 233.73203921 15.53963534 231.68061297 15.55880737 229.6292057 C14.59841553 229.65277138 14.59841553 229.65277138 13.61862183 229.67681313 C10.70294106 229.73937685 7.78740182 229.77826378 4.87130737 229.8167057 C3.86390503 229.84184242 2.85650269 229.86697914 1.818573 229.89287758 C-7.45201395 229.98466557 -7.45201395 229.98466557 -11.44119263 226.6292057 C-14.04512021 224.02527812 -13.68984823 222.20988211 -13.72266573 218.66244143 C-13.72025064 217.81956004 -13.71783556 216.97667864 -13.71534729 216.10825539 C-13.72058397 215.2157764 -13.72582065 214.32329741 -13.73121601 213.40377361 C-13.74629016 210.39513284 -13.74692279 207.38666103 -13.74758911 204.377985 C-13.75520566 202.22819161 -13.76363228 200.07840095 -13.77281189 197.92861366 C-13.79481465 192.07527206 -13.80356364 186.22198271 -13.80863833 180.36860442 C-13.81227536 176.71449137 -13.81851201 173.06039214 -13.82563972 169.40628433 C-13.85015514 156.66621356 -13.86319045 143.92618362 -13.86672974 131.18609047 C-13.87036573 119.29815271 -13.90026052 107.41047303 -13.94213432 95.52261418 C-13.97679145 85.32724196 -13.99227739 75.13195544 -13.99297577 64.93652469 C-13.9937702 58.84245289 -14.00258506 52.74864368 -14.03097343 46.65463257 C-14.05707522 40.92296298 -14.05940324 35.19177516 -14.04331779 29.46007347 C-14.04149697 27.35454893 -14.04825082 25.2489972 -14.06413651 23.1435318 C-14.08448258 20.27214785 -14.07411274 17.40246763 -14.05592346 14.53110695 C-14.06912343 13.69491772 -14.0823234 12.85872849 -14.09592336 11.99720019 C-14.08473472 11.22561472 -14.07354608 10.45402924 -14.06201839 9.65906239 C-14.06283285 8.99677511 -14.06364731 8.33448784 -14.06448644 7.65213126 C-11.91185471 0.66567698 -6.41945054 -0.09502197 0 0 Z M288.62130737 213.1292057 C287.21160257 215.26015483 285.85273372 217.42603381 284.55880737 219.6292057 C283.11108385 221.24026214 281.61487655 222.81003555 280.05880737 224.3167057 C279.45036987 224.93932289 278.84193237 225.56194008 278.21505737 226.20342445 C275.00910956 228.96326161 271.62625564 228.8073904 267.57833862 228.94561195 C266.41495972 228.98750648 265.25158081 229.02940102 264.052948 229.07256508 C262.83800659 229.11188148 261.62306519 229.15119789 260.37130737 229.1917057 C259.1447644 229.2348893 257.91822144 229.27807289 256.6545105 229.32256508 C253.62272356 229.42873661 250.59085423 229.53078523 247.55880737 229.6292057 C247.59361206 230.64498695 247.62841675 231.6607682 247.66427612 232.7073307 C248.03626325 248.1053431 244.99236595 261.05112759 235.55880737 273.6292057 C285.38880737 273.6292057 335.21880737 273.6292057 386.55880737 273.6292057 C386.55880737 263.7292057 386.55880737 253.8292057 386.55880737 243.6292057 C382.63490112 243.60342445 378.71099487 243.5776432 374.66818237 243.5510807 C370.87204786 243.51267949 367.07605005 243.4675128 363.27999878 243.42168617 C360.63976558 243.39344318 357.9994473 243.37224533 355.35910034 243.35820961 C351.56585017 243.33682714 347.77362659 243.29019779 343.98068237 243.2385807 C342.79826965 243.23735207 341.61585693 243.23612343 340.39761353 243.23485756 C339.29677429 243.21513893 338.19593506 243.1954203 337.06173706 243.17510414 C335.60945709 243.16178047 335.60945709 243.16178047 334.12783813 243.14818764 C330.81189436 242.47831831 329.61450815 241.27106181 327.55880737 238.6292057 C327.01290894 235.32940102 327.01290894 235.32940102 326.94943237 231.4573307 C326.93289612 230.7749131 326.91635986 230.0924955 326.89932251 229.38939857 C326.85090899 227.21924217 326.82948873 225.04978599 326.80880737 222.8792057 C326.78064176 221.40391018 326.75071348 219.92864719 326.71896362 218.45342445 C326.64515513 214.84550372 326.59553844 211.23771598 326.55880737 207.6292057 C305.81350308 204.88807075 305.81350308 204.88807075 288.62130737 213.1292057 Z M123.55880737 229.6292057 C123.62068237 231.8360807 123.68255737 234.0429557 123.74630737 236.3167057 C123.83962042 250.57649406 119.44902172 261.79388419 111.55880737 273.6292057 C125.08880737 273.6292057 138.61880737 273.6292057 152.55880737 273.6292057 C150.24880737 269.9992057 147.93880737 266.3692057 145.55880737 262.6292057 C142.12871105 254.14423059 140.46010656 246.88740119 139.99630737 237.8167057 C139.95312378 237.02844398 139.90994019 236.24018227 139.865448 235.42803383 C139.76002416 233.49526355 139.65897643 231.56225544 139.55880737 229.6292057 C134.27880737 229.6292057 128.99880737 229.6292057 123.55880737 229.6292057 Z " fill="#000000" transform="translate(13.441192626953125,92.37079429626465)"/>
<path d="M0 0 C157.08 0 314.16 0 476 0 C476 40.26 476 80.52 476 122 C455.53097656 122.03867187 455.53097656 122.03867187 434.6484375 122.078125 C426.01691262 122.10328357 417.38541021 122.12944514 408.75390625 122.16015625 C395.04573712 122.20874281 381.33764278 122.25316811 367.62939453 122.27099609 C357.64644818 122.28399805 347.66365343 122.31092552 337.68079245 122.35461307 C332.39435206 122.37726056 327.10809889 122.39290871 321.82160568 122.39188385 C316.84587005 122.39113919 311.87054879 122.40901216 306.89492035 122.44116783 C305.06881983 122.44968703 303.24267293 122.45140309 301.41656113 122.44580269 C298.92210972 122.43917156 296.42898017 122.45706099 293.93466187 122.48101807 C292.85195717 122.46937744 292.85195717 122.46937744 291.74737966 122.45750165 C283.75196897 122.59334217 279.29267771 127.43906784 274.03125 132.83203125 C271.39994964 135.64043836 268.85535941 138.51460442 266.34765625 141.43359375 C264.15406803 143.98324267 264.15406803 143.98324267 261.35131836 144.28808594 C258.22570861 144.46280541 255.10321773 144.59497785 251.97387695 144.6796875 C249.96828336 144.74893711 247.96521288 144.88180887 245.96289062 145.015625 C236.33865987 145.24858671 236.33865987 145.24858671 232.50366211 141.67163086 C230.4609375 138.76171875 230.4609375 138.76171875 228.64916992 135.73486328 C223.56139532 127.29766845 212.19517358 122.38026065 203 120 C187.85452942 116.9124936 173.23048925 118.97836478 160 127 C153.48723602 131.19170295 153.48723602 131.19170295 148.94921875 137.23413086 C147.54844142 140.076504 146.39431031 141.90059476 144 144 C139.21340259 145.1781462 134.68678044 145.25591822 129.77783203 145.1184082 C127.50216045 145.06255303 125.24050903 145.09753738 122.96484375 145.14257812 C112.50122485 145.15066277 112.50122485 145.15066277 108.74487305 142.27148438 C107.23044404 140.24380484 106.1380535 138.25347904 105 136 C97.02442347 126.31038469 84.41565808 120.07816877 71.95751953 118.78857422 C55.8406301 117.76312105 41.69549738 121.22856076 29.1875 131.875 C26.1892266 134.57605325 24.4750347 136.95044189 22.625 140.5 C19 144 19 144 0 144 C0 96.48 0 48.96 0 0 Z " fill="#00AA93" transform="translate(18,159)"/>
<path d="M0 0 C157.08 0 314.16 0 476 0 C476 9.9 476 19.8 476 30 C318.92 30 161.84 30 0 30 C0 20.1 0 10.2 0 0 Z " fill="#FCA520" transform="translate(18,111)"/>
<path d="M0 0 C0.68637421 -0.0072672 1.37274842 -0.01453441 2.07992184 -0.02202183 C4.38528377 -0.04030387 6.68898857 -0.02290383 8.99433899 -0.00571251 C10.66151882 -0.01147249 12.3286923 -0.01941278 13.99585247 -0.02934873 C18.58131071 -0.0502624 23.16625007 -0.03988646 27.75171041 -0.02441764 C32.69522245 -0.0131265 37.6386439 -0.03055571 42.58213806 -0.04431725 C52.26806993 -0.06657811 61.95380833 -0.06173577 71.63974786 -0.04725404 C79.51002611 -0.035973 87.38025005 -0.03442598 95.25053406 -0.03987312 C96.92922137 -0.04102237 96.92922137 -0.04102237 98.64182156 -0.04219484 C100.91513325 -0.04379342 103.18844493 -0.04541449 105.46175659 -0.04705779 C126.79053455 -0.06132364 148.11920515 -0.04490944 169.4479655 -0.01805596 C187.75848037 0.00428355 206.06883675 0.00040366 224.37934875 -0.02264977 C245.63056073 -0.04939299 266.88167855 -0.05995027 288.13290501 -0.04458845 C290.3979651 -0.04299566 292.66302521 -0.04142381 294.92808533 -0.03987312 C296.5998684 -0.03871606 296.5998684 -0.03871606 298.30542487 -0.03753562 C306.16841715 -0.03321418 314.03134983 -0.04051471 321.89433289 -0.05227089 C331.47361956 -0.066278 341.05270132 -0.0625336 350.63196445 -0.03586717 C355.52172677 -0.02270492 360.41114716 -0.01761757 365.30090714 -0.03411293 C369.77429826 -0.04897573 374.24702943 -0.04088535 378.7203604 -0.01422517 C380.34141308 -0.00862455 381.96252113 -0.01151596 383.58353841 -0.02360411 C385.78269806 -0.03874978 387.97957987 -0.02328303 390.17861938 0 C391.40126653 0.00081176 392.62391367 0.00162352 393.88361073 0.00245988 C398.02187862 0.81153214 399.51624655 2.35124646 402.08930969 5.6292057 C402.78082294 9.93195479 402.60488374 11.83865882 400.21430969 15.5042057 C396.69399007 19.02452533 394.46678077 18.75624762 389.57899761 18.76342678 C388.55969372 18.76695513 388.55969372 18.76695513 387.51979783 18.77055475 C385.22017336 18.77726419 382.92060514 18.77678595 380.62097168 18.77637672 C378.9646384 18.77967413 377.30830594 18.78339944 375.6519745 18.7875182 C371.08271238 18.79756019 366.5134634 18.80125852 361.94419181 18.80390751 C357.0231526 18.80780402 352.10212386 18.81738275 347.18109131 18.82612038 C335.28858569 18.84590253 323.39607919 18.85595287 311.50356123 18.86484817 C305.90806727 18.8692279 300.31257427 18.87459549 294.71708107 18.87983704 C276.12513392 18.8968505 257.53318737 18.911346 238.94123363 18.91858578 C234.11420885 18.92049578 229.28718407 18.9224161 224.4601593 18.92437172 C223.26037472 18.92485546 222.06059014 18.9253392 220.82444844 18.9258376 C201.37661243 18.93414284 181.92883782 18.95948758 162.48102864 18.9919524 C142.530571 19.02498579 122.58014461 19.04303114 102.62965947 19.04623002 C91.42159774 19.04839849 80.21362558 19.05719635 69.00559044 19.08269119 C59.46287515 19.10434737 49.92027119 19.11247372 40.37753411 19.10272441 C35.50604776 19.09816502 30.63479133 19.10016072 25.76333618 19.11948586 C21.30658727 19.13701368 16.85023777 19.13620492 12.39348523 19.12058856 C10.7783879 19.11819662 9.16326366 19.12261753 7.54820766 19.13441721 C5.35736341 19.14943634 3.16795279 19.13993506 0.9771452 19.12419033 C-0.85015156 19.12565554 -0.85015156 19.12565554 -2.7143634 19.12715036 C-6.53168685 18.53246281 -8.18153576 17.30978509 -10.91069031 14.6292057 C-12.48004625 11.49049383 -12.26270134 9.09064749 -11.91069031 5.6292057 C-8.26753585 0.94158423 -5.85828731 0.00388954 0 0 Z " fill="#000302" transform="translate(60.91069030761719,172.37079429626465)"/>
<path d="M0 0 C1.29871281 -0.00644889 2.59742561 -0.01289778 3.93549335 -0.0195421 C5.3852752 -0.01659953 6.83505666 -0.01346406 8.28483772 -0.01015663 C9.81829144 -0.01389092 11.35174326 -0.01849155 12.88519204 -0.02388728 C17.11016808 -0.03616013 21.3350652 -0.03585179 25.56005502 -0.03349853 C30.1123002 -0.03309144 34.6645197 -0.04411913 39.21675301 -0.05361366 C48.13955447 -0.07024801 57.06232952 -0.0757243 65.9851452 -0.07683842 C73.23570292 -0.07778772 80.48625191 -0.08189213 87.73680687 -0.08823967 C108.27931911 -0.10585858 128.82181043 -0.1150775 149.36433028 -0.11357872 C150.4724828 -0.11349881 151.58063533 -0.1134189 152.72236824 -0.11333656 C153.83186888 -0.1132548 154.94136952 -0.11317304 156.08449139 -0.1130888 C174.07083541 -0.11227568 192.05709573 -0.13141835 210.04341553 -0.1596133 C228.49777315 -0.18831439 246.95208991 -0.20215513 265.40647042 -0.20042574 C275.77279068 -0.19976089 286.1390232 -0.20529486 296.50532341 -0.22678185 C305.33070667 -0.24495717 314.15596242 -0.24937109 322.98135625 -0.235763 C327.48627858 -0.22921489 331.99095602 -0.22918226 336.49585533 -0.2464695 C340.61765649 -0.26212429 344.73901705 -0.25941502 348.86080696 -0.24190123 C350.35406881 -0.23881449 351.84736294 -0.24252634 353.34058677 -0.25362138 C355.36656049 -0.26768112 357.39266803 -0.25479975 359.41864014 -0.24050903 C360.54516302 -0.24094377 361.6716859 -0.24137851 362.83234584 -0.24182642 C366.51428559 0.37014558 368.18588967 1.67954478 370.83516121 4.25726891 C371.93189728 6.909472 372.03936821 9.40404329 371.83516121 12.25726891 C370.26085357 15.87817647 369.14633195 17.04982174 365.83516121 19.25726891 C363.08304417 19.51026857 363.08304417 19.51026857 359.67032242 19.51453781 C358.37160961 19.5209867 357.07289681 19.5274356 355.73482907 19.53407991 C354.28504722 19.53113734 352.83526576 19.52800188 351.3854847 19.52469444 C349.85203097 19.52842873 348.31857916 19.53302936 346.78513038 19.53842509 C342.56015434 19.55069794 338.33525722 19.5503896 334.1102674 19.54803634 C329.55802222 19.54762925 325.00580272 19.55865694 320.45356941 19.56815147 C311.53076794 19.58478582 302.60799289 19.59026211 293.68517722 19.59137623 C286.4346195 19.59232554 279.18407051 19.59642994 271.93351555 19.60277748 C251.39100331 19.62039639 230.84851199 19.62961532 210.30599214 19.62811653 C209.19783961 19.62803662 208.08968709 19.62795671 206.94795418 19.62787437 C205.83845354 19.62779261 204.7289529 19.62771085 203.58583103 19.62762661 C185.59948701 19.62681349 167.61322669 19.64595616 149.62690689 19.67415111 C131.17254927 19.7028522 112.71823251 19.71669294 94.263852 19.71496356 C83.89753174 19.7142987 73.53129921 19.71983267 63.16499901 19.74131966 C54.33961575 19.75949498 45.51436 19.76390891 36.68896617 19.75030081 C32.18404384 19.7437527 27.6793664 19.74372007 23.17446709 19.76100731 C19.05266593 19.7766621 14.93130537 19.77395283 10.80951546 19.75643905 C9.3162536 19.7533523 7.82295948 19.75706415 6.32973565 19.7681592 C4.30376193 19.78221893 2.27765439 19.76933756 0.25168228 19.75504684 C-0.8748406 19.75548158 -2.00136348 19.75591632 -3.16202343 19.75636423 C-6.84396318 19.14439223 -8.51556726 17.83499304 -11.16483879 15.25726891 C-12.26157486 12.60506582 -12.36904579 10.11049452 -12.16483879 7.25726891 C-9.53909166 1.21805051 -6.32705047 0.00791501 0 0 Z " fill="#000000" transform="translate(76.16483879089355,399.74273109436035)"/>
<path d="M0 0 C1.83364803 -0.01064158 1.83364803 -0.01064158 3.70433944 -0.02149814 C7.09489006 -0.03605984 10.48404498 -0.0281796 13.87449348 -0.01077521 C17.53167849 0.00258759 21.18875726 -0.01283427 24.84593201 -0.02459717 C32.0089065 -0.04298582 39.17160839 -0.03445364 46.33457441 -0.01650894 C52.15490247 -0.00248999 57.97515647 0.00141138 63.7954998 -0.00195122 C64.62350047 -0.00242866 65.45150114 -0.0029061 66.30459274 -0.00339801 C67.98658516 -0.00442433 69.66857757 -0.00547969 71.35056996 -0.00656378 C86.22660135 -0.01513317 101.10250102 0.0015525 115.97850037 0.03126526 C130.41931185 0.06010847 144.8599336 0.06718407 159.30076599 0.05177307 C175.02073716 0.03502001 190.74061823 0.03096714 206.46059173 0.04848343 C208.13613155 0.05032785 209.81167139 0.05216258 211.48721123 0.0539875 C212.31164241 0.05489959 213.13607359 0.05581168 213.98548754 0.05675141 C219.80059805 0.06236199 225.61566464 0.05904483 231.43077278 0.05244255 C238.51484863 0.04471893 245.59873756 0.0514269 252.68277568 0.07661759 C256.29850011 0.08913479 259.91393321 0.09523256 263.52966881 0.08407593 C267.44525293 0.072222 271.36033189 0.09124988 275.27587891 0.11352539 C276.99837627 0.10116424 276.99837627 0.10116424 278.75567156 0.08855337 C280.32529553 0.1051249 280.32529553 0.1051249 281.92662907 0.12203121 C282.83069085 0.12322269 283.73475264 0.12441418 284.66621023 0.12564176 C287.84601116 0.78919779 289.05443698 2.14129129 291.07444763 4.62818909 C291.60569763 6.84693909 291.60569763 6.84693909 291.57444763 9.12818909 C291.58991638 10.25740784 291.58991638 10.25740784 291.60569763 11.40943909 C290.86861136 14.48785821 289.49460873 15.62635197 287.07444763 17.62818909 C284.66621023 18.13073641 284.66621023 18.13073641 281.92662907 18.13434696 C280.88021309 18.14539465 279.83379711 18.15644234 278.75567156 18.1678248 C277.60733998 18.15958404 276.45900841 18.15134327 275.27587891 18.14285278 C273.44457087 18.15327108 273.44457087 18.15327108 271.57626671 18.16389984 C268.18558211 18.17905142 264.79577221 18.17620891 261.40512645 18.16574681 C257.74926793 18.15876616 254.09349991 18.17474408 250.43766785 18.18774414 C243.27493726 18.20940876 236.1123654 18.20925095 228.9496128 18.2011186 C223.12879666 18.19482368 217.30802687 18.19595095 211.48721123 18.20239067 C210.24544007 18.20374315 210.24544007 18.20374315 208.97858263 18.20512296 C207.29691441 18.20697413 205.6152462 18.20883669 203.93357801 18.21071052 C188.156326 18.22729766 172.37916337 18.21856213 156.60191672 18.20172494 C142.16248371 18.18702818 127.72325879 18.20165438 113.28385258 18.2304951 C98.46356643 18.25987652 83.64337637 18.270865 68.82306236 18.2613129 C67.14720819 18.26029033 65.471354 18.25929572 63.7954998 18.25832939 C62.97091434 18.257853 62.14632888 18.25737661 61.29675599 18.25688579 C55.48260628 18.25471993 49.66854736 18.26453483 43.8544178 18.27910042 C36.7692313 18.29660234 29.68431012 18.29653745 22.59913415 18.27374876 C18.9832236 18.26258663 15.36778083 18.2594878 11.75189018 18.27804947 C7.83434737 18.29790104 3.91753987 18.27911363 0 18.25637817 C-1.71915128 18.27413177 -1.71915128 18.27413177 -3.47303289 18.29224402 C-11.13335324 18.20153416 -11.13335324 18.20153416 -15.13183689 15.30767727 C-17.51690659 11.74481228 -17.67670093 9.83462103 -16.92555237 5.62818909 C-12.58057251 -0.86242904 -7.10314221 -0.07335381 0 0 Z " fill="#000000" transform="translate(65.92555236816406,205.37181091308594)"/>
<path d="M0 0 C9.32431022 6.06975168 16.24497473 13.65509903 19.23828125 24.45703125 C20.21831929 35.24884545 19.83972215 45.16508063 13.25 54.17578125 C5.73311239 63.00390486 -2.39430347 68.08045768 -13.94140625 69.77734375 C-23.60130768 70.30810756 -33.4900341 66.77861541 -40.76171875 60.49609375 C-48.65014508 52.45359659 -52.62870491 43.72467961 -53.19921875 32.45703125 C-52.83895219 22.5731964 -48.08142535 12.49556942 -40.9140625 5.70703125 C-38.93273015 4.13141905 -36.91948254 2.77901317 -34.76171875 1.45703125 C-34.14167969 1.04324219 -33.52164063 0.62945312 -32.8828125 0.203125 C-23.88963421 -4.84783815 -9.16238496 -4.47833324 0 0 Z " fill="#010101" transform="translate(99.76171875,297.54296875)"/>
<path d="M0 0 C9.9716666 6.4911547 16.66102551 14.4500169 19.734375 25.953125 C21.58279234 35.13789642 19.64124469 43.75099323 14.86328125 51.76953125 C12.6514265 55.0608241 10.19421935 57.79668696 7.23828125 60.45703125 C6.51640625 61.13765625 5.79453125 61.81828125 5.05078125 62.51953125 C-2.6391482 67.8170382 -11.50003933 70.2542024 -20.76171875 69.45703125 C-30.05703476 67.63244836 -37.42166316 63.50153746 -43.76171875 56.45703125 C-44.44234375 55.73515625 -45.12296875 55.01328125 -45.82421875 54.26953125 C-52.21803975 44.98817819 -52.97496243 35.42044285 -51.76171875 24.45703125 C-49.9588731 15.39504551 -43.80239293 8.30054532 -36.57421875 2.7890625 C-34.66616683 1.55677897 -32.80246918 0.45251927 -30.76171875 -0.54296875 C-29.67697266 -1.08824219 -29.67697266 -1.08824219 -28.5703125 -1.64453125 C-20.10781613 -4.3515885 -7.97013484 -3.89559268 0 0 Z " fill="#010101" transform="translate(223.76171875,297.54296875)"/>
<path d="M0 0 C9.32431022 6.06975168 16.24497473 13.65509903 19.23828125 24.45703125 C20.21831929 35.24884545 19.83972215 45.16508063 13.25 54.17578125 C5.73311239 63.00390486 -2.39430347 68.08045768 -13.94140625 69.77734375 C-23.60130768 70.30810756 -33.4900341 66.77861541 -40.76171875 60.49609375 C-48.65014508 52.45359659 -52.62870491 43.72467961 -53.19921875 32.45703125 C-52.83895219 22.5731964 -48.08142535 12.49556942 -40.9140625 5.70703125 C-38.93273015 4.13141905 -36.91948254 2.77901317 -34.76171875 1.45703125 C-34.14167969 1.04324219 -33.52164063 0.62945312 -32.8828125 0.203125 C-23.88963421 -4.84783815 -9.16238496 -4.47833324 0 0 Z M-37.578125 17.65625 C-42.33272595 24.89014782 -43.00355529 32.35133495 -41.29296875 40.76171875 C-38.98932744 47.80976417 -34.5253751 52.74387048 -28.13671875 56.39453125 C-21.61514834 59.35620683 -15.15309407 59.61624523 -8.24609375 57.79296875 C-1.69047056 55.22869437 3.36832508 51.16374911 6.55859375 44.83984375 C9.58796766 37.19226346 10.4214616 31.2868765 7.67578125 23.39453125 C4.43253911 16.01218637 -0.72037559 11.06482704 -8.24609375 8.12109375 C-19.58859373 5.12695556 -30.42561745 8.19386749 -37.578125 17.65625 Z " fill="#4B4B4B" transform="translate(99.76171875,297.54296875)"/>
<path d="M0 0 C9.9716666 6.4911547 16.66102551 14.4500169 19.734375 25.953125 C21.58279234 35.13789642 19.64124469 43.75099323 14.86328125 51.76953125 C12.6514265 55.0608241 10.19421935 57.79668696 7.23828125 60.45703125 C6.51640625 61.13765625 5.79453125 61.81828125 5.05078125 62.51953125 C-2.6391482 67.8170382 -11.50003933 70.2542024 -20.76171875 69.45703125 C-30.05703476 67.63244836 -37.42166316 63.50153746 -43.76171875 56.45703125 C-44.44234375 55.73515625 -45.12296875 55.01328125 -45.82421875 54.26953125 C-52.21803975 44.98817819 -52.97496243 35.42044285 -51.76171875 24.45703125 C-49.9588731 15.39504551 -43.80239293 8.30054532 -36.57421875 2.7890625 C-34.66616683 1.55677897 -32.80246918 0.45251927 -30.76171875 -0.54296875 C-29.67697266 -1.08824219 -29.67697266 -1.08824219 -28.5703125 -1.64453125 C-20.10781613 -4.3515885 -7.97013484 -3.89559268 0 0 Z M-36.19921875 15.76953125 C-41.64662672 22.96072704 -42.96875913 30.53642804 -41.76171875 39.45703125 C-39.06533538 47.98958661 -34.11058719 52.89887334 -26.57421875 57.33203125 C-19.32253773 59.47187155 -11.47331644 59.58162111 -4.49609375 56.41015625 C2.99070311 52.29579041 6.37539888 46.43010981 9.23828125 38.45703125 C10.77209681 30.45073158 8.6702544 24.15342784 4.23828125 17.45703125 C1.82191187 14.53816536 1.82191187 14.53816536 -0.76171875 12.45703125 C-1.40109375 11.90015625 -2.04046875 11.34328125 -2.69921875 10.76953125 C-13.58982166 3.83914758 -27.61835098 6.57725029 -36.19921875 15.76953125 Z " fill="#4B4B4B" transform="translate(223.76171875,297.54296875)"/>
<path d="M0 0 C33.99 0 67.98 0 103 0 C103 6.27 103 12.54 103 19 C69.01 19 35.02 19 0 19 C0 12.73 0 6.46 0 0 Z " fill="#FEA620" transform="translate(358,299)"/>
<path d="M0 0 C2.4375 1.5625 2.4375 1.5625 4 4 C4.56288002 7.94016013 4.60396028 10.05782196 2.4375 13.4375 C-0.94217804 15.60396028 -3.05983987 15.56288002 -7 15 C-9.4375 13.4375 -9.4375 13.4375 -11 11 C-11.56288002 7.05983987 -11.60396028 4.94217804 -9.4375 1.5625 C-6.05782196 -0.60396028 -3.94016013 -0.56288002 0 0 Z " fill="#E1E1E1" transform="translate(211,323)"/>
<path d="M0 0 C2.4375 1.5625 2.4375 1.5625 4 4 C4.56288002 7.94016013 4.60396028 10.05782196 2.4375 13.4375 C-0.94217804 15.60396028 -3.05983987 15.56288002 -7 15 C-9.4375 13.4375 -9.4375 13.4375 -11 11 C-11.56288002 7.05983987 -11.60396028 4.94217804 -9.4375 1.5625 C-6.05782196 -0.60396028 -3.94016013 -0.56288002 0 0 Z " fill="#E1E1E1" transform="translate(87,323)"/>
</svg>
