<?xml version="1.0" encoding="UTF-8"?>
<svg version="1.1" xmlns="http://www.w3.org/2000/svg" width="512" height="512">
<path d="M0 0 C0.76901973 -0.00265183 1.53803947 -0.00530365 2.33036283 -0.00803584 C4.93438403 -0.01575942 7.53835833 -0.01628917 10.14239025 -0.01688576 C12.017338 -0.02089836 13.89228487 -0.02533624 15.76723069 -0.03016531 C20.94077438 -0.04215906 26.11430873 -0.04778572 31.28786361 -0.05234647 C36.8592162 -0.05829188 42.43055755 -0.06990427 48.00190258 -0.08063698 C61.46653712 -0.10518392 74.93117538 -0.11979075 88.39582542 -0.13269705 C92.196315 -0.13640707 95.99680421 -0.14038045 99.79729342 -0.14444971 C123.37854823 -0.16968242 146.95980385 -0.19176001 170.54106903 -0.20417786 C176.00576626 -0.20709929 181.47046346 -0.21006679 186.93516064 -0.21308327 C187.61409449 -0.21345418 188.29302835 -0.21382509 188.99253596 -0.21420723 C211.01258338 -0.22636679 233.03255095 -0.25731718 255.05256085 -0.29900479 C278.32266631 -0.34297885 301.59271752 -0.36870867 324.86287087 -0.37409842 C337.55206979 -0.37751787 350.24114272 -0.38933598 362.93030262 -0.42220116 C373.73382184 -0.45013604 384.53718925 -0.46122987 395.34074179 -0.4500057 C400.85629719 -0.44480238 406.37153434 -0.44781418 411.88704395 -0.47247124 C416.93227553 -0.49483843 421.97695795 -0.49432196 427.02219834 -0.47526737 C428.85129422 -0.47244969 430.68042636 -0.47816306 432.50946359 -0.4930803 C434.98912229 -0.51207384 437.46679995 -0.50047591 439.94641113 -0.48101807 C440.66268155 -0.49386729 441.37895196 -0.50671651 442.11692753 -0.5199551 C445.95128621 -0.45348175 447.56461907 0.05964653 450.60503876 2.47603166 C453.22423533 5.86440261 453.2880996 7.7513288 453.29015636 12.0066433 C453.29725075 12.68525728 453.30434514 13.36387127 453.31165451 14.06304932 C453.32921679 16.330473 453.31114139 18.59617827 453.29307079 20.86357689 C453.29821035 22.49165692 453.30549191 24.1197314 453.31475353 25.7477932 C453.3332713 30.16525683 453.32032681 34.58211706 453.30066323 38.99955559 C453.28427843 43.62301906 453.29308939 48.24644427 453.29818249 52.86992455 C453.30270364 60.63418276 453.28683232 68.39820007 453.25889111 76.16240501 C453.22683907 85.1381007 453.22685484 94.11336191 453.24410588 103.08908844 C453.25997127 111.72448358 453.25323733 120.35971947 453.23616886 128.99510765 C453.22929738 132.66967064 453.2303318 136.34410602 453.23771381 140.01866722 C453.24537665 144.34607209 453.23325086 148.67298268 453.20586491 153.00030327 C453.19897993 154.58817388 453.19888435 156.17609065 453.20608044 157.76395988 C453.2147747 159.93231943 453.19882255 162.09915345 453.17663097 164.26738548 C453.17382405 165.48042351 453.17101713 166.69346153 453.16812515 167.94325829 C452.56372014 171.75693437 451.37189775 173.43329221 448.66196728 176.13701439 C446.37192822 176.70464134 446.37192822 176.70464134 443.89634228 176.62529564 C442.56216259 176.60112572 442.56216259 176.60112572 441.20102978 176.57646751 C439.82044384 176.51362572 439.82044384 176.51362572 438.41196728 176.44951439 C437.00817822 176.4156765 437.00817822 176.4156765 435.57602978 176.38115501 C433.26971054 176.32232034 430.9666589 176.24018585 428.66196728 176.13701439 C428.68815136 176.92874046 428.71433544 177.72046654 428.74131298 178.53618431 C428.8454085 182.13209156 428.91033628 185.7276817 428.97446728 189.32451439 C429.01636181 190.5703933 429.05825634 191.8162722 429.1014204 193.09990501 C429.11753368 194.3019558 429.13364697 195.50400658 429.15024853 196.74248314 C429.17643261 197.8474514 429.20261669 198.95241966 429.22959423 200.09087181 C428.66196728 203.13701439 428.66196728 203.13701439 426.8592329 206.00615501 C422.03876299 209.21882005 417.68347726 208.75947268 412.01743603 208.62529564 C410.3300507 208.61468353 410.3300507 208.61468353 408.60857677 208.60385704 C405.02152579 208.57590583 401.43604516 208.51316156 397.84946728 208.44951439 C395.41524505 208.42443266 392.98099832 208.40161928 390.5467329 208.38115501 C384.58461008 208.32607665 378.62340087 208.24244144 372.66196728 208.13701439 C372.7012434 209.68811913 372.7012434 209.68811913 372.74131298 211.27055931 C372.83203151 215.11880798 372.88929387 218.96696279 372.93662548 222.81596947 C372.96172075 224.47954278 372.99580524 226.14300635 373.03916454 227.80620384 C373.10004188 230.20190592 373.12822496 232.5961469 373.15024853 234.99248314 C373.17605495 235.73225899 373.20186138 236.47203484 373.22844982 237.23422813 C373.23058219 241.18862614 372.80741471 242.95015538 370.3501997 246.10698509 C367.66196728 248.13701439 367.66196728 248.13701439 364.16196728 248.76201439 C359.67779746 247.96126978 358.44230784 246.7089695 355.66196728 243.13701439 C355.222963 240.21315148 355.0723783 237.89660494 355.17368603 234.99248314 C355.18076077 234.2226963 355.1878355 233.45290947 355.19512463 232.65979576 C355.22299803 230.21369136 355.28571591 227.76992055 355.34946728 225.32451439 C355.3745596 223.66113612 355.39737115 221.99772177 355.41782665 220.33428001 C355.47280057 216.26763282 355.55901801 212.2027185 355.66196728 208.13701439 C355.03413845 208.14811745 354.40630962 208.1592205 353.75945568 208.17066002 C347.22214014 208.2813192 340.68509082 208.35670911 334.1470747 208.41167259 C331.70751164 208.43680935 329.26802383 208.47092385 326.82871532 208.51421165 C323.32112082 208.57489668 319.81452238 208.60323339 316.30649853 208.62529564 C315.21674221 208.65110207 314.12698589 208.67690849 313.00420666 208.70349693 C308.22115973 208.70526668 305.51358285 208.70458469 301.46470165 206.00615501 C299.32422992 202.59948873 299.07889842 200.74252012 299.17368603 196.74248314 C299.18617382 195.65862328 299.19866161 194.57476341 299.21152782 193.45805931 C299.25704784 192.09398949 299.30256786 190.72991966 299.34946728 189.32451439 C299.45259228 184.97263939 299.55571728 180.62076439 299.66196728 176.13701439 C288.11196728 176.13701439 276.56196728 176.13701439 264.66196728 176.13701439 C264.00196728 177.78701439 263.34196728 179.43701439 262.66196728 181.13701439 C261.87232314 182.45757303 261.03970386 183.75340139 260.16587353 185.01982689 C259.68956493 185.71205345 259.21325634 186.40428001 258.72251415 187.11748314 C258.22815868 187.82517845 257.73380322 188.53287376 257.22446728 189.26201439 C256.48873486 190.33515892 256.48873486 190.33515892 255.73813915 191.42998314 C251.03615299 198.21962577 251.03615299 198.21962577 248.66196728 200.13701439 C246.66904736 200.47759056 246.66904736 200.47759056 244.43149853 200.42998314 C243.62905712 200.42031517 242.82661572 200.4106472 241.9998579 200.40068626 C241.166479 200.37554955 240.33310009 200.35041283 239.47446728 200.32451439 C238.62948681 200.31097923 237.78450634 200.29744408 236.9139204 200.28349876 C234.82966343 200.24817237 232.74573451 200.19436578 230.66196728 200.13701439 C230.70837353 200.85244408 230.75477978 201.56787376 230.80259228 202.30498314 C231.34025746 217.14838255 225.93666176 228.95686732 216.66196728 240.26201439 C206.92566156 250.67035467 193.88469265 256.01539789 179.78184032 256.53520775 C163.62189219 256.78980719 150.82831809 252.06070636 138.91196728 240.94951439 C127.57669375 229.00481756 124.33004931 216.12490866 123.66196728 200.13701439 C121.68196728 200.13701439 119.70196728 200.13701439 117.66196728 200.13701439 C117.70837353 200.85244408 117.75477978 201.56787376 117.80259228 202.30498314 C118.31627804 216.48637931 113.56094915 228.63213905 104.41196728 239.32451439 C95.30516975 249.01642741 82.92890382 255.77164661 69.47446728 256.37529564 C52.18334125 256.77628577 38.83620383 253.00049171 25.91196728 240.94951439 C14.57669375 229.00481756 11.33004931 216.12490866 10.66196728 200.13701439 C9.40899853 200.18342064 8.15602978 200.22982689 6.86509228 200.27763939 C5.21407447 200.31516252 3.56303085 200.3515621 1.91196728 200.38701439 C1.08696728 200.42053001 0.26196728 200.45404564 -0.58803272 200.48857689 C-6.69675368 200.58710465 -6.69675368 200.58710465 -9.85365772 198.37138939 C-12.70550353 194.07861096 -12.48469079 189.73604611 -12.47847462 184.71774864 C-12.48144574 183.96789627 -12.48441686 183.2180439 -12.48747802 182.44546872 C-12.49615349 179.93142512 -12.49767229 177.4174292 -12.49916553 174.90337181 C-12.5037945 173.10135357 -12.50881927 171.2993363 -12.5142107 169.49732018 C-12.52732858 164.60054936 -12.53377839 159.70379224 -12.53822136 154.8070066 C-12.54115289 151.74753113 -12.54525783 148.6880594 -12.54972553 145.62858582 C-12.56339844 136.05564713 -12.57306628 126.48271701 -12.57692742 116.90976924 C-12.58140873 105.86007641 -12.59896091 94.81050726 -12.62792802 83.76085204 C-12.64954368 75.2189042 -12.65963163 66.67699116 -12.66096854 58.13501626 C-12.66201659 53.03360033 -12.66792448 47.93230068 -12.68578815 42.83091354 C-12.70226695 38.0317006 -12.70442525 33.23269139 -12.69564915 28.43346024 C-12.69487869 26.67386644 -12.69922264 24.91426171 -12.7091074 23.15469551 C-12.72182936 20.74863205 -12.7159491 18.3432899 -12.7055254 15.93723106 C-12.7135818 15.24441495 -12.72163821 14.55159883 -12.72993875 13.83778828 C-12.67965104 8.85914723 -11.60284092 5.48415341 -9.33803272 1.13701439 C-6.34624519 -0.35887938 -3.28102288 -0.00543338 0 0 Z M4.66196728 17.13701439 C4.66196728 24.72701439 4.66196728 32.31701439 4.66196728 40.13701439 C146.89196728 40.13701439 289.12196728 40.13701439 435.66196728 40.13701439 C435.66196728 32.54701439 435.66196728 24.95701439 435.66196728 17.13701439 C293.43196728 17.13701439 151.20196728 17.13701439 4.66196728 17.13701439 Z M4.66196728 57.13701439 C4.66196728 62.08701439 4.66196728 67.03701439 4.66196728 72.13701439 C6.57639031 72.13848095 8.49081335 72.13994751 10.46324921 72.14145851 C55.86906555 72.17713125 101.27481773 72.23332999 146.68057584 72.31493534 C152.26462337 72.32495325 157.8486712 72.33479731 163.43271923 72.34453392 C164.54444099 72.34647529 165.65616276 72.34841667 166.80157306 72.35041687 C184.8217526 72.38147009 202.8419194 72.39842678 220.86212067 72.41020861 C239.34126441 72.42260298 257.82034106 72.4500655 276.29944247 72.49162745 C287.70956328 72.51681205 299.11957288 72.53012806 310.52972188 72.52844396 C318.34540903 72.52841429 326.16098257 72.54297049 333.97662548 72.56917867 C338.49138718 72.58388159 343.0059159 72.59197918 347.52069759 72.58281708 C351.64932798 72.57457998 355.77748859 72.58454623 359.90604898 72.60935101 C361.40406322 72.61507351 362.90212142 72.61395971 364.40012286 72.60552683 C366.42779103 72.59508524 368.45554527 72.61137548 370.48316193 72.6292057 C371.61207047 72.63072459 372.74097901 72.63224347 373.9040969 72.63380837 C376.66196728 73.13701439 376.66196728 73.13701439 378.52470511 74.98125243 C380.07118921 77.9127239 380.07089333 79.86560599 379.66196728 83.13701439 C378.3575249 85.55023279 377.56360104 86.82406059 374.94255376 87.73381656 C372.07127915 88.24144549 369.33983793 88.26873374 366.42258358 88.27567959 C365.13272981 88.28115403 363.84287605 88.28662848 362.5139358 88.29226881 C361.07937263 88.29334502 359.64480938 88.29432971 358.21024609 88.29523277 C356.688866 88.29979816 355.16748717 88.30479814 353.64610982 88.31019634 C349.45937079 88.32378954 345.2726399 88.33119923 341.08588457 88.337623 C336.57329224 88.34562174 332.06071686 88.35932133 327.54813671 88.37233543 C319.72774568 88.39410564 311.90735294 88.41224815 304.08694744 88.42794037 C292.77989481 88.45063403 281.47286093 88.47877756 270.1658242 88.50825965 C251.8217734 88.55594173 233.47771494 88.59920425 215.13364697 88.63969994 C197.31202631 88.67905172 179.49041248 88.72047719 161.66880322 88.76469994 C160.57063974 88.76742421 159.47247626 88.77014848 158.3410351 88.77295531 C152.83197933 88.78663473 147.32292366 88.80035502 141.81386805 88.81409562 C96.09658196 88.92807008 50.37928106 89.03480387 4.66196728 89.13701439 C4.66196728 94.08701439 4.66196728 99.03701439 4.66196728 104.13701439 C6.27747384 104.13940274 7.8929804 104.1417911 9.55744171 104.14425182 C47.87633652 104.20156856 86.19517564 104.2742683 124.51400416 104.36600067 C129.22681777 104.3772693 133.93963168 104.38840768 138.65244579 104.39946556 C139.5907119 104.40166924 140.52897801 104.40387293 141.49567642 104.40614339 C156.70291131 104.44154938 171.91014614 104.46639485 187.117407 104.48736141 C202.71275571 104.5090972 218.30805077 104.54212638 233.90335387 104.58571595 C243.53230871 104.61227105 253.16119665 104.62993796 262.79018631 104.63636043 C269.38642654 104.64160255 275.98258248 104.65777971 282.57877759 104.68268005 C286.38871671 104.69673559 290.1985048 104.70585085 294.00847149 104.70202255 C298.13265914 104.69800401 302.25641521 104.71695102 306.38054943 104.73828697 C307.59356867 104.7334394 308.80658791 104.72859182 310.05636531 104.72359735 C311.15612467 104.73305389 312.25588402 104.74251043 313.38896942 104.75225353 C314.34168773 104.75415213 315.29440604 104.75605074 316.2759946 104.75800687 C319.08645841 105.20444405 319.9763508 105.88492926 321.66196728 108.13701439 C322.06040478 110.07451439 322.06040478 110.07451439 322.03696728 112.13701439 C322.04470165 112.81763939 322.05243603 113.49826439 322.06040478 114.19951439 C321.53269266 116.76564388 320.72372704 117.53418967 318.66196728 119.13701439 C316.2759946 119.51602191 316.2759946 119.51602191 313.38896942 119.52177525 C312.28921007 119.53123179 311.18945071 119.54068833 310.05636531 119.55043143 C308.84334607 119.54558385 307.63032683 119.54073628 306.38054943 119.53574181 C304.45335136 119.54571205 304.45335136 119.54571205 302.48721999 119.55588371 C298.91384649 119.57396772 295.34068016 119.57334484 291.76727164 119.56975424 C287.91653821 119.56913203 284.06587531 119.585735 280.21517467 119.60027122 C273.54119697 119.62309578 266.8672716 119.63494896 260.19325733 119.63940048 C250.54370682 119.64585245 240.89425106 119.66877296 231.24473866 119.69574378 C215.58996424 119.73905094 199.93519381 119.76899523 184.28037548 119.79057884 C169.07104567 119.81157677 153.86174846 119.83884149 138.65244579 119.87456322 C137.71531735 119.87676204 136.77818891 119.87896087 135.81266264 119.88122632 C131.11147592 119.89229568 126.41028951 119.90348854 121.70910323 119.91474283 C82.6934109 120.00798356 43.67772781 120.07710167 4.66196728 120.13701439 C4.66196728 140.92701439 4.66196728 161.71701439 4.66196728 183.13701439 C7.96196728 183.13701439 11.26196728 183.13701439 14.66196728 183.13701439 C17.22003026 180.70922126 17.22003026 180.70922126 18.66196728 177.26201439 C19.30478473 176.0582524 19.95869727 174.86035734 20.62290478 173.66826439 C20.95387157 173.07013939 21.28483837 172.47201439 21.62583447 171.85576439 C28.51093713 160.43467043 41.15310284 154.27851002 53.66196728 151.13701439 C67.73526661 148.71664113 82.01206377 151.00450836 94.12681103 158.70342064 C103.0362055 165.26743605 109.26305519 173.00682743 113.66196728 183.13701439 C118.53916312 183.93846371 122.82021007 184.25755023 127.66196728 183.13701439 C131.30375768 179.28199126 133.37389066 174.86005649 135.66196728 170.13701439 C141.50766538 160.91667038 152.4943954 155.215927 162.66196728 152.13701439 C178.1936806 148.8087901 193.41699455 149.99084313 207.12681103 158.70342064 C216.0362055 165.26743605 222.26305519 173.00682743 226.66196728 183.13701439 C231.43603334 184.50828868 236.07579247 185.37116344 240.66196728 183.13701439 C246.03198055 177.70342763 249.76123236 170.79579283 253.48545361 164.17827415 C254.66196728 162.13701439 254.66196728 162.13701439 255.66196728 161.13701439 C257.98921229 161.02703187 260.28742678 160.98206117 262.61571789 160.97879601 C263.35161174 160.97385803 264.08750559 160.96892005 264.84569925 160.96383244 C267.33010716 160.9483824 269.81448908 160.94007664 272.29893017 160.93169212 C274.07245649 160.92211948 275.8459805 160.91210978 277.61950207 160.90169334 C282.44985258 160.87457161 287.28021295 160.85360153 292.11059785 160.83369136 C297.15284011 160.81187648 302.19505178 160.78446586 307.2372694 160.75763512 C316.79244737 160.70764721 326.34764226 160.66273108 335.90285343 160.61961275 C348.80985535 160.56107839 361.71681707 160.4947589 374.62378311 160.42886257 C394.96981745 160.32519253 415.31588606 160.23196681 435.66196728 160.13701439 C435.66196728 126.14701439 435.66196728 92.15701439 435.66196728 57.13701439 C293.43196728 57.13701439 151.20196728 57.13701439 4.66196728 57.13701439 Z M39.47056103 176.17998314 C31.58913652 184.61296221 28.34745765 192.55222715 27.66196728 204.13701439 C28.0764041 214.37360385 32.44788658 223.41268587 39.78696728 230.51201439 C48.39529288 237.48475812 57.02197808 239.97907985 68.04868603 239.55107689 C77.32886195 238.48761889 85.10777414 234.83932489 91.66196728 228.13701439 C99.61053931 217.81754898 101.92013748 208.08568274 100.66196728 195.13701439 C97.98329001 184.85280701 92.56685648 177.3632665 83.59946728 171.76201439 C69.17275045 163.75681363 51.91775446 164.57591511 39.47056103 176.17998314 Z M149.93149853 178.64092064 C146.48679479 182.42950186 144.45308864 186.37107407 142.66196728 191.13701439 C142.4067329 191.78154564 142.15149853 192.42607689 141.88852978 193.09013939 C139.18709606 201.44002543 140.4928436 211.35913256 144.43931103 219.08232689 C149.873764 228.21498587 156.64481918 234.73669709 166.76352978 238.44170189 C176.43464067 240.7617258 186.94937444 240.09669433 195.66196728 235.13701439 C204.36907543 228.66602153 211.56961525 221.03333993 213.66196728 210.13701439 C214.79163403 198.49593627 213.00370886 189.28743666 206.03696728 179.82451439 C198.78472272 171.31395128 189.32953604 167.08215896 178.31040478 166.17217064 C166.77406476 166.01903338 158.15801457 170.94514757 149.93149853 178.64092064 Z M316.66196728 176.13701439 C316.66196728 181.08701439 316.66196728 186.03701439 316.66196728 191.13701439 C348.01196728 191.13701439 379.36196728 191.13701439 411.66196728 191.13701439 C411.66196728 186.18701439 411.66196728 181.23701439 411.66196728 176.13701439 C380.31196728 176.13701439 348.96196728 176.13701439 316.66196728 176.13701439 Z " fill="#000000" transform="translate(35.338032722473145,127.86298561096191)"/>
<path d="M0 0 C4.47326588 3.71873911 7.43909009 8.39539528 9.26953125 13.88671875 C9.89230696 21.9215464 10.25050987 29.21837278 5.26953125 35.88671875 C0.69860932 41.1793652 -4.59830014 45.51057856 -11.734375 46.16015625 C-19.83004053 46.39120708 -26.15705649 45.92552925 -32.73046875 40.88671875 C-38.97559446 34.31632608 -41.60801671 27.90735213 -41.73046875 18.88671875 C-40.79735998 10.60722981 -36.8822677 4.24565791 -30.45703125 -0.89453125 C-21.09235067 -7.50489401 -9.15176338 -5.95224925 0 0 Z M-21.73046875 14.88671875 C-23.79243093 17.10081765 -23.79243093 17.10081765 -24.73046875 19.88671875 C-24.11634604 22.95733228 -23.21120569 25.12766042 -21.54296875 27.76171875 C-18.49906531 29.65103812 -16.2134868 29.36713503 -12.73046875 28.88671875 C-9.64713542 26.97005208 -9.64713542 26.97005208 -7.73046875 23.88671875 C-7.09381923 19.85460511 -7.03228644 17.86934571 -9.41796875 14.51171875 C-14.16955789 11.17276422 -17.16313201 11.28092659 -21.73046875 14.88671875 Z " fill="#000000" transform="translate(115.73046875,310.11328125)"/>
<path d="M0 0 C4.92184337 4.58969443 7.55996543 9.8143343 8.1484375 16.48046875 C8.37395425 25.56048508 6.84975212 31.91130873 0.59765625 38.65625 C-6.02211581 44.65020327 -11.78349223 45.40636539 -20.578125 45.19140625 C-27.42843636 44.39131427 -32.7435396 41.52960661 -37.52734375 36.59375 C-42.05104569 30.71165598 -43.88830434 23.10047208 -43.08984375 15.78125 C-41.52041931 8.00482259 -37.72860294 1.87972622 -31.06640625 -2.5703125 C-20.83287732 -8.02035281 -9.29755423 -6.88457736 0 0 Z M-24.08984375 13.78125 C-26.0921182 16.30585691 -26.0998244 17.54171431 -25.96484375 20.78125 C-24.93292564 24.31925495 -24.13316796 25.69897554 -21.08984375 27.78125 C-17.63256017 28.53136367 -17.63256017 28.53136367 -14.08984375 27.78125 C-10.70307286 25.33124553 -9.30285791 23.91732554 -8.52734375 19.78125 C-9.22819178 16.04339382 -10.33527741 14.38692086 -13.08984375 11.78125 C-17.51079607 9.91979639 -20.18638086 11.26568502 -24.08984375 13.78125 Z " fill="#000000" transform="translate(230.08984375,311.21875)"/>
</svg>
