<?xml version="1.0" encoding="UTF-8"?>
<svg version="1.1" xmlns="http://www.w3.org/2000/svg" width="512" height="512">
<path d="M0 0 C102.36956522 0 102.36956522 0 120.796875 17.7734375 C121.52390625 18.50820312 122.2509375 19.24296875 123 20 C123.93585938 20.88558594 123.93585938 20.88558594 124.890625 21.7890625 C135.70269431 32.84464689 140.27558795 49.63860728 144.984375 63.9609375 C145.61275719 65.84577292 146.24194526 67.73033984 146.87188721 69.61465454 C148.18019821 73.53684175 149.48022574 77.46164189 150.77392578 81.38867188 C152.41572776 86.3708144 154.07611701 91.34651535 155.74258041 96.32045555 C157.04149883 100.20316424 158.33142843 104.08881443 159.61872101 107.97539139 C160.22696968 109.80903952 160.83761644 111.6418943 161.4509201 113.47385788 C163.13902079 118.52649732 164.77070286 123.59049355 166.3045578 128.69224167 C166.74444609 130.15196883 167.19424082 131.60877905 167.65766144 133.06120682 C172.53212421 148.65914428 171.52001074 165.16067988 171.40557575 181.31638384 C171.38027812 185.50031417 171.37819807 189.68426059 171.37347412 193.86825562 C171.36112653 201.76198359 171.32841837 209.65548542 171.28807616 217.54911458 C171.2430999 226.54811948 171.22130694 235.54713616 171.20129442 244.54622579 C171.15967667 263.03094816 171.08866554 281.51544746 171 300 C164.07 300 157.14 300 150 300 C150.0825 302.97 150.165 305.94 150.25 309 C150.41029252 330.37465929 142.5935536 348.90006226 127.765625 364.32421875 C111.87780238 379.61495 91.92353661 385.61355554 70.2421875 385.26953125 C50.14516925 384.52857689 32.13247942 374.66969848 18.375 360.375 C10.7544976 351.59456272 5.25416495 341.14979675 2 330 C1.77570313 329.27425781 1.55140625 328.54851562 1.3203125 327.80078125 C-1.02768154 318.58570874 0 309.66763767 0 300 C-28.05 300 -56.1 300 -85 300 C-85 307.26 -85 314.52 -85 322 C-89.24855624 342.88873483 -100.39106944 360.95193192 -118.22753906 372.89355469 C-136.19794383 384.11144373 -157.33483887 387.49648983 -178 383 C-189.66318845 379.75480321 -200.66162092 375.02726111 -209.1484375 366.22265625 C-210.98618365 364.74385698 -210.98618365 364.74385698 -213.55078125 365.1484375 C-216.27950356 365.91718833 -216.27950356 365.91718833 -218.8125 368.5625 C-231.75801493 380.34149601 -250.89979787 384.9870295 -267.9453125 385.00390625 C-286.13185006 384.08897777 -302.23346888 378.01197323 -316 366 C-316.96679688 365.24074219 -317.93359375 364.48148437 -318.9296875 363.69921875 C-322.17350392 360.99264989 -324.58493237 357.9489928 -327 354.5 C-327.42933838 353.88979004 -327.85867676 353.27958008 -328.30102539 352.65087891 C-348.2644382 323.50452174 -341 292.15417979 -341 256 C-228.47 256 -115.94 256 0 256 C0 171.52 0 87.04 0 0 Z M43 44 C43 71.72 43 99.44 43 128 C68.08 128 93.16 128 119 128 C116.5913236 119.10866877 116.5913236 119.10866877 113.88696289 110.33862305 C113.30604637 108.56705086 113.30604637 108.56705086 112.71339417 106.75968933 C112.0992289 104.90444389 112.0992289 104.90444389 111.47265625 103.01171875 C111.25974882 102.36734171 111.04684139 101.72296467 110.82748222 101.05906105 C109.70435086 97.65996899 108.57790931 94.26199675 107.44848633 90.86499023 C106.2893918 87.37667447 105.14151454 83.88477329 103.99611759 80.39194012 C103.10565196 77.68319927 102.20709151 74.97719379 101.30633354 72.27186012 C100.67368273 70.36498888 100.04952258 68.45530734 99.42555237 66.545578 C96.44724009 57.65642766 93.63922125 51.61248908 86 46 C72.67744689 40.67097875 57.34882883 44 43 44 Z M43 172 C43 199.72 43 227.44 43 256 C71.05 256 99.1 256 128 256 C128 228.28 128 200.56 128 172 C99.95 172 71.9 172 43 172 Z M-298 300 C-298.01181082 317.89887302 -298.01181082 317.89887302 -289 332 C-283.27985409 337.59303156 -276.15548223 341.37835533 -268.09765625 342.03515625 C-258.62382151 341.8763769 -250.6120595 338.70691945 -243.75 332.25 C-234.34614038 322.34731089 -235 314.02914776 -235 300 C-255.79 300 -276.58 300 -298 300 Z M-191 300 C-191.16915778 318.3371427 -191.16915778 318.3371427 -181.859375 332.24609375 C-175.24165852 338.48843555 -168.27991256 341.8183647 -159 342 C-149.42379283 341.29355849 -141.55211407 337.08382615 -135.0625 330.0625 C-127.54720791 320.79658693 -128 312.06910901 -128 300 C-148.79 300 -169.58 300 -191 300 Z M43 300 C43 313.07121353 43.72799925 322.73232188 52.59765625 332.81640625 C58.99285872 338.84876036 66.31139215 341.21698346 75 341.5 C84.36629352 341.18508124 91.43378503 338.45467121 98.24609375 331.97265625 C106.6439275 322.52743121 107 312.20887903 107 300 C85.88 300 64.76 300 43 300 Z " fill="#000000" transform="translate(341,106)"/>
<path d="M0 0 C1.84405218 -0.00435304 3.68810255 -0.00953816 5.53215027 -0.01548767 C10.51776257 -0.02882511 15.50329881 -0.02946222 20.48892546 -0.02692437 C24.6611684 -0.0258511 28.83339618 -0.03074711 33.00563586 -0.03552979 C42.85386654 -0.04660678 52.70205908 -0.04707255 62.55029297 -0.04101562 C72.68750946 -0.03497655 82.82458714 -0.04728938 92.96177995 -0.06858569 C101.68652202 -0.08623627 110.41122004 -0.09219761 119.13597929 -0.08894795 C124.33750095 -0.08714049 129.53892355 -0.08971752 134.74042892 -0.10366249 C139.63413721 -0.11629259 144.52763001 -0.11424794 149.42133522 -0.1012516 C151.20946769 -0.09889754 152.99761559 -0.10157817 154.78573036 -0.10987473 C164.52709989 -0.15178748 173.3436251 0.20872508 182.70556641 3.2746582 C184.04266442 3.70935944 184.04266442 3.70935944 185.40677452 4.15284252 C201.8289588 9.78142717 213.27019447 23.16840481 220.70556641 38.2746582 C224.62294443 47.35482345 225.85652247 55.43915432 225.82582092 65.2593689 C225.82667694 66.2584729 225.82753296 67.2575769 225.82841492 68.28695679 C225.83006909 71.64273872 225.82454808 74.99847067 225.8190918 78.35424805 C225.81878545 80.79798188 225.81891897 83.24171581 225.81945705 85.6854496 C225.8196829 92.23220688 225.81388517 98.77894589 225.80684662 105.32569885 C225.80115356 111.46794696 225.8008836 117.61019061 225.8001709 123.75244141 C225.79492265 141.71818276 225.78096151 159.68392071 225.76806641 177.6496582 C225.74744141 217.7859082 225.72681641 257.9221582 225.70556641 299.2746582 C127.03556641 299.2746582 28.36556641 299.2746582 -73.29443359 299.2746582 C-73.37693359 258.9734082 -73.45943359 218.6721582 -73.54443359 177.1496582 C-73.58084961 164.43418457 -73.61726563 151.71871094 -73.65478516 138.61791992 C-73.67285156 123.06591797 -73.67285156 123.06591797 -73.6762085 115.7805481 C-73.67992835 110.70275858 -73.69489141 105.6251371 -73.71673584 100.5473938 C-73.74427106 94.06040555 -73.75237996 87.57365993 -73.7467227 81.08661866 C-73.74790483 78.71214572 -73.75577806 76.33766388 -73.77129412 73.96324134 C-73.91036273 51.63542758 -70.353681 33.97726529 -54.29443359 17.2746582 C-38.08116291 2.67121582 -20.88886859 -0.03265959 0 0 Z M-23.16943359 48.8996582 C-23.88873047 49.53129883 -24.60802734 50.16293945 -25.34912109 50.8137207 C-29.86861059 56.53114717 -30.73878996 62.60610969 -30.65519714 69.63964844 C-30.6577652 70.44085617 -30.66033325 71.2420639 -30.66297913 72.06755066 C-30.66791381 74.73965982 -30.65142576 77.41119502 -30.63500977 80.08325195 C-30.63409009 82.036626 -30.63449238 83.99000104 -30.63610554 85.94337463 C-30.63678125 91.16202188 -30.61942685 96.38046166 -30.59827423 101.59906006 C-30.58115622 106.50069819 -30.58038307 111.40228654 -30.57824707 116.30395508 C-30.56252149 130.62755013 -30.52063787 144.95110681 -30.48193359 159.2746582 C-30.42005859 191.2846582 -30.35818359 223.2946582 -30.29443359 256.2746582 C39.99556641 256.2746582 110.28556641 256.2746582 182.70556641 256.2746582 C182.74681641 224.9452832 182.78806641 193.6159082 182.83056641 161.3371582 C182.84877441 151.44755127 182.86698242 141.55794434 182.88574219 131.36865234 C182.89243137 122.49791787 182.89243137 122.49791787 182.89645386 113.62718201 C182.89831593 109.67838795 182.90580611 105.72964776 182.91671753 101.78086853 C182.9304627 96.73957916 182.93454367 91.69836782 182.93171096 86.65706146 C182.93230307 84.80964403 182.93625292 82.9622238 182.94399667 81.11482251 C182.95399616 78.61246658 182.9515276 76.11041082 182.94607544 73.60804749 C182.95190077 72.89130073 182.9577261 72.17455397 182.96372795 71.43608761 C182.91799303 63.58579585 181.77020792 56.49693206 176.70556641 50.2746582 C169.8168288 44.07479436 163.68799202 43.15325391 154.55278015 43.14094543 C153.85571624 43.13867988 153.15865233 43.13641432 152.44046527 43.13408011 C150.11694998 43.12777657 147.79349357 43.12856712 145.4699707 43.12939453 C143.79897995 43.12640076 142.12798989 43.12299772 140.45700073 43.11921692 C135.9259008 43.11039475 131.39481976 43.10803955 126.86371207 43.10740113 C124.03034822 43.10668959 121.19698915 43.1045533 118.36362648 43.10190392 C108.47182537 43.09265625 98.58003772 43.08856829 88.68823242 43.08935547 C79.47924222 43.08995604 70.27031064 43.07940673 61.06133527 43.06361181 C53.14521278 43.05051997 45.22910941 43.04517227 37.31297618 43.04581088 C32.5893792 43.04606539 27.86583432 43.04324003 23.14224815 43.03263283 C18.69760681 43.02292423 14.25306709 43.02289156 9.80842209 43.03014946 C8.18190042 43.03119189 6.55537232 43.02885282 4.92886162 43.022789 C-10.15284897 42.4551464 -10.15284897 42.4551464 -23.16943359 48.8996582 Z " fill="#000000" transform="translate(73.29443359375,20.725341796875)"/>
<path d="M0 0 C14.52 0 29.04 0 44 0 C44 42.57 44 85.14 44 129 C29.48 129 14.96 129 0 129 C0 86.43 0 43.86 0 0 Z " fill="#000000" transform="translate(170,106)"/>
<path d="M0 0 C14.19 0 28.38 0 43 0 C43 42.57 43 85.14 43 129 C28.81 129 14.62 129 0 129 C0 86.43 0 43.86 0 0 Z " fill="#000000" transform="translate(85,106)"/>
</svg>
