<?xml version="1.0" encoding="UTF-8"?>
<svg version="1.1" xmlns="http://www.w3.org/2000/svg" width="512" height="405">
<path d="M0 0 C11.71141998 1.61419781 23.38600266 2.14374702 35.1875 2.625 C58.58478771 3.61040551 58.58478771 3.61040551 68.5 4.9375 C69.23629639 5.03095703 69.97259277 5.12441406 70.73120117 5.22070312 C75.23471619 5.90414148 79.49482302 7.05952901 83.85536194 8.37408447 C95.77374268 11.92097453 107.72927734 13.33666789 120.0625 14.6875 C124.20133021 15.14091745 128.33732624 15.61345949 132.47265625 16.09765625 C133.39780533 16.19256851 134.32295441 16.28748077 135.27613831 16.38526917 C145.14337156 17.54495729 153.31799973 21.12664676 160 28.625 C163.10930954 33.51362541 165.12951327 38.35265804 165.11352539 44.18823242 C165.11344986 45.10896042 165.11337433 46.02968842 165.11329651 46.97831726 C165.10813522 47.96902725 165.10297394 48.95973724 165.09765625 49.98046875 C165.09553383 51.50562859 165.09553383 51.50562859 165.09336853 53.06159973 C165.08776707 56.31192964 165.07521432 59.56219088 165.0625 62.8125 C165.05748519 65.01497296 165.05292225 67.21744701 165.04882812 69.41992188 C165.03779717 74.82163804 165.02105762 80.22331412 165 85.625 C165.88970993 85.59871521 166.77941986 85.57243042 167.6960907 85.54534912 C177.56508732 85.38290177 186.90985172 86.34942597 196.64453125 87.890625 C198.19087574 88.12830481 199.73732079 88.36533122 201.28385925 88.60174561 C204.49601989 89.0954446 207.70678085 89.59722189 210.91674805 90.10498047 C215.00350262 90.75071423 219.09316727 91.37528501 223.18411732 91.99380875 C226.36758802 92.47762128 229.54919788 92.97288887 232.73038292 93.47148895 C234.23712205 93.70623018 235.74441148 93.93747036 237.25226784 94.16492462 C249.29549294 95.99133984 260.70299242 97.97473325 269 107.625 C274.032637 115.47664541 276.23928196 124.52651069 278.6953125 133.41796875 C279.1286228 134.95523934 279.562905 136.49223626 279.99809265 138.02897644 C282.11142003 145.51215391 284.18003461 153.00771908 286.25014973 160.50294113 C287.1889276 163.90029414 288.12976211 167.29707259 289.07211494 170.69343567 C289.53694881 172.36876837 290.00115587 174.04427512 290.46473503 175.71995544 C292.97190828 184.763722 295.55541882 193.70725087 298.82421875 202.51171875 C306.92375872 224.85055664 306.98300877 246.91104624 307 270.4375 C307.00215641 271.29750359 307.00431282 272.15750717 307.00653458 273.04357147 C307.0159219 278.04618201 306.98879946 283.04649161 306.90957069 288.0485096 C306.88682461 289.59209455 306.87110616 291.13580177 306.86299706 292.679533 C306.78298495 303.76579427 305.23408365 312.01739411 297.75 320.5 C295.04133558 323.10812448 292.96823558 323.97651839 289.375 324.9375 C286.75906515 325.94669314 285.38157877 326.78019356 284.21044922 329.37304688 C282.96722445 333.21558005 282.08592299 337.13801414 281.16015625 341.06640625 C278.64789 351.55678622 272.48914332 359.1101208 265 366.625 C264.06027344 367.59953125 264.06027344 367.59953125 263.1015625 368.59375 C252.02613833 379.24858844 236.88266135 382.47375344 222 382.625 C209.69300247 381.81847346 198.78089708 376.98432101 189 369.625 C188.38511719 369.17511719 187.77023437 368.72523438 187.13671875 368.26171875 C179.70819147 362.41443009 174.81067062 354.1609022 171 345.625 C171 344.965 171 344.305 171 343.625 C169.86272461 343.81723145 168.72544922 344.00946289 167.55371094 344.20751953 C163.23367226 344.93055565 158.90864521 345.61897655 154.58154297 346.29833984 C152.72818735 346.59396908 150.87619714 346.89832251 149.02587891 347.21240234 C135.21456056 349.54808478 120.58577608 351.15359203 107 346.625 C106.97421875 347.27984375 106.9484375 347.9346875 106.921875 348.609375 C105.90482578 364.97462159 98.95551772 378.81468688 87.08984375 390.078125 C73.01806602 402.15917212 57.56729355 404.72578249 39.49755859 403.83203125 C34.19347505 403.39235746 29.74331661 401.97220822 25 399.625 C23.51693359 398.9134375 23.51693359 398.9134375 22.00390625 398.1875 C7.97801214 390.75466949 -2.35209769 378.7588194 -7.37890625 363.73828125 C-10.2187285 354.19638469 -12.20274941 342.23324824 -9 332.625 C-10.06089844 332.52703125 -11.12179688 332.4290625 -12.21484375 332.328125 C-23.64327042 331.24215454 -35.04112167 329.93923323 -46.4375 328.5625 C-47.16999969 328.47464233 -47.90249939 328.38678467 -48.65719604 328.29626465 C-50.77044839 328.04225674 -52.88332389 327.78533097 -54.99609375 327.52734375 C-56.83965454 327.30292603 -56.83965454 327.30292603 -58.72045898 327.07397461 C-61.51352386 326.69159939 -64.24512472 326.21759008 -67 325.625 C-67.12955078 326.49898438 -67.12955078 326.49898438 -67.26171875 327.390625 C-69.81231554 342.27300628 -77.02646404 355.50049747 -88.8515625 365.10546875 C-102.2378719 374.57324031 -117.14590276 379.04672216 -133.5 377 C-149.69201683 374.03471499 -163.28294351 366.03702496 -173 352.625 C-180.91379806 340.08008753 -184.94967538 326.57359397 -184 311.625 C-185.19496094 311.09712891 -185.19496094 311.09712891 -186.4140625 310.55859375 C-195.85059121 306.16176833 -201.03148104 301.85132469 -205.16186523 292.29077148 C-206.75661747 287.21850242 -206.56837592 282.08659649 -206.53125 276.8125 C-206.5350769 275.60360107 -206.53890381 274.39470215 -206.54284668 273.14916992 C-206.54555729 270.60432091 -206.53825616 268.05944363 -206.52148438 265.51464844 C-206.50006481 261.63673321 -206.52131751 257.76067064 -206.546875 253.8828125 C-206.54423158 251.40103761 -206.5391063 248.91926386 -206.53125 246.4375 C-206.53934692 245.28725342 -206.54744385 244.13700684 -206.55578613 242.9519043 C-206.44696487 233.53208553 -204.20067188 226.23823718 -197.78515625 219.19921875 C-194.40948627 216.22242443 -189.64460355 212.625 -185 212.625 C-185.00368717 211.77962016 -185.00737434 210.93424032 -185.01117325 210.06324291 C-185.09963143 189.46346664 -185.1657617 168.86372324 -185.20724869 148.26379681 C-185.22784637 138.30169019 -185.25591343 128.33971061 -185.30175781 118.37768555 C-185.34171125 109.69160413 -185.36745311 101.00561475 -185.37635398 92.319444 C-185.38155435 87.72303133 -185.39371853 83.12688187 -185.42292023 78.53055382 C-185.45022396 74.19754662 -185.45841501 69.86490917 -185.45243073 65.53182411 C-185.45352431 63.94805512 -185.46138877 62.36427279 -185.4768219 60.78057861 C-185.58658402 48.92819673 -184.63094316 38.20515708 -176.00123596 29.32098389 C-167.59435601 22.19642026 -156.93449205 20.93897948 -146.44140625 19.171875 C-144.70998685 18.8682737 -142.9788158 18.56325316 -141.24787903 18.25691223 C-136.63962485 17.4452895 -132.02829857 16.65268554 -127.416008 15.86436844 C-122.64294666 15.04580211 -117.87261359 14.21164436 -113.10205078 13.37866211 C-107.39546402 12.38318583 -101.68860559 11.38941046 -95.98028564 10.40391541 C-85.22093434 8.54539145 -74.4740809 6.63474511 -63.73828125 4.64453125 C-61.41012923 4.21682639 -59.08192527 3.78940415 -56.75366211 3.36230469 C-53.62080012 2.78758401 -50.48900986 2.20917133 -47.3598938 1.61437988 C-31.27826795 -1.43578465 -16.27109538 -2.50576957 0 0 Z " fill="#4606DE" transform="translate(206,1.375)"/>
<path d="M0 0 C8.60347707 1.49180957 17.23943669 2.70878364 25.9041748 3.78585815 C37.40247372 5.25098991 47.48954797 6.65412244 55.25964355 16.0710144 C59.12092369 22.35010547 60.84217878 29.37516619 62.7635498 36.4225769 C63.06365967 37.50764526 63.36376953 38.59271362 63.67297363 39.71066284 C66.19696167 48.86611257 68.64536047 58.04190034 71.09851074 67.21652222 C72.75318633 73.37715055 74.50297985 79.48605633 76.43151855 85.56710815 C78.90770877 93.67506672 81.1562254 101.86006298 83.34680176 110.04953003 C84.20840397 113.17129299 85.22651899 116.21793377 86.27990723 119.27999878 C92.10279556 136.92798681 92.50231782 153.46554577 92.22735596 171.8243103 C92.1918936 174.90566783 92.19819973 177.98639072 92.20476055 181.06790161 C92.20756744 184.07252565 92.18991592 187.07675147 92.16562843 190.08126831 C92.15553031 191.497257 92.15031982 192.9132905 92.15042686 194.32931519 C92.12839576 205.15461546 90.70679209 213.48778826 83.20495605 221.6100769 C75.38918885 228.54138085 64.3855612 229.23990649 54.4510498 230.3600769 C43.0999434 231.70496008 31.81205656 233.38616996 20.5135498 235.1100769 C9.13069953 236.84435424 -2.23898493 238.53616836 -13.67956543 239.84957886 C-20.67451455 240.68415902 -27.62342538 241.74307463 -34.5802002 242.8444519 C-36.6445356 243.16703154 -38.70890793 243.48937497 -40.77331543 243.81149292 C-43.86408267 244.29400388 -46.95336714 244.78182568 -50.03994751 245.29046631 C-60.9658979 247.09008139 -71.67511759 248.40665036 -82.76379395 248.44210815 C-83.67802628 248.446353 -84.59225861 248.45059784 -85.53419495 248.45497131 C-92.01224959 248.37462065 -98.15200771 247.43930434 -104.4864502 246.1100769 C-104.57281738 245.16648315 -104.65918457 244.2228894 -104.74816895 243.2507019 C-106.57707701 226.53884472 -112.88364412 212.10091281 -125.95129395 201.04367065 C-140.05404685 190.28733369 -155.28870353 188.16331211 -172.4864502 189.1100769 C-176.15758976 189.61724321 -179.13841138 190.54172649 -182.4864502 192.1100769 C-183.53059082 192.59734253 -184.57473145 193.08460815 -185.6505127 193.5866394 C-200.48902314 201.0570619 -210.33198958 211.88421607 -216.0489502 227.4850769 C-216.5340224 229.02489565 -217.01426872 230.56625649 -217.4864502 232.1100769 C-228.69523186 231.53178188 -239.78073362 230.34057004 -250.91540527 228.95333862 C-253.70736064 228.60591945 -256.50013729 228.26577529 -259.29309082 227.92648315 C-261.08025198 227.70685205 -262.86736334 227.48681526 -264.65441895 227.2663269 C-265.48354294 227.16525635 -266.31266693 227.06418579 -267.16691589 226.96005249 C-268.32511589 226.81485168 -268.32511589 226.81485168 -269.50671387 226.66671753 C-270.51806648 226.54133606 -270.51806648 226.54133606 -271.54985046 226.41342163 C-273.56896904 226.09715133 -275.51208366 225.63455161 -277.4864502 225.1100769 C-277.58441895 223.94992065 -277.6823877 222.7897644 -277.7833252 221.5944519 C-279.59457757 201.96553083 -285.36780504 186.18229958 -300.86535645 173.1022644 C-314.9588221 162.65093033 -329.46323034 160.91791871 -346.4864502 162.1100769 C-350.84789038 162.89024832 -354.51474034 164.16745539 -358.4864502 166.1100769 C-359.48805176 166.59605347 -360.48965332 167.08203003 -361.52160645 167.58273315 C-376.59262461 175.64220304 -385.9855168 188.41564408 -390.9864502 204.4850769 C-391.50420733 206.35525138 -392.01139352 208.22860244 -392.4864502 210.1100769 C-398.58794528 209.33762589 -402.20489905 207.50615514 -406.4864502 203.1100769 C-410.27453181 197.18536797 -412.57854367 191.43665037 -412.66345215 184.39254761 C-412.67628738 183.46090286 -412.68912262 182.52925812 -412.7023468 181.56938171 C-412.70973373 180.56831894 -412.71712067 179.56725616 -412.72473145 178.53585815 C-412.73280319 177.49745285 -412.74087494 176.45904755 -412.74919128 175.38917542 C-412.76301464 173.19109762 -412.7737446 170.99299852 -412.78161621 168.79489136 C-412.79312652 166.55556922 -412.81356311 164.31627431 -412.84313965 162.07711792 C-412.88597271 158.83400913 -412.90200843 155.5917153 -412.91223145 152.34835815 C-412.92973953 151.35741653 -412.94724762 150.36647491 -412.96528625 149.34550476 C-412.93653143 140.03364249 -410.09198546 132.71561217 -403.4864502 126.1100769 C-392.31321947 118.25861748 -379.07281431 121.06804999 -366.2989502 122.7350769 C-364.88417596 122.91370289 -363.46929532 123.09148777 -362.05432129 123.26852417 C-358.92370233 123.66093856 -355.79357259 124.05699865 -352.66369629 124.45529175 C-344.02416607 125.55161347 -335.3794463 126.60625038 -326.73522949 127.66485596 C-323.60858848 128.04792752 -320.4820895 128.43214447 -317.35559082 128.81637573 C-301.18306985 130.79997599 -285.00163428 132.70099273 -268.81311035 134.54928589 C-267.95667435 134.64758698 -267.10023834 134.74588806 -266.21784973 134.84716797 C-264.63579948 135.02867019 -263.05360598 135.20893048 -261.47123718 135.38763428 C-257.45175245 135.8493903 -253.47510089 136.43650514 -249.4864502 137.1100769 C-238.7331053 138.01574241 -230.57162048 137.56495532 -221.4864502 131.1100769 C-216.70135078 126.94333029 -213.10144303 121.51873604 -212.209795 115.12683678 C-212.10855972 112.93932572 -212.09540834 110.76930772 -212.11755371 108.57955933 C-212.11378723 107.755793 -212.11002075 106.93202667 -212.10614014 106.08329773 C-212.09973433 104.30513328 -212.10001252 102.52693455 -212.10632515 100.74876976 C-212.11548276 97.92661758 -212.10515761 95.10512316 -212.08970642 92.28300476 C-212.04974119 84.2630509 -212.04839888 76.24315095 -212.05065918 68.22311401 C-212.05071049 63.30656928 -212.03143735 58.39037953 -212.00132561 53.47393227 C-211.99056845 50.70756545 -212.00259073 47.9418961 -212.01515198 45.17555237 C-211.9937222 34.84516343 -211.52744041 26.5708745 -205.1739502 17.9850769 C-201.65733398 15.53162373 -199.7338716 15.87105519 -195.4864502 16.1100769 C-193.02088178 16.55234193 -190.56821889 17.07077996 -188.13098145 17.6491394 C-187.43935913 17.81043839 -186.74773682 17.97173737 -186.03515625 18.13792419 C-183.78801874 18.66321341 -181.54350408 19.19886517 -179.2989502 19.7350769 C-176.15401628 20.47721588 -173.00792619 21.21434965 -169.8614502 21.94992065 C-168.67861198 22.22733849 -168.67861198 22.22733849 -167.47187805 22.51036072 C-162.40838372 23.68939232 -157.33435965 24.78216117 -152.2364502 25.80148315 C-150.97598877 26.0565564 -149.71552734 26.31162964 -148.41687012 26.57443237 C-146.07061822 27.04339776 -143.72189181 27.50021083 -141.3704834 27.94259644 C-132.471449 29.73987497 -125.54658688 32.84975914 -119.78308105 40.05099487 C-115.36185537 47.07201114 -113.63792242 55.88556353 -111.6739502 63.8600769 C-109.61612475 71.99602255 -107.3534404 80.03407893 -104.8614502 88.0475769 C-102.87830576 94.43088977 -100.97896193 100.79585495 -99.4239502 107.2975769 C-97.82157916 113.95149051 -95.91826854 120.47416479 -93.91906738 127.01876831 C-91.39991996 135.30026741 -89.07175808 143.63204216 -86.75866699 151.97311401 C-86.47676514 152.98897583 -86.19486328 154.00483765 -85.90441895 155.05148315 C-85.65458252 155.95584106 -85.40474609 156.86019897 -85.14733887 157.79196167 C-84.63816044 159.57794216 -84.07373113 161.3482341 -83.4864502 163.1100769 C-83.39683067 165.3028271 -83.36886829 167.49826349 -83.3729248 169.69284058 C-83.37277878 170.35652145 -83.37263275 171.02020233 -83.3724823 171.70399475 C-83.37317838 173.89537842 -83.3809565 176.08667685 -83.38879395 178.27804565 C-83.39065921 179.79833429 -83.3920826 181.31862352 -83.39308167 182.83891296 C-83.39689832 186.83872133 -83.40672135 190.83849334 -83.41778564 194.83828735 C-83.42801807 198.92041533 -83.43258321 203.00254918 -83.43762207 207.08468628 C-83.44834437 215.0931665 -83.46541058 223.10161718 -83.4864502 231.1100769 C-82.4964502 230.7800769 -81.5064502 230.4500769 -80.4864502 230.1100769 C-80.32211203 221.51099041 -80.19882146 212.91259152 -80.12376499 204.31230831 C-80.08768731 200.31601797 -80.0390095 196.32082412 -79.95837402 192.32516479 C-79.59646503 173.90202086 -79.97515129 157.75424957 -86.67434692 140.28894043 C-87.74037445 137.42880113 -88.52936197 134.52999819 -89.27160645 131.5710144 C-89.48873291 130.71588257 -89.70585937 129.86075073 -89.92956543 128.97970581 C-90.23616089 127.7448645 -90.23616089 127.7448645 -90.5489502 126.4850769 C-92.8514767 117.4559555 -95.3372887 108.49499083 -97.9239502 99.54367065 C-99.32591315 94.68928497 -100.68904242 89.8246732 -102.04406738 84.95700073 C-103.21704329 80.74515799 -104.3984947 76.53572554 -105.58215332 72.32687378 C-106.19441022 70.14893186 -106.80503987 67.97053194 -107.41418457 65.79171753 C-108.32569863 62.541224 -109.24841552 59.29410251 -110.1739502 56.0475769 C-110.44715088 55.06684204 -110.72035156 54.08610718 -111.00183105 53.07565308 C-113.9755448 42.73273019 -117.40522941 35.34515077 -126.4864502 29.1100769 C-137.31913503 24.52751384 -149.63911228 22.69114808 -161.07263184 20.1635437 C-164.44160858 19.41867269 -167.8088652 18.6663923 -171.17590332 17.91281128 C-173.33010518 17.43256717 -175.48439886 16.95273468 -177.63879395 16.47335815 C-179.13889259 16.13900505 -179.13889259 16.13900505 -180.66929626 15.79789734 C-185.26137311 14.78397517 -189.83440033 13.81588155 -194.4864502 13.1100769 C-194.4864502 12.4500769 -194.4864502 11.7900769 -194.4864502 11.1100769 C-187.30820514 9.51809836 -180.19879605 8.55893811 -172.88098145 7.8913269 C-171.79870773 7.78791992 -170.71643402 7.68451294 -169.60136414 7.57797241 C-166.16766668 7.25046938 -162.73338469 6.92975038 -159.2989502 6.6100769 C-154.78428185 6.18657648 -150.26994925 5.75973072 -145.75598145 5.3288269 C-144.12135452 5.17287804 -144.12135452 5.17287804 -142.45370483 5.01377869 C-135.66682815 4.35453982 -128.93080526 3.53807387 -122.17858887 2.58810425 C-114.22306138 1.55808885 -106.22399653 0.9032554 -98.2364502 0.1725769 C-87.10145939 -0.85497954 -75.97908163 -1.90341872 -64.87658691 -3.24197388 C-42.18316166 -5.95586112 -22.41497811 -3.9111874 0 0 Z " fill="#7A79FC" transform="translate(416.4864501953125,96.88992309570313)"/>
<path d="M0 0 C5.02931682 3.75147627 7.36331281 9.04121567 9 15 C9.37923254 18.47751819 9.35171185 21.91154183 9.29296875 25.40625 C9.28872391 26.3715564 9.28447906 27.33686279 9.28010559 28.3314209 C9.26343097 31.3879083 9.22579992 34.44371485 9.1875 37.5 C9.17243866 39.58332375 9.1587528 41.66665793 9.14648438 43.75 C9.11356424 48.83359215 9.06186016 53.91668099 9 59 C-4.21711969 60.68888779 -17.44881423 62.24041307 -30.6875 63.75 C-31.80974976 63.87839264 -32.93199951 64.00678528 -34.08825684 64.1390686 C-48.19533938 65.74735705 -62.30897354 67.25555456 -76.44140625 68.62109375 C-77.46554154 68.72029428 -77.46554154 68.72029428 -78.51036644 68.82149887 C-85.83986507 69.53089764 -93.17039192 70.22723877 -100.50268555 70.90722656 C-127.46378747 71.79964679 -127.46378747 71.79964679 -149.86328125 84.1796875 C-154.63605198 90.9458589 -156.30028975 97.07290486 -156.25537109 105.34106445 C-156.25899155 106.15653748 -156.262612 106.9720105 -156.26634216 107.81219482 C-156.27321131 109.57510069 -156.27574627 111.3380277 -156.27439499 113.10094643 C-156.27342565 115.89745449 -156.28642065 118.69358248 -156.30337524 121.49003601 C-156.34952039 129.43823307 -156.37424196 137.38639029 -156.38085938 145.3347168 C-156.38589053 150.20474395 -156.41022081 155.07437326 -156.44618607 159.94426537 C-156.45594608 161.79287509 -156.45833687 163.64153979 -156.45301437 165.49016762 C-156.40195742 184.09693602 -156.40195742 184.09693602 -161 191 C-161.35798676 191.56338577 -161.71597351 192.12677155 -162.08480835 192.70722961 C-165.82836808 197.86468639 -171.14376625 200.04792208 -177 202 C-185.49703869 202.59890189 -193.90085925 201.45594729 -202.3125 200.375 C-203.7338276 200.19744275 -205.15521648 200.02037555 -206.57666016 199.84375 C-220.00869653 198.16433356 -233.42733744 196.37710559 -246.84780884 194.6081543 C-260.96921105 192.74848371 -275.09635117 190.99986495 -289.25732422 189.46875 C-298.71134993 188.43148595 -308.13486127 187.19917016 -317.56054688 185.93408203 C-318.96497746 185.74611518 -320.36941669 185.55821287 -321.77386475 185.37037659 C-325.18267636 184.91432798 -328.59137041 184.45740741 -332 184 C-332.11693089 162.52906201 -332.20503599 141.05817672 -332.25906086 119.58698463 C-332.28481511 109.61696335 -332.31991243 99.64714019 -332.37719727 89.67724609 C-332.4271174 80.98494784 -332.45931121 72.29279313 -332.47044247 63.60035551 C-332.47694667 58.99999745 -332.49217514 54.40004992 -332.52865028 49.79982376 C-332.56274604 45.4643027 -332.57302577 41.12935884 -332.56553841 36.79371643 C-332.56690692 35.20790336 -332.57675851 33.62206973 -332.59602737 32.03637314 C-332.70968791 22.19496694 -332.08870538 14.05614116 -325.52956104 6.25000954 C-322.91271377 4.11143255 -320.25710689 4.88618525 -317 5.15234375 C-315.94800415 5.23584328 -315.94800415 5.23584328 -314.87475586 5.32102966 C-306.20896743 6.06267426 -297.60381296 7.31111546 -289 8.5625 C-287.33862295 8.79939886 -285.67716481 9.03572976 -284.015625 9.27148438 C-280.00945622 9.84114529 -276.00444754 10.4183681 -272 11 C-272.433125 12.051875 -272.433125 12.051875 -272.875 13.125 C-275.01855907 18.6029843 -276.25094096 23.02849658 -276.25878906 28.96069336 C-276.2622937 29.62997864 -276.26579834 30.29926392 -276.26940918 30.98883057 C-276.27816842 33.18927576 -276.27239202 35.38939557 -276.265625 37.58984375 C-276.26697474 39.13717205 -276.26891784 40.68449993 -276.27142334 42.23182678 C-276.27436797 45.47563717 -276.27010357 48.71933724 -276.26074219 51.96313477 C-276.24943401 56.07789794 -276.25585597 60.19239765 -276.26788712 64.30715084 C-276.27519756 67.50663651 -276.2727748 70.70606229 -276.26763153 73.90555 C-276.26631574 75.41987706 -276.26786831 76.93420993 -276.27259064 78.4485302 C-276.3735919 98.87235629 -276.3735919 98.87235629 -270 118 C-268.13738349 120.25410159 -268.13738349 120.25410159 -265.25 120.4375 C-260.93629082 119.85680838 -258.70532747 118.26643242 -256 115 C-254.05746034 111.86831657 -252.25549454 108.69775895 -250.515625 105.44921875 C-249.76539063 104.23685547 -249.76539063 104.23685547 -249 103 C-248.34 103 -247.68 103 -247 103 C-246.72849121 103.53890869 -246.45698242 104.07781738 -246.17724609 104.63305664 C-244.91978294 107.11472377 -243.64753574 109.5885301 -242.375 112.0625 C-241.94832031 112.91005859 -241.52164063 113.75761719 -241.08203125 114.63085938 C-236.13380291 124.42886288 -236.13380291 124.42886288 -227.375 130.25 C-223.92120732 130.33766464 -223.92120732 130.33766464 -221.75 128 C-215.07411774 116.55563041 -214.71444075 104.79203907 -214.72560501 91.82140541 C-214.7265831 89.31040068 -214.71348169 86.79980916 -214.69662476 84.28886414 C-214.65071678 77.15834609 -214.62573683 70.02787801 -214.61914062 62.8972168 C-214.61411179 58.51418314 -214.58980719 54.13159212 -214.55381393 49.74870872 C-214.54406178 48.08906912 -214.54165879 46.42936834 -214.54698563 44.76970863 C-214.59982088 27.51497655 -214.59982088 27.51497655 -208.58705139 20.30593872 C-207 19 -207 19 -203.45336914 18.99487305 C-201.97873166 19.15005517 -200.50595855 19.32362897 -199.03515625 19.51171875 C-198.24660751 19.60000443 -197.45805878 19.6882901 -196.64561462 19.7792511 C-194.11587098 20.0666883 -191.5895214 20.37713024 -189.0625 20.6875 C-187.39534597 20.87838808 -185.72802874 21.06785656 -184.06054688 21.25585938 C-177.18919647 22.04533802 -170.36313504 22.89009992 -163.55859375 24.14453125 C-151.06403733 26.23589477 -139.76784419 24.09946833 -127.49746704 21.668396 C-122.17204334 20.61392291 -116.83946239 19.59665497 -111.5078125 18.57421875 C-110.40011002 18.36081848 -109.29240753 18.14741821 -108.15113831 17.92755127 C-96.06202224 15.60765103 -83.93952209 13.48601203 -71.8125 11.375 C-59.8307293 9.28847852 -47.85357093 7.19697939 -35.9140625 4.87890625 C-34.62416664 4.62935181 -34.62416664 4.62935181 -33.30821228 4.37475586 C-29.34888553 3.60687949 -25.39218054 2.82828649 -21.4387207 2.03076172 C-5.55570322 -1.12150576 -5.55570322 -1.12150576 0 0 Z " fill="#C7C4FC" transform="translate(358,29)"/>
<path d="M0 0 C5.97316756 4.97763963 7.34587231 11.02327429 9.0625 18.3125 C11.10220418 26.56186744 13.34263657 34.700652 15.875 42.8125 C18.32257285 50.67936672 20.49933927 58.54463701 22.40625 66.55859375 C23.12846753 69.39730989 23.98387381 72.06990014 25 74.8125 C26.50175168 79.18426599 27.14523309 83.2955384 26.25 87.875 C23.89336473 91.92546687 22.38131122 93.51685034 17.8984375 94.93603516 C11.96473688 96.27607153 5.91592342 96.82280361 -0.125 97.4609375 C-1.42707901 97.60286026 -2.72915802 97.74478302 -4.07069397 97.89100647 C-7.57354564 98.27243418 -11.07712377 98.64671367 -14.58095169 99.01905441 C-17.48250293 99.32799196 -20.38368185 99.6403529 -23.28487873 99.95259762 C-30.47158274 100.72581492 -37.65912925 101.49084777 -44.84729481 102.25035 C-49.04195231 102.69365877 -53.23621392 103.14049214 -57.43017578 103.59033203 C-62.07280398 104.08777149 -66.71618288 104.57718728 -71.3605957 105.05767822 C-72.96598856 105.22452367 -74.57114478 105.39366582 -76.17602539 105.56536865 C-83.76616277 106.37377723 -91.36426233 107.04867267 -98.99609375 107.28515625 C-100.17743896 107.32906494 -101.35878418 107.37297363 -102.57592773 107.41821289 C-106.75881343 106.70235098 -108.14372301 105.15699999 -110.75 101.875 C-111.83325195 99.67211914 -111.83325195 99.67211914 -112.48828125 97.41015625 C-112.74673828 96.54334229 -113.00519531 95.67652832 -113.27148438 94.78344727 C-113.66303711 93.37470337 -113.66303711 93.37470337 -114.0625 91.9375 C-114.35318359 90.93968506 -114.64386719 89.94187012 -114.94335938 88.91381836 C-117.69527514 79.35587737 -120.23532592 69.7359774 -122.74902344 60.11303711 C-124.34820494 54.01116507 -126.00122088 47.94230466 -127.84765625 41.91015625 C-128.17830078 40.82532959 -128.50894531 39.74050293 -128.84960938 38.62280273 C-129.47137083 36.60633449 -130.10590498 34.59374005 -130.75585938 32.58618164 C-132.50984684 26.88826585 -133.49972697 22.66677918 -131.75 16.875 C-128.67991971 13.09388603 -125.28558672 10.64201645 -120.45361328 9.83007812 C-118.82839205 9.66203044 -117.20006533 9.52239559 -115.5703125 9.40625 C-114.66889023 9.31998352 -113.76746796 9.23371704 -112.83872986 9.14483643 C-109.85248085 8.86417434 -106.86436836 8.61999092 -103.875 8.375 C-101.77113771 8.18289651 -99.66754257 7.98784738 -97.56420898 7.79003906 C-93.04639419 7.36662624 -88.5277093 6.95485053 -84.00830078 6.54882812 C-72.5284098 5.50105797 -61.06871391 4.25429347 -49.60662842 3.02954102 C-45.86389107 2.63047947 -42.12076273 2.23534003 -38.37744141 1.84179688 C-37.20170059 1.71818787 -36.02595978 1.59457886 -34.81459045 1.46722412 C-33.69112717 1.34913391 -32.56766388 1.2310437 -31.41015625 1.109375 C-25.17859715 0.45419981 -18.94828927 -0.20500838 -12.72386169 -0.92523193 C-8.25330207 -1.37768261 -4.25590956 -1.74105391 0 0 Z " fill="#C7C4FC" transform="translate(458.75,143.125)"/>
<path d="M0 0 C9.11389612 7.6826525 14.54576585 15.90483317 19.25 26.75 C19.63800781 27.63816406 20.02601563 28.52632813 20.42578125 29.44140625 C21.67347185 34.44990833 21.57829092 39.35847567 21.5625 44.5 C21.57861328 45.53382813 21.59472656 46.56765625 21.61132812 47.6328125 C21.61995142 61.32659867 16.51091536 75.02176219 7.0234375 85.13671875 C-7.47504365 98.3258657 -21.96036474 101.70208733 -40.97363281 100.96777344 C-53.17343664 100.01084194 -63.59505572 92.25474864 -71.9375 83.75 C-82.99847989 70.61366099 -86.83119944 55.62014364 -85.75 38.75 C-83.57671839 22.69693666 -75.86864568 9.85142371 -63.3203125 -0.1953125 C-61.17834894 -1.67022858 -59.02456031 -2.99101828 -56.75 -4.25 C-56.07195313 -4.63671875 -55.39390625 -5.0234375 -54.6953125 -5.421875 C-37.65898395 -14.56978683 -15.30878541 -11.37601123 0 0 Z " fill="#E6E5FC" transform="translate(112.75,272.25)"/>
<path d="M0 0 C7.90055213 6.75922036 13.81639916 14.68709794 17.75 24.3125 C18.0696875 25.08335937 18.389375 25.85421875 18.71875 26.6484375 C23.30371824 40.10616836 22.33815344 55.99456563 16.51953125 68.85546875 C14.01154745 73.7551722 11.30331466 78.10761804 7.75 82.3125 C7.15574219 83.01761719 6.56148438 83.72273438 5.94921875 84.44921875 C-2.74810728 93.902834 -14.70872659 100.04533078 -27.58203125 100.78125 C-29.40856315 100.81547999 -31.23569277 100.82537731 -33.0625 100.8125 C-34.50653198 100.80283203 -34.50653198 100.80283203 -35.97973633 100.79296875 C-51.23208555 100.403034 -62.70073961 93.39501463 -73.125 82.4375 C-77.13894302 77.76412348 -79.88283723 72.97877938 -82.25 67.3125 C-82.71019531 66.260625 -82.71019531 66.260625 -83.1796875 65.1875 C-88.30120483 52.70075299 -87.82784558 36.85406941 -83.25 24.3125 C-76.3096659 8.61566961 -65.21278594 -2.39912978 -49.25 -8.6875 C-32.8973575 -14.21723625 -13.58128758 -10.32678549 0 0 Z " fill="#E6E5FC" transform="translate(287.25,299.6875)"/>
<path d="M0 0 C1.22291748 0.0117627 2.44583496 0.02352539 3.70581055 0.03564453 C17.89991875 0.29930076 32.01671315 1.76891002 45.75 5.4375 C45.42 6.0975 45.09 6.7575 44.75 7.4375 C42.23543594 8.09757065 39.78213098 8.62897676 37.23046875 9.1015625 C36.44219696 9.25442719 35.65392517 9.40729187 34.84176636 9.56478882 C32.20860288 10.07275515 29.57317754 10.56775698 26.9375 11.0625 C25.08054603 11.4174368 23.2236954 11.77291464 21.36694336 12.12890625 C8.19650688 14.64310321 -4.99383196 17.04876289 -18.1875 19.4375 C-20.00789927 19.76738563 -21.82829314 20.09730106 -23.64868164 20.42724609 C-25.00572456 20.67315994 -25.00572456 20.67315994 -26.3901825 20.92404175 C-30.0666602 21.59043486 -33.74301655 22.25749641 -37.41937256 22.92456055 C-39.33888858 23.27239703 -41.25852987 23.61954283 -43.17828369 23.96606445 C-49.02832792 25.02207688 -54.87597545 26.08990042 -60.72073364 27.17480469 C-62.55153204 27.51253473 -64.38312735 27.84597721 -66.21554565 28.17480469 C-68.75532326 28.63118775 -71.29182511 29.10284692 -73.828125 29.578125 C-74.56573563 29.70705139 -75.30334625 29.83597778 -76.06330872 29.96881104 C-83.02029633 31.30416993 -89.50977334 33.79918789 -94.125 39.375 C-94.67929688 40.02339844 -95.23359375 40.67179687 -95.8046875 41.33984375 C-98.90856889 45.8446662 -99.50356895 49.72568207 -99.53710938 55.14526367 C-99.54735893 56.12711388 -99.54735893 56.12711388 -99.55781555 57.12879944 C-99.57136154 58.54572837 -99.58044175 59.96270561 -99.58552551 61.37969017 C-99.59388105 63.64093351 -99.61445669 65.90178558 -99.63806152 68.16291809 C-99.6861925 72.98355279 -99.7190598 77.80422853 -99.75 82.625 C-100.109607 138.07304173 -100.109607 138.07304173 -106.25 145.4375 C-108.23046875 146.2734375 -108.23046875 146.2734375 -110.25 146.4375 C-122.2234441 136.920147 -128.20215398 117.39188203 -133.25 103.4375 C-134.24 103.4375 -135.23 103.4375 -136.25 103.4375 C-135.7651603 106.63744202 -134.98310795 109.0226095 -133.625 112 C-132.17789852 115.6177537 -132.02780249 116.01660697 -133.25 119.4375 C-140.72882412 135.10516318 -140.72882412 135.10516318 -146.5625 137.3125 C-147.119375 137.35375 -147.67625 137.395 -148.25 137.4375 C-155.27013515 126.65244431 -154.73744712 113.60248817 -154.75390625 101.203125 C-154.76357274 99.47206385 -154.773667 97.74100504 -154.78416443 96.00994873 C-154.80199715 92.40615147 -154.80769798 88.80256865 -154.8059082 85.19873047 C-154.80560207 80.59994818 -154.84674659 76.0025423 -154.89822483 71.40408707 C-154.93168526 67.83851888 -154.93766313 64.27328201 -154.93607903 60.70757294 C-154.93959704 59.01239985 -154.9527417 57.31721614 -154.97607613 55.62220001 C-155.17902998 39.37634486 -155.17902998 39.37634486 -149.99517822 33.07711792 C-145.12635962 28.50279873 -139.74061921 26.75356261 -133.23828125 25.5078125 C-132.48147568 25.35235458 -131.7246701 25.19689667 -130.94493103 25.03672791 C-128.48624181 24.5341257 -126.02453168 24.0484367 -123.5625 23.5625 C-121.83338862 23.21153385 -120.10454951 22.85922376 -118.37597656 22.50561523 C-114.92105984 21.79976226 -111.46515275 21.09914309 -108.00830078 20.40283203 C-101.82758119 19.15405782 -95.66297044 17.83329438 -89.5 16.5 C-87.28780966 16.02451042 -85.07556803 15.54925943 -82.86328125 15.07421875 C-81.68459473 14.82075684 -80.5059082 14.56729492 -79.29150391 14.30615234 C-71.68118739 12.66999797 -64.06988931 11.03841429 -56.45861816 9.40670776 C-52.92436335 8.64886146 -49.39025671 7.89032584 -45.85623169 7.13140869 C-44.16151232 6.7685547 -42.46642346 6.40742207 -40.77096558 6.04803467 C-36.58844359 5.1607763 -32.41380675 4.25078584 -28.24755859 3.28979492 C-18.73692576 1.12777535 -9.80696194 -0.19102208 0 0 Z " fill="#9C99FC" transform="translate(240.25,8.5625)"/>
<path d="M0 0 C2.55817107 0.39558587 5.11888646 0.77047062 7.68017578 1.14526367 C9.33011086 1.39985932 10.97985819 1.65567538 12.62939453 1.9128418 C13.38368744 2.02030228 14.13798035 2.12776276 14.91513062 2.23847961 C20.10774718 3.08134703 23.83885131 4.54066475 28.16845703 7.58081055 C29.62817383 9.78320312 29.62817383 9.78320312 30.43017578 12.1628418 C30.73358887 13.04407715 31.03700195 13.9253125 31.34960938 14.83325195 C32.67710376 19.28752203 33.87901254 23.75301621 34.98095703 28.26831055 C37.03508985 36.42693205 39.2934542 44.48517376 41.79345703 52.51831055 C44.23194184 60.36585826 46.44051827 68.21190933 48.34423828 76.20581055 C48.92235072 78.57305769 49.56208341 80.92570066 50.24658203 83.2644043 C51.48410329 87.71633457 52.56173468 92.10506334 50.15283203 96.38549805 C48.01020164 99.08314715 46.45829046 100.4841994 43.16845703 101.58081055 C37.19585754 102.0188458 31.47260371 101.31331899 25.60595703 100.26831055 C18.18643936 99.02108324 10.76198665 97.98803366 3.29345703 97.08081055 C1.26739788 96.82834668 -0.7586438 96.57574249 -2.78466797 96.32299805 C-6.79271161 95.82554582 -10.80294176 95.35684286 -14.81591797 94.90112305 C-16.69623896 94.67026797 -18.57645257 94.43853615 -20.45654297 94.20581055 C-21.31489746 94.1162207 -22.17325195 94.02663086 -23.05761719 93.93432617 C-28.81553567 93.19166655 -31.78680483 91.79978356 -35.83154297 87.58081055 C-38.28040218 83.94404982 -38.14052801 80.22315236 -38.15380859 75.98583984 C-38.1637384 75.22596771 -38.17366821 74.46609558 -38.18389893 73.68319702 C-38.21306598 71.17377067 -38.226733 68.66459718 -38.23779297 66.1550293 C-38.24930242 64.40631608 -38.26081781 62.65760291 -38.27233887 60.90888977 C-38.2933373 57.24295886 -38.30503656 53.57711538 -38.31201172 49.91113281 C-38.32297576 45.22339396 -38.37102426 40.53681861 -38.42795563 35.84944439 C-38.4652842 32.23678762 -38.47562348 28.624409 -38.47868347 25.0115757 C-38.48472098 23.28403171 -38.50072609 21.55649172 -38.52705383 19.8291378 C-38.74221529 4.62703714 -38.74221529 4.62703714 -34.91552734 0.02929688 C-26.24772672 -6.85238239 -10.38129461 -1.62038206 0 0 Z " fill="#C6C3FC" transform="translate(256.83154296875,142.419189453125)"/>
<path d="M0 0 C8.93076205 6.29673275 14.99909291 16.205124 17.0625 26.890625 C18.06875862 34.89038106 17.73721454 42.66025309 15.375 50.375 C15.14167969 51.17550781 14.90835938 51.97601563 14.66796875 52.80078125 C11.46255904 62.21209834 4.8505042 69.46615995 -3.703125 74.4375 C-11.48153698 78.23184731 -20.31800946 79.09378016 -28.65234375 76.39453125 C-31.1072148 75.19478224 -33.35517743 73.89263965 -35.625 72.375 C-36.511875 71.818125 -37.39875 71.26125 -38.3125 70.6875 C-48.52749574 60.47250426 -52.45672614 48.84706555 -52.9375 34.6875 C-52.80709467 22.39027757 -48.35830961 12.44345172 -39.8984375 3.5625 C-27.95213705 -7.34736343 -13.69741399 -8.35774413 0 0 Z " fill="#D5D5FC" transform="translate(261.625,308.625)"/>
<path d="M0 0 C9.56387847 5.52810343 16.03110811 14.40882032 19.60546875 24.765625 C23.02564175 39.28269119 20.37042057 52.75098977 12.75 65.4375 C7.91258918 72.18506792 0.79582195 77.98891647 -7.5 79.5625 C-18.66736773 80.90203738 -26.46727751 78.57632307 -35.5546875 72.09765625 C-44.16616593 64.57696509 -48.75621612 51.89760187 -49.74609375 40.8046875 C-50.27731978 28.47380439 -46.27908283 17.12970206 -38.5 7.5625 C-27.91364394 -2.6678547 -13.64427204 -6.24134426 0 0 Z " fill="#D5D5FC" transform="translate(84.5,279.4375)"/>
<path d="M0 0 C7.92079735 1.15587985 15.8298724 2.1690211 23.80297852 2.89013672 C27.47480856 3.25650079 30.2097976 3.86931074 33.4375 5.625 C22.93412818 8.59556464 12.22072788 10.33584566 1.47689819 12.18374634 C-4.19308185 13.15980541 -9.86031892 14.1514772 -15.52734375 15.14453125 C-17.27001778 15.44978981 -17.27001778 15.44978981 -19.04789734 15.76121521 C-34.03894378 18.39787836 -48.99394699 21.22580147 -63.94851685 24.06079102 C-65.77583362 24.40607507 -67.60352875 24.74936326 -69.43161011 25.09057617 C-74.02945786 25.94919072 -78.61848546 26.83610138 -83.20068359 27.77490234 C-102.18919875 31.58735916 -119.09780741 30.79125815 -138.1875 28.125 C-139.98422962 27.88303262 -141.78110462 27.64214222 -143.578125 27.40234375 C-147.90801764 26.82223122 -152.23571192 26.22781322 -156.5625 25.625 C-153.8495808 22.9120808 -151.73119533 22.90376865 -147.9609375 22.21484375 C-147.27425491 22.08699997 -146.58757233 21.95915619 -145.88008118 21.82743835 C-143.567162 21.39854155 -141.25237496 20.98070158 -138.9375 20.5625 C-137.28085669 20.25715588 -135.6243659 19.95098323 -133.96801758 19.64404297 C-130.3873537 18.98135862 -126.80598418 18.32267447 -123.22412109 17.66650391 C-114.55995082 16.07641928 -105.90424225 14.44120715 -97.2472229 12.81274414 C-94.236405 12.24744747 -91.22510154 11.68481307 -88.21362305 11.12304688 C-78.65889355 9.33972935 -69.10721663 7.54348354 -59.56437683 5.69744873 C-55.1817145 4.85033536 -50.79765669 4.01057557 -46.41348267 3.17132568 C-44.3286067 2.77008244 -42.24441597 2.36525965 -40.16098022 1.956604 C-37.25875299 1.38762771 -34.35435022 0.83127131 -31.44921875 0.27734375 C-30.6085083 0.1090657 -29.76779785 -0.05921234 -28.90161133 -0.23258972 C-19.12857721 -2.06692374 -9.77464744 -1.49223796 0 0 Z " fill="#BAB5FC" transform="translate(314.5625,19.375)"/>
<path d="M0 0 C3.87196889 5.77345065 5.55202954 11.6944533 7.3125 18.375 C7.92163538 20.61725261 8.53101739 22.85943823 9.140625 25.1015625 C9.44806641 26.2452832 9.75550781 27.38900391 10.07226562 28.56738281 C11.5328996 33.97172853 13.04807853 39.36052787 14.5625 44.75 C14.99260376 46.28624023 14.99260376 46.28624023 15.43139648 47.85351562 C17.39533999 54.865612 19.37715317 61.87248901 21.375 68.875 C21.62580322 69.75510742 21.87660645 70.63521484 22.13500977 71.54199219 C22.36631592 72.35055664 22.59762207 73.15912109 22.8359375 73.9921875 C23.03751465 74.69714355 23.2390918 75.40209961 23.44677734 76.12841797 C23.92991749 77.7629071 24.46102142 79.38306425 25 81 C25.58741222 86.99160465 24.3682157 91.12299367 21 96 C13.58737418 103.22255849 -0.7854714 102.37563881 -10.625 103.375 C-20.96203364 104.45068832 -31.28743979 105.59931735 -41.6105957 106.79943848 C-52.97588519 108.11977265 -64.33729857 109.37730261 -75.73901367 110.34741211 C-81.24068832 110.81941283 -86.70932345 111.43474 -92.1875 112.125 C-109.3205171 114.19277793 -109.3205171 114.19277793 -114.9375 111.4375 C-121.62935973 106.11132593 -123.21772963 98.57413154 -125.3125 90.625 C-125.92163538 88.38274739 -126.53101739 86.14056177 -127.140625 83.8984375 C-127.44806641 82.7547168 -127.75550781 81.61099609 -128.07226562 80.43261719 C-129.53289998 75.02827008 -131.04818785 69.63950385 -132.5625 64.25 C-132.84923584 63.22511475 -133.13597168 62.20022949 -133.43139648 61.14428711 C-135.63574366 53.26947703 -137.87399319 45.4046197 -140.13500977 37.54589844 C-140.36631592 36.74055664 -140.59762207 35.93521484 -140.8359375 35.10546875 C-141.03751465 34.40574951 -141.2390918 33.70603027 -141.44677734 32.98510742 C-143.16845654 26.80727266 -144.42719514 21.0684259 -141.25 15.1875 C-137.5279661 9.91461864 -134.58090273 8.60331085 -128.25 7.5 C-117.67010827 5.70381807 -106.96732721 4.88489703 -96.28610229 3.93434143 C-88.4706914 3.23846877 -80.67106677 2.4507958 -72.875 1.5625 C-70.70183809 1.31757363 -68.52866045 1.07278685 -66.35546875 0.828125 C-64.63142822 0.63379883 -64.63142822 0.63379883 -62.87255859 0.43554688 C-60.95564209 0.21995117 -60.95564209 0.21995117 -59 0 C-57.88579681 -0.12532104 -57.88579681 -0.12532104 -56.74908447 -0.25317383 C-51.73650301 -0.81562905 -46.72295964 -1.3684025 -41.70831299 -1.91213989 C-40.0554597 -2.09268873 -38.40289715 -2.27592381 -36.75067139 -2.46212769 C-6.870667 -5.82513072 -6.870667 -5.82513072 0 0 Z M-29.4921875 1.171875 C-30.69919312 1.29429565 -31.90619873 1.41671631 -33.14978027 1.54284668 C-36.39031893 1.87281018 -39.63043465 2.20657215 -42.8703537 2.54255676 C-44.88099132 2.75061999 -46.89178909 2.95706007 -48.90264893 3.16296387 C-65.74002108 4.88762682 -82.57147515 6.65426585 -99.36791992 8.74560547 C-105.06205795 9.44865833 -110.73192921 10.08881011 -116.45703125 10.4765625 C-117.43816895 10.54713867 -118.41930664 10.61771484 -119.43017578 10.69042969 C-121.17056022 10.80692788 -122.91266213 10.90168252 -124.65576172 10.96582031 C-129.7345761 11.30565033 -132.74204817 12.74494438 -136.6809082 15.94580078 C-139.47142515 20.29142535 -139.21686248 24.84009116 -138.30664062 29.70849609 C-137.92701172 30.96742676 -137.54738281 32.22635742 -137.15625 33.5234375 C-136.95178757 34.21875076 -136.74732513 34.91406403 -136.53666687 35.63044739 C-135.87147217 37.88296641 -135.18573639 40.12865922 -134.5 42.375 C-133.79874919 44.73276864 -133.10292939 47.09209851 -132.40727234 49.45152283 C-131.94039736 51.03348134 -131.47173795 52.61491431 -131.001297 54.19581604 C-128.93255932 61.16016758 -127.03866702 68.1620311 -125.1875 75.1875 C-124.13292001 79.12716584 -123.07028397 83.0645722 -122 87 C-121.76974121 87.84723633 -121.53948242 88.69447266 -121.30224609 89.56738281 C-120.67942279 91.82197576 -120.03302119 94.06796632 -119.375 96.3125 C-119.03210938 97.50488281 -118.68921875 98.69726562 -118.3359375 99.92578125 C-116.7318881 103.61697096 -115.11215211 105.4480366 -112 108 C-108.71856452 108.65704073 -108.71856452 108.65704073 -105.14550781 108.39941406 C-104.4900359 108.37909245 -103.83456398 108.35877083 -103.15922928 108.3378334 C-95.97434016 108.06771311 -88.81882944 107.37013886 -81.671875 106.609375 C-80.24025197 106.46263217 -78.80856365 106.31652511 -77.3768158 106.17100525 C-73.60664757 105.7857713 -69.83754086 105.39100624 -66.06863022 104.99367905 C-62.95665235 104.66662224 -59.84414576 104.34475885 -56.73163509 104.02281857 C-47.15266195 103.03167858 -37.57593651 102.02001658 -28 101 C-26.8719696 100.88017761 -25.74393921 100.76035522 -24.58172607 100.63690186 C-18.61527149 100.00203724 -12.65058241 99.35325615 -6.6875 98.6875 C-6.00546509 98.61277466 -5.32343018 98.53804932 -4.62072754 98.46105957 C7.50057308 97.62800926 7.50057308 97.62800926 18 92.4375 C20.84558514 87.54665055 20.6391632 83.20638916 19.54248047 77.70483398 C18.90051189 75.28136398 18.1850074 72.89300051 17.4375 70.5 C16.88566286 68.65526345 16.33493041 66.81019617 15.78515625 64.96484375 C15.34840576 63.51634033 15.34840576 63.51634033 14.90283203 62.03857422 C13.32618067 56.73219162 11.85637798 51.39610238 10.375 46.0625 C9.7830054 43.9438837 9.19057183 41.82538999 8.59765625 39.70703125 C8.32195801 38.7217041 8.04625977 37.73637695 7.76220703 36.72119141 C6.487128 32.1689714 5.21002334 27.6177498 3.890625 23.078125 C3.25630416 20.88582315 2.64405393 18.68708417 2.046875 16.484375 C0.2774884 10.22130814 -1.15705879 5.47040727 -6 1 C-13.34876188 -1.44958729 -21.93486622 0.38693777 -29.4921875 1.171875 Z " fill="#4709DF" transform="translate(465,142)"/>
<path d="M0 0 C-1.42107038 15.6317742 -9.09566588 28.9452649 -21 39 C-32.62587754 47.78444103 -46.58988511 51.64421117 -61 50 C-76.111918 47.05724392 -88.97008212 38.85047557 -97.91796875 26.3125 C-100.4901286 22.20681967 -102.24048655 18.82163035 -103 14 C-99.87578729 13.50992742 -97.10377101 13.31434401 -94 14 C-92.24945186 15.83072592 -91.26052392 17.66726991 -90.09375 19.91015625 C-87.00835825 25.80545833 -80.74192468 29.89306815 -75 33 C-65.26899111 35.61075848 -56.40297824 34.70331379 -47.66015625 29.76171875 C-39.45590303 24.32835869 -34.36571107 17.00784635 -32.16796875 7.33984375 C-30 4 -30 4 -27.38818359 3.06689453 C-23.95047935 2.40077759 -20.54289456 1.94671157 -17.0625 1.5625 C-15.86947266 1.40330078 -14.67644531 1.24410156 -13.44726562 1.08007812 C-8.92607053 0.49300895 -4.56299161 0 0 0 Z " fill="#E5E4FC" transform="translate(485,329)"/>
<path d="M0 0 C1.46493896 -0.0009668 1.46493896 -0.0009668 2.95947266 -0.00195312 C11.01290707 0.05622306 18.75575807 0.80376932 26.6875 2.1875 C24.13851697 4.73648303 22.44854165 4.84297546 18.92578125 5.5625 C17.68570313 5.8203125 16.445625 6.078125 15.16796875 6.34375 C14.4929834 6.48039063 13.81799805 6.61703125 13.12255859 6.7578125 C10.95529899 7.1965492 8.7899953 7.64397985 6.625 8.09375 C4.25187285 8.58656256 1.87861512 9.07866823 -0.49520874 9.56811523 C-6.93557247 10.89638732 -13.36930271 12.25439087 -19.80078125 13.625 C-20.78238724 13.83418564 -21.76399323 14.04337128 -22.77534485 14.25889587 C-26.79670228 15.11645878 -30.81784658 15.97501694 -34.83889771 16.83401489 C-45.04505442 19.01383346 -55.25221483 21.18430906 -65.4765625 23.27734375 C-67.75247659 23.74675214 -70.02824424 24.21686317 -72.30395508 24.68725586 C-74.37775926 25.11274286 -76.45340876 25.52818175 -78.52929688 25.94335938 C-80.37491211 26.32524414 -80.37491211 26.32524414 -82.2578125 26.71484375 C-83.31500488 26.92874756 -84.37219727 27.14265137 -85.46142578 27.36303711 C-88.35483281 28.03740244 -88.35483281 28.03740244 -90.62841797 29.77954102 C-96.82145986 33.02815595 -104.97986724 31.02471171 -111.6875 30.1640625 C-112.53803955 30.05782562 -113.3885791 29.95158875 -114.26489258 29.84213257 C-116.04333586 29.61802695 -117.82141267 29.39099495 -119.59912109 29.16113281 C-122.33175022 28.8100266 -125.06605434 28.47495086 -127.80078125 28.140625 C-129.53397717 27.92023604 -131.26705501 27.69891597 -133 27.4765625 C-133.81968262 27.37751617 -134.63936523 27.27846985 -135.48388672 27.17642212 C-137.43732977 26.91666968 -139.37764489 26.5613272 -141.3125 26.1875 C-141.6425 25.5275 -141.9725 24.8675 -142.3125 24.1875 C-105.2030694 16.82361514 -67.90320558 10.40520837 -30.61572266 4.01855469 C-29.55123901 3.83572937 -28.48675537 3.65290405 -27.39001465 3.46453857 C-25.39927687 3.12274789 -23.40832229 2.78221663 -21.41711426 2.44317627 C-20.53583862 2.29177185 -19.65456299 2.14036743 -18.74658203 1.984375 C-17.60045944 1.78859863 -17.60045944 1.78859863 -16.43118286 1.58886719 C-15.00353871 1.31841165 -13.5837527 1.00313984 -12.1750946 0.64677429 C-8.2257717 -0.32704066 -4.0453369 -0.00272735 0 0 Z " fill="#B8B2FB" transform="translate(185.3125,4.8125)"/>
<path d="M0 0 C2.83583427 0.47292478 5.67540532 0.91519931 8.51635742 1.35620117 C10.34543797 1.65709031 12.17422623 1.95976279 14.00268555 2.2644043 C14.83931229 2.39171432 15.67593903 2.51902435 16.53791809 2.65019226 C22.72885397 3.734101 28.9855318 5.80076266 32.82499695 11.08909607 C35.99958521 16.73998694 37.31314829 23.30268397 38.8894043 29.53393555 C39.49909041 31.87177434 40.11109199 34.20901043 40.7253418 36.5456543 C41.02666016 37.69340332 41.32797852 38.84115234 41.63842773 40.02368164 C42.83939885 44.49351671 44.15771865 48.92178512 45.5144043 53.34643555 C48.23541142 62.24121843 50.75715972 71.1862345 53.24291992 80.14941406 C53.66541016 81.67199829 53.66541016 81.67199829 54.09643555 83.2253418 C54.34627197 84.12969971 54.5961084 85.03405762 54.85351562 85.96582031 C55.36269405 87.7518008 55.92712336 89.52209274 56.5144043 91.28393555 C56.91223714 96.55522077 56.34090966 99.80051325 53.5144043 104.28393555 C50.12222611 108.10013601 48.02808417 110.09394811 42.8269043 110.48706055 C35.08055411 110.59667871 27.86529627 109.8658999 20.2487793 108.56225586 C13.6892918 107.44228027 7.120926 106.57692822 0.5144043 105.78393555 C-14.73027735 103.90575569 -14.73027735 103.90575569 -22.1105957 102.84643555 C-22.8737207 102.7484668 -23.6368457 102.65049805 -24.4230957 102.54956055 C-30.52688555 101.63509384 -34.59943456 99.374006 -38.7980957 94.72143555 C-41.73968811 90.47246874 -41.64957746 86.61284948 -41.6784668 81.63476562 C-41.68664429 80.85713867 -41.69482178 80.07951172 -41.70324707 79.27832031 C-41.72806909 76.7033769 -41.74461083 74.1284886 -41.7590332 71.5534668 C-41.76435688 70.67256567 -41.76968056 69.79166454 -41.77516556 68.88406944 C-41.80188607 64.21943406 -41.82126258 59.55482531 -41.83569336 54.89013672 C-41.84902085 51.03637901 -41.87685275 47.18315227 -41.91772461 43.32958984 C-41.96713584 38.67061006 -41.991825 34.01211109 -41.99892044 29.35288048 C-42.0056185 27.58151692 -42.02080286 25.81016348 -42.04481125 24.03894997 C-42.26203126 7.040798 -42.26203126 7.040798 -37.89109802 1.61621094 C-28.47462656 -7.30966063 -11.53984837 -1.94223134 0 0 Z M-33.3605957 4.15893555 C-33.93551758 4.69260742 -34.51043945 5.2262793 -35.1027832 5.77612305 C-38.10905576 9.05414906 -37.64692997 12.46024558 -37.66259766 16.66772461 C-37.66916885 17.42891098 -37.67574005 18.19009735 -37.68251038 18.97434998 C-37.7022587 21.49942113 -37.71391027 24.02443272 -37.72387695 26.54956055 C-37.72795248 27.41180992 -37.73202801 28.2740593 -37.73622704 29.16243744 C-37.75709582 33.7275112 -37.77139317 38.29255485 -37.78076172 42.85766602 C-37.79181884 47.56992703 -37.82620817 52.28171486 -37.86593342 56.99380875 C-37.89209987 60.61927153 -37.90045364 64.24462169 -37.9040432 67.87017059 C-37.90891028 69.60688212 -37.92052779 71.34358858 -37.93908119 73.08020782 C-37.96347052 75.51470709 -37.96250827 77.94798392 -37.95556641 80.38256836 C-37.96837646 81.09656296 -37.98118652 81.81055756 -37.99438477 82.54618835 C-37.93322054 88.44851406 -35.79304999 91.98274131 -31.68579102 96.07885742 C-28.60219407 97.76778713 -25.76247759 98.0949378 -22.2824707 98.56518555 C-21.5755307 98.66389954 -20.8685907 98.76261353 -20.14022827 98.86431885 C-17.84009635 99.18242921 -15.53808072 99.48337556 -13.2355957 99.78393555 C-11.6519719 99.99947063 -10.06847598 100.21594734 -8.48510742 100.43334961 C1.77090291 101.8313422 12.03838368 103.15583565 22.31616211 104.38354492 C23.20400391 104.48989258 24.0918457 104.59624023 25.0065918 104.70581055 C25.76311035 104.79443359 26.51962891 104.88305664 27.29907227 104.97436523 C29.72786517 105.31376455 32.11098581 105.79877806 34.5144043 106.28393555 C39.9205815 106.76530749 44.14131265 106.88530514 48.5144043 103.28393555 C51.10829261 100.86893608 51.48642689 99.58696362 51.81518555 96.02612305 C51.70861811 89.51815997 49.63004501 83.31951368 47.8894043 77.09643555 C47.51960147 75.74686694 47.15055006 74.39709223 46.78222656 73.04711914 C45.70744413 69.12193423 44.61297432 65.20253017 43.5144043 61.28393555 C43.23226074 60.27411621 42.95011719 59.26429688 42.65942383 58.22387695 C41.23227993 53.13291176 39.7721499 48.05231169 38.29272461 42.97631836 C37.41326896 39.93408597 36.55349469 36.88657866 35.6940918 33.83862305 C35.07191606 31.65366453 34.44952398 29.4687676 33.8269043 27.28393555 C33.54129639 26.26187012 33.25568848 25.23980469 32.96142578 24.18676758 C30.84528531 15.76027618 30.84528531 15.76027618 25.03295898 9.77294922 C20.58427044 7.89031312 16.30592729 7.17947194 11.54956055 6.4597168 C10.59802597 6.30858932 9.64649139 6.15746185 8.66612244 6.00175476 C6.66064562 5.68538393 4.65439935 5.37385701 2.64746094 5.06689453 C-0.41122559 4.59825424 -3.4669786 4.11326204 -6.52270508 3.62573242 C-8.47763134 3.31942309 -10.43270508 3.01405318 -12.38793945 2.7097168 C-13.29543442 2.56601151 -14.20292938 2.42230621 -15.13792419 2.27424622 C-24.9013152 0.32224877 -24.9013152 0.32224877 -33.3605957 4.15893555 Z " fill="#4709DE" transform="translate(256.485595703125,137.716064453125)"/>
<path d="M0 0 C8.93076205 6.29673275 14.99909291 16.205124 17.0625 26.890625 C18.06875862 34.89038106 17.73721454 42.66025309 15.375 50.375 C15.14167969 51.17550781 14.90835938 51.97601563 14.66796875 52.80078125 C11.46255904 62.21209834 4.8505042 69.46615995 -3.703125 74.4375 C-11.48153698 78.23184731 -20.31800946 79.09378016 -28.65234375 76.39453125 C-31.1072148 75.19478224 -33.35517743 73.89263965 -35.625 72.375 C-36.511875 71.818125 -37.39875 71.26125 -38.3125 70.6875 C-48.52749574 60.47250426 -52.45672614 48.84706555 -52.9375 34.6875 C-52.80709467 22.39027757 -48.35830961 12.44345172 -39.8984375 3.5625 C-27.95213705 -7.34736343 -13.69741399 -8.35774413 0 0 Z M-32.625 3.375 C-33.22699219 3.7875 -33.82898438 4.2 -34.44921875 4.625 C-41.83489636 10.26438941 -46.03639167 18.31088671 -47.625 27.375 C-49.01091196 40.5087825 -47.90838124 52.14792028 -39.375 62.75 C-33.59142438 68.82529106 -27.0363835 73.45645828 -18.5 73.6875 C-9.90793168 73.57429752 -3.71071675 70.21615926 2.51953125 64.43359375 C12.00120129 53.91393036 13.06104459 43.0707475 12.51416016 29.56835938 C11.92649914 20.30599703 7.66288134 13.09471238 1.375 6.375 C-1.80506277 4.00736202 -5.06469317 2.10882972 -8.625 0.375 C-9.285 0.045 -9.945 -0.285 -10.625 -0.625 C-18.75251234 -1.27562763 -25.85333184 -1.51649844 -32.625 3.375 Z " fill="#4C0FDF" transform="translate(261.625,308.625)"/>
<path d="M0 0 C9.56387847 5.52810343 16.03110811 14.40882032 19.60546875 24.765625 C23.02564175 39.28269119 20.37042057 52.75098977 12.75 65.4375 C7.91258918 72.18506792 0.79582195 77.98891647 -7.5 79.5625 C-18.66736773 80.90203738 -26.46727751 78.57632307 -35.5546875 72.09765625 C-44.16616593 64.57696509 -48.75621612 51.89760187 -49.74609375 40.8046875 C-50.27731978 28.47380439 -46.27908283 17.12970206 -38.5 7.5625 C-27.91364394 -2.6678547 -13.64427204 -6.24134426 0 0 Z M-30.5 6.5625 C-31.12390625 7.0471875 -31.7478125 7.531875 -32.390625 8.03125 C-39.88118984 14.67505533 -44.07885445 24.25912475 -44.73828125 34.12890625 C-44.98365041 47.34009859 -42.85022263 57.61995557 -33.5 67.5625 C-26.9709534 73.61381148 -19.98139032 75.99161867 -11.23046875 75.9140625 C-3.94373612 74.97585658 3.3982869 70.37247829 7.98828125 64.734375 C15.07341126 54.95935693 17.6977407 44.53990699 16.5 32.5625 C14.76772664 21.88253369 10.00365431 12.74892013 1.48046875 5.96875 C-8.23278119 -0.92823221 -21.06023599 -0.83827499 -30.5 6.5625 Z " fill="#4B0CDE" transform="translate(84.5,279.4375)"/>
<path d="M0 0 C-2.56289033 9.71200547 -7.63772249 17.28874238 -16 23 C-21.92955793 26.34326139 -28.31515963 26.99344155 -35 26 C-41.05793591 23.90897951 -45.82756829 20.90874319 -50 16 C-50.7425 15.154375 -51.485 14.30875 -52.25 13.4375 C-53.92003202 11.11138398 -54.4232207 9.72816609 -55 7 C-54.43481155 6.92705215 -53.86962311 6.85410431 -53.28730774 6.77894592 C-47.39838078 6.01852746 -41.50977075 5.25569008 -35.62133789 4.49145508 C-33.424478 4.20665593 -31.22753839 3.92247111 -29.03051758 3.63891602 C-25.87039302 3.23095058 -22.71056292 2.82076797 -19.55078125 2.41015625 C-18.08020012 2.22103416 -18.08020012 2.22103416 -16.57991028 2.02809143 C-15.65933334 1.90804245 -14.73875641 1.78799347 -13.7902832 1.66430664 C-12.9842012 1.5599379 -12.1781192 1.45556915 -11.34761047 1.34803772 C-9.7064995 1.1047399 -8.07344877 0.80319029 -6.4506073 0.45848083 C-4 0 -4 0 0 0 Z " fill="#D4D2FC" transform="translate(450,334)"/>
</svg>
