<?xml version="1.0" encoding="UTF-8"?>
<svg version="1.1" xmlns="http://www.w3.org/2000/svg" width="512" height="512">
<path d="M0 0 C2.23061969 1.1257333 4.22480085 2.27668827 6.3125 3.625 C7.65244081 4.45897049 8.99367921 5.29085835 10.3359375 6.12109375 C11.07553711 6.58112793 11.81513672 7.04116211 12.57714844 7.51513672 C17.15072315 10.31808728 21.79874274 12.99432949 26.4375 15.6875 C28.52610741 16.90353292 30.6146482 18.11968027 32.703125 19.3359375 C33.75048828 19.9453418 34.79785156 20.55474609 35.87695312 21.18261719 C40.81543317 24.05644813 45.75172783 26.93402135 50.6875 29.8125 C51.66388428 30.38186279 52.64026855 30.95122559 53.64624023 31.5378418 C62.22576527 36.54331568 70.79466882 41.56681075 79.36239624 46.59243774 C87.56862537 51.40581944 95.78023777 56.20974826 104 61 C112.84159637 66.15263961 121.67305508 71.32232213 130.5 76.5 C142.41754832 83.49608084 142.41754832 83.49608084 154.35717773 90.4543457 C156.3174698 91.60396267 158.26651346 92.77299242 160.20336914 93.96166992 C165.29494123 97.05145683 170.17737705 99.52089461 175.7890625 101.5390625 C189.08836255 106.8044131 189.08836255 106.8044131 193 113 C194.77999203 120.55419915 193.80321862 128.69600887 193.42352295 136.37213135 C192.57865066 147.07328116 192.57865066 147.07328116 195.8125 156.93066406 C201.00368537 161.48750988 207.26464932 163.61670599 213.73632812 165.78759766 C219.15903836 167.80204851 223.9023623 170.85334538 228.8125 173.875 C230.81995149 175.05713317 232.83040836 176.23417672 234.84375 177.40625 C235.85308594 177.99664062 236.86242187 178.58703125 237.90234375 179.1953125 C242.11507494 181.64964013 246.34126715 184.08021511 250.56860352 186.50927734 C254.92037425 189.01219237 259.26451839 191.52820961 263.60888672 194.04394531 C265.93014101 195.38288623 268.25368229 196.7164202 270.58251953 198.04199219 C297.34302291 213.28174726 297.34302291 213.28174726 306 223 C306.74636719 223.81597656 307.49273437 224.63195312 308.26171875 225.47265625 C320.97692141 240.30314216 324.44829169 258.42469881 327 277.1875 C327.18993027 278.5558197 327.18993027 278.5558197 327.38369751 279.95178223 C329.23794242 293.35746198 330.85731494 306.78230387 332.1875 320.25 C332.31483017 321.50097473 332.31483017 321.50097473 332.44473267 322.77722168 C333.43911622 332.70847761 334.07288781 342.58491022 334.24711609 352.56643677 C334.33408701 357.48174507 334.47598359 362.39511359 334.6144104 367.3092041 C334.6626528 369.70404158 334.68019201 372.09971913 334.66513062 374.49499512 C334.0845118 386.99632282 334.0845118 386.99632282 338.72662354 398.07501221 C342.82860559 401.55487241 347.32984638 403.83785993 352.1991272 406.05300903 C354.54826696 407.28830679 355.75664821 408.66882734 357 411 C358.84881178 417.11530049 357.44229332 422.47164295 355.08984375 428.2265625 C350.54065304 436.50579705 341.93906034 440.52621193 334 445 C333.03932617 445.54350098 332.07865234 446.08700195 331.08886719 446.64697266 C325.7475296 449.66126582 320.39301874 452.65113322 315.03125 455.62890625 C310.16939369 458.33538992 305.34760055 461.09783891 300.5625 463.9375 C290.23595881 470.06442835 279.82235506 476.03947292 269.41699219 482.03125 C266.03979997 483.97706866 262.66414404 485.92552291 259.2890625 487.875 C248.86965844 493.89300495 238.44528276 499.90199733 228 505.875 C227.11530029 506.38119873 226.23060059 506.88739746 225.3190918 507.40893555 C224.5125415 507.86953369 223.70599121 508.33013184 222.875 508.8046875 C222.17117188 509.20671387 221.46734375 509.60874023 220.7421875 510.02294922 C215.67493406 512.86475811 210.71721212 512.64084727 205 512 C201.14724503 510.65442108 197.79745159 508.73141866 194.3125 506.625 C193.35827148 506.07626221 192.40404297 505.52752441 191.42089844 504.9621582 C188.59893283 503.33222979 185.79839366 501.66998423 183 500 C181.57273255 499.16605245 180.14445128 498.33383589 178.71484375 497.50390625 C172.82555812 494.06920924 166.96737268 490.58451745 161.13070679 487.06114197 C158.78391018 485.65005094 156.42858604 484.25361137 154.07165527 482.85952759 C152.34300853 481.8306583 150.62498975 480.78399952 148.90722656 479.73706055 C147.84084961 479.10840088 146.77447266 478.47974121 145.67578125 477.83203125 C144.2513269 476.97702026 144.2513269 476.97702026 142.7980957 476.10473633 C139.31366365 474.7290226 137.57591249 474.96829498 134 476 C131.30257981 477.26005799 131.30257981 477.26005799 128.70703125 478.90625 C127.2674707 479.77443359 127.2674707 479.77443359 125.79882812 480.66015625 C124.81333984 481.26730469 123.82785156 481.87445313 122.8125 482.5 C120.84129672 483.70030607 118.86870236 484.89833148 116.89453125 486.09375 C116.02675049 486.62677734 115.15896973 487.15980469 114.26489258 487.70898438 C108.58612398 490.94594981 102.50805644 490.78233645 96.25 489.38671875 C79.40865833 483.95634295 69.36435716 469.17309583 61.5234375 454.17578125 C58.17556294 447.14113685 54.30409184 438.72072782 53.88671875 430.86889648 C53.50886161 426.77238279 52.8316988 424.6914582 49.60375977 422.0078125 C46.2662745 419.9551149 42.85341873 418.10929609 39.375 416.3125 C38.10392943 415.62683104 36.83465793 414.93781733 35.56713867 414.24560547 C32.97682694 412.8334561 30.38000057 411.43460171 27.77783203 410.04443359 C22.20522496 407.05000934 16.76125299 403.83769557 11.3125 400.625 C9.37129923 399.48923206 7.42989834 398.35380609 5.48828125 397.21875 C-2.01312071 392.82151279 -9.51001176 388.41665067 -17 384 C-17.825 384.4846875 -18.65 384.969375 -19.5 385.46875 C-23.30928509 387.68920412 -27.14702165 389.8563593 -31 392 C-32.03374756 392.57621094 -32.03374756 392.57621094 -33.08837891 393.1640625 C-48.81930174 401.81882987 -48.81930174 401.81882987 -58.66796875 399.32421875 C-74.75677187 394.28675902 -85.45378848 380.48063947 -93.0234375 366.07421875 C-95.93649267 360.24672256 -98.10730779 354.23475081 -100 348 C-100.24492188 347.195625 -100.48984375 346.39125 -100.7421875 345.5625 C-101.82481921 341.64722917 -102.20268239 338.05364778 -102 334 C-102.66515625 333.75636719 -103.3303125 333.51273437 -104.015625 333.26171875 C-120.35748998 326.35278892 -135.48160419 316.52687899 -142.4375 299.5625 C-144.56657292 293.76722079 -145.14258208 288.7205013 -145.12025452 282.54656982 C-145.12110894 281.68560613 -145.12196337 280.82464243 -145.12284368 279.93758893 C-145.12449297 277.04788979 -145.11898609 274.15824849 -145.11352539 271.26855469 C-145.11324337 269.19902549 -145.11340154 267.12949618 -145.1139679 265.05996704 C-145.11425531 259.43640758 -145.10836764 253.81286936 -145.10139394 248.18931484 C-145.09515105 242.31430099 -145.09455586 236.43928668 -145.09336853 230.56427002 C-145.09025798 219.4367016 -145.0820483 208.30914298 -145.07201904 197.18157887 C-145.06084935 184.51425564 -145.05534529 171.84693194 -145.05032361 159.17960501 C-145.03986547 133.11973123 -145.02227135 107.05986617 -145 81 C-143.82293991 80.32844627 -143.82293991 80.32844627 -142.62210083 79.64332581 C-139.64887394 77.94665172 -136.67592725 76.24948857 -133.70315552 74.55201721 C-132.42807644 73.82406498 -131.152893 73.09629551 -129.87759399 72.36872864 C-121.51888972 67.59982498 -113.18161662 62.79680662 -104.875 57.9375 C-103.85054779 57.33834274 -102.82609558 56.73918549 -101.77059937 56.12187195 C-100.85114532 55.58407608 -99.93169128 55.04628021 -98.984375 54.4921875 C-89.44177067 48.91570844 -79.85942207 43.40788509 -70.28222656 37.89111328 C-63.78152037 34.14561565 -57.28374968 30.39502735 -50.78564453 26.64501953 C-45.76346298 23.74705111 -40.74072934 20.85005713 -35.71557617 17.95724487 C-33.94954478 16.94052802 -32.18372569 15.92344342 -30.41796875 14.90625 C-28.21265845 13.63599127 -26.00695784 12.36640982 -23.80078125 11.09765625 C-22.79402344 10.51757812 -21.78726563 9.9375 -20.75 9.33984375 C-19.78449219 8.78538574 -18.81898438 8.23092773 -17.82421875 7.65966797 C-15.93354351 6.54860207 -14.06081697 5.40644289 -12.20703125 4.23486328 C-11.33433594 3.68427246 -10.46164063 3.13368164 -9.5625 2.56640625 C-8.80066406 2.07213135 -8.03882813 1.57785645 -7.25390625 1.06860352 C-4.60147996 -0.18894305 -2.90422809 -0.30606619 0 0 Z " fill="#ECECEC" transform="translate(150,0)"/>
<path d="M0 0 C5.63564938 1.20435574 10.23722313 4.0463186 15.11816406 7.01464844 C16.76546509 7.97757813 16.76546509 7.97757813 18.44604492 8.95996094 C21.64112171 10.83267061 24.81773957 12.73387276 27.99316406 14.63964844 C29.51100803 15.53055019 31.03032358 16.41895443 32.55175781 17.30371094 C35.23968099 18.8691125 37.92033422 20.44577014 40.59472656 22.03417969 C45.85815489 25.15789409 51.14407399 28.24284285 56.43066406 31.32714844 C57.93560425 32.2062085 57.93560425 32.2062085 59.47094727 33.10302734 C64.9304176 36.28753901 70.40096161 39.45157692 75.88769531 42.58886719 C77.60484741 43.57270386 77.60484741 43.57270386 79.35668945 44.57641602 C81.53998007 45.82601188 83.72522338 47.07220519 85.9128418 48.31420898 C106.73058895 60.2363618 125.26055419 74.51494713 131.99316406 98.63964844 C136.2235441 115.94853792 137.76517628 133.93586625 139.76208496 151.61260986 C140.12408306 154.78807707 140.50166592 157.9617062 140.87597656 161.13574219 C142.58566844 175.96453715 143.61823327 190.7169887 143.99316406 205.63964844 C143.36667969 205.54425781 142.74019531 205.44886719 142.09472656 205.35058594 C141.27746094 205.23972656 140.46019531 205.12886719 139.61816406 205.01464844 C138.80605469 204.89863281 137.99394531 204.78261719 137.15722656 204.66308594 C136.44308594 204.65535156 135.72894531 204.64761719 134.99316406 204.63964844 C131.63861115 207.99420135 132.69581294 212.38302929 132.67089844 216.94238281 C132.67307373 217.62260498 132.67524902 218.30282715 132.67749023 219.00366211 C132.68060489 221.03849169 132.65736504 223.0718006 132.63183594 225.10644531 C132.62694438 235.04118847 133.01637926 245.8655168 139.99316406 253.63964844 C144.64453486 256.01701573 147.96754131 255.7334901 152.99316406 254.63964844 C156.28450643 253.18604837 159.37615451 251.43236376 162.49316406 249.63964844 C163.3782666 249.14126465 164.26336914 248.64288086 165.17529297 248.12939453 C171.51514786 244.54051627 177.78438672 240.83862067 184.00878906 237.05371094 C188.68841855 234.20927694 193.40254012 231.42388222 198.11816406 228.63964844 C199.03597656 228.09767822 199.95378906 227.55570801 200.89941406 226.99731445 C218.02744757 216.89264266 235.19265509 206.85086622 252.36816406 196.82714844 C253.34188965 196.25875244 254.31561523 195.69035645 255.31884766 195.10473633 C256.22973145 194.57356201 257.14061523 194.0423877 258.07910156 193.49511719 C258.92303467 192.99383301 259.76696777 192.49254883 260.63647461 191.97607422 C262.99316406 190.63964844 262.99316406 190.63964844 265.17211914 189.65869141 C267.35732945 188.72693947 267.35732945 188.72693947 269.99316406 186.63964844 C270.70959969 183.55060132 270.97686911 181.4663608 270.93066406 178.38964844 C270.95483398 177.27203125 270.95483398 177.27203125 270.97949219 176.13183594 C271.01469212 174.30143953 271.0080649 172.47032263 270.99316406 170.63964844 C273.22552103 171.8842101 275.45396068 173.13504234 277.68066406 174.38964844 C278.61942383 174.91171875 278.61942383 174.91171875 279.57714844 175.44433594 C290.9113175 181.85318546 290.9113175 181.85318546 292.74316406 188.26464844 C293.26575688 195.31965154 291.38521983 201.60947066 287.22363281 207.34277344 C282.0752916 212.64439276 275.37909758 216.04107229 268.99316406 219.63964844 C268.03249023 220.18314941 267.07181641 220.72665039 266.08203125 221.28662109 C260.74069366 224.30091426 255.38618281 227.29078166 250.02441406 230.26855469 C245.16255776 232.97503836 240.34076462 235.73748734 235.55566406 238.57714844 C225.22912287 244.70407678 214.81551912 250.67912136 204.41015625 256.67089844 C201.03296403 258.6167171 197.6573081 260.56517135 194.28222656 262.51464844 C183.8628225 268.53265339 173.43844682 274.54164577 162.99316406 280.51464844 C162.10846436 281.02084717 161.22376465 281.5270459 160.31225586 282.04858398 C159.50570557 282.50918213 158.69915527 282.96978027 157.86816406 283.44433594 C157.16433594 283.8463623 156.46050781 284.24838867 155.73535156 284.66259766 C150.66809812 287.50440655 145.71037619 287.28049571 139.99316406 286.63964844 C136.14040909 285.29406952 132.79061565 283.3710671 129.30566406 281.26464844 C128.35143555 280.71591064 127.39720703 280.16717285 126.4140625 279.60180664 C123.59209689 277.97187823 120.79155772 276.30963267 117.99316406 274.63964844 C116.56589661 273.80570089 115.13761534 272.97348433 113.70800781 272.14355469 C107.81872219 268.70885768 101.96053675 265.22416588 96.12387085 261.70079041 C93.77707425 260.28969938 91.4217501 258.89325981 89.06481934 257.49917603 C87.33617259 256.47030674 85.61815381 255.42364796 83.90039062 254.37670898 C82.83401367 253.74804932 81.76763672 253.11938965 80.66894531 252.47167969 C79.24449097 251.6166687 79.24449097 251.6166687 77.79125977 250.74438477 C74.30682771 249.36867104 72.56907656 249.60794341 68.99316406 250.63964844 C66.29574387 251.89970643 66.29574387 251.89970643 63.70019531 253.54589844 C62.26063477 254.41408203 62.26063477 254.41408203 60.79199219 255.29980469 C59.31375977 256.21052734 59.31375977 256.21052734 57.80566406 257.13964844 C55.83446078 258.33995451 53.86186643 259.53797992 51.88769531 260.73339844 C51.01991455 261.26642578 50.15213379 261.79945313 49.25805664 262.34863281 C43.57928804 265.58559825 37.50122051 265.42198489 31.24316406 264.02636719 C14.40182239 258.59599139 4.35752122 243.81274427 -3.48339844 228.81542969 C-6.831273 221.78078529 -10.70274409 213.36037626 -11.12011719 205.50854492 C-11.49797433 201.41203122 -12.17513713 199.33110664 -15.40307617 196.64746094 C-18.74056143 194.59476334 -22.1534172 192.74894453 -25.63183594 190.95214844 C-26.90290651 190.26647947 -28.17217801 189.57746577 -29.43969727 188.88525391 C-32.030009 187.47310453 -34.62683537 186.07425015 -37.22900391 184.68408203 C-42.80161097 181.68965778 -48.24558294 178.47734401 -53.69433594 175.26464844 C-55.63553671 174.1288805 -57.5769376 172.99345453 -59.51855469 171.85839844 C-67.01995665 167.46116123 -74.5168477 163.05629911 -82.00683594 158.63964844 C-82.83183594 159.12433594 -83.65683594 159.60902344 -84.50683594 160.10839844 C-88.31612103 162.32885255 -92.15385758 164.49600774 -96.00683594 166.63964844 C-96.69600098 167.02378906 -97.38516602 167.40792969 -98.09521484 167.80371094 C-113.82613767 176.45847831 -113.82613767 176.45847831 -123.67480469 173.96386719 C-139.7636078 168.92640745 -150.46062441 155.12028791 -158.03027344 140.71386719 C-160.94332861 134.886371 -163.11414373 128.87439925 -165.00683594 122.63964844 C-165.25175781 121.83527344 -165.49667969 121.03089844 -165.74902344 120.20214844 C-166.83165514 116.2868776 -167.20951833 112.69329622 -167.00683594 108.63964844 C-167.67199219 108.39601563 -168.33714844 108.15238281 -169.02246094 107.90136719 C-185.36432591 100.99243736 -200.48844013 91.16652743 -207.44433594 74.20214844 C-209.03619534 69.86914997 -210.13432471 65.96592065 -210.12036133 61.33007812 C-210.1202858 60.48950867 -210.12021027 59.64893921 -210.12013245 58.78289795 C-210.11497116 57.88484436 -210.10980988 56.98679077 -210.10449219 56.06152344 C-210.10307724 55.13494934 -210.10166229 54.20837524 -210.10020447 53.25372314 C-210.09461418 50.29899852 -210.08206344 47.3443501 -210.06933594 44.38964844 C-210.06431968 42.3844412 -210.05975699 40.37923277 -210.05566406 38.37402344 C-210.04464792 33.46253581 -210.02738993 28.55110504 -210.00683594 23.63964844 C-201.43955172 27.82463602 -193.07969403 32.19651303 -184.88183594 37.07714844 C-182.79397251 38.30746681 -180.70540109 39.53658431 -178.61621094 40.76464844 C-177.53791016 41.39886719 -176.45960938 42.03308594 -175.34863281 42.68652344 C-169.6342687 46.02630375 -163.88289523 49.30114934 -158.13183594 52.57714844 C-155.75920079 53.92959365 -153.3868239 55.28249087 -151.01464844 56.63574219 C-150.42904144 56.96980576 -149.84343445 57.30386932 -149.24008179 57.64805603 C-143.1503234 61.12447797 -137.07792816 64.63076606 -131.00683594 68.13964844 C-122.02142763 73.33205283 -113.02046717 78.49645952 -104.00683594 83.63964844 C-94.99320407 88.78283772 -85.99232343 93.94738036 -77.00683594 99.13964844 C-64.73450848 106.23038895 -52.43171944 113.2666832 -40.1212616 120.29093933 C-35.09739264 123.15824753 -30.07525472 126.02858487 -25.05297852 128.89868164 C-24.08413979 129.45232643 -23.11530106 130.00597122 -22.11710358 130.57639313 C-19.74700444 131.9307942 -17.37691547 133.28521306 -15.00683594 134.63964844 C-15.00721296 133.99157699 -15.00758999 133.34350554 -15.00797844 132.67579556 C-15.01510166 116.89236829 -14.98914369 101.10939228 -14.92655754 85.32610226 C-14.89708517 77.69332177 -14.87872901 70.06081931 -14.88671875 62.42797852 C-14.89365586 55.77362468 -14.87955561 49.11970129 -14.84039986 42.46545321 C-14.82040359 38.94330301 -14.81080259 35.42182835 -14.8264122 31.89964104 C-14.84346143 27.96353827 -14.81353354 24.02854011 -14.77978516 20.0925293 C-14.79200607 18.93015244 -14.80422699 17.76777557 -14.81681824 16.57017517 C-14.71852676 10.20965606 -14.09100683 6.42822565 -9.54273987 1.82174587 C-6.39724396 -0.59916248 -3.79150058 -0.25755039 0 0 Z " fill="#C88000" transform="translate(215.0068359375,225.3603515625)"/>
<path d="M0 0 C3.8247014 1.49399061 7.20412942 3.46354441 10.6875 5.625 C12.16899536 6.50309326 12.16899536 6.50309326 13.68041992 7.39892578 C15.75845462 8.6320669 17.83075721 9.87491442 19.89746094 11.12695312 C23.85713693 13.51746574 27.85486891 15.83888062 31.85595703 18.15917969 C34.85644801 19.90050509 37.8505338 21.65245381 40.84375 23.40625 C46.07185422 26.46432373 51.31704682 29.49168969 56.56860352 32.50927734 C60.92037425 35.01219237 65.26451839 37.52820961 69.60888672 40.04394531 C71.93014101 41.38288623 74.25368229 42.7164202 76.58251953 44.04199219 C103.34302291 59.28174726 103.34302291 59.28174726 112 69 C112.74636719 69.81597656 113.49273437 70.63195312 114.26171875 71.47265625 C126.97833078 86.30478599 130.44485954 104.42396772 133 123.1875 C133.12628784 124.09306641 133.25257568 124.99863281 133.38269043 125.93164062 C136.25107968 146.55745244 138.35512303 167.24286952 140 188 C140.06058594 188.76356812 140.12117188 189.52713623 140.18359375 190.31384277 C140.8428571 198.74371501 141.36786862 207.16605839 141.68670654 215.61582947 C141.87228628 220.1603618 142.23251398 224.66633567 142.66526794 229.19361877 C144.90510913 253.6310762 144.90510913 253.6310762 140.29931641 260.55761719 C135.41823587 265.01676827 129.530428 267.22573021 123.42724609 269.56054688 C117.79175744 271.92746817 112.67423189 275.14675644 107.4682312 278.32077026 C104.3933107 280.18372438 101.28544183 281.98987329 98.1796875 283.80078125 C96.95924729 284.51502975 95.73886884 285.22938379 94.51855469 285.94384766 C91.24701844 287.85684567 87.9717562 289.76338628 84.6953125 291.66796875 C82.71348728 292.82021896 80.73171536 293.97256085 78.75 295.125 C77.78642578 295.68533936 76.82285156 296.24567871 75.83007812 296.82299805 C69.63724683 300.43427316 63.48221886 304.10393437 57.34423828 307.80761719 C48.89796465 312.90382172 40.4476046 317.99335291 31.875 322.875 C31.17133301 323.28588867 30.46766602 323.69677734 29.74267578 324.12011719 C24.52352586 327.04752908 19.86251867 328.56127817 13.8125 327.375 C8.41589528 324.73665992 6.55968782 320.45589473 4.61328125 315.0625 C2.64312985 308.43676789 2.77912626 301.81903852 2.75976562 294.97021484 C2.74999664 292.87428015 2.71890372 290.77930145 2.6875 288.68359375 C2.68097487 287.34896412 2.67572248 286.01432753 2.671875 284.6796875 C2.6625293 283.47038574 2.65318359 282.26108398 2.64355469 281.01513672 C3 278 3 278 4.32910156 276.09814453 C6.87827348 274.42278286 9.03054183 274.74728016 12 275 C12.66 275.33 13.32 275.66 14 276 C13.56335196 260.41105753 12.35268358 245.00404309 10.58081055 229.51196289 C10.1883128 226.06962848 9.81111516 222.62585868 9.43554688 219.18164062 C8.19314604 207.99858951 6.76150599 196.87121075 4.921875 185.76953125 C4.67868782 184.3018203 4.67868782 184.3018203 4.43058777 182.80445862 C1.65345681 166.63492251 -3.58480971 151.92478896 -15.7421875 140.33984375 C-17 139 -17 139 -17 137 C-17.56460938 136.7421875 -18.12921875 136.484375 -18.7109375 136.21875 C-21.24972671 134.8670397 -23.35088285 133.26153837 -25.625 131.5 C-31.01044945 127.54073677 -36.62149654 124.31551473 -42.48681641 121.1237793 C-48.89346833 117.6336856 -55.20687389 114.00311296 -61.5 110.3125 C-69.98217592 105.34358312 -78.48062333 100.40488336 -87 95.5 C-96.89223623 89.80345183 -106.7616078 84.06911539 -116.61328125 78.30273438 C-117.55558594 77.75166016 -118.49789062 77.20058594 -119.46875 76.6328125 C-120.29826172 76.14699707 -121.12777344 75.66118164 -121.98242188 75.16064453 C-125.02051894 73.41292993 -127.14065393 72.78593461 -130.625 72.4375 C-131.85089844 72.31181641 -131.85089844 72.31181641 -133.1015625 72.18359375 C-133.72804687 72.12300781 -134.35453125 72.06242187 -135 72 C-132.09058017 69.73050047 -129.10539313 67.82442956 -125.90625 65.98828125 C-124.89030762 65.40361084 -123.87436523 64.81894043 -122.82763672 64.21655273 C-121.7295166 63.58821533 -120.63139648 62.95987793 -119.5 62.3125 C-118.33988709 61.64612256 -117.17989596 60.9795331 -116.02001953 60.31274414 C-107.0581963 55.16447735 -98.07916904 50.04618189 -89.10131836 44.92593384 C-80.06813401 39.77309912 -71.07424002 34.55608917 -62.09960938 29.30200195 C-50.90269906 22.75650274 -39.65557435 16.29174324 -28.35058594 9.93457031 C-26.00353124 8.57942156 -23.72013251 7.20060551 -21.43847656 5.74511719 C-14.48167667 1.37849505 -8.43871342 -2.01723487 0 0 Z " fill="#FED513" transform="translate(344,154)"/>
<path d="M0 0 C3.93195472 1.2717644 7.36655837 2.61732968 10.921875 4.73046875 C11.85112793 5.27823975 12.78038086 5.82601074 13.73779297 6.39038086 C15.22883545 7.27995483 15.22883545 7.27995483 16.75 8.1875 C18.91367549 9.46419778 21.07775166 10.74021671 23.2421875 12.015625 C24.35819336 12.67498047 25.47419922 13.33433594 26.62402344 14.01367188 C32.0212633 17.18925356 37.44764 20.3137656 42.875 23.4375 C45.05991376 24.69658348 47.24480949 25.95569823 49.4296875 27.21484375 C50.51475586 27.83987793 51.59982422 28.46491211 52.71777344 29.10888672 C58.14659942 32.23680148 63.57319281 35.36858448 69 38.5 C71.16665583 39.75001879 73.3333225 41.00001878 75.5 42.25 C108 61 108 61 140.5 79.75 C141.57378906 80.3694751 142.64757812 80.9889502 143.75390625 81.62719727 C145.9076172 82.86976019 148.06126367 84.11243489 150.21484375 85.35522461 C155.23684262 88.25314623 160.25942807 91.15003349 165.28442383 94.04275513 C167.05045522 95.05947198 168.81627431 96.07655658 170.58203125 97.09375 C172.78734155 98.36400873 174.99304216 99.63359018 177.19921875 100.90234375 C178.20597656 101.48242188 179.21273437 102.0625 180.25 102.66015625 C181.12140625 103.16168213 181.9928125 103.66320801 182.890625 104.17993164 C183.91671875 104.7805542 184.9428125 105.38117676 186 106 C186.80890875 106.30708924 187.6178175 106.61417849 188.45123863 106.93057346 C191.54705494 108.30718311 193.6246002 109.56622939 196 112 C197.50037957 117.27178712 197.2658442 122.49384971 197.13525391 127.91943359 C197.13243164 129.55576402 197.1340195 131.1921071 197.13967896 132.82843018 C197.14254555 137.26293132 197.08380843 141.69472146 197.01393938 146.12859297 C196.95137578 150.76491979 196.94554833 155.40131058 196.9336853 160.03799438 C196.90261795 168.81447006 196.82057809 177.58969837 196.72019041 186.36562502 C196.60837039 196.35814231 196.55342287 206.35071955 196.50323606 216.34370685 C196.39874232 236.89650049 196.22287977 257.44817163 196 278 C193.75146743 276.88271725 191.50370099 275.76393736 189.25634766 274.64428711 C188.62297989 274.32976341 187.98961212 274.01523972 187.33705139 273.691185 C182.90213126 271.47968318 178.60516302 269.1385198 174.375 266.5625 C166.82548528 262.04884448 159.20515281 257.66627552 151.5625 253.3125 C149.12605467 251.92361064 146.68987841 250.53425033 144.25390625 249.14453125 C143.34260956 248.62464378 143.34260956 248.62464378 142.41290283 248.09425354 C136.26330702 244.58354569 130.13069424 241.04359662 124 237.5 C114.38494042 231.94267871 104.74742069 226.42579885 95.09976196 220.92538452 C85.94054522 215.70145878 76.82437935 210.40710245 67.72607422 205.07788086 C60.08284057 200.60989102 52.38402465 196.24679028 44.66748047 191.90698242 C34.71893872 186.30056997 24.77565781 180.65292225 15.02295303 174.71083927 C12.04484889 172.94318992 12.04484889 172.94318992 8.87472153 171.7112112 C5.37263723 170.1335623 2.79856127 168.64588104 0 166 C-1.75656556 160.6818248 -1.52221456 155.49014268 -1.36230469 149.96704102 C-1.35891708 148.33056387 -1.36082515 146.6940685 -1.36761475 145.05760193 C-1.37105157 140.62679753 -1.30062715 136.19990877 -1.21672726 131.77001309 C-1.14159389 127.13642441 -1.13465372 122.50274091 -1.12042236 117.86863708 C-1.08315745 109.09901274 -0.98473417 100.33118839 -0.86422849 91.56235594 C-0.72999241 81.57714882 -0.66409488 71.59185466 -0.60388327 61.60596955 C-0.47852752 41.06964254 -0.267526 20.53493475 0 0 Z " fill="#82A5B8" transform="translate(5,83)"/>
<path d="M0 0 C8.56728422 4.18498758 16.92714191 8.55686459 25.125 13.4375 C27.21286343 14.66781837 29.30143485 15.89693587 31.390625 17.125 C32.46892578 17.75921875 33.54722656 18.3934375 34.65820312 19.046875 C40.37256723 22.38665531 46.1239407 25.6615009 51.875 28.9375 C54.24763514 30.28994521 56.62001204 31.64284243 58.9921875 32.99609375 C59.57779449 33.33015732 60.16340149 33.66422089 60.76675415 34.00840759 C66.85651253 37.48482953 72.92890777 40.99111763 79 44.5 C87.98540831 49.69240439 96.98636877 54.85681108 106 60 C116.08449252 65.75422367 126.15012104 71.54027277 136.20214844 77.35107422 C142.41520188 80.94002183 148.63593631 84.51475114 154.87419128 88.05969238 C157.8448941 89.74865779 160.80932335 91.44688856 163.76098633 93.16894531 C169.29425961 96.38733576 174.83484339 99.44967658 180.62109375 102.1953125 C195.01866349 109.28621444 195.01866349 109.28621444 196.87207031 114.41162109 C197.524644 118.86316492 197.27717451 123.13081857 196.97265625 127.6015625 C196.7981506 131.0111345 196.80127604 131.70899601 198.80859375 134.6484375 C202.17488596 136.94290227 204.4257244 138.16660279 208.546875 137.73046875 C210.98194025 137.09619458 210.98194025 137.09619458 212.96875 135.9375 C218.16441558 133.5395005 224.77034128 135.29069527 229.99609375 136.953125 C243.69663369 142.99373491 253.18053066 155.04768981 260 168 C260.55300781 169.04929687 261.10601562 170.09859375 261.67578125 171.1796875 C266.895647 181.77484925 270.13285053 192.03017489 270.01660156 203.82836914 C269.66240292 212.05948231 269.66240292 212.05948231 273.72265625 218.7578125 C276.7614993 220.45672125 279.77012298 221.72363834 283 223 C283 223.66 283 224.32 283 225 C279.35416552 227.12144111 275.70625918 229.23926011 272.05639648 231.35375977 C270.81526153 232.07347212 269.57469637 232.79416802 268.3347168 233.51586914 C266.55146078 234.55354275 264.76618003 235.58765249 262.98046875 236.62109375 C261.90692139 237.2442749 260.83337402 237.86745605 259.72729492 238.50952148 C253.74548603 241.77860601 247.83351482 241.85491737 241.25 240.38671875 C224.40865833 234.95634295 214.36435716 220.17309583 206.5234375 205.17578125 C203.17556294 198.14113685 199.30409184 189.72072782 198.88671875 181.86889648 C198.50886161 177.77238279 197.8316988 175.6914582 194.60375977 173.0078125 C191.2662745 170.9551149 187.85341873 169.10929609 184.375 167.3125 C183.10392943 166.62683104 181.83465793 165.93781733 180.56713867 165.24560547 C177.97682694 163.8334561 175.38000057 162.43460171 172.77783203 161.04443359 C167.20522496 158.05000934 161.76125299 154.83769557 156.3125 151.625 C154.37129923 150.48923206 152.42989834 149.35380609 150.48828125 148.21875 C142.98687929 143.82151279 135.48998824 139.41665067 128 135 C127.175 135.4846875 126.35 135.969375 125.5 136.46875 C121.69071491 138.68920412 117.85297835 140.8563593 114 143 C113.31083496 143.38414062 112.62166992 143.76828125 111.91162109 144.1640625 C96.18069826 152.81882987 96.18069826 152.81882987 86.33203125 150.32421875 C70.24322813 145.28675902 59.54621152 131.48063947 51.9765625 117.07421875 C49.06350733 111.24672256 46.89269221 105.23475081 45 99 C44.75507812 98.195625 44.51015625 97.39125 44.2578125 96.5625 C43.17518079 92.64722917 42.79731761 89.05364778 43 85 C42.33484375 84.75636719 41.6696875 84.51273437 40.984375 84.26171875 C24.64251002 77.35278892 9.51839581 67.52687899 2.5625 50.5625 C0.9706406 46.22950154 -0.12748877 42.32627221 -0.11352539 37.69042969 C-0.11344986 36.84986023 -0.11337433 36.00929077 -0.11329651 35.14324951 C-0.10813522 34.24519592 -0.10297394 33.34714233 -0.09765625 32.421875 C-0.0962413 31.4953009 -0.09482635 30.56872681 -0.09336853 29.61407471 C-0.08777824 26.65935008 -0.0752275 23.70470167 -0.0625 20.75 C-0.05748375 18.74479276 -0.05292106 16.73958433 -0.04882812 14.734375 C-0.03781199 9.82288737 -0.020554 4.9114566 0 0 Z " fill="#242A2F" transform="translate(5,249)"/>
<path d="M0 0 C2.3125 0.8125 2.3125 0.8125 4.3125 2.8125 C4.82739258 4.80737305 4.82739258 4.80737305 5.20703125 7.32421875 C5.35551514 8.29101562 5.50399902 9.2578125 5.65698242 10.25390625 C5.88865112 11.86072266 5.88865112 11.86072266 6.125 13.5 C6.29169189 14.61890625 6.45838379 15.7378125 6.63012695 16.890625 C16.5766758 84.92920333 16.5766758 84.92920333 11.3125 93.8125 C5.89624173 100.39050643 -2.12098588 103.99208487 -9.4765625 107.96484375 C-15.07863406 110.99885389 -20.57032563 114.2098972 -26.0625 117.4375 C-36.26339495 123.41608277 -46.49652531 129.33582169 -56.78393555 135.16430664 C-61.79302876 138.00381976 -66.790547 140.84831773 -71.69921875 143.859375 C-72.42109375 144.29338623 -73.14296875 144.72739746 -73.88671875 145.17456055 C-75.14715563 145.9355586 -76.39746703 146.71380536 -77.6328125 147.51489258 C-81.84905407 150.02665649 -84.99758981 149.9833816 -89.67749023 149.34741211 C-93.19731716 148.41070122 -94.6139168 146.73991158 -96.6875 143.8125 C-99.94107707 136.53421906 -100.74106766 128.70381331 -101.73046875 120.87109375 C-101.90490835 119.53540382 -102.07999486 118.19979823 -102.25569153 116.86427307 C-102.61998278 114.08053407 -102.97824165 111.29611005 -103.33178711 108.51098633 C-103.78272716 104.96050824 -104.24612157 101.4117963 -104.71372509 97.86347866 C-105.07552038 95.11090032 -105.43203137 92.35765802 -105.78685951 89.60417366 C-106.0372588 87.66530647 -106.29095285 85.72686569 -106.54472351 83.78843689 C-108.78646317 66.03702431 -108.78646317 66.03702431 -105.16894531 60.4609375 C-102.0845256 57.02883436 -98.06463812 55.01367597 -94.0625 52.8125 C-93.09828125 52.26271484 -92.1340625 51.71292969 -91.140625 51.14648438 C-89.07008054 49.9669095 -86.99538383 48.79459894 -84.91699219 47.62890625 C-80.58046618 45.18985624 -76.27431593 42.69964187 -71.96728516 40.20898438 C-69.76776955 38.93714894 -67.5669052 37.66764339 -65.36474609 36.40039062 C-57.55882537 31.90820617 -49.79729001 27.34589031 -42.05297852 22.74853516 C-33.49373233 17.67691024 -24.8766699 12.70713417 -16.25195312 7.74804688 C-15.20845703 7.14798828 -14.16496094 6.54792969 -13.08984375 5.9296875 C-12.16679443 5.39972168 -11.24374512 4.86975586 -10.29272461 4.32373047 C-8.51114033 3.29027468 -6.75319423 2.21526202 -5.01782227 1.10595703 C-2.6875 -0.1875 -2.6875 -0.1875 0 0 Z " fill="#304E74" transform="translate(460.6875,252.1875)"/>
<path d="M0 0 C2.04924776 1.09166522 4.07150969 2.22303927 6.09082031 3.36914062 C7.25278931 4.02124512 7.25278931 4.02124512 8.43823242 4.68652344 C15.95148469 8.9241247 23.38844473 13.29285656 30.82763672 17.65869141 C38.15573822 21.94873474 45.54364229 26.11937518 52.96582031 30.24414062 C60.83593907 34.62822003 68.66220472 39.07300998 76.40332031 43.68164062 C77.2105957 44.15811035 78.01787109 44.63458008 78.84960938 45.12548828 C91.05038085 52.45690526 100.96234035 63.12333733 104.76828003 77.15609741 C106.05174339 82.80495762 106.77590808 88.39192456 107.28613281 94.15820312 C107.3720871 95.08329681 107.45804138 96.0083905 107.54660034 96.96151733 C107.72571397 98.90247827 107.90203888 100.84369841 108.07568359 102.78515625 C108.34076408 105.74351305 108.6154846 108.70085808 108.89160156 111.65820312 C109.06534665 113.55398449 109.23854256 115.44981628 109.41113281 117.34570312 C109.49235382 118.22191315 109.57357483 119.09812317 109.65725708 120.00088501 C110.83413978 133.28882592 110.83413978 133.28882592 108.02832031 137.05664062 C105.21582031 139.11914062 105.21582031 139.11914062 103.02050781 139.60351562 C98.64418323 138.84771584 95.91537517 136.19098628 92.52832031 133.43164062 C91.00270314 132.22632699 89.47530294 131.0232674 87.94628906 129.82226562 C86.77138916 128.89510742 86.77138916 128.89510742 85.57275391 127.94921875 C81.89812502 125.09599541 78.12538382 122.38638869 74.34082031 119.68164062 C61.54036386 110.49692011 48.87145579 101.13710933 36.28271484 91.66455078 C31.03471123 87.72036647 25.75440521 83.82119518 20.46582031 79.93164062 C5.6815215 69.05620958 5.6815215 69.05620958 -0.78417969 64.11914062 C-1.65945312 63.46042969 -2.53472656 62.80171875 -3.43652344 62.12304688 C-9.6790689 56.79455133 -12.69692516 49.08436276 -13.78417969 41.11914062 C-13.94326874 38.12701475 -13.97157708 35.13853766 -13.98730469 32.14257812 C-13.99300476 31.29490875 -13.99870483 30.44723938 -14.00457764 29.57388306 C-14.01398376 27.79047886 -14.02054406 26.00705762 -14.02441406 24.22363281 C-14.03417379 21.49578979 -14.06525946 18.76868392 -14.09667969 16.04101562 C-14.10320553 14.30404091 -14.10845764 12.56706084 -14.11230469 10.83007812 C-14.12465149 10.0164682 -14.13699829 9.20285828 -14.14971924 8.36459351 C-14.13665602 5.05148873 -14.03523986 2.58659076 -12.45117188 -0.36279297 C-8.23448538 -4.20276904 -4.60044517 -2.27126522 0 0 Z " fill="#243B57" transform="translate(231.7841796875,254.880859375)"/>
<path d="M0 0 C10.54973813 7.23372411 18.15964069 16.8648049 24.08203125 28.11328125 C24.63503906 29.16257812 25.18804687 30.211875 25.7578125 31.29296875 C30.97767825 41.8881305 34.21488178 52.14345614 34.09863281 63.94165039 C33.74443417 72.17276356 33.74443417 72.17276356 37.8046875 78.87109375 C40.84353055 80.5700025 43.85215423 81.83691959 47.08203125 83.11328125 C47.08203125 83.77328125 47.08203125 84.43328125 47.08203125 85.11328125 C43.43619677 87.23472236 39.78829043 89.35254136 36.13842773 91.46704102 C34.89729278 92.18675337 33.65672762 92.90744927 32.41674805 93.62915039 C30.63349203 94.666824 28.84821128 95.70093374 27.0625 96.734375 C25.45217896 97.66914673 25.45217896 97.66914673 23.80932617 98.62280273 C17.82751728 101.89188726 11.91554607 101.96819862 5.33203125 100.5 C-11.50931042 95.0696242 -21.55361159 80.28637708 -29.39453125 65.2890625 C-32.64613612 58.45670257 -34.91721456 51.40043182 -36.91796875 44.11328125 C-37.15773437 43.31664062 -37.3975 42.52 -37.64453125 41.69921875 C-40.81996085 29.3785519 -39.2810536 14.21137162 -32.82421875 3.2578125 C-24.52520445 -8.09725774 -11.04909516 -6.06758961 0 0 Z " fill="#2F373D" transform="translate(240.91796875,388.88671875)"/>
<path d="M0 0 C3.24717593 2.08562651 6.13014507 4.42476896 9 7 C9.92425781 7.81984375 9.92425781 7.81984375 10.8671875 8.65625 C25.86602536 22.78848834 35.34444261 44.85848939 36.22265625 65.33984375 C36.57711386 78.45340668 35.18341511 88.8830012 26 99 C20.85453477 102.23973737 15.92795983 102.83066953 10 102 C-4.07487145 98.58297918 -14.8731743 88.27454653 -22.45703125 76.2265625 C-27.45552776 67.85482239 -31.16427452 59.34121334 -34 50 C-34.24492188 49.195625 -34.48984375 48.39125 -34.7421875 47.5625 C-35.82481921 43.64722917 -36.20268239 40.05364778 -36 36 C-36.66 35.67 -37.32 35.34 -38 35 C-37.34 35 -36.68 35 -36 35 C-36.04640625 33.90042969 -36.0928125 32.80085938 -36.140625 31.66796875 C-36.47047687 20.51366773 -35.65222663 10.57114305 -28.47265625 1.4375 C-20.03218026 -6.80147921 -9.70690012 -4.70805426 0 0 Z " fill="#2E373D" transform="translate(84,298)"/>
<path d="M0 0 C0.33 0 0.66 0 1 0 C1.08326538 1.30880127 1.08326538 1.30880127 1.16821289 2.64404297 C1.2480542 3.87268066 1.32789551 5.10131836 1.41015625 6.3671875 C1.45237808 7.03797333 1.49459991 7.70875916 1.5381012 8.39987183 C1.77693893 12.07573093 2.06189645 15.73870926 2.43701172 19.40332031 C5.1136606 46.15204658 5.1136606 46.15204658 0.30371094 53.64111328 C-4.55685992 58.05991274 -10.50817054 60.24049636 -16.57275391 62.56054688 C-22.20824256 64.92746817 -27.32576811 68.14675644 -32.5317688 71.32077026 C-35.6066893 73.18372438 -38.71455817 74.98987329 -41.8203125 76.80078125 C-43.04075271 77.51502975 -44.26113116 78.22938379 -45.48144531 78.94384766 C-48.75298156 80.85684567 -52.0282438 82.76338628 -55.3046875 84.66796875 C-57.28651272 85.82021896 -59.26828464 86.97256085 -61.25 88.125 C-62.21357422 88.68533936 -63.17714844 89.24567871 -64.16992188 89.82299805 C-70.36275317 93.43427316 -76.51778114 97.10393437 -82.65576172 100.80761719 C-91.10203535 105.90382172 -99.5523954 110.99335291 -108.125 115.875 C-109.18050049 116.49133301 -109.18050049 116.49133301 -110.25732422 117.12011719 C-115.47647414 120.04752908 -120.13748133 121.56127817 -126.1875 120.375 C-131.58410472 117.73665992 -133.44031218 113.45589473 -135.38671875 108.0625 C-137.35687015 101.43676789 -137.22087374 94.81903852 -137.24023438 87.97021484 C-137.25000336 85.87428015 -137.28109628 83.77930145 -137.3125 81.68359375 C-137.31902513 80.34896412 -137.32427752 79.01432753 -137.328125 77.6796875 C-137.3374707 76.47038574 -137.34681641 75.26108398 -137.35644531 74.01513672 C-137 71 -137 71 -135.67089844 69.09814453 C-133.12172652 67.42278286 -130.96945817 67.74728016 -128 68 C-127.34 68.33 -126.68 68.66 -126 69 C-119.05442336 69.97726707 -112.19547319 70.21440395 -105.1875 70.25 C-104.18396484 70.270625 -103.18042969 70.29125 -102.14648438 70.3125 C-89.14501443 70.37930267 -79.39416435 66.6663597 -68.25 60.1875 C-67.0787583 59.51972134 -65.9068704 58.85307494 -64.734375 58.1875 C-61.7347281 56.47939328 -58.74593861 54.75323994 -55.76049805 53.02044678 C-52.94359494 51.38767036 -50.119381 49.76759753 -47.296875 48.14453125 C-39.97351337 43.91738226 -39.97351337 43.91738226 -32.6953125 39.61328125 C-30.84772561 38.50740678 -28.98752144 37.42242077 -27.1171875 36.35546875 C-16.33783286 29.96715912 -11.30082388 21.31655568 -5.5625 10.4375 C-5.02173828 9.42880859 -4.48097656 8.42011719 -3.92382812 7.38085938 C-2.60832459 4.92447667 -1.30059365 2.46429958 0 0 Z " fill="#FDFDFD" transform="translate(484,361)"/>
<path d="M0 0 C2.23235697 1.24456167 4.46079662 2.4953939 6.6875 3.75 C7.31333984 4.09804688 7.93917969 4.44609375 8.58398438 4.8046875 C19.91815343 11.21353702 19.91815343 11.21353702 21.75 17.625 C22.27259282 24.6800031 20.39205577 30.96982222 16.23046875 36.703125 C11.08212754 42.00474432 4.38593352 45.40142385 -2 49 C-2.96067383 49.54350098 -3.92134766 50.08700195 -4.91113281 50.64697266 C-10.2524704 53.66126582 -15.60698126 56.65113322 -20.96875 59.62890625 C-25.83060631 62.33538992 -30.65239945 65.09783891 -35.4375 67.9375 C-45.76404119 74.06442835 -56.17764494 80.03947292 -66.58300781 86.03125 C-69.96020003 87.97706866 -73.33585596 89.92552291 -76.7109375 91.875 C-87.13034156 97.89300495 -97.55471724 103.90199733 -108 109.875 C-109.32704956 110.6342981 -109.32704956 110.6342981 -110.6809082 111.40893555 C-111.4874585 111.86953369 -112.29400879 112.33013184 -113.125 112.8046875 C-114.18074219 113.40772705 -114.18074219 113.40772705 -115.2578125 114.02294922 C-120.31831738 116.8609734 -125.2925166 116.74270886 -131 116 C-135.00933904 114.34112993 -138.30838629 112.3315455 -142 110 C-142 102.41 -142 94.82 -142 87 C-135 83 -135 83 -132.625 83.1875 C-131.75875 83.455625 -130.8925 83.72375 -130 84 C-121.09294326 86.4822945 -114.98669241 82.65454975 -107.37060547 78.35986328 C-100.13946159 74.21182297 -92.96258511 69.97988254 -85.81591797 65.68798828 C-81.36831168 63.0218924 -76.90301569 60.38595171 -72.4375 57.75 C-71.54708008 57.22374023 -70.65666016 56.69748047 -69.73925781 56.15527344 C-52.73427438 46.10985852 -35.68296411 36.14261798 -18.625 26.1875 C-17.65127441 25.619104 -16.67754883 25.05070801 -15.67431641 24.46508789 C-14.76343262 23.93391357 -13.85254883 23.40273926 -12.9140625 22.85546875 C-12.07012939 22.35418457 -11.22619629 21.85290039 -10.35668945 21.33642578 C-8 20 -8 20 -5.82104492 19.01904297 C-3.63583461 18.08729103 -3.63583461 18.08729103 -1 16 C-0.28356437 12.91095288 -0.01629496 10.82671236 -0.0625 7.75 C-0.04638672 7.00492187 -0.03027344 6.25984375 -0.01367188 5.4921875 C0.02152806 3.66179109 0.01490084 1.8306742 0 0 Z " fill="#2D363C" transform="translate(486,396)"/>
<path d="M0 0 C0 13.2 0 26.4 0 40 C-4.455 40.495 -4.455 40.495 -9 41 C-12.05513438 42.1611629 -12.05513438 42.1611629 -14.75 43.80859375 C-15.76102783 44.38528809 -16.77205566 44.96198242 -17.8137207 45.55615234 C-18.86519287 46.17699707 -19.91666504 46.7978418 -21 47.4375 C-22.66518677 48.3958374 -22.66518677 48.3958374 -24.36401367 49.37353516 C-27.58575582 51.23288855 -30.79473158 53.11242397 -34 55 C-35.47519095 55.86339995 -36.95044134 56.72669835 -38.42578125 57.58984375 C-40.37688209 58.73486053 -42.32594716 59.88298315 -44.27124023 61.0378418 C-50.98899605 65.02224842 -57.77617836 68.88408457 -64.5625 72.75 C-74.36976752 78.33801215 -84.14178286 83.98120914 -93.88061523 89.68798828 C-99.40542491 92.91975054 -104.94636469 96.12090459 -110.5078125 99.2890625 C-111.46019806 99.83176788 -111.46019806 99.83176788 -112.43182373 100.38543701 C-115.5320033 102.15108454 -118.63395793 103.91352369 -121.73828125 105.671875 C-123.41857422 106.62707031 -123.41857422 106.62707031 -125.1328125 107.6015625 C-126.12168457 108.16182129 -127.11055664 108.72208008 -128.12939453 109.29931641 C-132.91162579 112.13253829 -137.20084428 114.90860153 -141 119 C-144.76619425 86.70247011 -144.76619425 86.70247011 -139.06347656 78.06787109 C-133.65976511 73.34041731 -127.12779556 70.90471571 -120.47265625 68.40625 C-114.67788673 66.05966167 -109.467981 62.78203025 -104.125 59.5625 C-101.94287501 58.29858946 -99.75795837 57.0394867 -97.5703125 55.78515625 C-91.04513757 52.02644619 -84.5223655 48.2635825 -78 44.5 C-75.83334417 43.24998121 -73.6666775 41.99998122 -71.5 40.75 C-70.4275 40.13125 -69.355 39.5125 -68.25 38.875 C-58.5 33.25 -58.5 33.25 -55.24658203 31.37304688 C-53.09128689 30.1295949 -50.93601327 28.88610564 -48.78076172 27.64257812 C-43.77662326 24.75537125 -38.7722948 21.8684957 -33.76715088 18.98303223 C-32.01658759 17.97380896 -30.26609589 16.96446164 -28.515625 15.95507812 C-26.33607835 14.6983234 -24.15640168 13.44179414 -21.9765625 12.18554688 C-20.97625 11.60869141 -19.9759375 11.03183594 -18.9453125 10.4375 C-17.9749707 9.87804687 -17.00462891 9.31859375 -16.00488281 8.7421875 C-11.7557414 6.2785969 -7.52514078 3.78355988 -3.29638672 1.28515625 C-1 0 -1 0 0 0 Z " fill="#CECECD" transform="translate(342,114)"/>
<path d="M0 0 C6.16677487 6.16677487 5.86740344 16.16892181 6.5625 24.3125 C6.68481593 25.65440108 6.80827849 26.99619811 6.93286133 28.33789062 C7.17904108 30.99528137 7.42049382 33.65294258 7.65917969 36.31103516 C8.18124969 41.96180719 8.80176393 47.60100192 9.44165039 53.23950195 C10.63454708 64.16602384 10.63454708 64.16602384 7.8125 67.875 C4.65769268 70.2586322 3.80877875 70.43444221 0 70 C-2.01025391 68.93701172 -2.01025391 68.93701172 -3.9765625 67.4296875 C-4.720271 66.86983154 -5.46397949 66.30997559 -6.23022461 65.7331543 C-7.41563843 64.81336792 -7.41563843 64.81336792 -8.625 63.875 C-10.32655934 62.58689133 -12.02839014 61.29914119 -13.73046875 60.01171875 C-14.60106934 59.3470459 -15.47166992 58.68237305 -16.36865234 57.99755859 C-20.5219202 54.84465104 -24.73141582 51.76936172 -28.9375 48.6875 C-35.23671917 44.05280801 -41.51064962 39.38683864 -47.75 34.671875 C-49.46413684 33.3981761 -51.22311496 32.18459003 -53 31 C-42.58749403 24.91065747 -32.17459628 18.8222446 -21.72265625 12.80078125 C-21.13135925 12.46010117 -20.54006226 12.11942108 -19.93084717 11.76841736 C-17.05270633 10.11072666 -14.17356615 8.45480781 -11.29345703 6.80053711 C-10.2517334 6.20120361 -9.21000977 5.60187012 -8.13671875 4.984375 C-6.75552856 4.19111816 -6.75552856 4.19111816 -5.34643555 3.38183594 C-3.52937233 2.31175189 -1.75458054 1.16972036 0 0 Z " fill="#58708A" transform="translate(456,253)"/>
<path d="M0 0 C0.33 0 0.66 0 1 0 C3.2092415 18.89690497 3.2092415 18.89690497 -1 26 C-6.41625827 32.57800643 -14.43348588 36.17958487 -21.7890625 40.15234375 C-27.39113406 43.18635389 -32.88282563 46.3973972 -38.375 49.625 C-48.57589495 55.60358277 -58.80902531 61.52332169 -69.09643555 67.35180664 C-74.10552876 70.19131976 -79.103047 73.03581773 -84.01171875 76.046875 C-84.73359375 76.48088623 -85.45546875 76.91489746 -86.19921875 77.36206055 C-87.45965563 78.1230586 -88.70996703 78.90130536 -89.9453125 79.70239258 C-94.16155407 82.21415649 -97.31008981 82.1708816 -101.98999023 81.53491211 C-105.50981716 80.59820122 -106.9264168 78.92741158 -109 76 C-112.04720497 69.62391564 -112.62176189 62.977841 -113 56 C-112.51789063 56.42152344 -112.03578125 56.84304688 -111.5390625 57.27734375 C-110.90742188 57.82519531 -110.27578125 58.37304688 -109.625 58.9375 C-108.68527344 59.75541016 -108.68527344 59.75541016 -107.7265625 60.58984375 C-104.97237647 62.83930338 -102.73763335 63.46181159 -99.16162109 63.40991211 C-96.39890652 62.88601356 -94.42128046 61.767301 -91.9765625 60.37890625 C-91.00436768 59.83242432 -90.03217285 59.28594238 -89.03051758 58.72290039 C-88.03044678 58.15434326 -87.03037598 57.58578613 -86 57 C-84.10099622 55.94658913 -82.2012559 54.89450493 -80.30078125 53.84375 C-68.89135865 47.48271928 -57.546436 41.02576724 -46.27758789 34.41894531 C-38.12998416 29.64602129 -29.94755463 24.93640067 -21.75 20.25 C-21.13764496 19.89939514 -20.52528992 19.54879028 -19.89437866 19.18756104 C-18.15425002 18.19151475 -16.41308312 17.19728301 -14.671875 16.203125 C-13.17285645 15.34702637 -13.17285645 15.34702637 -11.64355469 14.47363281 C-10.02464572 13.57118226 -8.3838555 12.70520786 -6.71191406 11.90527344 C-4.3524043 10.65754637 -3.99911242 9.4644773 -3 7 C-2.4594656 5.74950996 -1.91772909 4.49953908 -1.375 3.25 C-0.92125 2.1775 -0.4675 1.105 0 0 Z " fill="#30383C" transform="translate(473,320)"/>
<path d="M0 0 C2.29395893 1.28773152 4.58516784 2.57996772 6.875 3.875 C7.85146484 4.42220703 7.85146484 4.42220703 8.84765625 4.98046875 C11.50393354 6.48660536 13.83019001 7.83019001 16 10 C16.30720863 13.13352798 16.39092335 14.27755586 15 17 C12.88964844 18.6574707 12.88964844 18.6574707 10.171875 20.30078125 C9.17454346 20.90833252 8.17721191 21.51588379 7.1496582 22.1418457 C6.110271 22.75503662 5.07088379 23.36822754 4 24 C3.03602295 24.57000732 2.0720459 25.14001465 1.07885742 25.72729492 C-1.95853826 27.50229757 -5.00836208 29.25397284 -8.0625 31 C-9.7788868 31.98571612 -11.49527128 32.9714363 -13.21151733 33.95739746 C-14.97667575 34.97105824 -16.74244332 35.98365132 -18.50830078 36.99609375 C-24.0119508 40.15292738 -29.50534202 43.32755119 -35 46.5 C-37.16662055 47.75007993 -39.33328732 49.00007976 -41.5 50.25 C-42.5725 50.86875 -43.645 51.4875 -44.75 52.125 C-54.5 57.75 -54.5 57.75 -57.75219727 59.6262207 C-59.91159395 60.8720577 -62.07093669 62.11798818 -64.23022461 63.36401367 C-69.75767597 66.55348953 -75.28615121 69.74116885 -80.81640625 72.92578125 C-83.06515546 74.22126513 -85.31385409 75.51683682 -87.5625 76.8125 C-89.18103882 77.74473389 -89.18103882 77.74473389 -90.83227539 78.69580078 C-97.92399554 82.78606637 -104.99323233 86.91238877 -112.01586914 91.12036133 C-118.1069403 94.74252672 -122.95945605 96.04618525 -130 95 C-134.18819918 93.31192442 -138.0921023 91.25610589 -142 89 C-141 86 -141 86 -138.25 84.25 C-134.60173323 82.84682047 -133.66093207 82.97834454 -130 84 C-121.09294326 86.4822945 -114.98669241 82.65454975 -107.37060547 78.35986328 C-100.13946159 74.21182297 -92.96258511 69.97988254 -85.81591797 65.68798828 C-81.36831168 63.0218924 -76.90301569 60.38595171 -72.4375 57.75 C-71.54708008 57.22374023 -70.65666016 56.69748047 -69.73925781 56.15527344 C-52.73427438 46.10985852 -35.68296411 36.14261798 -18.625 26.1875 C-17.65127441 25.619104 -16.67754883 25.05070801 -15.67431641 24.46508789 C-14.76343262 23.93391357 -13.85254883 23.40273926 -12.9140625 22.85546875 C-12.07012939 22.35418457 -11.22619629 21.85290039 -10.35668945 21.33642578 C-8 20 -8 20 -5.82104492 19.01904297 C-3.63583461 18.08729103 -3.63583461 18.08729103 -1 16 C-0.28356437 12.91095288 -0.01629496 10.82671236 -0.0625 7.75 C-0.04638672 7.00492187 -0.03027344 6.25984375 -0.01367188 5.4921875 C0.02152806 3.66179109 0.01490084 1.8306742 0 0 Z " fill="#252B2F" transform="translate(486,396)"/>
<path d="M0 0 C-0.25078491 3.21022699 -0.529222 6.41749002 -0.8125 9.625 C-0.91788086 10.98044922 -0.91788086 10.98044922 -1.02539062 12.36328125 C-1.5918299 18.57145568 -2.27960046 23.63120859 -7.21948242 27.93261719 C-10.12529106 30.09315697 -13.07778199 31.89256727 -16.2265625 33.6796875 C-16.81488861 34.01493439 -17.40321472 34.35018127 -18.0093689 34.69558716 C-19.87896596 35.75946463 -21.7519554 36.81720665 -23.625 37.875 C-24.85828721 38.57644629 -26.09136187 39.27826641 -27.32421875 39.98046875 C-30.87548265 42.00016844 -34.43677492 44.00147569 -38 46 C-39.59110596 46.90008789 -39.59110596 46.90008789 -41.21435547 47.81835938 C-42.18518066 48.36041016 -43.15600586 48.90246094 -44.15625 49.4609375 C-45.00251953 49.9357959 -45.84878906 50.4106543 -46.72070312 50.89990234 C-50.09946549 52.53065462 -52.3494026 52.87614338 -56 52 C-60.18934804 48.10293206 -62.86413287 43.29790506 -65 38 C-65 37.34 -65 36.68 -65 36 C-63.96166016 35.42838135 -63.96166016 35.42838135 -62.90234375 34.84521484 C-48.32208203 26.80830181 -33.8277469 18.65376862 -19.47265625 10.21875 C-18.58980957 9.70054687 -17.70696289 9.18234375 -16.79736328 8.6484375 C-14.76607416 7.45143417 -12.73893855 6.24737364 -10.71435547 5.0390625 C-9.6317041 4.39710938 -8.54905273 3.75515625 -7.43359375 3.09375 C-6.44286865 2.50271484 -5.45214355 1.91167969 -4.43139648 1.30273438 C-2 0 -2 0 0 0 Z " fill="#30393F" transform="translate(464,398)"/>
<path d="M0 0 C3.0625 1.5625 3.0625 1.5625 6 4 C6.84884766 4.69416016 6.84884766 4.69416016 7.71484375 5.40234375 C15.20214251 12.10323038 20.39464687 22.61469183 21.21484375 32.62109375 C21.4608312 39.87280387 20.82492125 44.93966864 15.75 50.4375 C12.06244745 52.53270031 10.19548231 52.7110987 6 52 C-4.23878758 46.38454092 -10.09232657 36.93935865 -13.75 26.1875 C-15.9733769 18.19071348 -16.18054915 10.95342583 -12.16796875 3.55859375 C-8.99400376 -0.67689799 -4.84023193 -0.72972962 0 0 Z " fill="#C8C9C9" transform="translate(81,321)"/>
<path d="M0 0 C10.73405392 5.10522077 15.83062521 14.30248062 20 25 C22.06600006 31.41889325 21.9231834 39.23044979 19.8125 45.5625 C17.06249345 49.26078468 14.83113774 51.58383233 10.25 52.625 C2.58089606 51.15017232 -3.00359516 45.72252753 -7.42578125 39.52734375 C-13.58083279 29.6456605 -15.47315802 20.51518521 -14 9 C-10.97921572 1.8629822 -8.07635342 -1.19159313 0 0 Z " fill="#C9CACA" transform="translate(236,411)"/>
<path d="M0 0 C0.33 0 0.66 0 1 0 C1.41114582 6.13146009 1.41114582 6.13146009 1.55622864 8.39080811 C1.7946856 12.07593188 2.05844788 15.75605089 2.37255859 19.43554688 C4.63141641 46.84701628 4.63141641 46.84701628 0.27734375 53.71875 C-4.89236185 58.60176352 -11.81616134 62 -19 62 C-18.7278889 57.33358403 -18.44159859 52.66850203 -18.13232422 48.00439453 C-18.02281876 46.3456495 -17.91887949 44.68653806 -17.81640625 43.02734375 C-16.60515029 27.42933337 -7.48391842 13.380339 0 0 Z " fill="#FCFBF9" transform="translate(484,361)"/>
<path d="M0 0 C0 3 0 3 -1.375 6.5625 C-3.02177402 11.31551128 -3.64037734 16.0252744 -4.1875 21 C-4.27112793 21.74709229 -4.35475586 22.49418457 -4.44091797 23.26391602 C-4.97562519 28.52991973 -5.06825254 33.70780267 -5 39 C-5.64622314 39.37060547 -6.29244629 39.74121094 -6.95825195 40.12304688 C-34.16376375 55.36242906 -34.16376375 55.36242906 -60.6550293 71.76660156 C-61.42886963 72.17362305 -62.20270996 72.58064453 -63 73 C-64.485 72.505 -64.485 72.505 -66 72 C-67.26735326 69.42412656 -68.38125806 66.91051185 -69.4375 64.25 C-72.29548826 57.10824058 -74.89949544 51.74748852 -82 48 C-79.53016263 45.53016263 -78.06906593 45.47556191 -74.671875 44.80078125 C-67.47154992 43.08218073 -61.61436317 39.88753661 -55.25 36.1875 C-54.0787583 35.51972134 -52.9068704 34.85307494 -51.734375 34.1875 C-48.7347281 32.47939328 -45.74593861 30.75323994 -42.76049805 29.02044678 C-39.94359494 27.38767036 -37.119381 25.76759753 -34.296875 24.14453125 C-26.48956844 19.63334007 -18.70269423 15.09879989 -11.04296875 10.33984375 C-10.16406982 9.79448975 -9.2851709 9.24913574 -8.37963867 8.68725586 C-4.90067539 6.22053633 -2.56149425 3.39224915 0 0 Z M-14.4765625 16.0078125 C-15.61101807 16.65830566 -16.74547363 17.30879883 -17.91430664 17.97900391 C-19.15126906 18.69422417 -20.38816532 19.40955887 -21.625 20.125 C-22.88971401 20.85236135 -24.15460843 21.57940911 -25.41967773 22.30615234 C-34.61229218 27.59360483 -43.77812068 32.92786387 -52.91845703 38.30517578 C-59.21186766 41.9982814 -65.57492433 45.54111975 -72 49 C-70.34160905 55.03051255 -67.44012834 60.55987166 -63 65 C-56.16200159 66.03687296 -51.62122316 63.09676478 -45.8125 59.75 C-44.85939941 59.21366943 -43.90629883 58.67733887 -42.92431641 58.12475586 C-39.93884288 56.43449808 -36.96855711 54.71976623 -34 53 C-33.03980957 52.45037598 -32.07961914 51.90075195 -31.09033203 51.33447266 C-28.34317514 49.7582506 -25.60692273 48.16495806 -22.875 46.5625 C-21.62360229 45.83788574 -21.62360229 45.83788574 -20.34692383 45.09863281 C-15.18557574 42.014132 -10.96992416 39.33501015 -9.20703125 33.2734375 C-9.07683594 32.31695312 -8.94664062 31.36046875 -8.8125 30.375 C-8.66683594 29.33601563 -8.52117187 28.29703125 -8.37109375 27.2265625 C-7.82636646 22.49030207 -7.35563411 17.75426651 -7 13 C-10.01549998 13 -11.87408302 14.50994375 -14.4765625 16.0078125 Z " fill="#CACAC5" transform="translate(471,385)"/>
<path d="M0 0 C0.66 0.33 1.32 0.66 2 1 C3.53668865 1.22467831 5.07968054 1.40796805 6.625 1.5625 C7.44226563 1.64628906 8.25953125 1.73007812 9.1015625 1.81640625 C9.72804688 1.87699219 10.35453125 1.93757813 11 2 C11 2.33 11 2.66 11 3 C8.69 3 6.38 3 4 3 C4.33 19.17 4.66 35.34 5 52 C0 52 0 52 -2.625 49.5 C-9.19247913 40.76401361 -9.21061927 30.44655964 -9.24023438 19.97021484 C-9.25000336 17.87428015 -9.28109628 15.77930145 -9.3125 13.68359375 C-9.31902513 12.34896412 -9.32427752 11.01432753 -9.328125 9.6796875 C-9.3374707 8.47038574 -9.34681641 7.26108398 -9.35644531 6.01513672 C-9 3 -9 3 -7.67089844 1.09814453 C-5.12172652 -0.57721714 -2.96945817 -0.25271984 0 0 Z " fill="#CECCC9" transform="translate(356,429)"/>
<path d="M0 0 C3.99377357 -0.47544923 5.68879335 -0.19917226 9.125 2 C13.39044828 6.02972614 15.68594488 10.21937718 16.34765625 16.078125 C16.57443608 24.24219874 16.57443608 24.24219874 14.6171875 26.82421875 C13 28 13 28 10.6875 28.5 C6.1040441 27.64726402 3.32286002 24.92568231 0.765625 21.203125 C-1.87846058 16.41311489 -3.30394751 11.50144994 -3 6 C-1.5625 2.4375 -1.5625 2.4375 0 0 Z " fill="#657883" transform="translate(77,333)"/>
<path d="M0 0 C4.92980914 1.50400957 6.96705796 3.84648662 9.6875 8.125 C12.2322589 13.01361579 13.41999686 17.57895232 12.6875 23.125 C10.6875 26.0625 10.6875 26.0625 8.6875 28.125 C4.97047509 27.86567268 3.02407724 27.38945355 0.0625 25.0625 C-5.08423535 18.69680101 -6.75769883 13.77096939 -6.74609375 5.54296875 C-5.96496613 1.18695076 -4.32509069 0.16321097 0 0 Z " fill="#647782" transform="translate(236.3125,422.875)"/>
<path d="M0 0 C4.81714842 1.51474072 8.69304252 3.41582551 13 6 C13 6.66 13 7.32 13 8 C9.54914225 10.03381096 6.08820304 12.04979434 2.625 14.0625 C1.64015625 14.64322266 0.6553125 15.22394531 -0.359375 15.82226562 C-1.30039062 16.36689453 -2.24140625 16.91152344 -3.2109375 17.47265625 C-4.08024902 17.98062744 -4.94956055 18.48859863 -5.84521484 19.01196289 C-6.55629395 19.33801514 -7.26737305 19.66406738 -8 20 C-8.66 19.67 -9.32 19.34 -10 19 C-9.278125 18.278125 -8.55625 17.55625 -7.8125 16.8125 C-3.73875513 12.00548105 -2.0455547 5.86682496 0 0 Z " fill="#24292D" transform="translate(275,466)"/>
<path d="M0 0 C0.66 0.33 1.32 0.66 2 1 C2 1.66 2 2.32 2 3 C0.65035156 3.74830078 0.65035156 3.74830078 -0.7265625 4.51171875 C-12.60826952 11.13237923 -24.31137458 18.04533253 -36 25 C-36 22 -36 22 -34.89013672 20.54296875 C-32.3418562 18.46273975 -29.62253037 16.93003004 -26.7578125 15.3125 C-26.15242645 14.96872314 -25.54704041 14.62494629 -24.92330933 14.27075195 C-22.99310651 13.17589227 -21.05920128 12.08777746 -19.125 11 C-17.19880054 9.91075422 -15.27337752 8.82014712 -13.34811401 7.72924805 C-11.59677155 6.73785746 -9.84359955 5.7497009 -8.09033203 4.76171875 C-6.10258005 3.62855251 -4.14144739 2.44662012 -2.21826172 1.20703125 C-1.12022217 0.60955078 -1.12022217 0.60955078 0 0 Z " fill="#C1C1BD" transform="translate(454,427)"/>
</svg>
