<?xml version="1.0" encoding="UTF-8"?>
<svg version="1.1" xmlns="http://www.w3.org/2000/svg" width="512" height="512">
<path d="M0 0 C1.23687309 -0.02398109 1.23687309 -0.02398109 2.49873352 -0.04844666 C3.39142441 -0.05380936 4.2841153 -0.05917206 5.20385742 -0.06469727 C6.12140305 -0.07372574 7.03894867 -0.08275421 7.98429871 -0.09205627 C9.92862678 -0.10658136 11.87300398 -0.1154511 13.81738281 -0.11914062 C16.78754621 -0.13101643 19.75561851 -0.18016126 22.7253418 -0.23071289 C24.61400353 -0.24017929 26.50267803 -0.24741329 28.39135742 -0.25219727 C29.27797562 -0.27172958 30.16459381 -0.2912619 31.07807922 -0.31138611 C32.32913704 -0.30226952 32.32913704 -0.30226952 33.60546875 -0.29296875 C34.33445877 -0.2980394 35.06344879 -0.30311005 35.81452942 -0.30833435 C39.27179817 0.66554315 40.80055576 2.52881357 42.99682617 5.30639648 C43.59809875 8.2993927 43.59809875 8.2993927 43.56445312 11.65722656 C43.56407547 12.91815628 43.56369781 14.179086 43.56330872 15.47822571 C43.53777942 16.84413654 43.5116995 18.21003718 43.48510742 19.57592773 C43.47577476 20.9812443 43.46866078 22.3865772 43.46366882 23.79191589 C43.44463389 27.47978108 43.39556588 31.16665199 43.34014893 34.85412598 C43.28887921 38.62128246 43.26613847 42.38860059 43.2409668 46.15600586 C43.18744154 53.53992129 43.10217399 60.92301925 42.99682617 68.30639648 C43.93547012 68.28196976 44.87411407 68.25754303 45.84120178 68.2323761 C54.79562887 68.00695885 63.74946297 67.8433592 72.70610905 67.73646259 C77.30839065 67.67965011 81.90833874 67.6029403 86.50927734 67.4765625 C124.8791613 66.4503179 124.8791613 66.4503179 142.79177856 77.92710876 C146.31086119 80.12834353 150.02665873 81.91219892 153.74682617 83.74389648 C157.82361482 85.85998745 160.56961956 87.38786312 162.99682617 91.30639648 C163.35758972 93.49578857 163.35758972 93.49578857 163.33740234 95.89135742 C163.33717575 96.79198914 163.33694916 97.69262085 163.3367157 98.62054443 C163.32123184 99.58421936 163.30574799 100.54789429 163.28979492 101.54077148 C163.28555008 102.53393372 163.28130524 103.52709595 163.27693176 104.550354 C163.26015251 107.71931176 163.22250117 110.88763126 163.18432617 114.05639648 C163.16927838 116.20612688 163.15559014 118.35586725 163.14331055 120.50561523 C163.11025153 125.77275972 163.06005951 131.0395325 162.99682617 136.30639648 C164.18441528 136.28283081 164.18441528 136.28283081 165.39599609 136.25878906 C168.99203312 136.1963295 172.58795587 136.15737014 176.18432617 136.11889648 C177.43020508 136.09375977 178.67608398 136.06862305 179.9597168 136.04272461 C181.16176758 136.03305664 182.36381836 136.02338867 183.60229492 136.01342773 C184.70726318 135.99771729 185.81223145 135.98200684 186.95068359 135.96582031 C190.41264552 136.35288747 192.22560555 137.227753 194.99682617 139.30639648 C197.11613693 142.48536262 197.24378647 143.23614181 197.22387695 146.86962891 C197.22372589 147.7903569 197.22357483 148.7110849 197.22341919 149.65971375 C197.21309662 150.65042374 197.20277405 151.64113373 197.19213867 152.66186523 C197.18789383 154.18702507 197.18789383 154.18702507 197.18356323 155.74299622 C197.17236 158.99341556 197.14725503 162.24356029 197.12182617 165.49389648 C197.11179656 167.69636647 197.10267068 169.89884076 197.09448242 172.10131836 C197.07242017 177.50311703 197.03788922 182.90471018 196.99682617 188.30639648 C191.05682617 188.30639648 185.11682617 188.30639648 178.99682617 188.30639648 C178.99682617 177.08639648 178.99682617 165.86639648 178.99682617 154.30639648 C173.71682617 154.30639648 168.43682617 154.30639648 162.99682617 154.30639648 C162.99682617 170.80639648 162.99682617 187.30639648 162.99682617 204.30639648 C166.84814209 204.29592285 170.69945801 204.28544922 174.66748047 204.2746582 C187.38002608 204.24154605 200.09257102 204.219336 212.80514812 204.20277214 C220.51416408 204.19246064 228.22313918 204.17840273 235.93212891 204.15551758 C242.65147469 204.13557983 249.37079089 204.12267913 256.09016544 204.11821949 C259.64784681 204.11561277 263.20544353 204.10948846 266.76309776 204.09493637 C270.7351477 204.07882112 274.70711488 204.07841705 278.67919922 204.0793457 C280.44757645 204.06855988 280.44757645 204.06855988 282.25167847 204.05755615 C283.87750603 204.06168015 283.87750603 204.06168015 285.53617859 204.06588745 C286.47548564 204.06404387 287.41479269 204.06220028 288.38256359 204.06030083 C291.96416542 204.39745772 294.79558591 205.52142346 297.79618835 207.48222351 C299.71931141 210.40409474 299.2884942 213.04081408 299.20703125 216.49316406 C299.1947348 217.22213898 299.18243835 217.95111389 299.16976929 218.70217896 C299.14271785 220.28681471 299.1096463 221.87135642 299.0712986 223.45575905 C298.99672902 226.84235714 298.9757711 230.22862277 298.95155621 233.61589336 C298.90579504 239.91757347 298.8388061 246.21718999 298.67822266 252.51708984 C296.96395343 274.53400123 296.96395343 274.53400123 304.99040222 293.83952332 C307.83031014 296.34971696 310.76757542 298.3205041 313.99682617 300.30639648 C316.38988003 303.89597727 316.26493765 305.5412812 316.30322266 309.80981445 C316.31154617 310.46546387 316.31986969 311.12111328 316.32844543 311.79663086 C316.35253973 313.96400899 316.36131672 316.13108613 316.36791992 318.29858398 C316.37688691 319.80689585 316.38600877 321.31520681 316.39527893 322.82351685 C316.41177004 325.98596355 316.4194692 329.14830438 316.42236328 332.31079102 C316.42774652 336.35858037 316.46542192 340.40537145 316.51110744 344.45287895 C316.54088545 347.5687725 316.54808698 350.68442591 316.54908943 353.80044937 C316.55329055 355.29238582 316.56572079 356.78432307 316.58660698 358.27611923 C316.61353961 360.36621722 316.60869381 362.45400515 316.59619141 364.54418945 C316.60126205 365.73205048 316.6063327 366.9199115 316.61155701 368.14376831 C315.812887 372.25271505 314.23863404 373.74120185 310.99682617 376.30639648 C307.67529297 376.87402344 307.67529297 376.87402344 303.94604492 376.79467773 C303.28723831 376.787603 302.6284317 376.78052826 301.94966125 376.77323914 C299.86002583 376.74540627 297.77314141 376.68270467 295.68432617 376.61889648 C294.26183903 376.59379853 292.83930958 376.57098797 291.41674805 376.55053711 C287.94255756 376.49562094 284.46996067 376.40943334 280.99682617 376.30639648 C280.85510986 377.40346924 280.71339355 378.50054199 280.56738281 379.63085938 C279.14563429 388.78979134 273.1755456 396.66949824 265.99682617 402.30639648 C257.60777983 407.73389189 249.69371431 410.69808468 239.68432617 410.61889648 C238.93666992 410.61325684 238.18901367 410.60761719 237.41870117 410.60180664 C225.98667264 410.3516691 217.69388784 406.48554345 209.24682617 398.80639648 C208.50432617 397.98139648 207.76182617 397.15639648 206.99682617 396.30639648 C206.17182617 395.46077148 205.34682617 394.61514648 204.49682617 393.74389648 C200.86187591 389.34733759 196.99682617 382.07411989 196.99682617 376.30639648 C171.58682617 376.30639648 146.17682617 376.30639648 119.99682617 376.30639648 C119.99682617 380.26639648 119.99682617 384.22639648 119.99682617 388.30639648 C118.06091309 391.51596069 118.06091309 391.51596069 114.99682617 393.30639648 C111.97038958 393.97756073 109.06254697 393.99044676 105.97143555 393.95336914 C104.62176445 393.96651154 104.62176445 393.96651154 103.24482727 393.97991943 C100.27625026 394.00189168 97.30916782 393.98736833 94.34057617 393.97045898 C92.27461461 393.97382774 90.20865498 393.97868085 88.1427002 393.98495483 C83.81507478 393.99232323 79.48796574 393.98162144 75.16040039 393.95825195 C69.61501718 393.92976452 64.07084389 393.94616863 58.52550507 393.97611427 C54.26005956 393.99418794 49.99490058 393.98842883 45.72944641 393.97547531 C43.68491981 393.97214151 41.64036713 393.97622746 39.59587097 393.98787308 C36.73728603 394.00058269 33.88065621 393.98120314 31.0222168 393.95336914 C30.17842972 393.9634903 29.33464264 393.97361145 28.46528625 393.98403931 C24.16359384 393.9064979 22.47918816 393.67940646 18.96325684 390.96054077 C15.51879795 386.3114621 16.68822206 381.92299141 16.99682617 376.30639648 C11.38682617 376.30639648 5.77682617 376.30639648 -0.00317383 376.30639648 C-0.37442383 377.77077148 -0.74567383 379.23514648 -1.12817383 380.74389648 C-4.0991209 390.54111264 -10.74055995 399.37730434 -19.45629883 404.84545898 C-30.57636356 410.67837638 -43.01654628 412.46504981 -55.31567383 409.18139648 C-66.40685024 405.23868593 -74.90885822 398.30107409 -81.00317383 388.30639648 C-81.33188477 388.79108398 -81.6605957 389.27577148 -81.99926758 389.77514648 C-89.54339793 400.40644129 -98.32924141 407.18095442 -111.00317383 410.30639648 C-124.78600043 411.53726158 -137.11274939 409.38852283 -148.00317383 400.30639648 C-154.55413157 394.33695492 -158.36256269 387.76143023 -161.00317383 379.30639648 C-161.00317383 378.31639648 -161.00317383 377.32639648 -161.00317383 376.30639648 C-162.3270813 376.34567261 -162.3270813 376.34567261 -163.67773438 376.38574219 C-166.96728963 376.47119923 -170.25565805 376.53375393 -173.54589844 376.58105469 C-174.96698674 376.60612796 -176.38794696 376.64019647 -177.80859375 376.68359375 C-179.85684845 376.74457506 -181.90339266 376.7726741 -183.95239258 376.79467773 C-185.79837036 376.83395386 -185.79837036 376.83395386 -187.68164062 376.87402344 C-191.00317383 376.30639648 -191.00317383 376.30639648 -193.90234375 374.60205078 C-197.23929697 369.36724178 -196.71651793 364.16953565 -196.66723633 358.08764648 C-196.67201996 356.79701294 -196.67680359 355.50637939 -196.68173218 354.17663574 C-196.68908813 351.44956419 -196.67844167 348.72331368 -196.6550293 345.99633789 C-196.6265394 342.50886942 -196.64295065 339.02332477 -196.67289162 335.53592682 C-196.69535283 332.19884772 -196.67960515 328.86228018 -196.66723633 325.52514648 C-196.67735748 324.27608521 -196.68747864 323.02702393 -196.69790649 321.7401123 C-196.68214569 320.57540405 -196.66638489 319.4106958 -196.65014648 318.21069336 C-196.64616852 317.18874878 -196.64219055 316.1668042 -196.63809204 315.1138916 C-195.75043083 311.18881202 -194.11646427 309.81649895 -191.00317383 307.30639648 C-188.28573984 306.82286124 -186.20004971 306.64826937 -183.49247742 306.7051239 C-182.74499876 306.70085178 -181.99752011 306.69657965 -181.22739059 306.69217807 C-178.72715249 306.68395367 -176.22859866 306.71142167 -173.72851562 306.73876953 C-171.93469787 306.74018013 -170.14087723 306.73938779 -168.34706116 306.73655701 C-163.47949099 306.73512191 -158.61253638 306.76452692 -153.74510932 306.79942679 C-148.65756329 306.83067463 -143.57000328 306.8336198 -138.4823761 306.83955383 C-128.84926335 306.85509688 -119.21643418 306.89613169 -109.58344632 306.94630128 C-98.61622724 307.00218031 -87.64899463 307.02967764 -76.68166864 307.05477846 C-54.12197691 307.10704713 -31.56267395 307.19874474 -9.00317383 307.30639648 C-9.00317383 290.47639648 -9.00317383 273.64639648 -9.00317383 256.30639648 C-10.65317383 255.97639648 -12.30317383 255.64639648 -14.00317383 255.30639648 C-15.79144382 253.98779964 -15.79144382 253.98779964 -17.00317383 252.30639648 C-17.30480165 249.27016171 -17.42309349 246.43832099 -17.40722656 243.40039062 C-17.41408981 242.48954208 -17.42095306 241.57869354 -17.42802429 240.64024353 C-17.4463529 237.6238555 -17.44244608 234.6079846 -17.43676758 231.59155273 C-17.44132656 229.49791799 -17.44663128 227.40428474 -17.45265198 225.31065369 C-17.46159507 220.91993129 -17.4591464 216.52939067 -17.44921875 212.13867188 C-17.43772928 206.50811799 -17.45793441 200.87819124 -17.48713589 195.24771976 C-17.50547036 190.92317205 -17.50521088 186.59877536 -17.49949837 182.27419853 C-17.49934481 180.19813597 -17.50541773 178.12206338 -17.51778984 176.04603767 C-17.53264542 173.14422243 -17.52206257 170.24357523 -17.50488281 167.34179688 C-17.51938477 166.0519841 -17.51938477 166.0519841 -17.53417969 164.7361145 C-17.46208422 158.92916249 -17.46208422 158.92916249 -15.15931702 155.80418396 C-13.00317383 154.30639648 -13.00317383 154.30639648 -10.00317383 153.30639648 C-9.9995913 152.18464256 -9.9995913 152.18464256 -9.99593639 151.04022694 C-9.93680689 132.84584065 -9.86126998 114.65159026 -9.76745892 96.45734882 C-9.72248849 87.65875254 -9.68307672 78.86019685 -9.65673828 70.06152344 C-9.63376828 62.39282241 -9.60038147 54.72424969 -9.55447227 47.05565041 C-9.53052651 42.99496472 -9.51180663 38.93440621 -9.50555992 34.8736515 C-9.49951513 31.05113424 -9.47953752 27.22894245 -9.44889832 23.40654564 C-9.44010832 22.00413141 -9.43639751 20.60167467 -9.43816566 19.19923401 C-9.43981879 17.28291648 -9.42135002 15.36661322 -9.40190125 13.45039368 C-9.39729228 12.37834844 -9.39268332 11.3063032 -9.38793468 10.20177174 C-8.64064092 4.57828939 -5.89858169 0.08637415 0 0 Z M8.99682617 18.30639648 C8.99682617 62.85639648 8.99682617 107.40639648 8.99682617 153.30639648 C14.27682617 153.30639648 19.55682617 153.30639648 24.99682617 153.30639648 C24.99682617 108.75639648 24.99682617 64.20639648 24.99682617 18.30639648 C19.71682617 18.30639648 14.43682617 18.30639648 8.99682617 18.30639648 Z M42.99682617 86.30639648 C42.99682617 97.19639648 42.99682617 108.08639648 42.99682617 119.30639648 C76.65682617 119.30639648 110.31682617 119.30639648 144.99682617 119.30639648 C144.99682617 113.03639648 144.99682617 106.76639648 144.99682617 100.30639648 C141.99737801 98.72201056 138.99728737 97.13886194 135.99682617 95.55639648 C135.15764648 95.11295898 134.3184668 94.66952148 133.45385742 94.21264648 C132.62241211 93.77436523 131.7909668 93.33608398 130.93432617 92.88452148 C129.80317383 92.28752441 129.80317383 92.28752441 128.64916992 91.6784668 C127.77389648 91.22568359 126.89862305 90.77290039 125.99682617 90.30639648 C124.92948242 89.6012793 123.86213867 88.89616211 122.76245117 88.16967773 C116.07642299 84.86537305 108.08701889 85.81991583 100.80932617 85.91577148 C99.13924846 85.92324165 97.46916192 85.92893092 95.79907227 85.93292236 C91.42591705 85.94811777 87.05330217 85.98734596 82.68035889 86.03173828 C77.42151554 86.08006027 72.16249047 86.09825409 66.90348816 86.12155151 C58.93422625 86.16020167 50.96614744 86.23689659 42.99682617 86.30639648 Z M42.99682617 137.30639648 C42.99682617 142.58639648 42.99682617 147.86639648 42.99682617 153.30639648 C44.13120117 153.90452148 45.26557617 154.50264648 46.43432617 155.11889648 C49.87182617 156.93139648 49.87182617 156.93139648 50.99682617 160.30639648 C51.09858512 163.16069828 51.14365885 165.99066935 51.14208984 168.84521484 C51.14544846 169.7170491 51.14880707 170.58888336 51.15226746 171.48713684 C51.1617783 174.37351907 51.16372058 177.2598433 51.16479492 180.14624023 C51.1680072 182.15019251 51.17137125 184.15414454 51.17488098 186.15809631 C51.18087244 190.36044865 51.18272084 194.56278041 51.18212891 198.76513672 C51.18202724 204.15337173 51.19568446 209.54147512 51.21290112 214.92967892 C51.2240118 219.06889961 51.22604841 223.20808838 51.22551918 227.34732246 C51.22670051 229.33406592 51.23113082 231.32081018 51.23885155 233.30753899 C51.24863341 236.08451475 51.24578061 238.86120335 51.23974609 241.63818359 C51.2453656 242.46065582 51.25098511 243.28312805 51.2567749 244.13052368 C51.21534706 251.62140293 51.21534706 251.62140293 48.99682617 254.30639648 C47.01682617 255.29639648 45.03682617 256.28639648 42.99682617 257.30639648 C42.99682617 273.80639648 42.99682617 290.30639648 42.99682617 307.30639648 C65.43682617 307.30639648 87.87682617 307.30639648 110.99682617 307.30639648 C111.16729881 286.75331232 111.16729881 286.75331232 111.29467773 266.19995117 C111.32403794 263.62603962 111.354862 261.05214417 111.38745117 258.47827148 C111.3877533 257.81112122 111.38805542 257.14397095 111.3883667 256.456604 C111.3907865 254.48552756 111.42037783 252.51454234 111.45092773 250.54370117 C111.4642514 248.87824249 111.4642514 248.87824249 111.47784424 247.17913818 C111.99682617 244.30639648 111.99682617 244.30639648 115.99682617 240.30639648 C130.35182617 239.81139648 130.35182617 239.81139648 144.99682617 239.30639648 C144.99682617 205.64639648 144.99682617 171.98639648 144.99682617 137.30639648 C111.33682617 137.30639648 77.67682617 137.30639648 42.99682617 137.30639648 Z M0.99682617 171.30639648 C0.99682617 193.74639648 0.99682617 216.18639648 0.99682617 239.30639648 C11.88682617 239.30639648 22.77682617 239.30639648 33.99682617 239.30639648 C33.99682617 216.86639648 33.99682617 194.42639648 33.99682617 171.30639648 C23.10682617 171.30639648 12.21682617 171.30639648 0.99682617 171.30639648 Z M162.99682617 223.30639648 C162.99682617 251.02639648 162.99682617 278.74639648 162.99682617 307.30639648 C168.39195072 306.22737157 169.24413079 305.52219726 172.86791992 301.72045898 C173.77219727 300.78975586 174.67647461 299.85905273 175.6081543 298.90014648 C176.55119412 297.91149943 177.49324388 296.92190707 178.43432617 295.93139648 C180.27802286 293.99750685 182.13216726 292.07565995 183.99291992 290.15795898 C185.21773071 288.87139404 185.21773071 288.87139404 186.46728516 287.55883789 C192.89485129 281.83538213 198.70326676 281.84187239 206.95776367 281.79467773 C207.97394775 281.77804077 208.99013184 281.76140381 210.03710938 281.7442627 C213.81514006 281.68664414 217.5935216 281.65425587 221.37182617 281.61889648 C229.82807617 281.51577148 238.28432617 281.41264648 246.99682617 281.30639648 C246.99682617 262.16639648 246.99682617 243.02639648 246.99682617 223.30639648 C219.27682617 223.30639648 191.55682617 223.30639648 162.99682617 223.30639648 Z M264.99682617 223.30639648 C264.99682617 242.44639648 264.99682617 261.58639648 264.99682617 281.30639648 C270.27682617 281.30639648 275.55682617 281.30639648 280.99682617 281.30639648 C280.99682617 262.16639648 280.99682617 243.02639648 280.99682617 223.30639648 C275.71682617 223.30639648 270.43682617 223.30639648 264.99682617 223.30639648 Z M8.99682617 257.30639648 C8.99682617 273.80639648 8.99682617 290.30639648 8.99682617 307.30639648 C14.27682617 307.30639648 19.55682617 307.30639648 24.99682617 307.30639648 C24.99682617 290.80639648 24.99682617 274.30639648 24.99682617 257.30639648 C19.71682617 257.30639648 14.43682617 257.30639648 8.99682617 257.30639648 Z M128.99682617 257.30639648 C128.99682617 273.80639648 128.99682617 290.30639648 128.99682617 307.30639648 C134.27682617 307.30639648 139.55682617 307.30639648 144.99682617 307.30639648 C144.99682617 290.80639648 144.99682617 274.30639648 144.99682617 257.30639648 C139.71682617 257.30639648 134.43682617 257.30639648 128.99682617 257.30639648 Z M181.31442261 316.47213745 C177.67445833 324.302002 177.90305857 331.64896873 178.74682617 340.05639648 C178.84754358 341.84364321 178.93872872 343.63145322 179.02026367 345.41967773 C179.2201505 349.74123097 179.60840672 353.98199328 179.99682617 358.30639648 C185.60682617 358.30639648 191.21682617 358.30639648 196.99682617 358.30639648 C197.69807617 356.49139648 198.39932617 354.67639648 199.12182617 352.80639648 C203.67220975 341.9594037 211.03557264 333.01213209 221.94995117 328.08374023 C233.1185994 323.84221161 245.90562008 323.77214962 256.99682617 328.30639648 C260.18956863 330.0818 263.10691857 332.07626024 265.99682617 334.30639648 C266.83213867 334.92256836 267.66745117 335.53874023 268.52807617 336.17358398 C275.14471952 341.8898613 278.6938019 350.04260353 280.99682617 358.30639648 C286.60682617 358.30639648 292.21682617 358.30639648 297.99682617 358.30639648 C298.27049177 351.67220651 298.46913853 345.04135613 298.60107422 338.40283203 C298.65610879 336.14931973 298.73096708 333.89619513 298.82666016 331.64404297 C298.96143304 328.3885932 299.02274739 325.13836266 299.07104492 321.88061523 C299.12781906 320.88744797 299.1845932 319.8942807 299.24308777 318.87101746 C299.24845628 312.66687844 297.63323778 308.9684859 293.64233398 304.1940918 C286.32038952 297.04083821 277.26271044 297.53967175 267.59448242 297.52905273 C265.70752466 297.49870085 263.82059623 297.46647375 261.93370056 297.43247986 C257.98676662 297.375862 254.0424967 297.36318519 250.09521484 297.37792969 C246.08265805 297.38774927 242.08214396 297.32569983 238.07177734 297.19335938 C204.94358127 295.61297062 204.94358127 295.61297062 181.31442261 316.47213745 Z M-178.00317383 325.30639648 C-178.00317383 336.19639648 -178.00317383 347.08639648 -178.00317383 358.30639648 C-172.39317383 358.30639648 -166.78317383 358.30639648 -161.00317383 358.30639648 C-160.48754883 356.69764648 -159.97192383 355.08889648 -159.44067383 353.43139648 C-155.4567957 342.59413359 -148.79322832 333.97294448 -138.20629883 328.98999023 C-135.82311657 328.02392624 -133.44026142 327.12554284 -131.00317383 326.30639648 C-131.00317383 325.97639648 -131.00317383 325.64639648 -131.00317383 325.30639648 C-146.51317383 325.30639648 -162.02317383 325.30639648 -178.00317383 325.30639648 Z M-108.00317383 325.30639648 C-105.14285029 327.21327884 -102.36647005 328.551824 -99.25317383 329.99389648 C-90.90511602 334.1427503 -86.13637896 339.68436463 -81.00317383 347.30639648 C-80.48754883 346.64639648 -79.97192383 345.98639648 -79.44067383 345.30639648 C-78.63629883 344.31639648 -77.83192383 343.32639648 -77.00317383 342.30639648 C-76.51719727 341.67862305 -76.0312207 341.05084961 -75.53051758 340.40405273 C-69.84558285 333.40204093 -62.79631868 328.62038197 -54.00317383 326.30639648 C-54.00317383 325.97639648 -54.00317383 325.64639648 -54.00317383 325.30639648 C-71.82317383 325.30639648 -89.64317383 325.30639648 -108.00317383 325.30639648 Z M-31.00317383 325.30639648 C-28.14285029 327.21327884 -25.36647005 328.551824 -22.25317383 329.99389648 C-11.51820879 335.361379 -5.35847999 343.76259752 -1.12817383 354.93139648 C-0.75692383 356.04514648 -0.38567383 357.15889648 -0.00317383 358.30639648 C5.60682617 358.30639648 11.21682617 358.30639648 16.99682617 358.30639648 C17.14120117 356.38827148 17.28557617 354.47014648 17.43432617 352.49389648 C17.68406945 349.17587866 17.94267437 346.4688519 18.99682617 343.30639648 C23.06766223 341.78489557 27.45311439 342.16654777 31.7409668 342.17700195 C32.62270065 342.17524963 33.50443451 342.17349731 34.41288757 342.17169189 C37.32630382 342.16729214 40.23965931 342.17020479 43.15307617 342.17358398 C45.17801932 342.17291041 47.2029624 342.17193993 49.22790527 342.17068481 C53.471362 342.16921038 57.71479767 342.17135425 61.95825195 342.17602539 C67.39910813 342.18172252 72.83991498 342.17844216 78.28076935 342.17245293 C82.46201957 342.16884046 86.64325809 342.16998906 90.82450867 342.17258072 C92.83078517 342.17324809 94.83706274 342.17242819 96.84333801 342.17010117 C99.64648252 342.16756345 102.449547 342.17143112 105.25268555 342.17700195 C106.49806343 342.17396561 106.49806343 342.17396561 107.76860046 342.17086792 C115.03025203 342.19762049 115.03025203 342.19762049 117.99682617 343.30639648 C119.59195765 348.09179093 119.57792412 353.27957189 119.99682617 358.30639648 C133.85682617 358.30639648 147.71682617 358.30639648 161.99682617 358.30639648 C161.99682617 347.41639648 161.99682617 336.52639648 161.99682617 325.30639648 C98.30682617 325.30639648 34.61682617 325.30639648 -31.00317383 325.30639648 Z M-139.00317383 351.30639648 C-143.82623848 358.23476714 -145.35734954 364.96115106 -144.00317383 373.30639648 C-141.27181478 381.84941377 -136.35948984 386.79313724 -128.75317383 391.18139648 C-121.08001539 393.48334402 -114.10017181 393.1579773 -106.93286133 389.49780273 C-101.22398932 385.97309431 -96.37281002 379.75986764 -94.38208008 373.28686523 C-92.96037148 365.85587288 -94.3943331 359.87084564 -98.00317383 353.30639648 C-102.33005086 347.28090459 -107.88656978 344.15387127 -115.00317383 342.30639648 C-124.22092199 340.80367115 -132.6475297 344.66185944 -139.00317383 351.30639648 Z M-63.00317383 352.30639648 C-67.3923092 358.83815711 -67.86421336 365.6216187 -67.00317383 373.30639648 C-65.08515107 380.07588858 -60.77803441 385.76370738 -54.93286133 389.70092773 C-48.3218667 393.05381569 -41.41469259 393.70391411 -34.32739258 391.45874023 C-27.36145846 388.3404541 -22.12676885 383.86220587 -18.87426758 376.88452148 C-16.36425227 369.6358674 -16.53061988 363.22705744 -19.56567383 356.18139648 C-23.11498723 349.76188019 -28.93397388 344.93349022 -35.94067383 342.74389648 C-46.34450768 340.53702264 -56.05589209 344.26122825 -63.00317383 352.30639648 Z M219.46948242 351.25561523 C215.70743505 356.49454061 213.23603175 362.71455178 213.60620117 369.23217773 C215.08329241 377.0755322 218.49990421 383.64569499 224.87182617 388.49389648 C231.42629325 392.29548739 237.49771978 393.2832136 244.99682617 392.30639648 C253.52201502 389.56659404 258.43239058 384.665937 262.87182617 377.11889648 C265.00346443 369.89501129 265.12969377 362.9633122 262.05932617 355.99389648 C258.53900483 349.78332957 253.35964157 345.91774553 246.99682617 342.86889648 C236.47677635 340.89638714 226.85000185 343.1073822 219.46948242 351.25561523 Z M34.99682617 359.30639648 C34.99682617 364.58639648 34.99682617 369.86639648 34.99682617 375.30639648 C57.10682617 375.30639648 79.21682617 375.30639648 101.99682617 375.30639648 C101.99682617 370.02639648 101.99682617 364.74639648 101.99682617 359.30639648 C79.88682617 359.30639648 57.77682617 359.30639648 34.99682617 359.30639648 Z " fill="#000000" transform="translate(196.003173828125,50.693603515625)"/>
<path d="M0 0 C0.97751724 -0.00428513 1.95503448 -0.00857025 2.96217346 -0.01298523 C5.02563707 -0.01871779 7.08912089 -0.01923672 9.15258789 -0.01489258 C12.30194719 -0.01173325 15.45036615 -0.03520333 18.59960938 -0.06054688 C20.60807174 -0.0628201 22.61653661 -0.06352325 24.625 -0.0625 C25.56266708 -0.07170975 26.50033417 -0.08091949 27.46641541 -0.09040833 C32.62045872 -0.05410625 36.54774112 0.18021402 40.87890625 3.30078125 C43.84891625 7.76622203 43.18457908 13.49816882 43.1796875 18.67578125 C43.18397263 19.67786621 43.18825775 20.67995117 43.19267273 21.71240234 C43.19840543 23.82714076 43.19892412 25.9418989 43.19458008 28.05664062 C43.19141738 31.28940446 43.21490243 34.52125528 43.24023438 37.75390625 C43.24250721 39.81119676 43.24321094 41.86848973 43.2421875 43.92578125 C43.25139725 44.8904834 43.26060699 45.85518555 43.27009583 46.84912109 C43.23611672 51.78298576 43.19993879 55.35781609 39.87890625 59.30078125 C36.67465009 61.43695202 35.80773028 61.55818102 32.11962891 61.59130859 C31.15497711 61.6040683 30.19032532 61.616828 29.19644165 61.62997437 C28.15579559 61.63220001 27.11514954 61.63442566 26.04296875 61.63671875 C24.97146576 61.64337555 23.89996277 61.65003235 22.79598999 61.65689087 C20.5280733 61.66702112 18.26012679 61.67170777 15.9921875 61.67138672 C12.5242388 61.67575564 9.05756685 61.712061 5.58984375 61.75 C3.3867231 61.7558689 1.18359641 61.7598378 -1.01953125 61.76171875 C-2.05612885 61.77608978 -3.09272644 61.79046082 -4.16073608 61.80526733 C-11.36643336 61.75960253 -11.36643336 61.75960253 -15.25244141 59.39697266 C-17.9569657 56.36312819 -18.24968854 54.71730468 -18.28222656 50.74682617 C-18.29183411 49.8021196 -18.30144165 48.85741302 -18.31134033 47.88407898 C-18.31559021 46.86014542 -18.31984009 45.83621185 -18.32421875 44.78125 C-18.32991882 43.73052811 -18.3356189 42.67980621 -18.3414917 41.59724426 C-18.35095027 39.37042246 -18.35747907 37.14358661 -18.36132812 34.91674805 C-18.37102446 31.51260873 -18.40203645 28.10907541 -18.43359375 24.70507812 C-18.44012461 22.54297234 -18.44537476 20.38086223 -18.44921875 18.21875 C-18.46156555 17.20088913 -18.47391235 16.18302826 -18.4866333 15.13432312 C-18.45764487 5.91780268 -18.45764487 5.91780268 -15.12109375 2.30078125 C-10.58815039 -0.55297506 -5.18184865 -0.00502588 0 0 Z M-0.12109375 18.30078125 C-0.12109375 26.55078125 -0.12109375 34.80078125 -0.12109375 43.30078125 C8.12890625 43.30078125 16.37890625 43.30078125 24.87890625 43.30078125 C24.87890625 35.05078125 24.87890625 26.80078125 24.87890625 18.30078125 C16.62890625 18.30078125 8.37890625 18.30078125 -0.12109375 18.30078125 Z " fill="#000000" transform="translate(282.12109375,203.69921875)"/>
</svg>
