<?xml version="1.0" encoding="UTF-8"?>
<svg version="1.1" xmlns="http://www.w3.org/2000/svg" width="512" height="512">
<path d="M0 0 C2.91259766 1.22167969 2.91259766 1.22167969 5.9140625 2.921875 C7.00460938 3.53546875 8.09515625 4.1490625 9.21875 4.78125 C10.3428125 5.4309375 11.466875 6.080625 12.625 6.75 C13.75679687 7.38421875 14.88859375 8.0184375 16.0546875 8.671875 C26.05988204 14.36203303 26.05988204 14.36203303 29 18 C28.75 21.75 28.75 21.75 28 25 C23.08297661 26.24056663 20.79558783 25.85603186 16.453125 23.2890625 C15.44378906 22.70382813 14.43445313 22.11859375 13.39453125 21.515625 C11.83798828 20.57976563 11.83798828 20.57976563 10.25 19.625 C9.19683594 19.00882813 8.14367187 18.39265625 7.05859375 17.7578125 C5.1156108 16.62045663 3.17668411 15.47612347 1.24316406 14.32275391 C-0.14577296 13.50372247 -1.55779099 12.72110451 -3 12 C-5.56582946 13.16004511 -5.56582946 13.16004511 -8.4765625 14.91015625 C-9.6099707 15.56322754 -10.74337891 16.21629883 -11.91113281 16.88916016 C-13.14919803 17.61341965 -14.38715094 18.33787114 -15.625 19.0625 C-16.89902365 19.8006417 -18.17344225 20.53810214 -19.44824219 21.27490234 C-22.69182966 23.15228489 -25.929779 25.03915359 -29.16589355 26.92938232 C-31.89211093 28.52074935 -34.62201301 30.10576321 -37.3515625 31.69140625 C-42.2606799 34.54680779 -47.16356204 37.41273355 -52.06445312 40.28222656 C-57.03978564 43.1936071 -62.02018875 46.09628932 -67 49 C-68.99090312 50.16142799 -70.98178853 51.32288634 -72.97265625 52.484375 C-77.06330628 54.87064306 -81.15451794 57.25594469 -85.24609375 59.640625 C-86.27395996 60.23987793 -87.30182617 60.83913086 -88.36083984 61.45654297 C-90.38822174 62.6383512 -92.41588433 63.81967806 -94.44384766 65.00048828 C-99.04551357 67.6821778 -103.63998128 70.37435869 -108.21484375 73.1015625 C-109.00769775 73.57303711 -109.80055176 74.04451172 -110.61743164 74.53027344 C-112.08112613 75.40212693 -113.54269453 76.27756362 -115.00170898 77.15722656 C-119.7781732 80 -119.7781732 80 -122 80 C-119.50615208 82.79563775 -116.74784919 84.43253404 -113.49609375 86.265625 C-112.37638184 86.90056885 -111.25666992 87.5355127 -110.10302734 88.18969727 C-109.5065741 88.52494415 -108.91012085 88.86019104 -108.29559326 89.20559692 C-105.76158447 90.62992079 -103.23366239 92.06489886 -100.7052002 93.4990387 C-99.39750414 94.24053345 -98.08947639 94.98144351 -96.78112793 95.7217865 C-90.45870435 99.30012854 -84.16425348 102.92620131 -77.875 106.5625 C-75.72656553 107.80339067 -73.57812803 109.04427608 -71.4296875 110.28515625 C-70.36975586 110.89762207 -69.30982422 111.51008789 -68.21777344 112.14111328 C-62.81329355 115.26324605 -57.40652588 118.38141204 -52 121.5 C-49.8333225 122.74998122 -47.66665583 123.99998121 -45.5 125.25 C-44.4275 125.86875 -43.355 126.4875 -42.25 127.125 C-24.375 137.4375 -24.375 137.4375 -6.5 147.75 C-5.42733887 148.36883057 -4.35467773 148.98766113 -3.24951172 149.62524414 C-1.08442929 150.87435518 1.08060982 152.12354129 3.24560547 153.37280273 C8.68615706 156.51202309 14.12747216 159.64990563 19.5703125 162.78515625 C30.39364167 169.02127925 41.20821351 175.27191602 52 181.5625 C52.9605127 182.12203369 53.92102539 182.68156738 54.91064453 183.25805664 C55.82700684 183.79293701 56.74336914 184.32781738 57.6875 184.87890625 C58.57050781 185.38953613 59.45351562 185.90016602 60.36328125 186.42626953 C62.17845066 187.50965675 63.96680982 188.63883446 65.73046875 189.80419922 C66.60316406 190.37283691 67.47585937 190.94147461 68.375 191.52734375 C69.14585937 192.0493335 69.91671875 192.57132324 70.7109375 193.10913086 C73.00031443 194.26023474 73.00031443 194.26023474 75.46020508 193.33886719 C78.09098927 191.95203449 80.6911922 190.54704412 83.26171875 189.05078125 C84.79590454 188.16144897 84.79590454 188.16144897 86.36108398 187.25415039 C88.00765991 186.29303345 88.00765991 186.29303345 89.6875 185.3125 C90.8501458 184.63695098 92.01299129 183.96174553 93.17602539 183.28686523 C94.98146491 182.23903698 96.78669998 181.19086762 98.59117126 180.14137268 C102.56981155 177.82747163 106.55562915 175.52649739 110.546875 173.234375 C121.53704677 166.92167538 132.48454852 160.54587132 143.375 154.0625 C155.21913604 147.01186159 167.15944558 140.14234413 179.140625 133.328125 C180.16220703 132.74611328 181.18378906 132.16410156 182.23632812 131.56445312 C183.92199613 130.61023399 185.612308 129.66408462 187.31054688 128.73242188 C190.75413561 126.99052513 190.75413561 126.99052513 193 124 C192.29399658 123.73606445 191.58799316 123.47212891 190.8605957 123.20019531 C187.83140942 121.92926592 185.07919805 120.43237207 182.23046875 118.796875 C181.10688965 118.15355225 179.98331055 117.51022949 178.82568359 116.84741211 C177.61288279 116.14840128 176.40015681 115.44926061 175.1875 114.75 C173.92540022 114.0252852 172.66319169 113.30075976 171.40087891 112.57641602 C162.56007855 107.49788703 153.74630552 102.37315598 144.9465332 97.22387695 C137.60740514 92.9301009 130.24482675 88.67832937 122.875 84.4375 C114.39772947 79.55298352 105.93406903 74.64629757 97.5 69.6875 C96.56784668 69.142146 95.63569336 68.59679199 94.67529297 68.03491211 C93.82338379 67.5322583 92.97147461 67.02960449 92.09375 66.51171875 C91.34802734 66.07303467 90.60230469 65.63435059 89.83398438 65.18237305 C88 64 88 64 86 62 C85.75 59 85.75 59 86 56 C88 54 88 54 90.79003906 53.70288086 C94.38351829 54.03549907 96.2764616 54.91267547 99.359375 56.75390625 C100.37902344 57.35332031 101.39867187 57.95273438 102.44921875 58.5703125 C103.53847656 59.22773437 104.62773437 59.88515625 105.75 60.5625 C106.90673576 61.24747417 108.06430424 61.93104385 109.22265625 62.61328125 C111.62761083 64.03120342 114.02887559 65.45509179 116.42773438 66.88330078 C121.91885488 70.14576634 127.46197752 73.31806233 133 76.5 C135.16429578 77.74829354 137.32835753 78.99699293 139.4921875 80.24609375 C143.85065388 82.76069436 148.21012191 85.27354661 152.5703125 87.78515625 C207.34219832 119.34219832 207.34219832 119.34219832 210 122 C209.89506852 124.05406055 209.78152491 126.10799465 209.62780762 128.15898132 C207.43361248 148.48595143 207.43361248 148.48595143 213.22265625 167.19775391 C219.00081498 172.03866957 225.75669425 174.52471853 232.84521484 176.88183594 C237.21090732 178.42918709 240.92030537 180.65175501 244.8125 183.125 C246.12930305 183.91126075 247.44833821 184.69379478 248.76953125 185.47265625 C250.1798215 186.31487982 251.58996645 187.15734674 253 188 C253.87188965 188.51933105 254.7437793 189.03866211 255.64208984 189.57373047 C258.42945954 191.23432209 261.21511798 192.89774022 264 194.5625 C265.32028198 195.35068115 265.32028198 195.35068115 266.66723633 196.15478516 C267.47829834 196.64124512 268.28936035 197.12770508 269.125 197.62890625 C269.84945313 198.06275635 270.57390625 198.49660645 271.3203125 198.94360352 C273 200 273 200 274 201 C274.09439978 203.26991887 274.11742226 205.54281967 274.11352539 207.81469727 C274.11367142 208.52685394 274.11381744 209.23901062 274.1139679 209.9727478 C274.1132687 212.33733112 274.10547606 214.70183661 274.09765625 217.06640625 C274.09579209 218.70165463 274.09436818 220.33690357 274.09336853 221.97215271 C274.08954318 226.28434785 274.07971275 230.59650952 274.06866455 234.90869141 C274.0584508 239.30565946 274.05387099 243.70263289 274.04882812 248.09960938 C274.03809049 256.73308831 274.02101387 265.36654 274 274 C274.61709335 274.29960632 275.23418671 274.59921265 275.86997986 274.90789795 C278.24591323 276.12608442 280.20449942 277.56967725 282.31640625 279.203125 C283.15437744 279.84725342 283.99234863 280.49138184 284.85571289 281.1550293 C286.19557251 282.19203979 286.19557251 282.19203979 287.5625 283.25 C293.15666674 287.55692683 298.75489483 291.84857297 304.46875 295.99609375 C305.75543579 296.93050293 305.75543579 296.93050293 307.06811523 297.88378906 C308.69378869 299.05932743 310.3233398 300.22952758 311.95727539 301.39355469 C312.69453857 301.92754883 313.43180176 302.46154297 314.19140625 303.01171875 C314.83279541 303.47022217 315.47418457 303.92872559 316.13500977 304.40112305 C321.74789169 309.21310939 321.74789169 309.21310939 322.36326599 313.57475281 C322.5144901 316.91086708 322.52779377 320.22307147 322.49609375 323.5625 C322.49754898 324.78654541 322.49900421 326.01059082 322.50050354 327.27172852 C322.49884502 329.85728335 322.48728924 332.4428481 322.46655273 335.02832031 C322.43760641 338.98545273 322.44594463 342.94124481 322.45898438 346.8984375 C322.45274666 349.41146484 322.44435547 351.92448796 322.43359375 354.4375 C322.43652939 355.62093994 322.43946503 356.80437988 322.44248962 358.02368164 C322.42980545 359.12832764 322.41712128 360.23297363 322.40405273 361.37109375 C322.39864975 362.33974365 322.39324677 363.30839355 322.38768005 364.30639648 C321.92382723 367.5292489 320.91586796 369.38326953 319 372 C316.61844993 373.64153698 314.33411841 375.05118104 311.8125 376.4375 C310.26539844 377.31731006 308.71853705 378.19754253 307.171875 379.078125 C306.33720703 379.54798828 305.50253906 380.01785156 304.64257812 380.50195312 C300.92297305 382.61055408 297.23688285 384.7749103 293.54833984 386.93725586 C284.12148164 392.46310594 274.65962064 397.92722588 265.1875 403.375 C256.29103471 408.49287693 247.44360735 413.68669681 238.625 418.9375 C229.1315151 424.58658456 219.59247468 430.14613644 210 435.625 C208.86127441 436.275896 207.72254883 436.92679199 206.54931641 437.59741211 C203.37131339 439.40746755 200.18632026 441.20463787 197 443 C195.96246582 443.59498291 194.92493164 444.18996582 193.85595703 444.80297852 C192.87481934 445.35655029 191.89368164 445.91012207 190.8828125 446.48046875 C189.58174561 447.22139771 189.58174561 447.22139771 188.25439453 447.97729492 C186 449 186 449 182.875 448.6875 C181.92625 448.130625 180.9775 447.57375 180 447 C179.22140625 446.58105469 178.4428125 446.16210938 177.640625 445.73046875 C175.40285419 444.52471336 173.19654949 443.27887993 171 442 C170.690625 443.9490625 170.690625 443.9490625 170.375 445.9375 C168.9678989 452.13265346 166.17527077 457.30933775 161.28515625 461.453125 C155.3756357 465.00133607 148.66376554 464.78680605 142 464 C126.27792807 460.01349173 115.10690358 447.87550305 107.0078125 434.4765625 C100.44277787 423.25286651 96.20966501 411.17224989 97 398 C96.23171875 397.79761719 95.4634375 397.59523438 94.671875 397.38671875 C89.51043883 395.43745296 84.9790074 392.63401184 80.25 389.8125 C78.11108187 388.55009515 75.97174337 387.28840235 73.83203125 386.02734375 C72.71908691 385.36976074 71.60614258 384.71217773 70.45947266 384.03466797 C64.64301747 380.60643164 58.7884358 377.24390987 52.9375 373.875 C51.85049805 373.24827393 50.76349609 372.62154785 49.64355469 371.97583008 C44.43486493 368.97361051 39.22258463 365.97798443 34 363 C33.79246094 363.70125 33.58492187 364.4025 33.37109375 365.125 C30.67567791 373.42552745 27.29515593 379.35682712 19.75 384 C10.63566728 386.43048872 2.34477793 385.36409332 -6 381 C-22.18770383 370.56319095 -34.37021661 354.90379026 -39 336 C-39.22202709 334.51529722 -39.41787802 333.02648658 -39.58984375 331.53515625 C-40.2202018 323.25931353 -40.2202018 323.25931353 -44.62890625 316.58984375 C-47.38925296 315.09862196 -50.00753024 313.92974867 -53 313 C-53.22042969 313.94359375 -53.22042969 313.94359375 -53.4453125 314.90625 C-55.31136029 322.02725997 -57.75697565 328.12254671 -64.0390625 332.3828125 C-71.53119758 336.168591 -78.62943121 335.99820618 -86.5 333.4375 C-103.81232976 326.46380097 -115.66495493 311.40795552 -122.9375 294.6875 C-126.29239895 285.94162549 -127.31497125 278.3616454 -127 269 C-127.75925781 268.71125 -128.51851562 268.4225 -129.30078125 268.125 C-133.38302034 266.42357474 -136.87310667 264.12689333 -140 261 C-140.20037548 258.5798969 -140.27544565 256.27398328 -140.2631073 253.85247803 C-140.26708269 253.10771249 -140.27105808 252.36294695 -140.27515393 251.59561276 C-140.28585633 249.08678097 -140.28199658 246.57818452 -140.27807617 244.06933594 C-140.28238107 242.27584137 -140.28744459 240.48234849 -140.29321289 238.68885803 C-140.30810313 232.78733055 -140.30121886 226.88590813 -140.29296875 220.984375 C-140.29122561 218.95443988 -140.28957603 216.92450467 -140.28801918 214.8945694 C-140.28020741 206.45165287 -140.26711716 198.00877558 -140.23942089 189.5658989 C-140.19975192 177.45781741 -140.19074478 165.35063137 -140.22549647 153.24252677 C-140.24749721 144.73358199 -140.23517729 136.22510743 -140.19717008 127.71622109 C-140.175322 122.63184077 -140.16844614 117.5484676 -140.19789696 112.4641037 C-140.22478952 107.67984518 -140.20917551 102.89759643 -140.16095734 98.11352348 C-140.15062271 96.3583767 -140.15562518 94.60306206 -140.17714119 92.84801674 C-140.32689833 79.57274773 -140.32689833 79.57274773 -137.02545261 75.65960598 C-134.72528982 74.09768208 -132.57895113 73.0181184 -130 72 C-129.01136963 71.39937744 -128.02273926 70.79875488 -127.00415039 70.17993164 C-126.12750732 69.67840576 -125.25086426 69.17687988 -124.34765625 68.66015625 C-123.33751465 68.07999756 -122.32737305 67.49983887 -121.28662109 66.90209961 C-119.69068115 65.9914978 -119.69068115 65.9914978 -118.0625 65.0625 C-116.33476359 64.07112539 -114.60702982 63.07974615 -112.87945557 62.08808899 C-111.09776381 61.065892 -109.31531765 60.04502131 -107.53271484 59.02441406 C-101.97347723 55.84035362 -96.42421496 52.63898627 -90.875 49.4375 C-89.80016357 48.81762207 -88.72532715 48.19774414 -87.61791992 47.55908203 C-77.38136478 41.65127267 -67.17201097 35.69729293 -56.96777344 29.73388672 C-53.98181071 27.98937312 -50.99498713 26.24634378 -48.0078125 24.50390625 C-47.01523438 23.92471436 -46.02265625 23.34552246 -45 22.7487793 C-43.01396667 21.59106797 -41.02699954 20.43495694 -39.0390625 19.28051758 C-33.790339 16.2292654 -28.56571344 13.14393755 -23.3671875 10.0078125 C-22.28050781 9.358125 -21.19382812 8.7084375 -20.07421875 8.0390625 C-17.98968246 6.79190403 -15.91119526 5.53456106 -13.83984375 4.265625 C-12.90011719 3.70617187 -11.96039063 3.14671875 -10.9921875 2.5703125 C-9.76024658 1.82418701 -9.76024658 1.82418701 -8.50341797 1.06298828 C-5.38848877 -0.25965671 -3.36197589 -0.37743038 0 0 Z M-129 91 C-128.99345398 91.81081528 -128.98690796 92.62163055 -128.98016357 93.45701599 C-128.95304779 97.38669344 -128.93492735 101.3163494 -128.921875 105.24609375 C-128.91911308 105.98058683 -128.91635117 106.71507992 -128.91350555 107.47183037 C-128.88752569 116.74962122 -129.02531155 125.99608614 -129.46303558 135.26398277 C-129.74581947 141.26092547 -129.9322236 147.2562303 -130.05960846 153.25846291 C-130.14625182 157.07952878 -130.28771514 160.88447413 -130.53955078 164.69848633 C-131.57551267 179.65488533 -131.57551267 179.65488533 -128 194 C-121.39926095 201.22065636 -112.57825972 204.83958811 -103.64663696 208.43733215 C-97.75084622 210.96381415 -92.36801407 214.25955245 -86.875 217.5625 C-84.72866773 218.80702324 -82.58047285 220.04834475 -80.4296875 221.28515625 C-79.36975586 221.89762207 -78.30982422 222.51008789 -77.21777344 223.14111328 C-72.89752357 225.63689344 -68.57577013 228.13006297 -64.25390625 230.62304688 C-61.00503504 232.49709563 -57.75642368 234.37159428 -54.5078125 236.24609375 C-50.14934612 238.76069436 -45.78987809 241.27354661 -41.4296875 243.78515625 C-30.97793801 249.80747329 -20.53700452 255.84669337 -10.125 261.9375 C-0.85967611 267.35647818 8.44887288 272.69675887 17.77435303 278.01116943 C28.07449354 283.88248775 38.33001148 289.82790831 48.5625 295.81640625 C49.4390625 296.3283252 50.315625 296.84024414 51.21875 297.36767578 C53.2440747 298.5563451 55.26423033 299.75383496 57.28125 300.95654297 C58.3640625 301.59865723 59.446875 302.24077148 60.5625 302.90234375 C61.55378906 303.49394287 62.54507813 304.08554199 63.56640625 304.69506836 C65.83353513 306.15752162 65.83353513 306.15752162 68 306 C68.13358694 297.72115358 68.26408924 289.4422656 68.39115143 281.16331673 C68.45030418 277.31474629 68.51033585 273.46619476 68.57275391 269.61767578 C68.9266554 247.743309 69.06813126 225.87720868 69 204 C68.19677307 203.54165771 67.39354614 203.08331543 66.565979 202.61108398 C50.42631949 193.40082278 34.30754543 184.15612347 18.21777344 174.85888672 C12.81329355 171.73675395 7.40652588 168.61858796 2 165.5 C-0.1666775 164.25001878 -2.33334417 163.00001879 -4.5 161.75 C-5.5725 161.13125 -6.645 160.5125 -7.75 159.875 C-28.33333333 148 -48.91666667 136.125 -69.5 124.25 C-70.57362793 123.63060547 -71.64725586 123.01121094 -72.75341797 122.37304688 C-74.90871311 121.1295949 -77.06398673 119.88610564 -79.21923828 118.64257812 C-84.22337674 115.75537125 -89.2277052 112.8684957 -94.23284912 109.98303223 C-95.98341241 108.97380896 -97.73390411 107.96446164 -99.484375 106.95507812 C-101.66392165 105.6983234 -103.84359832 104.44179414 -106.0234375 103.18554688 C-107.02375 102.60869141 -108.0240625 102.03183594 -109.0546875 101.4375 C-110.02631836 100.87804687 -110.99794922 100.31859375 -111.99902344 99.7421875 C-114.12353665 98.5088222 -116.24069131 97.26274096 -118.35253906 96.0078125 C-119.4350293 95.36585937 -120.51751953 94.72390625 -121.6328125 94.0625 C-122.6139502 93.47597656 -123.59508789 92.88945313 -124.60595703 92.28515625 C-126.84082872 90.84234192 -126.84082872 90.84234192 -129 91 Z M193.03125 137.75390625 C191.48219971 138.65314819 191.48219971 138.65314819 189.90185547 139.57055664 C188.77924316 140.22789795 187.65663086 140.88523926 186.5 141.5625 C185.32594496 142.24581061 184.15162439 142.92866516 182.97705078 143.61108398 C180.53219068 145.03196088 178.08849512 146.45481203 175.64550781 147.87890625 C171.13768519 150.50446283 166.616505 153.10670497 162.09521484 155.70898438 C149.69949987 162.84380379 137.33815307 170.03661926 124.98974609 177.25292969 C116.71831479 182.08637427 116.71831479 182.08637427 112.74462891 184.39624023 C110.72138219 185.58171869 108.70650014 186.7816007 106.70068359 187.99633789 C101.98057797 190.83161649 97.42603288 193.31974295 92.26953125 195.26953125 C84.61372036 198.26063847 84.61372036 198.26063847 79 204 C76.71869935 213.77439879 77.84651768 224.13235569 79 234 C79.83764893 233.51990479 80.67529785 233.03980957 81.53833008 232.54516602 C87.08450913 229.36754167 92.63648558 226.2011736 98.20703125 223.06640625 C111.20620324 215.74967083 124.12246215 208.30281078 136.99267578 200.76171875 C141.9506976 197.85726304 146.91241144 194.95914447 151.875 192.0625 C152.84961182 191.49345947 153.82422363 190.92441895 154.82836914 190.33813477 C160.19040427 187.21075618 165.55938865 184.09574272 170.9375 180.99609375 C171.80847824 180.49409203 171.80847824 180.49409203 172.697052 179.98194885 C175.4961342 178.3691904 178.29612817 176.75803796 181.09716797 175.14868164 C183.11589036 173.98710884 185.1261078 172.8105979 187.12646484 171.61767578 C190 170 190 170 192.95556641 168.75341797 C195.87858635 167.41923162 197.83024968 166.37942966 200 164 C201.21586789 159.01898691 200.94801393 154.19814711 200.625 149.125 C200.57478889 147.75537051 200.52917008 146.38556449 200.48828125 145.015625 C200.37056838 141.6725795 200.20639699 138.3385507 200 135 C197.12340442 135 195.51241452 136.30604957 193.03125 137.75390625 Z M197.8359375 176.75390625 C196.80968262 177.35340088 195.78342773 177.95289551 194.72607422 178.57055664 C193.62021973 179.22789795 192.51436523 179.88523926 191.375 180.5625 C190.21033141 181.24627039 189.04512003 181.92911702 187.87939453 182.61108398 C185.45525981 184.03015778 183.03351895 185.45319718 180.61328125 186.87890625 C175.05706621 190.1469182 169.4635308 193.35019489 163.875 196.5625 C152.55996081 203.08544701 141.27463301 209.6585595 129.99853516 216.24853516 C125.88178549 218.65315673 121.76255724 221.05351662 117.64331055 223.45385742 C114.63616908 225.20705021 111.63047397 226.96270057 108.625 228.71875 C105.00568257 230.83290669 101.38075216 232.93679784 97.75 235.03125 C96.18748219 235.93746928 94.62498105 236.84371732 93.0625 237.75 C92.35230713 238.15637695 91.64211426 238.56275391 90.91040039 238.98144531 C87.35965476 240.88286968 87.35965476 240.88286968 85 244 C85.72251953 244.41137207 86.44503906 244.82274414 87.18945312 245.24658203 C89.3730895 246.49048229 91.55595913 247.73572903 93.73828125 248.98193359 C96.26254577 250.42243947 98.79167044 251.85389864 101.32421875 253.27978516 C107.59453604 256.82311825 113.75941394 260.43678602 119.78125 264.390625 C120.83248047 265.06206543 121.88371094 265.73350586 122.96679688 266.42529297 C124.94673636 267.69797461 126.90307536 269.00836807 128.83007812 270.35986328 C131.61436065 272.11869794 133.77715614 273.30799593 137 274 C141.54321141 272.85200879 145.09828092 270.5382352 149 268 C151.02867476 266.8210782 153.05996073 265.64663903 155.09375 264.4765625 C157.23124046 263.19616397 159.36657525 261.91216149 161.5 260.625 C163.87948899 259.19972743 166.26158759 257.7788629 168.64453125 256.359375 C169.25049637 255.99822601 169.85646149 255.63707703 170.48078918 255.26498413 C177.0034688 251.38720071 183.59089371 247.62518818 190.1875 243.875 C199.83146948 238.38900425 209.44166255 232.84955993 219.01708984 227.24462891 C224.39112849 224.10067646 229.77299631 220.97113528 235.16796875 217.86328125 C235.76617432 217.51865341 236.36437988 217.17402557 236.98071289 216.81895447 C239.89063503 215.14315638 242.80154484 213.46910641 245.71337891 211.79663086 C246.75284668 211.19858643 247.79231445 210.60054199 248.86328125 209.984375 C249.78407471 209.45553711 250.70486816 208.92669922 251.65356445 208.38183594 C253.47062767 207.31175189 255.24541946 206.16972036 257 205 C257 204.34 257 203.68 257 203 C256.26700684 202.58339111 255.53401367 202.16678223 254.77880859 201.73754883 C251.94755124 200.12716356 249.11712113 198.51534452 246.28735352 196.90234375 C245.01494131 196.17720037 243.74231834 195.45242672 242.46948242 194.72802734 C235.73615229 190.8943774 229.02214231 187.03812917 222.3828125 183.04296875 C221.38459473 182.44315186 220.38637695 181.84333496 219.35791016 181.2253418 C217.48576835 180.09511575 215.61805581 178.95751254 213.75537109 177.81176758 C212.91828613 177.30669678 212.08120117 176.80162598 211.21875 176.28125 C210.49623047 175.83845703 209.77371094 175.39566406 209.02929688 174.93945312 C204.55383736 172.86756089 201.73412263 174.45277341 197.8359375 176.75390625 Z M-129 206 C-129 222.5 -129 239 -129 256 C-127.68 256.66 -126.36 257.32 -125 258 C-124.78085938 257.48050781 -124.56171875 256.96101563 -124.3359375 256.42578125 C-121.40058444 249.97039098 -118.43908333 246.3374213 -111.625 243.6875 C-101.14687599 241.70026958 -92.88394403 244.26987958 -84 250.0625 C-81.92506258 251.50046214 -80.12859546 252.86676769 -78.375 254.68359375 C-77.07648382 256.23051624 -77.07648382 256.23051624 -75 256 C-74.60167969 256.87205078 -74.60167969 256.87205078 -74.1953125 257.76171875 C-72.96238292 260.07043983 -71.56558091 261.81918716 -69.875 263.8125 C-63.15735469 272.38135446 -58.35559073 281.26447913 -56.3125 291.9375 C-55.08304949 297.30647653 -53.71269562 299.89146827 -49.2331543 302.88305664 C-43.94338071 306.04323581 -43.94338071 306.04323581 -38 307 C-37.46375 305.948125 -36.9275 304.89625 -36.375 303.8125 C-33.5445133 298.90632306 -30.08566244 295.91769147 -24.875 293.625 C-14.3515148 291.92766368 -5.90340847 294.27379157 3 300 C17.89730996 311.06907318 28.1365268 327.6637148 31.4921875 345.84375 C33.78877446 350.65111338 37.47079297 352.40796937 42 355 C43.5156958 355.88220215 43.5156958 355.88220215 45.06201172 356.78222656 C48.3593063 358.67531052 51.67566513 360.52985932 55 362.375 C56.14339844 363.01566406 57.28679687 363.65632812 58.46484375 364.31640625 C62.99948557 367.38020534 62.99948557 367.38020534 68 369 C72.04666707 341.36130578 72.04666707 341.36130578 66.06347656 315.49951172 C60.82261967 310.43417118 54.33528301 308.34199399 47.48144531 306.21728516 C41.52745366 304.13547573 36.36337042 300.77149392 31 297.5 C28.81323278 296.23250658 26.62312743 294.97075448 24.4296875 293.71484375 C18.31460156 290.18705085 12.21830813 286.62773348 6.125 283.0625 C-2.55256873 277.98715808 -11.2660566 272.97741181 -20 268 C-29.72115617 262.4599827 -39.40894658 256.86625191 -49.06689453 251.21655273 C-56.32211726 246.97382727 -63.59353319 242.76001946 -70.875 238.5625 C-71.94886963 237.94342773 -73.02273926 237.32435547 -74.12915039 236.68652344 C-78.55350496 234.13677204 -82.97852587 231.58817919 -87.40380859 229.04003906 C-90.79038672 227.0897955 -94.17649584 225.13873988 -97.5625 223.1875 C-98.64063965 222.56681641 -99.7187793 221.94613281 -100.82958984 221.30664062 C-105.68211147 218.5090324 -110.52553671 215.69889147 -115.33984375 212.8359375 C-116.53468384 212.12594604 -116.53468384 212.12594604 -117.75366211 211.40161133 C-119.2061394 210.5357448 -120.65634118 209.66604464 -122.10375977 208.79174805 C-125.32632422 206.69553994 -125.32632422 206.69553994 -129 206 Z M257.71484375 216.3515625 C256.80420166 216.86581787 255.89355957 217.38007324 254.95532227 217.90991211 C253.46150024 218.75888062 253.46150024 218.75888062 251.9375 219.625 C250.90616943 220.20967041 249.87483887 220.79434082 248.81225586 221.39672852 C238.49520073 227.26062568 228.24608388 233.23904681 218.00732422 239.23828125 C213.0493024 242.14273696 208.08758933 245.04085686 203.125 247.9375 C202.14168701 248.51161621 201.15837402 249.08573242 200.14526367 249.67724609 C191.76828288 254.56308083 183.36944493 259.41066569 174.95751953 264.23608398 C172.90708542 265.41526085 170.87569939 266.62796026 168.86083984 267.86694336 C165.79648884 269.6726896 162.64982306 270.96381965 159.34619141 272.27563477 C153.13492516 274.96705406 147.34404743 277.6589699 143 283 C139.68241472 292.10851645 140.81126865 302.19364219 141.48937988 311.70635986 C141.71671867 315.23686372 141.81536262 318.77089143 141.92578125 322.30664062 C142.16001233 329.21300973 142.53401613 336.10548483 143 343 C144.28318115 342.26644287 144.28318115 342.26644287 145.59228516 341.51806641 C151.60906059 338.07893973 157.62691189 334.64174372 163.6484375 331.2109375 C175.82251452 324.27083544 187.97232364 317.29434901 200.06665039 310.21582031 C206.21722384 306.61751873 212.38275954 303.0466691 218.56030273 299.49487305 C229.09928025 293.43541589 239.60093577 287.31689824 250.0625 281.125 C250.66011139 280.77189758 251.25772278 280.41879517 251.8734436 280.05499268 C253.55337907 279.0618416 255.23180645 278.06614089 256.91015625 277.0703125 C257.87058838 276.50070801 258.83102051 275.93110352 259.82055664 275.34423828 C261.8988367 274.17804199 261.8988367 274.17804199 263 273 C263.09381302 271.15881971 263.11743954 269.31402359 263.11352539 267.47045898 C263.11344986 266.28931015 263.11337433 265.10816132 263.11329651 263.89122009 C263.10813522 262.6058284 263.10297394 261.32043671 263.09765625 259.99609375 C263.0962413 258.68794205 263.09482635 257.37979034 263.09336853 256.03199768 C263.0895441 252.54837141 263.07971446 249.06478661 263.06866455 245.58117676 C263.05844882 242.02873292 263.05387056 238.47628241 263.04882812 234.92382812 C263.03809212 227.94920168 263.0210166 220.97460283 263 214 C261.07655268 214 259.33984187 215.43269668 257.71484375 216.3515625 Z M-115 259 C-119.2809635 269.05095779 -116.38341854 280.07176614 -113 290 C-107.07920544 303.89699449 -97.41474419 316.68593839 -83.44921875 323.1875 C-79.5647613 324.47612384 -76.03547076 324.6962608 -72 324 C-68.71567146 322.31608579 -66.54997006 320.08293075 -64.86328125 316.76171875 C-60.90756621 304.10701046 -65.44680374 290.79038595 -71.0625 279.4375 C-77.5365544 268.02163009 -87.2421562 257.2526146 -100 253 C-106.90321142 252.19462533 -110.60099616 253.47992039 -115 259 Z M79 253 C78.55507287 268.84622872 78.22060907 284.69075849 78.01556873 300.54169178 C77.91780531 307.90289017 77.78470325 315.26019758 77.56665039 322.61889648 C77.37655246 329.037282 77.25454068 335.45285086 77.2123186 341.87397307 C77.18764508 345.27215634 77.1302743 348.6622879 76.99112892 352.05787086 C75.89825894 365.94502222 75.89825894 365.94502222 80.92333603 378.27062607 C85.86642662 382.32571251 91.73522594 385.54099403 98 387 C100.38399598 386.0454935 100.38399598 386.0454935 101.8125 382.6875 C104.40641983 377.98180157 108.0367359 375.0335596 113 373 C125.39532233 371.48253142 134.87239182 374.56484792 144.6875 382.0625 C157.6336302 393.37176316 166.52993654 409.1190463 169.52734375 426.01171875 C171.22662666 429.45986576 172.27393649 429.94547484 175.59204102 431.68676758 C176.82507713 432.34241447 176.82507713 432.34241447 178.08302307 433.01130676 C178.71562546 433.33757553 179.34822784 433.6638443 180 434 C183.47267518 408.61238368 183.47267518 408.61238368 176.66015625 385.51953125 C173.03730134 382.39618051 168.95894715 380.29775697 164.62695312 378.31347656 C159.98305299 375.99152649 156.03508713 372.72227785 151.9375 369.5625 C150.42869193 368.45565671 148.91706363 367.35264533 147.40234375 366.25390625 C144.24828246 363.9349729 141.1143416 361.59203926 138.00390625 359.21484375 C137.26084229 358.64757568 136.51777832 358.08030762 135.75219727 357.49584961 C134 356 134 356 133 354 C132.96646541 351.80483851 133.00053253 349.60854939 133.06445312 347.4140625 C133.10054348 346.01100698 133.13578127 344.60792934 133.17028809 343.20483398 C133.18955856 342.45918182 133.20882904 341.71352966 133.22868347 340.94528198 C133.3371339 336.15828944 133.36755179 331.3700789 133.40752411 326.58210754 C133.44696495 322.37876049 133.51683942 318.18035792 133.65478516 313.97900391 C135.03287729 296.68602923 135.03287729 296.68602923 130.474823 280.59317017 C126.63960953 276.94097239 122.23101291 275.25594806 117.2255249 273.73980713 C113.80687829 272.60338348 111.060894 270.82403767 108.00390625 268.91796875 C105.85718125 267.67377078 103.71005379 266.43026689 101.5625 265.1875 C100.48291016 264.55908203 99.40332031 263.93066406 98.29101562 263.28320312 C97.22689453 262.66767578 96.16277344 262.05214844 95.06640625 261.41796875 C94.13771729 260.87938232 93.20902832 260.3407959 92.25219727 259.78588867 C89.4593694 258.25225487 86.64821085 256.80818174 83.79673767 255.38838196 C82.89795867 254.94043431 81.99917967 254.49248667 81.07316494 254.03096485 C80.38902051 253.69074645 79.70487608 253.35052805 79 253 Z M261.5234375 286.0078125 C260.3900293 286.65766113 259.25662109 287.30750977 258.08886719 287.97705078 C256.85082546 288.69288514 255.61287195 289.40887208 254.375 290.125 C253.10075161 290.85819815 251.82633565 291.59110517 250.55175781 292.32373047 C239.64934965 298.59745655 228.78175304 304.93128416 217.92675781 311.28662109 C212.99491937 314.1738118 208.0604267 317.0564482 203.125 319.9375 C202.14490967 320.50968262 201.16481934 321.08186523 200.1550293 321.67138672 C191.54617466 326.69199046 182.91236686 331.66885826 174.27636719 336.64257812 C165.48630217 341.70912978 156.73078426 346.83205667 148 352 C149.13346615 355.40039846 149.83120267 355.87835526 152.65625 357.8984375 C153.42412842 358.45450684 154.19200684 359.01057617 154.9831543 359.58349609 C155.81371338 360.17469238 156.64427246 360.76588867 157.5 361.375 C159.22626839 362.6236076 160.95150563 363.8736419 162.67578125 365.125 C163.5570166 365.76308594 164.43825195 366.40117187 165.34619141 367.05859375 C169.50718252 370.10258651 173.60017072 373.23312897 177.6875 376.375 C178.42355469 376.94009277 179.15960938 377.50518555 179.91796875 378.08740234 C181.61310842 379.39013348 183.30674132 380.69482494 185 382 C192.20029478 378.52285114 199.11917044 374.69359418 206 370.625 C208.12853305 369.37436461 210.25745264 368.1243869 212.38671875 366.875 C213.47774902 366.23433594 214.5687793 365.59367187 215.69287109 364.93359375 C221.04941964 361.80175671 226.43222104 358.7158246 231.8125 355.625 C241.83007617 349.86290935 251.7786816 343.99187197 261.70703125 338.07763672 C271.36646579 332.33953948 281.10986549 326.75594119 290.89013672 321.22680664 C291.99502441 320.6002417 293.09991211 319.97367676 294.23828125 319.328125 C295.20805908 318.7805957 296.17783691 318.23306641 297.17700195 317.66894531 C300.20074914 315.8813179 303.09425924 313.97245327 306 312 C301.44558962 307.09305157 296.21338537 303.20455866 290.875 299.1875 C289.93809326 298.47916016 289.00118652 297.77082031 288.03588867 297.04101562 C285.36097039 295.02234953 282.68135864 293.01009981 280 291 C279.33339355 290.49807129 278.66678711 289.99614258 277.97998047 289.47900391 C270.22826446 282.92032058 270.22826446 282.92032058 261.5234375 286.0078125 Z M-27 307 C-31.5259588 314.09066878 -30.82016993 322.42974492 -29.37890625 330.4609375 C-25.24380279 346.81756895 -15.47214077 361.95864195 -1 371 C4.30517109 373.89372969 9.04019723 374.9746294 15 374 C19.26171135 371.77649842 21.01996105 368.88757755 22.49609375 364.32421875 C25.46653661 350.62333887 20.26728222 336.50043435 13 325 C6.49654058 315.67486592 -2.35157579 305.32968484 -14 303 C-19.67601683 302.39185534 -22.70099121 303.18951494 -27 307 Z M304.90625 324.31640625 C304.05434082 324.82550537 303.20243164 325.33460449 302.32470703 325.85913086 C301.39255371 326.42124268 300.46040039 326.98335449 299.5 327.5625 C297.48771287 328.76425025 295.47466048 329.96471981 293.4609375 331.1640625 C291.87297363 332.11007324 291.87297363 332.11007324 290.25292969 333.07519531 C284.90283982 336.24091946 279.51440795 339.33933907 274.125 342.4375 C262.7169043 349.00267943 251.34041486 355.62031163 239.9765625 362.26171875 C235.95237673 364.61180099 231.9251186 366.95658652 227.8972168 369.30029297 C225.89932557 370.46523189 223.90335532 371.63347223 221.90942383 372.80517578 C216.85164417 375.77551822 211.77299643 378.69065964 206.63671875 381.5234375 C205.61658691 382.09698975 204.59645508 382.67054199 203.54541016 383.26147461 C201.60415503 384.35221912 199.65233671 385.42444123 197.68896484 386.47485352 C196.39079834 387.21239868 196.39079834 387.21239868 195.06640625 387.96484375 C194.30271729 388.3837085 193.53902832 388.80257324 192.75219727 389.23413086 C189.01629087 392.99918743 189.88617515 399.24386332 189.88670349 404.28184509 C189.89186478 405.03317215 189.89702606 405.78449921 189.90234375 406.55859375 C189.9037587 407.34774673 189.90517365 408.13689972 189.90663147 408.94996643 C189.91218445 411.44585115 189.92472792 413.94164285 189.9375 416.4375 C189.94252109 418.13997265 189.94708293 419.84244673 189.95117188 421.54492188 C189.96213842 425.69664988 189.97937009 429.84830922 190 434 C207.06984007 424.73269709 223.90617406 415.10237382 240.59106445 405.15917969 C248.74044652 400.30944917 256.94506575 395.5646535 265.1875 390.875 C274.2320459 385.72769234 283.25914277 380.55315637 292.25 375.3125 C293.2196167 374.74837402 294.1892334 374.18424805 295.18823242 373.60302734 C296.55685425 372.80372803 296.55685425 372.80372803 297.953125 371.98828125 C298.73848633 371.52977783 299.52384766 371.07127441 300.33300781 370.59887695 C301.21311523 370.07124756 302.09322266 369.54361816 303 369 C303.68199463 368.68367111 304.36398926 368.36734222 305.06665039 368.04142761 C309.35445593 365.90427598 309.35445593 365.90427598 311.69537354 361.93437195 C311.92767315 359.36123898 311.9005972 356.9050728 311.78125 354.32421875 C311.76427063 352.93648003 311.76427063 352.93648003 311.74694824 351.52070618 C311.70226534 348.57417087 311.60192668 345.63255613 311.5 342.6875 C311.45986215 340.6869194 311.4233619 338.68626227 311.390625 336.68554688 C311.30255706 331.78847715 311.16457214 326.89507178 311 322 C308.36037937 322 307.16803211 322.95410771 304.90625 324.31640625 Z M112 385 C107.48000687 390.36222787 107.4011137 396.59895117 107.6171875 403.34765625 C109.33996656 419.78437487 118.05533376 435.5275049 130.5859375 446.203125 C136.4773294 450.51743661 142.19276367 454.06452943 149.6875 453.9375 C153.54238076 452.84649601 155.31275265 451.98583039 158 449 C162.88193528 439.04006779 161.21624035 429.23038152 158 419 C152.18591834 404.83394388 142.47134972 390.14417463 127.97265625 383.6875 C122.12315281 381.64886118 117.20594708 381.09553969 112 385 Z " fill="#000000" transform="translate(165,24)"/>
<path d="M0 0 C3.62836257 1.01855051 6.4581541 2.47056425 9.71875 4.3605957 C10.6169043 4.87694832 10.6169043 4.87694832 11.53320312 5.4037323 C13.4334603 6.49933075 15.32594027 7.60766019 17.21875 8.71606445 C18.4891234 9.44928379 19.75995311 10.18171311 21.03125 10.91333008 C24.4423573 12.88551543 27.84614034 14.86585916 31.21875 16.90356445 C32.32927734 17.36577393 33.43980469 17.8279834 34.58398438 18.30419922 C37.7685684 21.44599556 37.68096522 22.4758776 37.93164062 26.83374023 C37.94422846 29.33882533 37.92311248 31.84422229 37.875 34.34887695 C37.86888175 35.68357492 37.86513184 37.01828566 37.86364746 38.35299683 C37.85445424 41.14590572 37.82565596 43.93765689 37.78125 46.73022461 C37.72457456 50.31280565 37.70281548 53.89447789 37.6938858 57.47746468 C37.68358528 60.89307607 37.65451029 64.30837392 37.625 67.72387695 C37.61225037 69.65821091 37.61225037 69.65821091 37.59924316 71.63162231 C37.58002808 72.8198056 37.56081299 74.00798889 37.54101562 75.23217773 C37.52735962 76.28156525 37.51370361 77.33095276 37.49963379 78.41213989 C37.21875 80.90356445 37.21875 80.90356445 35.21875 82.90356445 C30.29448217 83.47045577 27.47209835 82.31696569 23.26171875 79.83325195 C22.14861328 79.18356445 21.03550781 78.53387695 19.88867188 77.86450195 C18.72782004 77.16926382 17.56701298 76.47395092 16.40625 75.77856445 C15.26865234 75.1134082 14.13105469 74.44825195 12.95898438 73.76293945 C9.69117191 71.83958763 6.43978865 69.90440122 3.21875 67.90356445 C2.048246 67.35586647 2.048246 67.35586647 0.85409546 66.79710388 C-1.83168627 65.38568447 -3.73200319 64.15089717 -5.78125 61.90356445 C-7.06142491 57.4389041 -6.90237682 53.13244276 -6.765625 48.5168457 C-6.76000549 47.22288376 -6.75438599 45.92892181 -6.74859619 44.5957489 C-6.73483204 41.86541126 -6.69175209 39.13775171 -6.625 36.40820312 C-6.53989552 32.91075593 -6.5073386 29.41540428 -6.4939537 25.91701984 C-6.47848945 22.5749723 -6.43488637 19.23364411 -6.390625 15.8918457 C-6.37787537 14.63559891 -6.36512573 13.37935211 -6.35198975 12.08503723 C-6.32316711 10.92340561 -6.29434448 9.76177399 -6.26464844 8.56494141 C-6.24416443 7.54157181 -6.22368042 6.51820221 -6.20257568 5.46382141 C-5.78125 2.90356445 -5.78125 2.90356445 -4.42486572 1.04370117 C-2.78125 -0.09643555 -2.78125 -0.09643555 0 0 Z M4.21875 14.90356445 C4.21875 28.43356445 4.21875 41.96356445 4.21875 55.90356445 C7.6425 57.88356445 11.06625 59.86356445 14.59375 61.90356445 C15.67188965 62.53004883 16.7500293 63.1565332 17.86083984 63.80200195 C18.70855957 64.28926758 19.5562793 64.7765332 20.4296875 65.27856445 C21.29899902 65.78129883 22.16831055 66.2840332 23.06396484 66.80200195 C25.11221072 68.05529302 25.11221072 68.05529302 27.21875 67.90356445 C27.44182809 62.31707898 27.60480356 56.73320094 27.71313477 51.14331055 C27.75830043 49.24376258 27.81965169 47.34452592 27.89770508 45.44604492 C28.80847198 34.91944076 28.80847198 34.91944076 25.40161133 25.42749023 C23.05388056 23.85078544 20.87174261 22.86350927 18.21875 21.90356445 C17.05795135 21.22492468 15.91087462 20.52174325 14.78515625 19.78637695 C13.79386719 19.20629883 12.80257813 18.6262207 11.78125 18.02856445 C10.77191406 17.43301758 9.76257813 16.8374707 8.72265625 16.22387695 C6.39567774 14.74808819 6.39567774 14.74808819 4.21875 14.90356445 Z " fill="#000000" transform="translate(254.78125,289.096435546875)"/>
<path d="M0 0 C7.5800438 3.17913021 11.5170201 8.77281671 15 16 C16.63854064 20.91562193 16.62188324 25.87622288 16 31 C14.37798091 34.23193357 12.27660215 36.36169892 9 38 C3.1801802 38.60205032 -0.2958872 37.97871151 -5.11328125 34.609375 C-12.04550129 28.69617695 -15.46250981 21.28532019 -16.375 12.3125 C-15.8541062 7.71127139 -14.39917184 4.61442905 -11.375 1.125 C-7.52981859 -0.69640172 -4.16101759 -0.79352739 0 0 Z M-5 11 C-4.59971849 16.80408183 -3.91704067 20.43011922 0 25 C2.60437233 26.41190564 2.60437233 26.41190564 5 27 C6.17470549 23.47588354 5.54710619 22.13653628 4.0234375 18.8515625 C2.3400825 15.80610345 0.43654394 13.49745754 -2 11 C-2.99 11 -3.98 11 -5 11 Z " fill="#000000" transform="translate(299,423)"/>
<path d="M0 0 C6.85198313 2.48068282 10.70462384 7.72360922 14 14 C15.99606572 19.17162481 16.44094014 23.53234223 16 29 C14.6875 31.8125 14.6875 31.8125 13 34 C12.608125 34.5775 12.21625 35.155 11.8125 35.75 C8.76165021 37.85403434 5.60486834 38.19381013 2 38 C-5.30875243 36.02691474 -10.41068362 30.48998479 -14.1015625 24.08984375 C-16.50266154 18.62566043 -16.69074812 12.87596401 -16 7 C-12.8034795 -0.45854783 -7.37389312 -1.02993455 0 0 Z M-5 10 C-5.57915243 15.55986337 -4.58165973 18.69919835 -1.4453125 23.33203125 C0.43541729 25.50249509 2.21664013 26.36380346 5 27 C5.64444881 21.84440956 4.23015034 18.93087465 1.4453125 14.76953125 C-0.40054537 12.50960256 -2.35693508 11.20825825 -5 10 Z " fill="#000000" transform="translate(75,294)"/>
<path d="M0 0 C6.56628423 3.01818679 10.5981557 8.82017904 14 15 C15.09697531 18.29092594 15.2371983 20.91112159 15.3125 24.375 C15.36857422 26.05722656 15.36857422 26.05722656 15.42578125 27.7734375 C14.91277827 31.6609647 13.70926344 33.2258739 11 36 C7.38430709 38.20959011 4.21510112 38.29108853 0.046875 37.5859375 C-5.82926392 35.90383666 -9.10156708 32.24102639 -12.3125 27.1875 C-16.24551976 20.08913546 -17.84099974 14.02149885 -16 6 C-11.75517038 -0.43570942 -7.39718476 -1.10632382 0 0 Z M-5 10 C-5.95681647 12.55151059 -6.2094162 14.36292059 -5.3515625 16.97265625 C-3.28277185 21.39986825 -1.14609642 24.23593572 3 27 C3.66 26.67 4.32 26.34 5 26 C4.58749917 20.49998892 2.50732335 16.19744358 -1 12 C-3.07191308 10.76221078 -3.07191308 10.76221078 -5 10 Z " fill="#000000" transform="translate(162,344)"/>
<path d="M0 0 C2.5625 1.8125 2.5625 1.8125 4 5 C4.87472491 11.40851092 4.75187074 17.52237953 1.390625 23.1796875 C-2.20786231 27.89006695 -6.15742024 32.06489146 -12.1875 33.125 C-16.2851406 32.99065113 -17.91491515 32.64435844 -21 30 C-24.0751112 26.39469721 -24.58646893 23.06821119 -24.41015625 18.46875 C-23.19887361 11.17798211 -19.33584571 5.60079986 -13.6484375 1.05859375 C-9.25888488 -1.76028957 -4.85397143 -1.2178737 0 0 Z M-7 10 C-11.0042343 13.49087093 -12.62671065 15.64951939 -13 21 C-9.82880497 19.90648447 -8.99216457 18.9873012 -7.1875 16.0625 C-5.63634074 13.0279545 -5.63634074 13.0279545 -7 10 Z " fill="#000000" transform="translate(465,363)"/>
<path d="M0 0 C2.8100346 1.79363911 4.50940468 3.01880935 6 6 C6.77119318 13.06192614 6.53465936 18.96621352 2.609375 25.01953125 C-0.70844944 29.10238802 -4.10092082 32.33209862 -9.33984375 33.5390625 C-13.71508036 33.81569976 -15.48620004 33.4067583 -19 30.625 C-22.45120114 26.09529851 -22.74653679 22.59054257 -22 17 C-19.71171677 10.42118573 -16.28627361 5.48184067 -11 1 C-7.28985899 -0.23671367 -3.85561242 -0.56368603 0 0 Z M-6 11 C-9.40027839 14.50331713 -10.54961229 17.15833214 -11 22 C-6.34012809 18.9342948 -5.14514798 16.41342681 -4 11 C-4.66 11 -5.32 11 -6 11 Z " fill="#000000" transform="translate(384,408)"/>
<path d="M0 0 C1 1 1 1 1.46875 4.2890625 C1 8 1 8 -1.71875 10.3359375 C-2.96403104 11.04297385 -4.22601188 11.72110433 -5.5 12.375 C-6.16765381 12.74294678 -6.83530762 13.11089355 -7.52319336 13.48999023 C-8.94221269 14.27092151 -10.36682885 15.04175446 -11.79638672 15.80322266 C-14.0149254 17.00810595 -16.18174187 18.27740746 -18.34765625 19.57421875 C-19.75238231 20.40402151 -21.15732401 21.23345937 -22.5625 22.0625 C-23.21605469 22.45679199 -23.86960937 22.85108398 -24.54296875 23.25732422 C-28.51152332 25.53658923 -31.41908895 26.63904046 -36 26 C-38 24 -38 24 -38.6875 21.25 C-38 18 -38 18 -36.375 16.61401367 C-35.653125 16.15744385 -34.93125 15.70087402 -34.1875 15.23046875 C-33.37047607 14.71178223 -32.55345215 14.1930957 -31.71166992 13.65869141 C-30.81681885 13.11132324 -29.92196777 12.56395508 -29 12 C-28.07614502 11.4332959 -27.15229004 10.8665918 -26.20043945 10.28271484 C-23.256544 8.50849546 -20.28904787 6.78129725 -17.3125 5.0625 C-16.30638672 4.46115234 -15.30027344 3.85980469 -14.26367188 3.24023438 C-12.79704102 2.3962207 -12.79704102 2.3962207 -11.30078125 1.53515625 C-10.42591064 1.023479 -9.55104004 0.51180176 -8.6496582 -0.01538086 C-5.35869397 -1.23831081 -3.35727865 -0.88621113 0 0 Z " fill="#000000" transform="translate(434,389)"/>
<path d="M0 0 C5.27327837 -0.61003663 8.40625719 0.31947581 12.8984375 3.02734375 C14.48205078 3.96803711 14.48205078 3.96803711 16.09765625 4.92773438 C17.17917969 5.59095703 18.26070312 6.25417969 19.375 6.9375 C20.47972656 7.59685547 21.58445313 8.25621094 22.72265625 8.93554688 C30.74747984 13.74747984 30.74747984 13.74747984 32 15 C32.25 18.4375 32.25 18.4375 32 22 C29 24 29 24 26.17504883 23.80932617 C20.49542394 22.36157865 15.72489251 19.23484302 10.6875 16.3125 C9.57826172 15.69955078 8.46902344 15.08660156 7.32617188 14.45507812 C6.27365234 13.84728516 5.22113281 13.23949219 4.13671875 12.61328125 C3.17467529 12.06454346 2.21263184 11.51580566 1.22143555 10.95043945 C-1 9 -1 9 -1.94604492 5.96166992 C-2 3 -2 3 0 0 Z " fill="#000000" transform="translate(207,52)"/>
<path d="M0 0 C3.5864847 1.53311958 6.93180133 3.43624808 10.3125 5.375 C11.23095703 5.88289063 12.14941406 6.39078125 13.09570312 6.9140625 C19.85559722 10.71119444 19.85559722 10.71119444 21 13 C21.25 16 21.25 16 21 19 C18 21 18 21 15.421875 20.9296875 C10.66384737 19.63698136 6.57938927 17.45114066 2.25 15.125 C1.38761719 14.67769531 0.52523438 14.23039062 -0.36328125 13.76953125 C-6.74353057 10.38470415 -6.74353057 10.38470415 -9 7 C-8.75 3.875 -8.75 3.875 -8 1 C-5.01311016 -0.49344492 -3.36831904 -0.38131914 0 0 Z " fill="#000000" transform="translate(396,270)"/>
<path d="M0 0 C3.90270042 1.95135021 5.61756171 2.89767788 7.0625 7.0625 C7 10 7 10 6 11.9375 C2.74802045 13.66511414 0.49350611 12.88817952 -3 12 C-7.90909091 9.09090909 -7.90909091 9.09090909 -10 7 C-10.29044498 4.2407727 -10.3190465 2.56302324 -8.9375 0.125 C-5.7492634 -1.72623416 -3.48031486 -0.88482581 0 0 Z " fill="#000000" transform="translate(413,262)"/>
<path d="M0 0 C4.06411378 1.25049655 7.33747516 2.84406531 10.25 6 C10.8125 9.1875 10.8125 9.1875 10.25 12 C8.25 14 8.25 14 5.625 14.4375 C1.03536187 13.84254691 -2.3778219 12.19732442 -5.75 9 C-6.49943926 5.59345792 -6.36723363 4.06301348 -4.625 1.0625 C-2.75 0 -2.75 0 0 0 Z " fill="#000000" transform="translate(253.75,360)"/>
</svg>
